<?xml version="1.0" encoding="utf-8"?>
<!-- Generator: Adobe Illustrator 22.1.0, SVG Export Plug-In . SVG Version: 6.00 Build 0)  -->
<svg version="1.1" id="Layer_1" xmlns="http://www.w3.org/2000/svg" xmlns:xlink="http://www.w3.org/1999/xlink" x="0px" y="0px"
	 viewBox="0 0 416.1 96.1" style="enable-background:new 0 0 416.1 96.1;" xml:space="preserve">
<style type="text/css">
	.st0{fill:#FFFFFF;}
	.st1{fill:#2DC3EA;}
</style>
<title>winston-fox-logo-rev2</title>
<g>
	<g>
		<path class="st0" d="M140.2,30v1.1c-2,0.4-3.5,2-4.3,4.7l-10.3,33h-0.9l-9.5-28l-8.6,28h-0.9L94.1,34.4c-0.7-2.2-2-3.4-3.7-3.4V30
			h11.7v1.1c-0.7-0.1-1.5,0.1-2.1,0.5c-0.4,0.3-0.6,0.9-0.6,1.4c0.1,0.9,0.3,1.8,0.6,2.6l8,24.4l6.6-21.1l-1.4-4.4
			c-0.8-2.2-1.8-3.4-3.3-3.4V30h12.3v1.1c-1,0-2,0.1-2.9,0.4c-0.5,0.3-0.8,0.9-0.8,1.5c0.1,0.9,0.2,1.8,0.5,2.6l7.9,24.3l6.7-21.1
			c0.5-1.4,0.8-2.9,0.9-4.4c0.1-1-0.3-2-1.1-2.6c-1.1-0.5-2.4-0.8-3.6-0.7V30H140.2L140.2,30z"/>
		<path class="st0" d="M149.4,63.4c-0.1,1.1,0.2,2.2,0.9,3.1c1,0.7,2.1,0.9,3.3,0.8v1.2l-6.6-0.2c-1.1,0-3.3,0-6.6,0.2v-1.2
			c1.5,0,2.6-0.2,3.2-0.8c0.7-0.9,1-2,0.9-3.1V46.3c0.1-1.3-0.2-2.5-0.9-3.6c-0.8-0.9-2-1.3-3.2-1.2v-1.1l3.3,0.2
			c1.9,0,3.9-0.2,5.7-0.8L149.4,63.4z M149,27.9c0.7,0.6,1.1,1.5,1.1,2.4c0,1-0.4,1.9-1.1,2.5c-0.6,0.6-1.5,1-2.4,1
			c-1.9,0.1-3.4-1.4-3.5-3.3c0-0.1,0-0.1,0-0.2c0-0.9,0.4-1.8,1-2.4c0.7-0.7,1.6-1,2.5-1C147.5,26.8,148.3,27.2,149,27.9z"/>
		<path class="st0" d="M180.4,41.7c0.7,0.8,1.2,1.7,1.5,2.7c0.4,1.4,0.5,2.9,0.5,4.4v14.6c-0.1,1.1,0.2,2.2,0.9,3.1
			c0.6,0.6,1.7,0.8,3.2,0.8v1.2l-6.5-0.2c-1.1,0-3.1,0-6.1,0.2v-1.2c1,0.1,2-0.2,2.8-0.8c0.6-0.9,0.8-2,0.7-3.1V47.6
			c0.1-1.6-0.2-3.2-0.8-4.6c-0.6-1.1-1.8-1.6-3.6-1.6c-1.4,0-2.8,0.4-3.9,1.3c-1.2,0.9-2.2,2.2-2.7,3.6c-0.7,1.6-1,3.3-1,5v12.1
			c-0.1,1.1,0.2,2.2,0.8,3.1c0.8,0.6,1.8,0.9,2.8,0.8v1.2l-6.1-0.2l-6.6,0.2v-1.2c1.2,0.1,2.3-0.1,3.3-0.8c0.7-0.9,1-2,0.9-3.1V46.3
			c0.1-1.3-0.2-2.5-0.9-3.6c-0.9-0.9-2.1-1.3-3.3-1.2v-1.1l3.4,0.2c1.9,0,3.9-0.2,5.7-0.8v6.4c0.7-2,2-3.8,3.8-5
			c1.6-1.1,3.5-1.7,5.5-1.6C176.8,39.5,178.9,40.3,180.4,41.7z"/>
		<path class="st0" d="M202.2,40.2c0.9,0.3,1.7,0.8,2.4,1.4c0.3,0.3,0.6,0.4,1,0.5c0.6,0,1-0.8,1.2-2.4h1.2
			c-0.1,1.8-0.2,4.9-0.2,9.3h-1.2c-0.3-2.1-1.1-4.2-2.3-6c-1.2-1.6-3.1-2.4-5.1-2.3c-1.2-0.1-2.4,0.3-3.3,1.1
			c-0.8,0.8-1.3,1.9-1.2,3.1c0,1.2,0.4,2.4,1.3,3.2c1.3,1.1,2.7,2.1,4.2,3l1.5,1c1.4,0.9,2.7,1.9,4,2.9c1,0.8,1.8,1.8,2.5,2.8
			c0.6,1.2,0.9,2.5,0.9,3.8c0.1,2.2-0.9,4.3-2.7,5.6c-1.9,1.4-4.2,2.1-6.6,2c-1.5,0-2.9-0.2-4.3-0.7c-0.8-0.4-1.5-0.9-2.2-1.5
			l-0.5-0.2c-0.3,0-0.5,0.2-0.7,0.5c-0.3,0.5-0.4,1-0.5,1.6h-1.2c0.1-2.1,0.2-5.7,0.2-10.9h1.2c0.2,2.7,1,5.2,2.2,7.6
			c1.1,1.7,2.9,2.5,5.4,2.5c1.2,0,2.4-0.4,3.4-1.2c1.1-1,1.6-2.4,1.5-3.9c0-1.4-0.5-2.7-1.5-3.6c-1.4-1.4-3-2.6-4.7-3.6
			c-1.4-0.8-2.8-1.8-4.1-2.8c-1-0.7-1.8-1.6-2.4-2.6c-0.7-1.1-1-2.4-1-3.7c-0.1-2,0.7-4,2.3-5.3c1.7-1.3,3.7-1.9,5.8-1.8
			C199.9,39.6,201,39.8,202.2,40.2z"/>
		<path class="st0" d="M222.1,40.4h8v1.1h-8v21.1c-0.1,1.3,0.2,2.5,0.9,3.6c0.6,0.7,1.5,1.1,2.5,1.1c1.1,0,2.2-0.5,2.9-1.4
			c1-1.3,1.7-2.9,2.1-4.5l1,0.3c-0.9,5-3.2,7.5-7,7.5c-1,0-2.1-0.1-3.1-0.4c-0.8-0.3-1.5-0.8-2.1-1.4c-0.8-0.8-1.4-1.8-1.7-2.9
			c-0.4-1.5-0.5-3.1-0.5-4.7V41.5h-5.2v-1.1h5.2v-8.3c1.7,0,3.4-0.3,5-0.8L222.1,40.4z"/>
		<path class="st0" d="M254.9,43.3c2.3,2.5,3.4,6.2,3.4,11.2s-1.1,8.7-3.4,11.1c-2.4,2.4-5.6,3.7-9,3.6c-3.3,0.2-6.6-1.2-8.9-3.6
			c-2.3-2.4-3.4-6.2-3.4-11.1s1.1-8.7,3.4-11.2c2.3-2.5,5.5-3.8,8.9-3.7C249.2,39.6,252.5,40.9,254.9,43.3z M240.8,44.1
			c-1.3,2.2-1.9,5.7-1.9,10.4s0.6,8.1,1.9,10.3c0.9,2,2.9,3.3,5.1,3.3c2.2,0,3.9-1.1,5.2-3.3c1.3-2.2,1.9-5.6,1.9-10.3
			s-0.6-8.2-1.9-10.4c-1.3-2.2-3-3.4-5.2-3.4C243.6,40.8,241.6,42.1,240.8,44.1L240.8,44.1z"/>
		<path class="st0" d="M286.5,41.7c0.7,0.8,1.2,1.7,1.4,2.7c0.4,1.4,0.5,2.9,0.5,4.4v14.6c-0.1,1.1,0.2,2.2,0.9,3.1
			c0.6,0.6,1.7,0.8,3.2,0.8v1.2l-6.5-0.2c-1,0-3.1,0-6.1,0.2v-1.2c1,0.1,2-0.2,2.8-0.8c0.6-0.9,0.9-2,0.8-3.1V47.6
			c0.1-1.6-0.2-3.2-0.9-4.6c-0.6-1.1-1.8-1.6-3.6-1.6c-1.4,0-2.8,0.4-3.9,1.3c-1.2,0.9-2.2,2.2-2.7,3.6c-0.7,1.6-1,3.3-1,5v12.1
			c-0.1,1.1,0.2,2.2,0.8,3.1c0.8,0.6,1.8,0.9,2.8,0.8v1.2c-3-0.2-5.1-0.2-6.1-0.2l-6.5,0.2v-1.2c1.5,0,2.6-0.2,3.2-0.8
			c0.7-0.9,1-2,0.9-3.1V46.3c0.1-1.3-0.2-2.5-0.9-3.6c-0.8-0.9-2-1.3-3.2-1.2v-1.1l3.3,0.2c1.9,0,3.9-0.2,5.7-0.8v6.4
			c0.7-2,2-3.8,3.8-5c1.6-1.1,3.5-1.7,5.5-1.6C282.9,39.5,285,40.3,286.5,41.7z"/>
		<path class="st1" d="M336,36.8c0,1.9,0.1,3.4,0.2,4.5h-1.3c-0.1-2.1-0.4-4.2-1-6.2c-0.4-1.3-1.2-2.3-2.3-3c-1.6-0.8-3.3-1.1-5.1-1
			h-3.4c-1,0-2,0.1-2.9,0.3c-0.6,0.2-1,0.6-1.2,1.2c-0.2,1-0.3,2-0.3,3v13.5h4c1,0.1,2.1-0.3,2.9-0.9c0.7-0.6,1.2-1.3,1.4-2.2
			c0.2-0.8,0.4-1.8,0.6-3v-1.1h1.3c-0.1,1.5-0.2,3.2-0.2,5.1v2.6c0,1.9,0.1,4.4,0.4,7.8h-1.2c0-0.3-0.1-1.2-0.3-2.7
			c-0.1-1.3-0.6-2.5-1.5-3.4c-0.9-0.8-2.2-1.2-3.4-1.1h-4v12.5c-0.1,1,0.1,2,0.4,3c0.3,0.6,0.9,1.1,1.6,1.3c1.2,0.2,2.3,0.4,3.5,0.4
			v1.1l-8-0.2l-7,0.2v-1.1c1,0,1.9-0.2,2.9-0.4c0.6-0.2,1-0.7,1.2-1.3c0.2-1,0.3-2,0.3-3V35.6c0-1-0.1-2-0.3-3
			c-0.2-0.6-0.6-1-1.2-1.2c-0.9-0.3-1.9-0.4-2.9-0.4V30h27.2C336.2,32.5,336,34.8,336,36.8z"/>
		<path class="st1" d="M360.5,43.3c2.3,2.5,3.5,6.2,3.5,11.2s-1.2,8.7-3.5,11.1c-2.3,2.4-5.5,3.8-8.9,3.6c-3.4,0.1-6.6-1.2-9-3.6
			c-2.3-2.4-3.4-6.2-3.4-11.1s1.1-8.7,3.4-11.2c2.3-2.4,5.6-3.8,9-3.7C355,39.5,358.2,40.9,360.5,43.3z M346.4,44.1
			c-1.3,2.2-1.9,5.7-1.9,10.4s0.6,8.1,1.9,10.3c1.3,2.2,3,3.3,5.2,3.3s3.9-1.1,5.2-3.3c1.3-2.2,1.9-5.6,1.9-10.3s-0.7-8.2-1.9-10.4
			c-1.2-2.2-3-3.4-5.2-3.4S347.7,41.8,346.4,44.1z"/>
		<path class="st1" d="M391.5,66.5c0.5,0.4,1.1,0.7,1.7,0.8v1.2c-1.3-0.1-2.6-0.2-3.9-0.2c-1.2,0-3.4,0-6.4,0.2v-1.2
			c0.5,0,1-0.1,1.5-0.3c0.4-0.2,0.6-0.5,0.6-0.9c0-0.2-0.1-0.4-0.2-0.6l-6.2-9.1l-4,5.2c-0.8,0.9-1.3,2.1-1.5,3.3
			c0,0.7,0.4,1.4,1,1.8c0.9,0.4,2,0.7,3,0.7v1.1l-6.2-0.2l-4.2,0.2v-1.1c0.8-0.1,1.6-0.4,2.2-1c1-0.8,1.9-1.7,2.6-2.8l6.3-8.3
			l-7.6-11c-0.5-0.8-1-1.5-1.7-2.1c-0.5-0.4-1.1-0.6-1.7-0.7v-1.1l3.9,0.2l6.5-0.2v1.1c-0.5,0-1.1,0.1-1.5,0.4
			c-0.5,0.2-0.7,0.5-0.7,0.8c0,0.2,0.1,0.5,0.2,0.7l5.9,8.5l3.7-5.3c1.1-1.6,1.7-2.7,1.7-3.4c0-0.5-0.3-1-0.8-1.2
			c-0.7-0.3-1.5-0.5-2.3-0.5v-1.1l4.5,0.2l4.2-0.2v1.1c-1.5,0.2-3.1,1.4-4.8,3.8l-5.5,7.6l8,11.7C390.3,65.4,390.9,66,391.5,66.5z"
			/>
	</g>
	<g>
		<path class="st1" d="M74.9,61.9h-52l-0.3-0.2c-0.1-0.2-0.1-0.3,0-0.4l26-31.6c0.1-0.2,0.4-0.2,0.6,0l26,31.6c0,0.1,0.1,0.2,0,0.4
			L74.9,61.9z M23.7,61.1h50.4L48.9,30.6L23.7,61.1z"/>
		<path class="st1" d="M48.9,82.7h-0.3L22.7,61.8c-0.1-0.1-0.2-0.2-0.2-0.4c0.1-0.2,0.2-0.3,0.4-0.3h52c0.2,0,0.3,0.1,0.3,0.3
			c0,0,0,0,0,0c0.1,0.1,0,0.3-0.1,0.4l-26,20.8L48.9,82.7z M24,61.9l24.9,19.9l24.9-19.9H24z"/>
		<path class="st1" d="M22.9,61.9L22.9,61.9c-0.3-0.1-0.4-0.2-0.4-0.4l4.3-47.9l0.2-0.3h0.4l21.7,16.3l0.2,0.3
			c0,0.1-0.1,0.2-0.1,0.3l-26,31.5L22.9,61.9z M27.5,14.5l-4.1,45.9l24.9-30.3L27.5,14.5z"/>
		<path class="st1" d="M74.9,61.9l-0.3-0.2l-26-31.5c0-0.1-0.1-0.2-0.1-0.3l0.2-0.3l21.7-16.2h0.4l0.2,0.3l4.3,47.9
			C75.3,61.8,75.2,62,74.9,61.9L74.9,61.9z M49.5,30.1l24.9,30.3l-4.1-45.9L49.5,30.1z"/>
		<rect x="48.5" y="30" class="st1" width="0.8" height="52.4"/>
		<rect x="37.7" y="12" transform="matrix(0.9532 -0.3024 0.3024 0.9532 -12.7327 13.761)" class="st1" width="0.7" height="72"/>
		<rect x="23.8" y="47.7" transform="matrix(0.3024 -0.9532 0.9532 0.3024 -4.0847 90.5241)" class="st1" width="72" height="0.7"/>
		<path class="st1" d="M52.4,27.6l-3.5-2.5l-3.4,2.5L45,27l3.7-2.6c0.1-0.1,0.3-0.1,0.4,0l3.7,2.6L52.4,27.6z"/>
	</g>
</g>
</svg>
