<svg version="1.1" id="Layer_1" xmlns="http://www.w3.org/2000/svg" xmlns:xlink="http://www.w3.org/1999/xlink" x="0" y="0" width="255" height="74.2" xml:space="preserve"><style>.st0{clip-path:url(#SVGID_2_)}.st1{clip-path:url(#SVGID_4_);fill:#fff}</style><defs><path id="SVGID_1_" d="M0 0h255v74.2H0z"/></defs><clipPath id="SVGID_2_"><use xlink:href="#SVGID_1_" overflow="visible"/></clipPath><g class="st0"><defs><path id="SVGID_3_" d="M-27.1-27.5h309.6V98.8H-27.1z"/></defs><clipPath id="SVGID_4_"><use xlink:href="#SVGID_3_" overflow="visible"/></clipPath><path class="st1" d="M70.8 44.8c-1.3.2-3.1.5-7 .5-4.7 0-8.8-1.2-8.8-7.8v-12c0-6.6 4.1-7.7 8.8-7.7 3.9 0 5.7.3 7 .5.5.1.7.3.7.7v3.4c0 .4-.3.7-.7.7h-7.3c-1.7 0-2.3.6-2.3 2.5v3.3h9.3c.4 0 .7.3.7.7V33c0 .4-.3.7-.7.7h-9.3v3.8c0 1.9.6 2.5 2.3 2.5h7.3c.4 0 .7.3.7.7V44c.1.5-.2.7-.7.8m24.4.1h-3.5c-.8 0-1.3-.1-1.9-1.1l-8.2-14.2c-.1-.2-.2-.3-.3-.3-.1 0-.2.1-.2.3v14.6c0 .4-.3.7-.7.7h-4.3c-.4 0-.7-.3-.7-.7V19.5c0-.8.6-1.4 1.4-1.4h3.6c.7 0 1.1.4 1.5 1.1l8.6 14.9c.1.2.2.3.3.3.1 0 .2-.1.2-.3V18.8c0-.4.3-.7.7-.7H96c.4 0 .7.3.7.7v24.8c-.1.7-.7 1.3-1.5 1.3m22.6-21.7H112v21c0 .4-.3.7-.7.7h-4.7c-.4 0-.7-.3-.7-.7v-21H100c-.4 0-.7-.3-.7-.7v-3.7c0-.4.3-.7.7-.7h17.9c.4 0 .8.3.8.7v3.7c-.1.4-.5.7-.9.7m18.3 21.6c-1.3.2-3.1.5-7 .5-4.7 0-8.8-1.2-8.8-7.8v-12c0-6.6 4.1-7.7 8.8-7.7 3.9 0 5.7.3 7 .5.5.1.7.3.7.7v3.4c0 .4-.3.7-.7.7h-7.3c-1.7 0-2.3.6-2.3 2.5v3.3h9.3c.4 0 .7.3.7.7V33c0 .4-.3.7-.7.7h-9.3v3.8c0 1.9.6 2.5 2.3 2.5h7.3c.4 0 .7.3.7.7V44c0 .5-.2.7-.7.8m24.7.1h-5.5c-.4 0-.5-.4-.7-.7l-4.8-9.1h-.4c-.8 0-1.9-.1-2.6-.1v9.2c0 .4-.3.7-.7.7h-4.7c-.4 0-.7-.3-.7-.7V20c0-1.2.5-1.6 1.6-1.7 1.7-.3 4.7-.5 7.3-.5 6.1 0 10.9 2.1 10.9 8.4v.5c0 3.8-2 6.2-4.7 7.2l5.4 10.2c.1.1.1.3.1.4.1.2-.1.4-.5.4m-6.5-18.7c0-2.2-1.7-3.2-4.7-3.2-.5 0-2.4.1-2.8.1V30c.4 0 2.2.1 2.6.1 3.8 0 5-1 5-3.4v-.5zm18.7 9.3c-.9 0-2-.1-2.9-.1v8.8c0 .4-.3.7-.7.7h-4.7c-.4 0-.7-.3-.7-.7V20c0-1.2.5-1.6 1.6-1.7 1.8-.3 4.7-.5 7.3-.5 5.4 0 10.8 1.9 10.8 8.7v.3c0 6.8-5.3 8.7-10.7 8.7m4.6-9c0-2.6-1.6-3.6-4.6-3.6-.5 0-2.5.1-2.9.1v7.4c.4 0 2.5.1 2.9.1 3.2 0 4.6-1.2 4.6-3.6v-.4zm28.7 18.4h-5.5c-.4 0-.5-.4-.7-.7l-4.8-9.1h-.4c-.8 0-1.9-.1-2.6-.1v9.2c0 .4-.3.7-.7.7h-4.7c-.4 0-.7-.3-.7-.7V20c0-1.2.5-1.6 1.6-1.7 1.7-.3 4.7-.5 7.3-.5 6.1 0 10.9 2.1 10.9 8.4v.5c0 3.8-2 6.2-4.7 7.2l5.4 10.2c.1.1.1.3.1.4 0 .2-.2.4-.5.4m-6.5-18.7c0-2.2-1.7-3.2-4.7-3.2-.5 0-2.4.1-2.8.1V30c.4 0 2.2.1 2.6.1 3.8 0 5-1 5-3.4v-.5zm14.7 18.7h-4.8c-.4 0-.6-.3-.6-.7V18.8c0-.4.3-.7.6-.7h4.8c.4 0 .7.3.7.7v25.4c0 .4-.3.7-.7.7m11.7.4c-2.9 0-5-.3-6.8-.8-.4-.1-.7-.3-.7-.7v-3.5c0-.5.3-.7.6-.7h.1c1.5.1 5.4.4 6.9.4 2.5 0 3.2-.8 3.2-2.5 0-1-.5-1.6-2.4-2.7l-5-3c-3.4-2-4.3-4.3-4.3-6.9 0-4 2.2-7 9.2-7 2.6 0 6.3.4 7.7.8.3.1.5.3.5.7V23c0 .3-.1.6-.6.6h-.1c-1-.1-5.2-.4-7.7-.4-2.1 0-2.8.6-2.8 1.9 0 1 .5 1.5 2.4 2.5l4.6 2.5c3.8 2 4.9 4.4 4.9 7.3.1 3.8-2.4 7.9-9.7 7.9m28.1-.5c-1.3.2-3.1.5-7 .5-4.7 0-8.8-1.2-8.8-7.8v-12c0-6.6 4.2-7.7 8.8-7.7 3.9 0 5.7.3 7 .5.5.1.7.3.7.7v3.4c0 .4-.3.7-.7.7H247c-1.7 0-2.3.6-2.3 2.5v3.3h9.3c.4 0 .7.3.7.7V33c0 .4-.3.7-.7.7h-9.3v3.8c0 1.9.6 2.5 2.3 2.5h7.3c.4 0 .7.3.7.7V44c0 .5-.2.7-.7.8M17.5 6.7L9.9 1C7.9-.3 5.4-.4 3.4.7 1.3 1.9 0 4 0 6.4v50.3c0 2.5 1.4 4.7 3.7 5.8 2.2 1.1 4.9.7 6.8-.8l12.1-9.1c-4-.4-7-1.7-9.5-4.1-3.9-3.9-5.2-8.6-5.2-19.4 0-13.2 2.9-20.2 9.6-22.4"/><path class="st1" d="M18.7 25.2h10.4v-3.5c0-6.4-1.6-9.3-5.3-9.3-3.4 0-5.1 2.7-5.1 8.1v4.7zm25.7 11c1.6-1.4 2.4-3.2 2.3-5.3-.1-2-1.2-3.9-2.9-5l-6-4.4c.2 1.6.3 3.2.3 5.1v1.2c0 2.7-.2 4-4.2 4H18.7v5.5c0 5 3 7.9 8.1 7.9 2.6 0 5-.7 8.1-2.3 1.2-.6 2.1-1.2 3.2-2 .1-.1 4.7-3.3 6.3-4.7m-2.9 5.6h-2.2v.4h.8v2.2h.6v-2.2h.8zm2.9 2.6v-2.6h-.8l-.5 1.8-.5-1.8h-.8v2.6h.5v-2.1l.5 2.1h.5l.6-2.1v2.1z"/></g><g class="st0"><defs><path id="SVGID_5_" d="M-27.1-27.5h309.6V98.8H-27.1z"/></defs><clipPath id="SVGID_6_"><use xlink:href="#SVGID_5_" overflow="visible"/></clipPath><path d="M55.3 57.8h4.4c2.9 0 4.9 1.2 4.9 3.9v.1c0 2.1-1.3 3.1-2.9 3.5l3.7 5.7h-2.6l-3.4-5.3h-1.6V71h-2.4V57.8zm4.5 6c1.6 0 2.5-.7 2.5-2.1v-.1c0-1.5-.9-2-2.5-2h-2v4.2h2zm6.3 2.4V66c0-3 2-5 4.8-5 2.4 0 4.5 1.4 4.5 4.9v.6h-7c.1 1.8 1 2.9 2.6 2.9 1.3 0 2-.5 2.2-1.5h2.2c-.3 2-1.9 3.1-4.4 3.1-2.9.1-4.9-1.8-4.9-4.8m7.1-1.1c-.1-1.7-1-2.4-2.3-2.4-1.3 0-2.2.9-2.5 2.4h4.8zm3.4 1.1v-.1c0-3.1 2.2-5 4.9-5 2.1 0 4.1 1 4.4 3.6h-2.2c-.2-1.3-1-1.8-2.2-1.8-1.5 0-2.6 1.2-2.6 3.2v.1c0 2.1 1 3.2 2.7 3.2 1.2 0 2.2-.7 2.3-2.1h2c-.2 2.2-1.8 3.8-4.5 3.8s-4.8-1.8-4.8-4.9m10.9-4.9h2.2v1.8c.6-1.2 1.5-1.9 3.1-2v2.1c-1.9 0-3.1.6-3.1 2.7v5h-2.2v-9.6zm6.8 6.1v-6.2h2.2v5.9c0 1.5.6 2.1 1.9 2.1 1.2 0 2.2-.8 2.2-2.3v-5.7h2.2v9.6h-2.2v-1.5c-.5.9-1.5 1.7-3.1 1.7-1.8.1-3.2-1-3.2-3.6m10.6-9c0-.7.6-1.3 1.3-1.3.7 0 1.3.6 1.3 1.3 0 .7-.6 1.3-1.3 1.3-.7 0-1.3-.6-1.3-1.3m.2 2.9h2.2v9.6h-2.2v-9.6zm4.9 6.9V63h-1.3v-1.7h1.3v-2.1h2.2v2.1h2.1V63h-2.1v5c0 .8.4 1.2 1.1 1.2.4 0 .8-.1 1.1-.2v1.8c-.3.1-.8.2-1.5.2-1.9.1-2.9-1-2.9-2.8m6-6.9h2.2v1.5c.5-.9 1.5-1.7 2.9-1.7 1.3 0 2.2.5 2.7 1.7.7-1.2 2.1-1.7 3.3-1.7 1.8 0 3.2 1.1 3.2 3.7v6.1h-2.2V65c0-1.4-.6-2-1.7-2s-2.1.7-2.1 2.2V71H122v-6c0-1.4-.6-2-1.7-2s-2.1.7-2.1 2.2V71H116v-9.7zm16 4.9V66c0-3 2-5 4.8-5 2.4 0 4.5 1.4 4.5 4.9v.6h-7c.1 1.8 1 2.9 2.6 2.9 1.3 0 2-.5 2.2-1.5h2.2c-.3 2-1.9 3.1-4.4 3.1-2.9.1-4.9-1.8-4.9-4.8m7.1-1.1c-.1-1.7-1-2.4-2.3-2.4-1.3 0-2.2.9-2.5 2.4h4.8zm4-3.8h2.2v1.5c.5-.9 1.5-1.7 3.1-1.7 1.9 0 3.3 1.1 3.3 3.8V71h-2.2v-5.8c0-1.5-.6-2.1-1.9-2.1-1.3 0-2.3.8-2.3 2.3v5.7h-2.2v-9.8zm11.1 6.9V63h-1.3v-1.7h1.3v-2.1h2.2v2.1h2.1V63h-2.1v5c0 .8.4 1.2 1.1 1.2.4 0 .8-.1 1.1-.2v1.8c-.3.1-.8.2-1.5.2-1.9.1-2.9-1-2.9-2.8m17 0l2.2 2.7h-2.8l-1.1-1.3c-.8.8-1.9 1.5-3.6 1.5-2.6 0-4.3-1.5-4.3-3.8 0-1.9 1.2-3.1 3-3.9-.7-.9-1-1.8-1-2.6 0-2.1 1.7-3.2 3.6-3.2 1.8 0 3.3 1.1 3.3 2.9 0 1.5-1 2.6-2.7 3.3l2.3 2.8 1.3-2.6h2l-2.2 4.2zm-2.9-.1l-2.8-3.4c-1 .5-1.7 1.1-1.7 2.3 0 1.3.8 2.2 2.3 2.2.9 0 1.6-.3 2.2-1.1m-1.7-5.3c1.2-.6 1.7-1.2 1.7-2.2 0-.8-.5-1.3-1.3-1.3s-1.5.5-1.5 1.6c.1.5.5 1.1 1.1 1.9m10.7-5.1h4.2c2.9 0 4.9 1.3 4.9 4.1v.1c0 2.8-2 4-4.8 4h-1.8v5h-2.4V57.7zm4.3 6.4c1.6 0 2.5-.8 2.5-2.2v-.1c0-1.6-.9-2.2-2.5-2.2h-1.8v4.5h1.8zm5.7 2.1V66c0-3 2-5 4.8-5 2.4 0 4.5 1.4 4.5 4.9v.6h-7c.1 1.8 1 2.9 2.6 2.9 1.3 0 2-.5 2.2-1.5h2.2c-.3 2-1.9 3.1-4.4 3.1-2.9.1-4.9-1.8-4.9-4.8m7.1-1.1c-.1-1.7-1-2.4-2.3-2.4-1.3 0-2.2.9-2.5 2.4h4.8zm3.4 1.1V66c0-3 2.1-5 4.9-5 2.8 0 4.9 2 4.9 4.9v.1c0 3-2.1 4.9-4.9 4.9-2.8.2-4.9-1.8-4.9-4.7m7.6 0V66c0-2-1-3.2-2.6-3.2-1.7 0-2.7 1.2-2.7 3.2v.1c0 2 1 3.2 2.7 3.2 1.6.1 2.6-1.2 2.6-3.1m3.9-4.9h2.2v1.5c.5-.9 1.7-1.7 3.1-1.7 2.4 0 4.3 1.8 4.3 4.9v.1c0 3.1-1.8 5-4.3 5-1.5 0-2.6-.8-3.1-1.7v4.8h-2.2V61.3zm7.4 4.9V66c0-2.1-1.1-3.2-2.6-3.2s-2.6 1-2.6 3.2v.1c0 2.2 1 3.2 2.7 3.2 1.6 0 2.5-1.1 2.5-3.1m4.1-9.4h2.2v14.1h-2.2zm4 9.4V66c0-3 2-5 4.8-5 2.4 0 4.5 1.4 4.5 4.9v.6h-7c.1 1.8 1 2.9 2.6 2.9 1.3 0 2-.5 2.2-1.5h2.2c-.3 2-1.9 3.1-4.4 3.1-2.9.1-4.9-1.8-4.9-4.8m7.1-1.1c-.1-1.7-1-2.4-2.3-2.4-1.3 0-2.2.9-2.5 2.4h4.8z" clip-path="url(#SVGID_6_)" fill="#fff"/></g></svg>