<?xml version="1.0" encoding="utf-8"?>
<!-- Generator: Adobe Illustrator 23.0.1, SVG Export Plug-In . SVG Version: 6.00 Build 0)  -->
<svg version="1.1" id="Layer_1" xmlns="http://www.w3.org/2000/svg" xmlns:xlink="http://www.w3.org/1999/xlink" x="0px" y="0px"
	 viewBox="0 0 41.1 41.1" style="enable-background:new 0 0 41.1 41.1;" xml:space="preserve">
<style type="text/css">
	.st0{fill:#0088CF;}
	.st1{fill:#FFFFFF;}
</style>
<g>
	<g>
		<path class="st0" d="M20.5,41C9.2,41,0.1,31.9,0.1,20.5S9.2,0.1,20.5,0.1C31.9,0.1,41,9.2,41,20.5S31.9,41,20.5,41z"/>
	</g>
	<g>
		<path class="st1" d="M28.8,33.3c-0.2,0-0.4-0.1-0.6-0.2l-7.7-5.6l-7.7,5.6c-0.3,0.3-0.8,0.3-1.2,0c-0.3-0.3-0.5-0.7-0.4-1.1
			l2.9-9.1l-7.7-5.6c-0.3-0.3-0.5-0.7-0.4-1.1c0.1-0.4,0.5-0.7,0.9-0.7h9.5l2.9-9.1c0.3-0.8,1.6-0.8,1.9,0l2.9,9.1H34
			c0.4,0,0.8,0.3,0.9,0.7c0.1,0.4,0,0.9-0.4,1.1L26.8,23l2.9,9.1c0.1,0.4,0,0.9-0.4,1.1C29.3,33.3,29.1,33.3,28.8,33.3z"/>
	</g>
</g>
</svg>
