<?xml version="1.0" encoding="utf-8"?>
<!-- Generator: Adobe Illustrator 23.0.1, SVG Export Plug-In . SVG Version: 6.00 Build 0)  -->
<svg version="1.1" id="Layer_1" xmlns="http://www.w3.org/2000/svg" xmlns:xlink="http://www.w3.org/1999/xlink" x="0px" y="0px"
	 viewBox="0 0 56 56" style="enable-background:new 0 0 56 56;" xml:space="preserve">
<style type="text/css">
	.st0{fill:#0088CF;}
	.st1{fill:#FFFFFF;}
</style>
<g>
	<g>
		<path class="st0" d="M28,56C12.6,56,0,43.4,0,28S12.6,0,28,0c15.4,0,28,12.5,28,28S43.4,56,28,56z"/>
	</g>
	<g>
		<path class="st1" d="M39.3,45.4c-0.3,0-0.6-0.1-0.8-0.3L28,37.5l-10.5,7.6c-0.5,0.3-1.1,0.3-1.6,0c-0.5-0.3-0.7-1-0.5-1.5l4-12.4
			L8.9,23.6c-0.5-0.3-0.7-1-0.5-1.5c0.2-0.6,0.7-0.9,1.3-0.9h13l4-12.4c0.4-1.1,2.2-1.1,2.6,0l4,12.4h13c0.6,0,1.1,0.4,1.3,0.9
			c0.2,0.6,0,1.2-0.5,1.5l-10.5,7.6l4,12.4c0.2,0.6,0,1.2-0.5,1.5C39.9,45.3,39.6,45.4,39.3,45.4z"/>
	</g>
</g>
</svg>
