<?xml version="1.0" encoding="utf-8"?>
<!-- Generator: Adobe Illustrator 23.0.3, SVG Export Plug-In . SVG Version: 6.00 Build 0)  -->
<svg version="1.1" id="Layer_1" xmlns="http://www.w3.org/2000/svg" xmlns:xlink="http://www.w3.org/1999/xlink" x="0px" y="0px"
	 viewBox="0 0 105 35" style="enable-background:new 0 0 105 35;" xml:space="preserve">
<style type="text/css">
	.st0{fill-rule:evenodd;clip-rule:evenodd;fill:#E61977;}
	.st1{filter:url(#Adobe_OpacityMaskFilter);}
	.st2{fill-rule:evenodd;clip-rule:evenodd;fill:#FFFFFF;}
	.st3{mask:url(#mask-2_1_);fill-rule:evenodd;clip-rule:evenodd;fill:#FFFFFF;}
</style>
<title>seek</title>
<desc>Created with Sketch.</desc>
<g id="Homepage">
	<g id="Artboard" transform="translate(-283.000000, -117.000000)">
		<g id="seek" transform="translate(283.000000, 117.000000)">
			<g id="Linkedin-Copy">
				<rect id="Rectangle" class="st0" width="105" height="35"/>
			</g>
			<g>
				<g id="Group-3" transform="translate(20.000000, 6.000000)">
					<g id="Clip-2">
					</g>
					<defs>
						<filter id="Adobe_OpacityMaskFilter" filterUnits="userSpaceOnUse" x="-3" y="0" width="23" height="23">
							<feColorMatrix  type="matrix" values="1 0 0 0 0  0 1 0 0 0  0 0 1 0 0  0 0 0 1 0"/>
						</filter>
					</defs>
					<mask maskUnits="userSpaceOnUse" x="-3" y="0" width="23" height="23" id="mask-2_1_">
						<g class="st1">
							<polygon id="path-1_1_" class="st2" points="-3,0 20,0 20,23 -3,23 							"/>
						</g>
					</mask>
					<path id="Fill-1" class="st3" d="M16.3,12.5c-0.7-0.3-0.7-1.4,0-1.7c0.6-0.3,1.4,0.2,1.4,0.9C17.8,12.3,17,12.9,16.3,12.5z
						 M15.1,9.5c-0.2,0.7-1.2,0.8-1.6,0.2c-0.4-0.4-0.1-1.2,0.4-1.4C14.6,8.1,15.4,8.8,15.1,9.5z M15.2,11.7c0,0.7-1,1.2-1.5,0.7
						c-0.5-0.4-0.3-1.3,0.3-1.5C14.5,10.6,15.2,11,15.2,11.7z M13.8,14.8c-0.6-0.3-0.5-1.2,0-1.5c0.6-0.3,1.4,0.1,1.3,0.8
						C15.2,14.8,14.3,15.2,13.8,14.8z M12.6,6.9c0,0.6-0.8,1-1.3,0.6c-0.4-0.3-0.4-1.1,0.1-1.3C11.9,5.8,12.7,6.2,12.6,6.9z
						 M11.4,8.6c0.5-0.4,1.3,0.1,1.2,0.7c0,0.6-0.8,1-1.3,0.6C10.9,9.6,10.9,8.8,11.4,8.6z M12.6,11.7c0,0.6-0.8,1-1.3,0.6
						c-0.4-0.3-0.4-1.1,0.1-1.3C11.9,10.6,12.7,11.1,12.6,11.7z M12.6,16.5c0,0.6-0.8,1-1.3,0.6c-0.4-0.3-0.4-1.1,0.1-1.3
						C11.9,15.4,12.7,15.9,12.6,16.5z M11.4,13.4c0.5-0.4,1.3,0.1,1.2,0.7c0,0.6-0.8,1-1.3,0.6C10.9,14.4,10.9,13.6,11.4,13.4z
						 M10.1,9.5C9.9,10,9.3,10.1,9,9.7C8.6,9.4,8.8,8.7,9.3,8.5C9.8,8.3,10.4,9,10.1,9.5z M9.1,17.1c-0.5-0.3-0.4-1.1,0.1-1.3
						c0.4-0.2,0.9,0.1,1,0.6C10.3,17,9.6,17.4,9.1,17.1z M9.1,19.5c-0.5-0.3-0.4-1.1,0.1-1.3c0.4-0.1,0.9,0.1,1,0.6
						C10.3,19.4,9.6,19.9,9.1,19.5z M9.1,11c0.5-0.3,1.1,0.1,1.1,0.6c0,0.5-0.7,0.9-1.1,0.6C8.6,12,8.7,11.2,9.1,11z M9.1,13.4
						c0.4-0.2,1,0,1.1,0.5c0.1,0.6-0.6,1.1-1.1,0.7C8.6,14.4,8.7,13.7,9.1,13.4z M10.2,6.9c-0.1,0.5-0.7,0.8-1.1,0.5
						C8.6,7.1,8.7,6.2,9.3,6.1C9.8,5.9,10.3,6.4,10.2,6.9z M9.3,3.7c0.5-0.2,1.1,0.4,0.9,0.9c-0.1,0.5-1,0.7-1.3,0.2
						C8.6,4.5,8.8,3.8,9.3,3.7z M7.8,11.9c-0.2,0.4-0.9,0.4-1.1,0c-0.2-0.3-0.1-0.8,0.2-0.9C7.5,10.7,8.2,11.4,7.8,11.9z M7.9,14.1
						c0,0.5-0.6,0.8-1,0.5c-0.4-0.2-0.3-0.9,0-1.1C7.3,13.2,7.9,13.6,7.9,14.1z M5.9,11.7c0,0.4-0.6,0.7-0.9,0.4
						c-0.3-0.2-0.2-0.8,0.2-0.9C5.5,11,6,11.3,5.9,11.7z M5.9,14.1c0,0.4-0.6,0.7-0.9,0.4c-0.3-0.2-0.2-0.8,0.2-0.9
						C5.5,13.4,6,13.7,5.9,14.1z M5,8.8C5.3,8.6,5.7,8.7,5.9,9c0.2,0.3-0.1,0.8-0.4,0.8C4.9,9.8,4.6,9.1,5,8.8z M3.6,9.7
						c-0.3,0-0.5-0.2-0.5-0.5c0-0.3,0.2-0.5,0.5-0.5S4.1,9,4.1,9.2C4.1,9.5,3.9,9.7,3.6,9.7z M3.6,12.1c-0.3,0-0.5-0.2-0.5-0.5
						c0-0.3,0.2-0.5,0.5-0.5s0.5,0.2,0.5,0.5C4.1,11.9,3.9,12.1,3.6,12.1z M3.6,14.5c-0.3,0-0.5-0.2-0.5-0.5c0-0.3,0.2-0.5,0.5-0.5
						c0.3,0,0.5,0.2,0.5,0.5C4.1,14.3,3.9,14.5,3.6,14.5z M2.1,14.5c-0.2,0-0.4-0.2-0.4-0.4c0-0.2,0.2-0.4,0.4-0.4
						c0.2,0,0.4,0.2,0.4,0.4C2.5,14.3,2.3,14.5,2.1,14.5z M2.1,11.3c0.2,0,0.4,0.2,0.4,0.4S2.3,12,2.1,12c-0.2,0-0.4-0.2-0.4-0.4
						S1.9,11.3,2.1,11.3z M2.1,8.9c0.2,0,0.4,0.2,0.4,0.4c0,0.2-0.2,0.4-0.4,0.4c-0.2,0-0.4-0.2-0.4-0.4C1.7,9,1.9,8.9,2.1,8.9z
						 M0.6,9.5c-0.2,0-0.3-0.1-0.3-0.3c0-0.2,0.1-0.3,0.3-0.3C0.8,8.9,1,9,1,9.2C1,9.4,0.8,9.5,0.6,9.5z M0.6,11.9
						c-0.2,0-0.3-0.1-0.3-0.3c0-0.2,0.1-0.3,0.3-0.3c0.2,0,0.3,0.1,0.3,0.3C1,11.8,0.8,11.9,0.6,11.9z M0.6,14.4
						c-0.2,0-0.3-0.1-0.3-0.3c0-0.2,0.1-0.3,0.3-0.3c0.2,0,0.3,0.1,0.3,0.3C0.9,14.3,0.8,14.4,0.6,14.4z M6.9,8.7
						c0.4-0.3,1,0.1,1,0.6c0,0.5-0.6,0.8-1,0.5C6.5,9.5,6.5,8.9,6.9,8.7z M-0.4,11.8c-0.1,0.2-0.5,0-0.4-0.2
						C-0.6,11.3-0.2,11.5-0.4,11.8z M-0.4,14.2c-0.1,0.2-0.5,0-0.4-0.2C-0.6,13.7-0.2,14-0.4,14.2z M-0.8,9.1c0.1-0.2,0.5,0,0.4,0.2
						C-0.6,9.6-1,9.3-0.8,9.1z M14,1.4c-2.2-1.2-4.7-1.6-7.1-1.3c-3.7,0.5-7.1,3-8.7,6.4C-3.1,9-3.3,12-2.6,14.7
						c0.6,2,1.7,3.9,3.3,5.3c2.1,1.9,4.9,3,7.7,3c2.4,0,4.9-0.8,6.8-2.2c2.1-1.5,3.6-3.7,4.3-6.1c0.8-2.9,0.5-6-0.9-8.6
						C17.6,4.1,15.9,2.4,14,1.4L14,1.4z"/>
				</g>
				<path id="Fill-5" class="st2" d="M81.8,17.1c1.3-1.4,2.5-2.8,3.8-4.3c-1.1,0-2.1,0-3.2,0c-1.2,1.4-2.3,2.9-3.5,4.3
					c0-2.7,0-5.4,0-8.2c-0.9,0-1.8,0-2.6,0c0,4.8,0,9.6,0,14.4c0.9,0,1.8,0,2.6,0c0-1,0-2.1,0-3.1c0.4-0.4,0.7-0.8,1.1-1.3
					c0.9,1.5,1.7,2.9,2.6,4.4c1.1,0,2.2,0,3.3,0C84.5,21.3,83.2,19.2,81.8,17.1"/>
				<path id="Fill-7" class="st2" d="M52.8,17.6c-1.1-0.7-2.5-0.6-3.8-0.8c-0.4,0-0.8-0.3-0.8-0.8C48,15.5,48.5,15.1,49,15
					c1.1-0.2,2.2,0,3.1,0.6c0.5-0.6,1.1-1.1,1.6-1.7c-0.8-0.6-1.7-1-2.6-1.1c-1.5-0.2-3.1-0.1-4.3,0.8c-1.4,1-1.6,3.4-0.4,4.6
					c1.2,1,2.9,0.8,4.3,1.1c0.4,0.1,0.8,0.5,0.7,0.9c0,0.5-0.5,0.8-0.9,0.9c-1.3,0.3-2.7,0-3.8-0.9c-0.6,0.6-1.1,1.2-1.7,1.7
					c0.9,0.8,2,1.4,3.2,1.4c1.6,0.1,3.3,0.1,4.6-0.9C54.4,21.4,54.5,18.7,52.8,17.6"/>
				<path id="Fill-8" class="st2" d="M57.5,17.1c0.1-0.5,0.2-1.1,0.6-1.6c0.7-0.9,2.3-0.8,3,0.1c0.3,0.4,0.4,1,0.5,1.5
					C60.2,17.1,58.9,17.1,57.5,17.1z M57.8,13.1c-1.7,0.6-2.6,2.4-2.8,4.1c-0.1,1.6,0,3.5,1,4.8c1,1.2,2.6,1.6,4.1,1.6
					c1.4,0,2.8-0.6,3.7-1.7c-0.5-0.5-1.1-1-1.6-1.6c-0.9,1-2.6,1.3-3.8,0.6c-0.7-0.4-0.9-1.2-1-1.9c2.2,0,4.4,0,6.7,0
					c0.1-1.6,0-3.4-1.1-4.7C61.8,12.7,59.5,12.4,57.8,13.1L57.8,13.1z"/>
				<path id="Fill-9" class="st2" d="M67.9,17.1c0.1-0.5,0.2-1,0.5-1.5c0.7-1,2.3-1,3.1,0c0.3,0.4,0.4,1,0.5,1.5
					C70.6,17.2,69.3,17.1,67.9,17.1z M68.1,13.1c-1.7,0.6-2.6,2.4-2.7,4.1c-0.1,1.6,0,3.5,1,4.8c1,1.2,2.6,1.6,4.1,1.6
					c1.4,0,2.8-0.7,3.8-1.6c-0.5-0.5-1.1-1.1-1.6-1.6c-0.9,1-2.6,1.3-3.8,0.6c-0.7-0.4-0.9-1.2-1-1.9c2.2,0,4.4,0,6.7,0
					c0-1.6,0-3.3-1.1-4.6C72.3,12.7,70,12.4,68.1,13.1L68.1,13.1z"/>
			</g>
		</g>
	</g>
</g>
</svg>
