<?xml version="1.0" encoding="utf-8"?>
<!-- Generator: Adobe Illustrator 23.0.1, SVG Export Plug-In . SVG Version: 6.00 Build 0)  -->
<svg version="1.1" id="Layer_1" xmlns="http://www.w3.org/2000/svg" xmlns:xlink="http://www.w3.org/1999/xlink" x="0px" y="0px"
	 viewBox="0 0 61.1 67.1" style="enable-background:new 0 0 61.1 67.1;" xml:space="preserve">
<style type="text/css">
	.st0{fill:#FFFFFF;}
</style>
<path class="st0" d="M41.2,36.2c5.6-3.5,9.3-9.7,9.3-16.5C50.5,9,41.4,0.1,30.5,0.1S10.6,9,10.6,19.7c0,6.8,3.8,13,9.3,16.5
	C7.6,39.9,0.1,50.3,0.1,64.7c0,1.3,1.1,2.3,2.3,2.3h56.3c1.3,0,2.3-1,2.3-2.3C61,50.3,53.5,39.9,41.2,36.2z M15.3,19.7
	c0-8.1,7-15,15.2-15s15.2,6.9,15.2,15s-7,15-15.2,15S15.3,27.8,15.3,19.7z M4.8,62.4c0.9-13.9,10.6-23.1,25.7-23.1
	c15.1,0,24.8,9.2,25.7,23.1H4.8z"/>
</svg>
