<?xml version="1.0" encoding="utf-8"?>
<!-- Generator: Adobe Illustrator 19.2.0, SVG Export Plug-In . SVG Version: 6.00 Build 0)  -->
<svg version="1.1" id="Layer_1" xmlns="http://www.w3.org/2000/svg" xmlns:xlink="http://www.w3.org/1999/xlink" x="0px" y="0px"
	 width="255px" height="74.2px" viewBox="0 0 255 74.2" style="enable-background:new 0 0 255 74.2;" xml:space="preserve">
<style type="text/css">
	.st0{clip-path:url(#SVGID_2_);}
	.st1{clip-path:url(#SVGID_4_);fill:#FFFFFF;}
	.st2{clip-path:url(#SVGID_6_);fill:#FFFFFF;}
</style>
<g>
	<g>
		<defs>
			<rect id="SVGID_1_" width="255" height="74.2"/>
		</defs>
		<clipPath id="SVGID_2_">
			<use xlink:href="#SVGID_1_"  style="overflow:visible;"/>
		</clipPath>
		<g class="st0">
			<defs>
				<rect id="SVGID_3_" x="-27.1" y="-27.5" width="309.6" height="126.3"/>
			</defs>
			<clipPath id="SVGID_4_">
				<use xlink:href="#SVGID_3_"  style="overflow:visible;"/>
			</clipPath>
			<path class="st1" d="M70.8,44.8c-1.3,0.2-3.1,0.5-7,0.5c-4.7,0-8.8-1.2-8.8-7.8v-12c0-6.6,4.1-7.7,8.8-7.7c3.9,0,5.7,0.3,7,0.5
				c0.5,0.1,0.7,0.3,0.7,0.7v3.4c0,0.4-0.3,0.7-0.7,0.7h-7.3c-1.7,0-2.3,0.6-2.3,2.5v3.3h9.3c0.4,0,0.7,0.3,0.7,0.7v3.4
				c0,0.4-0.3,0.7-0.7,0.7h-9.3v3.8c0,1.9,0.6,2.5,2.3,2.5h7.3c0.4,0,0.7,0.3,0.7,0.7V44C71.6,44.5,71.3,44.7,70.8,44.8"/>
			<path class="st1" d="M95.2,44.9h-3.5c-0.8,0-1.3-0.1-1.9-1.1l-8.2-14.2c-0.1-0.2-0.2-0.3-0.3-0.3c-0.1,0-0.2,0.1-0.2,0.3v14.6
				c0,0.4-0.3,0.7-0.7,0.7h-4.3c-0.4,0-0.7-0.3-0.7-0.7V19.5c0-0.8,0.6-1.4,1.4-1.4h3.6c0.7,0,1.1,0.4,1.5,1.1l8.6,14.9
				c0.1,0.2,0.2,0.3,0.3,0.3c0.1,0,0.2-0.1,0.2-0.3V18.8c0-0.4,0.3-0.7,0.7-0.7h4.3c0.4,0,0.7,0.3,0.7,0.7v24.8
				C96.6,44.3,96,44.9,95.2,44.9"/>
			<path class="st1" d="M117.8,23.2H112v21c0,0.4-0.3,0.7-0.7,0.7h-4.7c-0.4,0-0.7-0.3-0.7-0.7v-21h-5.9c-0.4,0-0.7-0.3-0.7-0.7
				v-3.7c0-0.4,0.3-0.7,0.7-0.7h17.9c0.4,0,0.8,0.3,0.8,0.7v3.7C118.6,22.9,118.2,23.2,117.8,23.2"/>
			<path class="st1" d="M136.1,44.8c-1.3,0.2-3.1,0.5-7,0.5c-4.7,0-8.8-1.2-8.8-7.8v-12c0-6.6,4.1-7.7,8.8-7.7c3.9,0,5.7,0.3,7,0.5
				c0.5,0.1,0.7,0.3,0.7,0.7v3.4c0,0.4-0.3,0.7-0.7,0.7h-7.3c-1.7,0-2.3,0.6-2.3,2.5v3.3h9.3c0.4,0,0.7,0.3,0.7,0.7v3.4
				c0,0.4-0.3,0.7-0.7,0.7h-9.3v3.8c0,1.9,0.6,2.5,2.3,2.5h7.3c0.4,0,0.7,0.3,0.7,0.7V44C136.8,44.5,136.6,44.7,136.1,44.8"/>
			<path class="st1" d="M160.8,44.9h-5.5c-0.4,0-0.5-0.4-0.7-0.7l-4.8-9.1l-0.4,0c-0.8,0-1.9-0.1-2.6-0.1v9.2c0,0.4-0.3,0.7-0.7,0.7
				h-4.7c-0.4,0-0.7-0.3-0.7-0.7V20c0-1.2,0.5-1.6,1.6-1.7c1.7-0.3,4.7-0.5,7.3-0.5c6.1,0,10.9,2.1,10.9,8.4v0.5
				c0,3.8-2,6.2-4.7,7.2l5.4,10.2c0.1,0.1,0.1,0.3,0.1,0.4C161.4,44.7,161.2,44.9,160.8,44.9 M154.3,26.2c0-2.2-1.7-3.2-4.7-3.2
				c-0.5,0-2.4,0.1-2.8,0.1v6.9c0.4,0,2.2,0.1,2.6,0.1c3.8,0,5-1,5-3.4V26.2z"/>
			<path class="st1" d="M173,35.5c-0.9,0-2-0.1-2.9-0.1v8.8c0,0.4-0.3,0.7-0.7,0.7h-4.7c-0.4,0-0.7-0.3-0.7-0.7V20
				c0-1.2,0.5-1.6,1.6-1.7c1.8-0.3,4.7-0.5,7.3-0.5c5.4,0,10.8,1.9,10.8,8.7v0.3C183.7,33.6,178.4,35.5,173,35.5 M177.6,26.5
				c0-2.6-1.6-3.6-4.6-3.6c-0.5,0-2.5,0.1-2.9,0.1v7.4c0.4,0,2.5,0.1,2.9,0.1c3.2,0,4.6-1.2,4.6-3.6V26.5z"/>
			<path class="st1" d="M206.3,44.9h-5.5c-0.4,0-0.5-0.4-0.7-0.7l-4.8-9.1l-0.4,0c-0.8,0-1.9-0.1-2.6-0.1v9.2c0,0.4-0.3,0.7-0.7,0.7
				h-4.7c-0.4,0-0.7-0.3-0.7-0.7V20c0-1.2,0.5-1.6,1.6-1.7c1.7-0.3,4.7-0.5,7.3-0.5c6.1,0,10.9,2.1,10.9,8.4v0.5
				c0,3.8-2,6.2-4.7,7.2l5.4,10.2c0.1,0.1,0.1,0.3,0.1,0.4C206.8,44.7,206.6,44.9,206.3,44.9 M199.8,26.2c0-2.2-1.7-3.2-4.7-3.2
				c-0.5,0-2.4,0.1-2.8,0.1v6.9c0.4,0,2.2,0.1,2.6,0.1c3.8,0,5-1,5-3.4V26.2z"/>
			<path class="st1" d="M214.5,44.9h-4.8c-0.4,0-0.6-0.3-0.6-0.7V18.8c0-0.4,0.3-0.7,0.6-0.7h4.8c0.4,0,0.7,0.3,0.7,0.7v25.4
				C215.2,44.6,214.9,44.9,214.5,44.9"/>
			<path class="st1" d="M226.2,45.3c-2.9,0-5-0.3-6.8-0.8c-0.4-0.1-0.7-0.3-0.7-0.7v-3.5c0-0.5,0.3-0.7,0.6-0.7h0.1
				c1.5,0.1,5.4,0.4,6.9,0.4c2.5,0,3.2-0.8,3.2-2.5c0-1-0.5-1.6-2.4-2.7l-5-3c-3.4-2-4.3-4.3-4.3-6.9c0-4,2.2-7,9.2-7
				c2.6,0,6.3,0.4,7.7,0.8c0.3,0.1,0.5,0.3,0.5,0.7v3.6c0,0.3-0.1,0.6-0.6,0.6h-0.1c-1-0.1-5.2-0.4-7.7-0.4c-2.1,0-2.8,0.6-2.8,1.9
				c0,1,0.5,1.5,2.4,2.5l4.6,2.5c3.8,2,4.9,4.4,4.9,7.3C236,41.2,233.5,45.3,226.2,45.3"/>
			<path class="st1" d="M254.3,44.8c-1.3,0.2-3.1,0.5-7,0.5c-4.7,0-8.8-1.2-8.8-7.8v-12c0-6.6,4.2-7.7,8.8-7.7c3.9,0,5.7,0.3,7,0.5
				c0.5,0.1,0.7,0.3,0.7,0.7v3.4c0,0.4-0.3,0.7-0.7,0.7H247c-1.7,0-2.3,0.6-2.3,2.5v3.3h9.3c0.4,0,0.7,0.3,0.7,0.7v3.4
				c0,0.4-0.3,0.7-0.7,0.7h-9.3v3.8c0,1.9,0.6,2.5,2.3,2.5h7.3c0.4,0,0.7,0.3,0.7,0.7V44C255,44.5,254.8,44.7,254.3,44.8"/>
			<path class="st1" d="M17.5,6.7L9.9,1c-2-1.3-4.5-1.4-6.5-0.3C1.3,1.9,0,4,0,6.4v50.3c0,2.5,1.4,4.7,3.7,5.8
				c2.2,1.1,4.9,0.7,6.8-0.8l12.1-9.1c-4-0.4-7-1.7-9.5-4.1c-3.9-3.9-5.2-8.6-5.2-19.4C7.9,15.9,10.8,8.9,17.5,6.7"/>
			<path class="st1" d="M18.7,25.2h10.4v-3.5c0-6.4-1.6-9.3-5.3-9.3c-3.4,0-5.1,2.7-5.1,8.1V25.2z"/>
			<path class="st1" d="M44.4,36.2c1.6-1.4,2.4-3.2,2.3-5.3c-0.1-2-1.2-3.9-2.9-5l-6-4.4c0.2,1.6,0.3,3.2,0.3,5.1v1.2
				c0,2.7-0.2,4-4.2,4H18.7v5.5c0,5,3,7.9,8.1,7.9c2.6,0,5-0.7,8.1-2.3c1.2-0.6,2.1-1.2,3.2-2C38.2,40.8,42.8,37.6,44.4,36.2"/>
			<polygon class="st1" points="41.5,41.8 39.3,41.8 39.3,42.2 40.1,42.2 40.1,44.4 40.7,44.4 40.7,42.2 41.5,42.2 			"/>
			<polygon class="st1" points="44.4,44.4 44.4,41.8 43.6,41.8 43.1,43.6 42.6,41.8 41.8,41.8 41.8,44.4 42.3,44.4 42.3,42.3 
				42.8,44.4 43.3,44.4 43.9,42.3 43.9,44.4 			"/>
		</g>
		<g class="st0">
			<defs>
				<rect id="SVGID_5_" x="-27.1" y="-27.5" width="309.6" height="126.3"/>
			</defs>
			<clipPath id="SVGID_6_">
				<use xlink:href="#SVGID_5_"  style="overflow:visible;"/>
			</clipPath>
			<path class="st2" d="M55.3,57.8h4.4c2.9,0,4.9,1.2,4.9,3.9v0.1c0,2.1-1.3,3.1-2.9,3.5l3.7,5.7h-2.6l-3.4-5.3h-1.6v5.3h-2.4V57.8z
				 M59.8,63.8c1.6,0,2.5-0.7,2.5-2.1v-0.1c0-1.5-0.9-2-2.5-2h-2v4.2H59.8z"/>
			<path class="st2" d="M66.1,66.2V66c0-3,2-5,4.8-5c2.4,0,4.5,1.4,4.5,4.9v0.6h-7c0.1,1.8,1,2.9,2.6,2.9c1.3,0,2-0.5,2.2-1.5h2.2
				c-0.3,2-1.9,3.1-4.4,3.1C68.1,71.1,66.1,69.2,66.1,66.2 M73.2,65.1c-0.1-1.7-1-2.4-2.3-2.4c-1.3,0-2.2,0.9-2.5,2.4H73.2z"/>
			<path class="st2" d="M76.6,66.2v-0.1c0-3.1,2.2-5,4.9-5c2.1,0,4.1,1,4.4,3.6h-2.2c-0.2-1.3-1-1.8-2.2-1.8c-1.5,0-2.6,1.2-2.6,3.2
				v0.1c0,2.1,1,3.2,2.7,3.2c1.2,0,2.2-0.7,2.3-2.1h2c-0.2,2.2-1.8,3.8-4.5,3.8C78.7,71.1,76.6,69.3,76.6,66.2"/>
			<path class="st2" d="M87.5,61.3h2.2v1.8c0.6-1.2,1.5-1.9,3.1-2v2.1c-1.9,0-3.1,0.6-3.1,2.7v5h-2.2V61.3z"/>
			<path class="st2" d="M94.3,67.4v-6.2h2.2v5.9c0,1.5,0.6,2.1,1.9,2.1c1.2,0,2.2-0.8,2.2-2.3v-5.7h2.2v9.6h-2.2v-1.5
				c-0.5,0.9-1.5,1.7-3.1,1.7C95.7,71.1,94.3,70,94.3,67.4"/>
			<path class="st2" d="M104.9,58.4c0-0.7,0.6-1.3,1.3-1.3c0.7,0,1.3,0.6,1.3,1.3c0,0.7-0.6,1.3-1.3,1.3
				C105.5,59.7,104.9,59.1,104.9,58.4 M105.1,61.3h2.2v9.6h-2.2V61.3z"/>
			<path class="st2" d="M110,68.2V63h-1.3v-1.7h1.3v-2.1h2.2v2.1h2.1V63h-2.1V68c0,0.8,0.4,1.2,1.1,1.2c0.4,0,0.8-0.1,1.1-0.2v1.8
				c-0.3,0.1-0.8,0.2-1.5,0.2C111,71.1,110,70,110,68.2"/>
			<path class="st2" d="M116,61.3h2.2v1.5c0.5-0.9,1.5-1.7,2.9-1.7c1.3,0,2.2,0.5,2.7,1.7c0.7-1.2,2.1-1.7,3.3-1.7
				c1.8,0,3.2,1.1,3.2,3.7v6.1h-2.2V65c0-1.4-0.6-2-1.7-2c-1.1,0-2.1,0.7-2.1,2.2v5.8H122V65c0-1.4-0.6-2-1.7-2
				c-1.1,0-2.1,0.7-2.1,2.2v5.8H116V61.3z"/>
			<path class="st2" d="M132,66.2V66c0-3,2-5,4.8-5c2.4,0,4.5,1.4,4.5,4.9v0.6h-7c0.1,1.8,1,2.9,2.6,2.9c1.3,0,2-0.5,2.2-1.5h2.2
				c-0.3,2-1.9,3.1-4.4,3.1C134,71.1,132,69.2,132,66.2 M139.1,65.1c-0.1-1.7-1-2.4-2.3-2.4c-1.3,0-2.2,0.9-2.5,2.4H139.1z"/>
			<path class="st2" d="M143.1,61.3h2.2v1.5c0.5-0.9,1.5-1.7,3.1-1.7c1.9,0,3.3,1.1,3.3,3.8v6.1h-2.2v-5.8c0-1.5-0.6-2.1-1.9-2.1
				c-1.3,0-2.3,0.8-2.3,2.3v5.7h-2.2V61.3z"/>
			<path class="st2" d="M154.2,68.2V63h-1.3v-1.7h1.3v-2.1h2.2v2.1h2.1V63h-2.1V68c0,0.8,0.4,1.2,1.1,1.2c0.4,0,0.8-0.1,1.1-0.2v1.8
				c-0.3,0.1-0.8,0.2-1.5,0.2C155.2,71.1,154.2,70,154.2,68.2"/>
			<path class="st2" d="M171.2,68.2l2.2,2.7h-2.8l-1.1-1.3c-0.8,0.8-1.9,1.5-3.6,1.5c-2.6,0-4.3-1.5-4.3-3.8c0-1.9,1.2-3.1,3-3.9
				c-0.7-0.9-1-1.8-1-2.6c0-2.1,1.7-3.2,3.6-3.2c1.8,0,3.3,1.1,3.3,2.9c0,1.5-1,2.6-2.7,3.3l2.3,2.8l1.3-2.6h2L171.2,68.2z
				 M168.3,68.1l-2.8-3.4c-1,0.5-1.7,1.1-1.7,2.3c0,1.3,0.8,2.2,2.3,2.2C167,69.2,167.7,68.9,168.3,68.1 M166.6,62.8
				c1.2-0.6,1.7-1.2,1.7-2.2c0-0.8-0.5-1.3-1.3-1.3c-0.8,0-1.5,0.5-1.5,1.6C165.6,61.4,166,62,166.6,62.8"/>
			<path class="st2" d="M177.3,57.7h4.2c2.9,0,4.9,1.3,4.9,4.1v0.1c0,2.8-2,4-4.8,4h-1.8v5h-2.4V57.7z M181.6,64.1
				c1.6,0,2.5-0.8,2.5-2.2v-0.1c0-1.6-0.9-2.2-2.5-2.2h-1.8v4.5H181.6z"/>
			<path class="st2" d="M187.3,66.2V66c0-3,2-5,4.8-5c2.4,0,4.5,1.4,4.5,4.9v0.6h-7c0.1,1.8,1,2.9,2.6,2.9c1.3,0,2-0.5,2.2-1.5h2.2
				c-0.3,2-1.9,3.1-4.4,3.1C189.3,71.1,187.3,69.2,187.3,66.2 M194.4,65.1c-0.1-1.7-1-2.4-2.3-2.4c-1.3,0-2.2,0.9-2.5,2.4H194.4z"/>
			<path class="st2" d="M197.8,66.2V66c0-3,2.1-5,4.9-5c2.8,0,4.9,2,4.9,4.9v0.1c0,3-2.1,4.9-4.9,4.9
				C199.9,71.1,197.8,69.1,197.8,66.2 M205.4,66.2V66c0-2-1-3.2-2.6-3.2c-1.7,0-2.7,1.2-2.7,3.2v0.1c0,2,1,3.2,2.7,3.2
				C204.4,69.4,205.4,68.1,205.4,66.2"/>
			<path class="st2" d="M209.3,61.3h2.2v1.5c0.5-0.9,1.7-1.7,3.1-1.7c2.4,0,4.3,1.8,4.3,4.9v0.1c0,3.1-1.8,5-4.3,5
				c-1.5,0-2.6-0.8-3.1-1.7v4.8h-2.2V61.3z M216.7,66.2V66c0-2.1-1.1-3.2-2.6-3.2c-1.5,0-2.6,1-2.6,3.2v0.1c0,2.2,1,3.2,2.7,3.2
				C215.8,69.3,216.7,68.2,216.7,66.2"/>
			<rect x="220.8" y="56.8" class="st2" width="2.2" height="14.1"/>
			<path class="st2" d="M224.8,66.2V66c0-3,2-5,4.8-5c2.4,0,4.5,1.4,4.5,4.9v0.6h-7c0.1,1.8,1,2.9,2.6,2.9c1.3,0,2-0.5,2.2-1.5h2.2
				c-0.3,2-1.9,3.1-4.4,3.1C226.8,71.1,224.8,69.2,224.8,66.2 M231.9,65.1c-0.1-1.7-1-2.4-2.3-2.4c-1.3,0-2.2,0.9-2.5,2.4H231.9z"/>
		</g>
	</g>
</g>
</svg>
