<?xml version="1.0" encoding="utf-8"?>
<!-- Generator: Adobe Illustrator 19.1.0, SVG Export Plug-In . SVG Version: 6.00 Build 0)  -->
<svg version="1.1" id="Layer_1" xmlns="http://www.w3.org/2000/svg" xmlns:xlink="http://www.w3.org/1999/xlink" x="0px" y="0px"
	 viewBox="0 0 37 73.2" style="enable-background:new 0 0 37 73.2;" xml:space="preserve">
<style type="text/css">
	.st0{fill:#FFFFFF;}
</style>
<g>
	<path class="st0" d="M23.2,73.2H9.1c-1.1,0-2-0.9-2-2v-31H2c-1.1,0-2-0.9-2-2V26.4c0-1.1,0.9-2,2-2h4.4c0.3-8.8,0.8-15.3,5.1-19.6
		C16.2,0,20.1,0,31.7,0L35,0c1.1,0,2,0.9,2,2c0,0.1,0,0.3,0,0.4c0,0.1,0,0.3,0,0.4v10.5c0,0.6-0.2,1.1-0.6,1.5
		c-0.4,0.4-1,0.6-1.5,0.5c-3.1-0.2-7.8,0.2-8.7,1.6c-0.5,0.7-0.4,3.3-0.4,5.6c0,0.6,0,1.3,0,1.9h9c0.6,0,1.2,0.3,1.5,0.7
		c0.4,0.5,0.5,1.1,0.4,1.7c-0.3,1.6-0.6,3-0.9,4.2c-0.5,2.4-0.9,4.4-1.4,7.5c-0.1,1-1,1.7-2,1.7h-7.3v31
		C25.2,72.3,24.3,73.2,23.2,73.2z M11.1,69.2h10.2v-31c0-1.1,0.9-2,2-2h7.6c0.4-2.3,0.7-4,1.2-6c0.1-0.6,0.2-1.1,0.4-1.8h-8.6
		c-0.5,0-1.1-0.2-1.4-0.6c-0.4-0.4-0.6-0.9-0.6-1.4c0-1.3,0-2.6,0-3.8c-0.1-3.4-0.1-6.1,1-7.9c2-3,7.2-3.5,10.2-3.5V4l-1.3,0
		C20.1,4,17.8,4.1,14.4,7.6c-3.5,3.5-3.7,9.9-4,18.8l0,0.1c0,1.1-0.9,1.9-2,1.9H4v7.8h5.1c1.1,0,2,0.9,2,2V69.2z"/>
</g>
</svg>
