<?xml version="1.0" encoding="utf-8"?>
<!-- Generator: Adobe Illustrator 19.1.0, SVG Export Plug-In . SVG Version: 6.00 Build 0)  -->
<svg version="1.0" id="Layer_1" xmlns="http://www.w3.org/2000/svg" xmlns:xlink="http://www.w3.org/1999/xlink" x="0px" y="0px"
	 viewBox="0 0 74 71.1" style="enable-background:new 0 0 74 71.1;" xml:space="preserve">
<style type="text/css">
	.st0{fill:#FFFFFF;}
</style>
<g>
	<path class="st0" d="M72,71.1H55.6c-1.1,0-2-0.9-2-2V44.2c0-6.6-1.6-7.9-4.5-7.9c-3.7,0-5.5,2.7-5.5,8v24.8c0,1.1-0.9,2-2,2H25.1
		c-1.1,0-2-0.9-2-2V24.6c0-1.1,0.9-2,2-2h16.4c1,0,1.8,0.7,2,1.7c2.5-2,6.2-3.5,11.8-3.5C61,20.8,74,23,74,43.2v25.9
		C74,70.3,73.1,71.1,72,71.1z M57.6,67.1H70V43.2c0-15.3-8-18.5-14.7-18.5c-6.1,0-10.2,2.1-12,6.2c-0.4,0.9-1.3,1.3-2.2,1.1
		c-0.9-0.2-1.6-1-1.6-2v-3.5H27.1v40.5h12.4V44.4c0-7.6,3.5-12,9.5-12c8.5,0,8.5,8.7,8.5,11.9V67.1z M18.1,71.1H4c-1.1,0-2-0.9-2-2
		V24.6c0-1.1,0.9-2,2-2h14.1c1.1,0,2,0.9,2,2v44.5C20.1,70.3,19.2,71.1,18.1,71.1z M6,67.1h10.1V26.6H6V67.1z M10.7,19.6
		C4.8,19.6,0,15.2,0,9.8C0,4.4,4.8,0,10.7,0c5.9,0,10.7,4.4,10.7,9.8C21.4,15.2,16.6,19.6,10.7,19.6z M10.7,4C7,4,4,6.6,4,9.8
		c0,3.2,3,5.8,6.7,5.8c3.7,0,6.7-2.6,6.7-5.8C17.4,6.6,14.4,4,10.7,4z"/>
</g>
</svg>
