<?xml version="1.0" encoding="utf-8"?>
<!-- Generator: Adobe Illustrator 15.0.2, SVG Export Plug-In . SVG Version: 6.00 Build 0)  -->
<!DOCTYPE svg PUBLIC "-//W3C//DTD SVG 1.1//EN" "http://www.w3.org/Graphics/SVG/1.1/DTD/svg11.dtd">
<svg version="1.1" id="Layer_1" xmlns="http://www.w3.org/2000/svg" xmlns:xlink="http://www.w3.org/1999/xlink" x="0px" y="0px"
	 width="142.5px" height="38.5px" viewBox="0 0 142.5 38.5" enable-background="new 0 0 142.5 38.5" xml:space="preserve">
<g>
	<defs>
		<rect id="SVGID_1_" x="0.2" y="0.172" width="142.077" height="37.988"/>
	</defs>
	<clipPath id="SVGID_2_">
		<use xlink:href="#SVGID_1_"  overflow="visible"/>
	</clipPath>
	<path clip-path="url(#SVGID_2_)" fill="#FFFFFF" d="M15.019,30.769c-2.186-1.347-2.354-10.502,0.158-11.722
		c2.099-0.961-9.306,0.081-12.856,2.587c-4.189,2.954-2.613,11.85,8.718,11.85c8.316,0.143,8.438-3.579,8.25-3.478
		C19.106,30.103,17.2,32.116,15.019,30.769"/>
	<path clip-path="url(#SVGID_2_)" fill="#FFFFFF" d="M35.185,15.951c-0.092-1.099-2.745-0.474-2.745-0.474s-0.03-2.842-0.03-3.004
		c-0.27-6.99-7.921-7.208-10.106-7.479c-2.181-0.272-9.969,0.338-9.989,0.695c0.879,0.318,7.167-0.688,8.001,3.722
		c0.112,0.963,0.107,7.947,0.107,7.947s-2.552,0.28-2.588,1.291c0.041,0.977,2.573,0.407,2.573,0.407s-0.29,6.857-0.097,8.011
		c0.452,6.914,6.949,6.121,8.042,6.188c6.761-0.153,6.939-4.185,6.761-4.209c-0.183-0.036-1.851,2.287-2.313,0.64
		c-0.193-0.712-0.269-7.594-0.336-12.531C32.465,17.154,35.093,16.692,35.185,15.951"/>
	<path clip-path="url(#SVGID_2_)" fill="#FFFFFF" d="M9.379,17.598c3.408,0,6.174-2.308,6.174-5.17c0-2.854-2.766-5.175-6.174-5.175
		c-3.409,0-6.171,2.32-6.171,5.175C3.208,15.29,5.97,17.598,9.379,17.598"/>
	<path clip-path="url(#SVGID_2_)" fill="#FFFFFF" d="M59.691,10.028c0.245-0.793,0.692-1.286,1.342-1.492
		c0.651-0.205,1.541-0.308,2.659-0.308c1.154,0,2.064,0.103,2.725,0.308c0.661,0.206,1.118,0.699,1.362,1.492L73.91,29.92
		c0,0.122-0.07,0.183-0.215,0.183h-3.999c-0.204,0-0.336-0.097-0.392-0.279l-1.616-5.276c-0.061-0.199-0.193-0.3-0.397-0.3h-7.173
		c-0.208,0-0.335,0.112-0.396,0.335l-1.617,5.216c-0.061,0.203-0.193,0.305-0.396,0.305h-3.965c-0.168,0-0.244-0.061-0.244-0.183
		L59.691,10.028z M64.053,12.743c-0.056-0.225-0.112-0.371-0.153-0.438c-0.04-0.076-0.111-0.111-0.208-0.111
		c-0.101,0-0.219,0.183-0.34,0.549l-2.141,6.954c0,0.046,0,0.07-0.01,0.092c-0.005,0.024-0.015,0.04-0.015,0.061
		c0,0.147,0.081,0.219,0.244,0.219h4.55c0.152,0,0.238-0.071,0.238-0.219c0-0.021-0.004-0.036-0.01-0.061
		c-0.015-0.021-0.02-0.046-0.02-0.092L64.053,12.743z"/>
	<path clip-path="url(#SVGID_2_)" fill="#FFFFFF" d="M90.477,26.442v3.355c0,0.203-0.102,0.305-0.305,0.305h-8.389h-0.457
		c-0.143,0-0.264-0.01-0.365-0.029c-1.688-0.144-2.887-0.637-3.6-1.485c-0.711-0.838-1.072-2.12-1.072-3.823V8.537
		c0-0.206,0.111-0.309,0.309-0.309h3.814c0.207,0,0.305,0.103,0.305,0.309v16.594c0,0.667,0.396,1.002,1.189,1.002h8.266
		C90.375,26.133,90.477,26.234,90.477,26.442"/>
	<path clip-path="url(#SVGID_2_)" fill="#FFFFFF" d="M93.486,8.229h3.818c0.197,0,0.305,0.102,0.305,0.307v21.262
		c0,0.203-0.107,0.306-0.305,0.306h-3.818c-0.199,0-0.305-0.103-0.305-0.306V8.536C93.182,8.331,93.287,8.229,93.486,8.229"/>
	<path clip-path="url(#SVGID_2_)" fill="#FFFFFF" d="M110.266,29.798c0,0.203-0.102,0.305-0.305,0.305h-3.816
		c-0.199,0-0.301-0.102-0.301-0.305V12.499c0-0.203-0.107-0.306-0.305-0.306h-4.973c-0.207,0-0.305-0.096-0.305-0.305V8.537
		c0-0.206,0.098-0.309,0.305-0.309h14.98c0.203,0,0.301,0.103,0.301,0.309v3.352c0,0.209-0.098,0.305-0.301,0.305h-4.977
		c-0.203,0-0.305,0.103-0.305,0.306V29.798z"/>
	<path clip-path="url(#SVGID_2_)" fill="#FFFFFF" d="M118.75,8.229h3.807c0.209,0,0.305,0.102,0.305,0.307v21.262
		c0,0.203-0.096,0.306-0.305,0.306h-3.807c-0.207,0-0.305-0.103-0.305-0.306V8.536C118.445,8.331,118.543,8.229,118.75,8.229"/>
	<path clip-path="url(#SVGID_2_)" fill="#FFFFFF" d="M131.656,21.014c-0.629,0-1.307-0.081-2.027-0.249
		c-0.717-0.163-1.379-0.478-1.969-0.946c-0.344-0.278-0.635-0.625-0.869-1.021c-0.232-0.397-0.426-0.824-0.578-1.276
		c-0.152-0.463-0.266-0.93-0.336-1.408c-0.07-0.478-0.105-0.945-0.105-1.414v-0.584c0-0.183,0.02-0.365,0.059-0.549
		c0.139-1.764,0.805-3.142,1.984-4.112c0.344-0.289,0.771-0.562,1.281-0.828c0.508-0.26,1.012-0.397,1.494-0.397h10.1
		c0.199,0,0.305,0.103,0.305,0.309v3.352c0,0.209-0.105,0.305-0.305,0.305h-8.82c-0.283,0-0.543,0.127-0.771,0.382
		c-0.234,0.26-0.406,0.493-0.508,0.712c-0.102,0.209-0.158,0.406-0.184,0.614c-0.016,0.199-0.031,0.407-0.031,0.61
		c0,0.326,0.025,0.666,0.062,1.012c0.041,0.341,0.188,0.651,0.426,0.91c0.223,0.223,0.535,0.361,0.936,0.401
		c0.396,0.03,0.824,0.056,1.297,0.056h3.412c0.629,0,1.295,0.087,1.98,0.254c0.697,0.178,1.332,0.509,1.922,1.002
		c0.352,0.28,0.641,0.63,0.875,1.032c0.234,0.406,0.426,0.849,0.574,1.311c0.158,0.469,0.26,0.961,0.33,1.476
		c0.057,0.498,0.086,0.985,0.086,1.453v0.641c0,0.188-0.02,0.361-0.061,0.524c-0.162,1.85-0.812,3.277-1.947,4.265
		c-0.355,0.284-0.771,0.564-1.275,0.838c-0.494,0.28-0.965,0.417-1.414,0.417h-11.105c-0.209,0-0.307-0.102-0.307-0.305v-3.355
		c0-0.208,0.098-0.31,0.307-0.31h9.82c0.305,0,0.574-0.143,0.799-0.442c0.223-0.3,0.375-0.559,0.486-0.809
		c0.098-0.224,0.164-0.433,0.18-0.635c0.029-0.203,0.029-0.423,0.029-0.641c0-0.331-0.016-0.677-0.055-1.026
		c-0.041-0.347-0.189-0.672-0.428-0.951c-0.209-0.229-0.498-0.387-0.869-0.479c-0.377-0.091-0.818-0.137-1.326-0.137H131.656z"/>
	<path clip-path="url(#SVGID_2_)" fill="#FFFFFF" d="M45.433,37.824c0,0.188-0.147,0.337-0.331,0.337H44.05
		c-0.178,0-0.33-0.148-0.33-0.337V0.503c0-0.179,0.152-0.331,0.33-0.331h1.052c0.184,0,0.331,0.152,0.331,0.331V37.824z"/>
</g>
</svg>
