<?xml version="1.0" encoding="utf-8"?>
<!-- Generator: Adobe Illustrator 15.0.2, SVG Export Plug-In . SVG Version: 6.00 Build 0)  -->
<!DOCTYPE svg PUBLIC "-//W3C//DTD SVG 1.1//EN" "http://www.w3.org/Graphics/SVG/1.1/DTD/svg11.dtd">
<svg version="1.1" id="Layer_1" xmlns="http://www.w3.org/2000/svg" xmlns:xlink="http://www.w3.org/1999/xlink" x="0px" y="0px"
	 width="157.5px" height="47.5px" viewBox="0 0 157.5 47.5" enable-background="new 0 0 157.5 47.5" xml:space="preserve">
<path fill="#FFFFFF" d="M4.5,41.202h4.852l-2.386-6.682h-0.04L4.5,41.202z M5.923,32.796h2.106l5.595,14.314h-2.106l-1.564-4.308
	H3.898L2.293,47.11H0.329L5.923,32.796z"/>
<g>
	<defs>
		<rect id="SVGID_1_" x="0.25" y="0.49" width="157.11" height="47.01"/>
	</defs>
	<clipPath id="SVGID_2_">
		<use xlink:href="#SVGID_1_"  overflow="visible"/>
	</clipPath>
	<path clip-path="url(#SVGID_2_)" fill="none" stroke="#FFFFFF" stroke-width="0.107" d="M4.5,41.202h4.852l-2.386-6.682h-0.04
		L4.5,41.202z M5.923,32.796h2.106l5.595,14.314h-2.106l-1.564-4.308H3.898L2.293,47.11H0.329L5.923,32.796z"/>
	<path clip-path="url(#SVGID_2_)" fill="#FFFFFF" d="M26.684,41.936c0,1.816-0.491,3.189-1.474,4.118
		c-0.982,0.928-2.368,1.393-4.158,1.393c-0.923,0-1.748-0.107-2.476-0.32c-0.728-0.214-1.343-0.547-1.844-1.002
		c-0.501-0.454-0.885-1.029-1.153-1.724c-0.267-0.695-0.4-1.518-0.4-2.465v-9.14h1.902v9.142c0,1.27,0.344,2.239,1.033,2.907
		c0.688,0.668,1.667,1.002,2.938,1.002c1.216,0,2.142-0.334,2.777-1.002c0.635-0.668,0.953-1.638,0.953-2.907v-9.142h1.902V41.936z"
		/>
	<path clip-path="url(#SVGID_2_)" fill="none" stroke="#FFFFFF" stroke-width="0.107" d="M26.684,41.936
		c0,1.816-0.491,3.189-1.474,4.118c-0.982,0.928-2.368,1.393-4.158,1.393c-0.923,0-1.748-0.107-2.476-0.32
		c-0.728-0.214-1.343-0.547-1.844-1.002c-0.501-0.454-0.885-1.029-1.153-1.724c-0.267-0.695-0.4-1.518-0.4-2.465v-9.14h1.902v9.142
		c0,1.27,0.344,2.239,1.033,2.907c0.688,0.668,1.667,1.002,2.938,1.002c1.216,0,2.142-0.334,2.777-1.002
		c0.635-0.668,0.953-1.638,0.953-2.907v-9.142h1.902V41.936z"/>
	<path clip-path="url(#SVGID_2_)" fill="#FFFFFF" d="M38.242,36.981c-0.107-1.03-0.478-1.777-1.114-2.239
		c-0.635-0.462-1.447-0.691-2.437-0.691c-0.402,0-0.796,0.04-1.185,0.119c-0.387,0.081-0.732,0.214-1.033,0.401
		c-0.301,0.188-0.542,0.438-0.722,0.753c-0.181,0.314-0.271,0.705-0.271,1.174c0,0.44,0.13,0.8,0.391,1.072
		c0.261,0.275,0.608,0.498,1.043,0.673c0.434,0.175,0.926,0.317,1.474,0.432c0.548,0.112,1.11,0.237,1.685,0.371
		s1.136,0.292,1.685,0.472c0.548,0.18,1.036,0.424,1.464,0.731c0.428,0.308,0.772,0.697,1.033,1.173
		c0.26,0.475,0.391,1.059,0.391,1.754c0,0.763-0.17,1.414-0.511,1.956c-0.341,0.541-0.778,0.981-1.314,1.321
		c-0.534,0.342-1.132,0.593-1.794,0.753c-0.662,0.159-1.32,0.24-1.976,0.24c-0.802,0-1.56-0.101-2.275-0.301
		s-1.344-0.508-1.885-0.922c-0.542-0.414-0.969-0.939-1.283-1.573c-0.314-0.635-0.472-1.388-0.472-2.256h1.802
		c0,0.602,0.117,1.121,0.351,1.555c0.234,0.436,0.542,0.793,0.923,1.074c0.382,0.281,0.823,0.488,1.324,0.622
		c0.502,0.134,1.027,0.2,1.576,0.2c0.428,0,0.859-0.04,1.294-0.12s0.826-0.217,1.174-0.411c0.348-0.193,0.628-0.457,0.842-0.792
		c0.214-0.333,0.321-0.761,0.321-1.282c0-0.495-0.13-0.896-0.39-1.204c-0.262-0.307-0.606-0.557-1.034-0.751
		c-0.428-0.193-0.915-0.354-1.464-0.48c-0.548-0.127-1.11-0.25-1.685-0.371c-0.574-0.121-1.136-0.264-1.684-0.432
		c-0.548-0.166-1.04-0.392-1.475-0.673c-0.434-0.279-0.782-0.635-1.042-1.062c-0.261-0.428-0.391-0.969-0.391-1.625
		c0-0.722,0.146-1.347,0.44-1.875c0.295-0.528,0.685-0.962,1.174-1.304c0.487-0.341,1.042-0.596,1.664-0.764
		c0.621-0.166,1.26-0.25,1.915-0.25c0.734,0,1.417,0.087,2.045,0.262c0.628,0.174,1.176,0.447,1.644,0.821
		c0.468,0.374,0.842,0.846,1.123,1.413c0.281,0.568,0.434,1.246,0.461,2.036H38.242z"/>
	<path clip-path="url(#SVGID_2_)" fill="none" stroke="#FFFFFF" stroke-width="0.107" d="M38.242,36.981
		c-0.107-1.03-0.478-1.777-1.114-2.239c-0.635-0.462-1.447-0.691-2.437-0.691c-0.402,0-0.796,0.04-1.185,0.119
		c-0.387,0.081-0.732,0.214-1.033,0.401c-0.301,0.188-0.542,0.438-0.722,0.753c-0.181,0.314-0.271,0.705-0.271,1.174
		c0,0.44,0.13,0.8,0.391,1.072c0.261,0.275,0.608,0.498,1.043,0.673c0.434,0.175,0.926,0.317,1.474,0.432
		c0.548,0.112,1.11,0.237,1.685,0.371s1.136,0.292,1.685,0.472c0.548,0.18,1.036,0.424,1.464,0.731
		c0.428,0.308,0.772,0.697,1.033,1.173c0.26,0.475,0.391,1.059,0.391,1.754c0,0.763-0.17,1.414-0.511,1.956
		c-0.341,0.541-0.778,0.981-1.314,1.321c-0.534,0.342-1.132,0.593-1.794,0.753c-0.662,0.159-1.32,0.24-1.976,0.24
		c-0.802,0-1.56-0.101-2.275-0.301s-1.344-0.508-1.885-0.922c-0.542-0.414-0.969-0.939-1.283-1.573
		c-0.314-0.635-0.472-1.388-0.472-2.256h1.802c0,0.602,0.117,1.121,0.351,1.555c0.234,0.436,0.542,0.793,0.923,1.074
		c0.382,0.281,0.823,0.488,1.324,0.622c0.502,0.134,1.027,0.2,1.576,0.2c0.428,0,0.859-0.04,1.294-0.12s0.826-0.217,1.174-0.411
		c0.348-0.193,0.628-0.457,0.842-0.792c0.214-0.333,0.321-0.761,0.321-1.282c0-0.495-0.13-0.896-0.39-1.204
		c-0.262-0.307-0.606-0.557-1.034-0.751c-0.428-0.193-0.915-0.354-1.464-0.48c-0.548-0.127-1.11-0.25-1.685-0.371
		c-0.574-0.121-1.136-0.264-1.684-0.432c-0.548-0.166-1.04-0.392-1.475-0.673c-0.434-0.279-0.782-0.635-1.042-1.062
		c-0.261-0.428-0.391-0.969-0.391-1.625c0-0.722,0.146-1.347,0.44-1.875c0.295-0.528,0.685-0.962,1.174-1.304
		c0.487-0.341,1.042-0.596,1.664-0.764c0.621-0.166,1.26-0.25,1.915-0.25c0.734,0,1.417,0.087,2.045,0.262
		c0.628,0.174,1.176,0.447,1.644,0.821c0.468,0.374,0.842,0.846,1.123,1.413c0.281,0.568,0.434,1.246,0.461,2.036H38.242z"/>
</g>
<polygon fill="#FFFFFF" points="46.42,34.397 41.646,34.397 41.646,32.796 53.096,32.796 53.096,34.397 48.322,34.397 48.322,47.11 
	46.42,47.11 "/>
<polygon fill="none" stroke="#FFFFFF" stroke-width="0.107" points="46.42,34.397 41.646,34.397 41.646,32.796 53.096,32.796 
	53.096,34.397 48.322,34.397 48.322,47.11 46.42,47.11 "/>
<g>
	<defs>
		<rect id="SVGID_3_" x="0.25" y="0.49" width="157.11" height="47.01"/>
	</defs>
	<clipPath id="SVGID_4_">
		<use xlink:href="#SVGID_3_"  overflow="visible"/>
	</clipPath>
	<path clip-path="url(#SVGID_4_)" fill="#FFFFFF" d="M60.784,39.399c0.441,0,0.862-0.033,1.264-0.102
		c0.402-0.065,0.753-0.196,1.054-0.391c0.301-0.193,0.542-0.455,0.723-0.784c0.18-0.328,0.271-0.753,0.271-1.275
		c0-0.709-0.201-1.295-0.603-1.759c-0.402-0.461-1.05-0.691-1.947-0.691h-4.737v5.002H60.784z M54.907,32.796h6.739
		c1.35,0,2.413,0.339,3.188,1.014c0.776,0.675,1.164,1.589,1.164,2.738c0,0.869-0.197,1.632-0.592,2.288
		c-0.394,0.654-1.027,1.104-1.896,1.344v0.04c0.416,0.081,0.753,0.214,1.013,0.4c0.261,0.188,0.472,0.41,0.632,0.671
		c0.161,0.262,0.274,0.552,0.341,0.871c0.068,0.321,0.121,0.656,0.161,1.002c0.027,0.349,0.05,0.705,0.07,1.072
		c0.02,0.368,0.053,0.722,0.1,1.062c0.047,0.341,0.12,0.668,0.221,0.982c0.1,0.313,0.251,0.59,0.451,0.83h-2.124
		c-0.133-0.147-0.223-0.347-0.27-0.6c-0.047-0.256-0.077-0.538-0.091-0.852c-0.012-0.314-0.026-0.653-0.039-1.013
		c-0.014-0.36-0.054-0.714-0.12-1.062c-0.054-0.347-0.121-0.677-0.201-0.991c-0.079-0.314-0.207-0.588-0.382-0.821
		c-0.174-0.234-0.404-0.421-0.692-0.562C62.292,41.07,61.921,41,61.466,41h-4.657v6.11h-1.902V32.796z"/>
	<path clip-path="url(#SVGID_4_)" fill="none" stroke="#FFFFFF" stroke-width="0.107" d="M60.784,39.399
		c0.441,0,0.862-0.033,1.264-0.102c0.402-0.065,0.753-0.196,1.054-0.391c0.301-0.193,0.542-0.455,0.723-0.784
		c0.18-0.328,0.271-0.753,0.271-1.275c0-0.709-0.201-1.295-0.603-1.759c-0.402-0.461-1.05-0.691-1.947-0.691h-4.737v5.002H60.784z
		 M54.907,32.796h6.739c1.35,0,2.413,0.339,3.188,1.014c0.776,0.675,1.164,1.589,1.164,2.738c0,0.869-0.197,1.632-0.592,2.288
		c-0.394,0.654-1.027,1.104-1.896,1.344v0.04c0.416,0.081,0.753,0.214,1.013,0.4c0.261,0.188,0.472,0.41,0.632,0.671
		c0.161,0.262,0.274,0.552,0.341,0.871c0.068,0.321,0.121,0.656,0.161,1.002c0.027,0.349,0.05,0.705,0.07,1.072
		c0.02,0.368,0.053,0.722,0.1,1.062c0.047,0.341,0.12,0.668,0.221,0.982c0.1,0.313,0.251,0.59,0.451,0.83h-2.124
		c-0.133-0.147-0.223-0.347-0.27-0.6c-0.047-0.256-0.077-0.538-0.091-0.852c-0.012-0.314-0.026-0.653-0.039-1.013
		c-0.014-0.36-0.054-0.714-0.12-1.062c-0.054-0.347-0.121-0.677-0.201-0.991c-0.079-0.314-0.207-0.588-0.382-0.821
		c-0.174-0.234-0.404-0.421-0.692-0.562C62.292,41.07,61.921,41,61.466,41h-4.657v6.11h-1.902V32.796z"/>
</g>
<path fill="#FFFFFF" d="M71.325,41.202h4.854l-2.386-6.682h-0.041L71.325,41.202z M72.749,32.796h2.106L80.45,47.11h-2.107
	l-1.564-4.308h-6.056l-1.605,4.308h-1.965L72.749,32.796z"/>
<path fill="none" stroke="#FFFFFF" stroke-width="0.107" d="M71.325,41.202h4.854l-2.386-6.682h-0.041L71.325,41.202z
	 M72.749,32.796h2.106L80.45,47.11h-2.107l-1.564-4.308h-6.056l-1.605,4.308h-1.965L72.749,32.796z"/>
<polygon fill="#FFFFFF" points="85.251,32.796 87.153,32.796 87.153,38.952 94.696,38.952 94.696,32.796 96.6,32.796 96.6,47.11 
	94.696,47.11 94.696,40.554 87.153,40.554 87.153,47.11 85.251,47.11 "/>
<polygon fill="none" stroke="#FFFFFF" stroke-width="0.107" points="85.251,32.796 87.153,32.796 87.153,38.952 94.696,38.952 
	94.696,32.796 96.6,32.796 96.6,47.11 94.696,47.11 94.696,40.554 87.153,40.554 87.153,47.11 85.251,47.11 "/>
<polygon fill="#FFFFFF" points="99.009,32.796 108.896,32.796 108.896,34.397 100.911,34.397 100.911,38.952 108.355,38.952 
	108.355,40.554 100.911,40.554 100.911,45.511 108.956,45.511 108.956,47.11 99.009,47.11 "/>
<polygon fill="none" stroke="#FFFFFF" stroke-width="0.107" points="99.009,32.796 108.896,32.796 108.896,34.397 100.911,34.397 
	100.911,38.952 108.355,38.952 108.355,40.554 100.911,40.554 100.911,45.511 108.956,45.511 108.956,47.11 99.009,47.11 "/>
<path fill="#FFFFFF" d="M113.943,41.202h4.853l-2.386-6.682h-0.041L113.943,41.202z M115.367,32.796h2.104l5.597,14.314h-2.106
	l-1.564-4.308h-6.057l-1.604,4.308h-1.966L115.367,32.796z"/>
<path fill="none" stroke="#FFFFFF" stroke-width="0.107" d="M113.943,41.202h4.853l-2.386-6.682h-0.041L113.943,41.202z
	 M115.367,32.796h2.104l5.597,14.314h-2.106l-1.564-4.308h-6.057l-1.604,4.308h-1.966L115.367,32.796z"/>
<polygon fill="#FFFFFF" points="124.699,32.796 126.603,32.796 126.603,45.511 134.183,45.511 134.183,47.11 124.699,47.11 "/>
<polygon fill="none" stroke="#FFFFFF" stroke-width="0.107" points="124.699,32.796 126.603,32.796 126.603,45.511 134.183,45.511 
	134.183,47.11 124.699,47.11 "/>
<polygon fill="#FFFFFF" points="137.472,34.397 132.698,34.397 132.698,32.796 144.147,32.796 144.147,34.397 139.375,34.397 
	139.375,47.11 137.472,47.11 "/>
<polygon fill="none" stroke="#FFFFFF" stroke-width="0.107" points="137.472,34.397 132.698,34.397 132.698,32.796 144.147,32.796 
	144.147,34.397 139.375,34.397 139.375,47.11 137.472,47.11 "/>
<polygon fill="#FFFFFF" points="145.958,32.796 147.86,32.796 147.86,38.952 155.403,38.952 155.403,32.796 157.307,32.796 
	157.307,47.11 155.403,47.11 155.403,40.554 147.86,40.554 147.86,47.11 145.958,47.11 "/>
<polygon fill="none" stroke="#FFFFFF" stroke-width="0.107" points="145.958,32.796 147.86,32.796 147.86,38.952 155.403,38.952 
	155.403,32.796 157.307,32.796 157.307,47.11 155.403,47.11 155.403,40.554 147.86,40.554 147.86,47.11 145.958,47.11 "/>
<g>
	<defs>
		<polygon id="SVGID_5_" points="0.39,47.5 157.5,47.5 157.36,0.49 0.25,0.49 		"/>
	</defs>
	<clipPath id="SVGID_6_">
		<use xlink:href="#SVGID_5_"  overflow="visible"/>
	</clipPath>
	<path clip-path="url(#SVGID_6_)" fill="none" stroke="#FFFFFF" stroke-miterlimit="10" d="M38.842,14.209
		c-1.504,2.1-3.959,3.469-6.731,3.469c-0.438,0-0.869-0.035-1.287-0.1c0.063,0.419,0.097,0.848,0.097,1.287
		c0,2.888-1.466,5.435-3.692,6.926c1.369,1.003,3.056,1.593,4.882,1.593c4.577,0,8.286-3.728,8.286-8.321
		C40.397,17.252,39.82,15.575,38.842,14.209 M38.842,14.209c-1.504,2.1-3.959,3.469-6.731,3.469c-0.438,0-0.869-0.035-1.287-0.1
		c0.063,0.419,0.097,0.848,0.097,1.287c0,2.888-1.466,5.435-3.692,6.926c1.369,1.003,3.056,1.593,4.882,1.593
		c4.577,0,8.286-3.728,8.286-8.321C40.397,17.252,39.82,15.575,38.842,14.209 M32.111,0.99c-1.763,0-3.397,0.549-4.739,1.485
		c2.147,1.497,3.551,3.985,3.551,6.802c0,0.507-0.046,1.003-0.133,1.485c0.43-0.069,0.871-0.105,1.321-0.105
		c2.773,0,5.227,1.363,6.731,3.456c0.978-1.362,1.555-3.032,1.555-4.836C40.397,4.698,36.688,0.99,32.111,0.99 M32.111,0.99
		c-1.763,0-3.397,0.549-4.739,1.485c2.147,1.497,3.551,3.985,3.551,6.802c0,0.507-0.046,1.003-0.133,1.485
		c0.43-0.069,0.871-0.105,1.321-0.105c2.773,0,5.227,1.363,6.731,3.456c0.978-1.362,1.555-3.032,1.555-4.836
		C40.397,4.698,36.688,0.99,32.111,0.99 M15.687,14.097c-0.937,1.348-1.487,2.987-1.487,4.755c0,4.594,3.714,8.322,8.291,8.322
		c1.699,0,3.279-0.514,4.593-1.396c-2.068-1.513-3.411-3.963-3.411-6.728c0-0.509,0.046-1.007,0.133-1.491
		c-0.428,0.07-0.867,0.106-1.315,0.106C19.674,17.665,17.186,16.253,15.687,14.097 M15.687,14.097
		c-0.937,1.348-1.487,2.987-1.487,4.755c0,4.594,3.714,8.322,8.291,8.322c1.699,0,3.279-0.514,4.593-1.396
		c-2.068-1.513-3.411-3.963-3.411-6.728c0-0.509,0.046-1.007,0.133-1.491c-0.428,0.07-0.867,0.106-1.315,0.106
		C19.674,17.665,17.186,16.253,15.687,14.097 M22.491,0.99c-4.577,0-8.291,3.708-8.291,8.285c0,1.761,0.55,3.394,1.487,4.737
		c1.499-2.148,3.987-3.554,6.804-3.554c0.436,0,0.864,0.035,1.282,0.099c-0.065-0.417-0.099-0.847-0.099-1.282
		c0-2.816,1.404-5.303,3.552-6.801C25.884,1.539,24.252,0.99,22.491,0.99 M22.491,0.99c-4.577,0-8.291,3.708-8.291,8.285
		c0,1.761,0.55,3.394,1.487,4.737c1.499-2.148,3.987-3.554,6.804-3.554c0.436,0,0.864,0.035,1.282,0.099
		c-0.065-0.417-0.099-0.847-0.099-1.282c0-2.816,1.404-5.303,3.552-6.801C25.884,1.539,24.252,0.99,22.491,0.99"/>
	<path clip-path="url(#SVGID_6_)" fill="#FFFFFF" d="M27.215,10.231c-2.16,0-3.913,1.752-3.913,3.913s1.753,3.913,3.913,3.913
		c2.16,0,3.913-1.752,3.913-3.913S29.375,10.231,27.215,10.231 M34.229,14.144c0,3.873-3.142,7.013-7.014,7.013
		c-3.873,0-7.014-3.14-7.014-7.013c0-3.874,3.141-7.013,7.014-7.013C31.086,7.131,34.229,10.27,34.229,14.144"/>
</g>
</svg>
