<?xml version="1.0" encoding="utf-8"?>
<!-- Generator: Adobe Illustrator 15.0.2, SVG Export Plug-In . SVG Version: 6.00 Build 0)  -->
<!DOCTYPE svg PUBLIC "-//W3C//DTD SVG 1.1//EN" "http://www.w3.org/Graphics/SVG/1.1/DTD/svg11.dtd">
<svg version="1.1" id="Layer_1" xmlns="http://www.w3.org/2000/svg" xmlns:xlink="http://www.w3.org/1999/xlink" x="0px" y="0px"
	 width="70.5px" height="72.5px" viewBox="0 0 70.5 72.5" enable-background="new 0 0 70.5 72.5" xml:space="preserve">
<g>
	<defs>
		<rect id="SVGID_1_" x="0.25" y="0.319" width="70" height="71.931"/>
	</defs>
	<clipPath id="SVGID_2_">
		<use xlink:href="#SVGID_1_"  overflow="visible"/>
	</clipPath>
	<path clip-path="url(#SVGID_2_)" fill="#FFFFFF" d="M42.979,28.323c14.115,8.359,7.656,12.446-25.516,43.824
		c0,0,33.17,0.003,33.172-0.002C80.219,61.203,75.268,34.859,42.979,28.323 M46.504,28.101C65.34,21.164,62.18,4.462,41.639,0.319
		c8.98,5.297,4.865,7.896-16.253,27.782C25.386,28.101,46.504,28.104,46.504,28.101"/>
	<path clip-path="url(#SVGID_2_)" fill="#FFFFFF" d="M6.845,63.281c0.314-1.335,0.684-2.28,1.127-2.816
		c0.627-0.771,1.438-1.161,2.43-1.161c1.051,0,1.921,0.427,2.607,1.27c0.827,1.044,1.243,2.557,1.243,4.548v7.129h-0.378
		c0-0.656-0.057-1.103-0.179-1.335c-0.121-0.229-0.28-0.389-0.475-0.488c-0.189-0.093-0.665-0.142-1.432-0.142H2.719
		c-0.762,0-1.248,0.049-1.443,0.142c-0.2,0.1-0.362,0.259-0.475,0.496c-0.119,0.232-0.179,0.682-0.179,1.327H0.25v-6.721
		c0-1.61,0.14-2.745,0.427-3.415c0.291-0.673,0.718-1.2,1.291-1.581c0.567-0.386,1.173-0.581,1.81-0.581
		c0.681,0,1.281,0.246,1.816,0.738C6.116,61.174,6.532,62.043,6.845,63.281 M6.573,67.048c0-0.991-0.103-1.721-0.325-2.186
		c-0.221-0.47-0.535-0.824-0.935-1.073c-0.402-0.251-0.921-0.375-1.543-0.375c-0.618,0-1.132,0.121-1.532,0.37
		c-0.402,0.248-0.705,0.594-0.91,1.054c-0.211,0.459-0.311,1.194-0.306,2.21H6.573z M7.352,67.048h4.491h0.519
		c0.37,0,0.648-0.092,0.837-0.28c0.19-0.189,0.282-0.465,0.282-0.832c0-0.546-0.12-1.043-0.368-1.503
		c-0.232-0.454-0.592-0.806-1.059-1.052c-0.462-0.242-0.978-0.361-1.549-0.361c-0.656,0-1.24,0.132-1.753,0.413
		c-0.519,0.28-0.89,0.684-1.092,1.219C7.445,65.184,7.343,65.983,7.352,67.048"/>
	<path clip-path="url(#SVGID_2_)" fill="#FFFFFF" d="M12.789,52.526c1.062,1.179,1.589,2.232,1.589,3.167
		c0,0.552-0.179,1.011-0.541,1.373c-0.356,0.362-0.813,0.546-1.351,0.546c-0.735,0-1.391-0.313-1.981-0.943
		c-0.592-0.635-1.367-2.019-2.343-4.143H7.184c-0.735,0-1.197,0.043-1.383,0.119c-0.189,0.081-0.357,0.232-0.497,0.448
		c-0.141,0.222-0.214,0.471-0.214,0.741c0,0.444,0.1,0.812,0.295,1.1c0.129,0.181,0.275,0.268,0.438,0.268
		c0.146,0,0.329-0.093,0.54-0.284c0.297-0.268,0.584-0.397,0.859-0.397c0.341,0,0.633,0.127,0.87,0.381
		c0.243,0.251,0.362,0.576,0.362,0.984c0,0.435-0.129,0.8-0.397,1.092c-0.262,0.291-0.565,0.44-0.927,0.44
		c-0.494,0-0.962-0.198-1.41-0.589c-0.454-0.396-0.8-0.943-1.046-1.644c-0.24-0.708-0.362-1.432-0.362-2.193
		c0-0.916,0.197-1.644,0.589-2.169c0.387-0.534,0.808-0.875,1.259-1.036c0.284-0.099,0.949-0.149,1.992-0.149h3.745
		c0.438,0,0.716-0.011,0.829-0.046c0.114-0.032,0.198-0.086,0.257-0.154c0.049-0.069,0.079-0.147,0.079-0.243
		c0-0.181-0.133-0.358-0.387-0.541l0.249-0.31c0.503,0.345,0.875,0.697,1.105,1.073c0.23,0.363,0.349,0.78,0.349,1.256
		c0,0.541-0.13,0.978-0.4,1.286C13.717,52.272,13.32,52.462,12.789,52.526 M12.042,52.526H8.852
		c0.489,0.838,0.999,1.462,1.559,1.864c0.367,0.271,0.746,0.406,1.119,0.406c0.313,0,0.594-0.114,0.832-0.344
		c0.181-0.174,0.275-0.41,0.275-0.722C12.636,53.389,12.435,52.985,12.042,52.526"/>
	<path clip-path="url(#SVGID_2_)" fill="#FFFFFF" d="M14.634,42.871l-7.137,3.105c-1.078,0.467-1.737,0.812-1.989,1.038
		c-0.248,0.221-0.421,0.491-0.521,0.805h-0.37v-5.134h0.37c0.016,0.34,0.078,0.578,0.198,0.713c0.118,0.14,0.259,0.205,0.426,0.205
		c0.265,0,0.768-0.167,1.541-0.518l3.769-1.645l-2.899-1.118c-1.043-0.399-1.768-0.603-2.176-0.603
		c-0.251,0-0.462,0.081-0.608,0.252c-0.151,0.173-0.235,0.467-0.251,0.896h-0.37v-3.227h0.37c0.035,0.311,0.159,0.568,0.37,0.768
		c0.211,0.2,0.922,0.529,2.14,0.999l7.156,2.754c1.773,0.695,2.87,1.214,3.28,1.549c0.573,0.473,0.86,1.062,0.86,1.772
		c0,0.578-0.163,1.035-0.498,1.393c-0.324,0.354-0.718,0.523-1.183,0.523c-0.4,0-0.735-0.116-0.989-0.359
		c-0.265-0.243-0.395-0.54-0.395-0.899c0-0.343,0.114-0.619,0.335-0.832c0.217-0.211,0.557-0.314,1.027-0.322
		c0.26-0.008,0.438-0.038,0.514-0.103c0.078-0.048,0.116-0.124,0.116-0.228c0-0.159-0.1-0.33-0.305-0.513
		c-0.292-0.276-0.957-0.595-1.995-0.967L14.634,42.871z"/>
	<path clip-path="url(#SVGID_2_)" fill="#FFFFFF" d="M1.071,32.892h3.546v-2.286h1.018v2.286h5.937c0.554,0,0.908-0.022,1.076-0.07
		c0.156-0.054,0.294-0.152,0.389-0.271c0.094-0.137,0.14-0.259,0.14-0.367c0-0.449-0.33-0.868-1.011-1.265l0.228-0.313
		c1.318,0.562,1.983,1.462,1.983,2.713c0,0.613-0.168,1.132-0.508,1.551c-0.341,0.421-0.722,0.692-1.135,0.811
		c-0.238,0.07-0.865,0.108-1.9,0.108H5.635v1.271H5.281c-0.621-0.87-1.27-1.611-1.945-2.224c-0.671-0.608-1.427-1.141-2.265-1.597
		V32.892z"/>
	<path clip-path="url(#SVGID_2_)" fill="#FFFFFF" d="M9.072,21.526v5.308c1.278-0.06,2.289-0.4,3.035-1.025
		c0.567-0.472,0.854-1.051,0.854-1.716c0-0.413-0.114-0.791-0.349-1.129c-0.23-0.341-0.646-0.702-1.248-1.092l0.251-0.346
		c1.059,0.519,1.808,1.097,2.248,1.73c0.441,0.635,0.662,1.367,0.662,2.191c0,1.427-0.548,2.513-1.645,3.237
		c-0.887,0.595-1.989,0.89-3.302,0.89c-1.606,0-2.886-0.435-3.832-1.303c-0.957-0.865-1.435-1.881-1.435-3.051
		c0-0.97,0.402-1.818,1.205-2.534C6.313,21.964,7.497,21.58,9.072,21.526 M8.402,24.072c-1.116,0-1.88,0.057-2.289,0.178
		c-0.41,0.122-0.729,0.308-0.94,0.562c-0.125,0.146-0.187,0.341-0.187,0.584c0,0.354,0.182,0.648,0.53,0.878
		c0.614,0.408,1.451,0.608,2.521,0.608h0.365V24.072z"/>
	<path clip-path="url(#SVGID_2_)" fill="#FFFFFF" d="M11.75,12.469L12,12.15c0.853,0.454,1.486,1.022,1.897,1.7
		c0.424,0.678,0.629,1.394,0.629,2.159c0,1.289-0.484,2.311-1.454,3.08c-0.962,0.773-2.126,1.16-3.493,1.16
		c-1.308,0-2.47-0.354-3.462-1.062c-1.2-0.849-1.805-2.016-1.805-3.51c0-0.998,0.257-1.795,0.754-2.387
		c0.508-0.599,1.065-0.889,1.672-0.889c0.392,0,0.7,0.117,0.935,0.36c0.235,0.238,0.352,0.551,0.352,0.94
		c0,0.411-0.13,0.746-0.4,1.014C7.356,14.982,6.88,15.142,6.2,15.198c-0.432,0.046-0.729,0.146-0.905,0.306
		c-0.17,0.159-0.256,0.345-0.256,0.559c0,0.335,0.173,0.619,0.527,0.851c0.527,0.365,1.335,0.543,2.423,0.543
		c0.909,0,1.771-0.143,2.6-0.432c0.833-0.292,1.448-0.686,1.859-1.189c0.292-0.373,0.443-0.819,0.443-1.335
		c0-0.335-0.086-0.651-0.237-0.956C12.485,13.239,12.188,12.882,11.75,12.469"/>
	<path clip-path="url(#SVGID_2_)" fill="#FFFFFF" d="M0.25,6.983h5.596C5.287,6.453,4.892,5.967,4.66,5.524
		C4.427,5.091,4.311,4.627,4.311,4.151c0-0.605,0.176-1.121,0.522-1.559c0.346-0.427,0.745-0.711,1.21-0.849
		C6.505,1.6,7.286,1.527,8.394,1.527h3.773c0.735,0,1.186-0.067,1.367-0.208c0.178-0.135,0.292-0.413,0.341-0.835h0.378v4.902
		h-0.378c-0.049-0.34-0.184-0.602-0.406-0.775c-0.178-0.125-0.611-0.19-1.302-0.19H7.859c-0.805,0-1.302,0.033-1.502,0.092
		C6.152,4.578,5.989,4.681,5.878,4.832c-0.11,0.146-0.167,0.314-0.167,0.492c0,0.276,0.1,0.548,0.278,0.811
		c0.189,0.259,0.519,0.545,1,0.848h5.178c0.686,0,1.113-0.049,1.281-0.151c0.234-0.135,0.375-0.408,0.427-0.822h0.378v4.916h-0.378
		c-0.038-0.408-0.168-0.7-0.39-0.876c-0.146-0.116-0.583-0.173-1.318-0.173H2.344c-0.732,0-1.186,0.065-1.37,0.203
		c-0.178,0.135-0.297,0.416-0.351,0.846H0.25V6.983z"/>
</g>
</svg>
