<?xml version="1.0" encoding="utf-8"?>
<!-- Generator: Adobe Illustrator 15.0.2, SVG Export Plug-In . SVG Version: 6.00 Build 0)  -->
<!DOCTYPE svg PUBLIC "-//W3C//DTD SVG 1.1//EN" "http://www.w3.org/Graphics/SVG/1.1/DTD/svg11.dtd">
<svg version="1.1" id="Layer_1" xmlns="http://www.w3.org/2000/svg" xmlns:xlink="http://www.w3.org/1999/xlink" x="0px" y="0px"
	 width="158.1px" height="31.9px" viewBox="0 0 158.1 31.9" enable-background="new 0 0 158.1 31.9" xml:space="preserve">
<g>
	<g>
		<defs>
			<rect id="SVGID_1_" x="0.1" y="0.05" width="157.958" height="31.666"/>
		</defs>
		<clipPath id="SVGID_2_">
			<use xlink:href="#SVGID_1_"  overflow="visible"/>
		</clipPath>
		<path clip-path="url(#SVGID_2_)" fill="#FFFFFF" d="M1.972,28.875h3.21l-1.63-4.123L1.972,28.875z M0.1,31.471l2.978-7.803
			c0.141-0.081,0.256-0.153,0.535-0.153c0.264,0,0.425,0.138,0.507,0.346l2.956,7.529c-0.083,0.178-0.265,0.208-0.44,0.208
			c-0.23,0-0.427-0.091-0.507-0.356l-0.647-1.601h-3.8l-0.634,1.673c-0.083,0.218-0.231,0.284-0.509,0.284
			C0.32,31.598,0.18,31.553,0.1,31.471"/>
		<path clip-path="url(#SVGID_2_)" fill="#FFFFFF" d="M13.401,23.607c0.091-0.056,0.231-0.091,0.45-0.091
			c0.254,0,0.45,0.091,0.45,0.355v4.799c0,2.027-0.98,3.045-2.979,3.045c-1.998,0-2.912-0.981-2.912-3.045l-0.009-5.063
			c0.091-0.056,0.265-0.091,0.46-0.091c0.267,0,0.44,0.091,0.44,0.355v4.667c0,1.561,0.554,2.358,2.021,2.358
			c1.535,0,2.079-0.783,2.079-2.349V23.607z"/>
		<path clip-path="url(#SVGID_2_)" fill="#FFFFFF" d="M19.402,24.37v7.137c-0.091,0.071-0.267,0.092-0.497,0.092
			c-0.208,0-0.38-0.102-0.38-0.411V24.37h-2.727c-0.057-0.117-0.103-0.254-0.103-0.437c0-0.204,0.114-0.417,0.473-0.417h5.96
			c0.056,0.07,0.103,0.197,0.103,0.37c0,0.29-0.126,0.483-0.381,0.483H19.402z"/>
		<path clip-path="url(#SVGID_2_)" fill="#FFFFFF" d="M26.408,30.933c1.477,0,2.438-0.927,2.438-3.366
			c0-2.272-0.982-3.36-2.449-3.36c-1.525,0-2.529,1.099-2.529,3.36C23.868,30.006,24.932,30.933,26.408,30.933 M26.396,23.404
			c1.988,0,3.327,1.327,3.327,4.158c0,2.974-1.351,4.154-3.327,4.154c-1.996,0-3.406-1.211-3.406-4.154
			C22.991,24.731,24.388,23.404,26.396,23.404"/>
		<path clip-path="url(#SVGID_2_)" fill="#FFFFFF" d="M35.019,30.678l-2.286-5.592l-0.379,6.191c-0.013,0.244-0.187,0.32-0.44,0.32
			c-0.173,0-0.359-0.03-0.452-0.076l0.52-7.381c0.034-0.382,0.221-0.626,0.622-0.626c0.211,0,0.314,0.026,0.44,0.072l2.566,6.374
			l2.193-5.957c0.103-0.361,0.311-0.489,0.613-0.489c0.275,0,0.391,0.046,0.541,0.117l0.877,7.849
			c-0.104,0.072-0.264,0.117-0.474,0.117c-0.241,0-0.438-0.056-0.47-0.32l-0.556-6.191l-2.115,5.592
			c-0.115,0.437-0.345,0.488-0.609,0.488C35.332,31.167,35.135,31.034,35.019,30.678"/>
		<path clip-path="url(#SVGID_2_)" fill="#FFFFFF" d="M44.981,30.933c1.479,0,2.436-0.927,2.436-3.366
			c0-2.272-0.982-3.36-2.448-3.36c-1.523,0-2.528,1.099-2.528,3.36C42.441,30.006,43.502,30.933,44.981,30.933 M44.969,23.404
			c1.986,0,3.327,1.327,3.327,4.158c0,2.974-1.351,4.154-3.327,4.154c-1.995,0-3.405-1.211-3.405-4.154
			C41.564,24.731,42.961,23.404,44.969,23.404"/>
		<path clip-path="url(#SVGID_2_)" fill="#FFFFFF" d="M52.773,24.37v7.137c-0.093,0.071-0.264,0.092-0.497,0.092
			c-0.208,0-0.38-0.102-0.38-0.411V24.37H49.17c-0.061-0.117-0.105-0.254-0.105-0.437c0-0.204,0.118-0.417,0.475-0.417h5.958
			c0.057,0.07,0.103,0.197,0.103,0.37c0,0.29-0.127,0.483-0.38,0.483H52.773z"/>
		<path clip-path="url(#SVGID_2_)" fill="#FFFFFF" d="M57.886,23.872v7.61c-0.117,0.07-0.243,0.116-0.487,0.116
			c-0.228,0-0.414-0.092-0.414-0.427v-7.563c0.105-0.057,0.264-0.093,0.485-0.093C57.7,23.515,57.886,23.608,57.886,23.872"/>
		<path clip-path="url(#SVGID_2_)" fill="#FFFFFF" d="M60.355,23.831l2.586,6.548c0.995-1.647,2.333-5.176,2.542-6.757
			c0.127-0.07,0.255-0.105,0.474-0.105c0.173,0,0.323,0.091,0.323,0.233c0,0.066-0.012,0.244-0.082,0.6
			c-0.241,1.322-1.616,4.86-2.99,7.183c-0.127,0.046-0.233,0.066-0.394,0.066c-0.217,0-0.347-0.117-0.449-0.366l-3.003-7.625
			c0.115-0.056,0.302-0.091,0.52-0.091C60.112,23.516,60.262,23.607,60.355,23.831"/>
		<path clip-path="url(#SVGID_2_)" fill="#FFFFFF" d="M68.655,27.882v2.862h4.539c0.058,0.061,0.102,0.163,0.102,0.371
			c0,0.284-0.114,0.482-0.367,0.482h-4.771c-0.194,0-0.405-0.056-0.405-0.427v-7.564c0.092-0.056,0.211-0.092,0.428-0.092h5.013
			c0.058,0.062,0.102,0.158,0.102,0.371c0,0.29-0.114,0.483-0.367,0.483h-4.274v2.659h3.858c0.056,0.056,0.102,0.197,0.102,0.406
			c0,0.284-0.127,0.447-0.357,0.447H68.655z"/>
		<path clip-path="url(#SVGID_2_)" fill="#FFFFFF" d="M78.766,24.233v3.131h1.757c0.97,0,1.787-0.498,1.787-1.606
			c0-1.107-0.645-1.524-1.638-1.524H78.766z M80.846,23.516c1.27,0,2.321,0.59,2.321,2.231c0,1.281-0.891,2.038-1.883,2.262
			c0.748,0.981,1.306,2.795,2.113,2.795h0.324c0.046,0.052,0.079,0.163,0.079,0.296c0,0.289-0.196,0.498-0.691,0.498
			c-1.19,0-1.712-2.334-2.682-3.518h-1.662v3.416c-0.08,0.071-0.267,0.102-0.449,0.102c-0.244,0-0.451-0.056-0.451-0.411v-7.585
			c0.092-0.062,0.253-0.086,0.451-0.086H80.846z"/>
		<path clip-path="url(#SVGID_2_)" fill="#FFFFFF" d="M86.5,27.882v2.862h4.542c0.056,0.061,0.102,0.163,0.102,0.371
			c0,0.284-0.118,0.482-0.37,0.482h-4.768c-0.199,0-0.404-0.056-0.404-0.427v-7.564c0.091-0.056,0.205-0.092,0.424-0.092h5.017
			c0.056,0.062,0.102,0.158,0.102,0.371c0,0.29-0.118,0.483-0.37,0.483H86.5v2.659h3.857c0.057,0.056,0.103,0.197,0.103,0.406
			c0,0.284-0.123,0.447-0.357,0.447H86.5z"/>
		<path clip-path="url(#SVGID_2_)" fill="#FFFFFF" d="M98.706,30.272c0,0.208-0.094,0.381-0.3,0.533
			c-0.245,0.239-0.976,0.91-2.508,0.91c-2.01,0-3.419-1.21-3.419-4.152c0-2.832,1.374-4.159,3.361-4.159
			c1.36,0,2.044,0.428,2.484,0.956c0.16,0.137,0.251,0.264,0.251,0.498c0,0.219-0.16,0.355-0.334,0.412
			c-0.521-0.656-1.237-1.018-2.366-1.018c-1.488,0-2.508,1.053-2.508,3.315c0,2.439,1.051,3.318,2.563,3.318
			c1.006,0,1.837-0.34,2.379-0.985C98.472,29.89,98.706,29.992,98.706,30.272"/>
		<path clip-path="url(#SVGID_2_)" fill="#FFFFFF" d="M101.241,24.233v3.131h1.756c0.968,0,1.79-0.498,1.79-1.606
			c0-1.107-0.646-1.524-1.64-1.524H101.241z M103.32,23.516c1.27,0,2.322,0.59,2.322,2.231c0,1.281-0.891,2.038-1.882,2.262
			c0.747,0.981,1.302,2.795,2.113,2.795h0.321c0.049,0.052,0.083,0.163,0.083,0.296c0,0.289-0.199,0.498-0.695,0.498
			c-1.189,0-1.708-2.334-2.68-3.518h-1.662v3.416c-0.081,0.071-0.264,0.102-0.45,0.102c-0.238,0-0.451-0.056-0.451-0.411v-7.585
			c0.094-0.062,0.255-0.086,0.451-0.086H103.32z"/>
		<path clip-path="url(#SVGID_2_)" fill="#FFFFFF" d="M112.994,23.607c0.092-0.056,0.233-0.091,0.45-0.091
			c0.257,0,0.45,0.091,0.45,0.355v4.799c0,2.027-0.98,3.045-2.979,3.045c-1.995,0-2.912-0.981-2.912-3.045l-0.01-5.063
			c0.092-0.056,0.268-0.091,0.462-0.091c0.265,0,0.44,0.091,0.44,0.355v4.667c0,1.561,0.553,2.358,2.02,2.358
			c1.536,0,2.079-0.783,2.079-2.349V23.607z"/>
		<path clip-path="url(#SVGID_2_)" fill="#FFFFFF" d="M117.066,23.872v7.61c-0.116,0.07-0.242,0.116-0.484,0.116
			c-0.232,0-0.416-0.092-0.416-0.427v-7.563c0.104-0.057,0.266-0.093,0.487-0.093C116.879,23.515,117.066,23.608,117.066,23.872"/>
		<path clip-path="url(#SVGID_2_)" fill="#FFFFFF" d="M122.159,24.37v7.137c-0.093,0.071-0.268,0.092-0.498,0.092
			c-0.209,0-0.38-0.102-0.38-0.411V24.37h-2.724c-0.06-0.117-0.105-0.254-0.105-0.437c0-0.204,0.114-0.417,0.474-0.417h5.959
			c0.058,0.07,0.101,0.197,0.101,0.37c0,0.29-0.125,0.483-0.378,0.483H122.159z"/>
		<path clip-path="url(#SVGID_2_)" fill="#FFFFFF" d="M129.721,30.678l-2.289-5.592l-0.38,6.191c-0.014,0.244-0.184,0.32-0.44,0.32
			c-0.173,0-0.359-0.03-0.449-0.076l0.518-7.381c0.036-0.382,0.221-0.626,0.624-0.626c0.207,0,0.312,0.026,0.441,0.072l2.562,6.374
			l2.196-5.957c0.103-0.361,0.31-0.489,0.61-0.489c0.28,0,0.392,0.046,0.544,0.117l0.876,7.849
			c-0.104,0.072-0.265,0.117-0.473,0.117c-0.243,0-0.438-0.056-0.473-0.32l-0.555-6.191l-2.113,5.592
			c-0.119,0.437-0.349,0.488-0.613,0.488C130.03,31.167,129.833,31.034,129.721,30.678"/>
		<path clip-path="url(#SVGID_2_)" fill="#FFFFFF" d="M137.624,27.882v2.862h4.537c0.061,0.061,0.104,0.163,0.104,0.371
			c0,0.284-0.112,0.482-0.367,0.482h-4.77c-0.195,0-0.404-0.056-0.404-0.427v-7.564c0.092-0.056,0.209-0.092,0.426-0.092h5.011
			c0.061,0.062,0.104,0.158,0.104,0.371c0,0.29-0.112,0.483-0.367,0.483h-4.274v2.659h3.858c0.056,0.056,0.103,0.197,0.103,0.406
			c0,0.284-0.127,0.447-0.357,0.447H137.624z"/>
		<path clip-path="url(#SVGID_2_)" fill="#FFFFFF" d="M144.921,25.239l0.045,6.258c-0.07,0.057-0.299,0.102-0.507,0.102
			c-0.188,0-0.393-0.045-0.393-0.411v-7.58c0.112-0.056,0.278-0.091,0.475-0.091c0.195,0,0.319,0.091,0.412,0.223l4.332,6.243
			l-0.025-6.349c0.094-0.072,0.221-0.117,0.428-0.117c0.231,0,0.475,0.091,0.475,0.355v7.65c-0.079,0.046-0.23,0.076-0.462,0.076
			c-0.173,0-0.312-0.076-0.427-0.229L144.921,25.239z"/>
		<path clip-path="url(#SVGID_2_)" fill="#FFFFFF" d="M155.229,24.37v7.137c-0.096,0.071-0.266,0.092-0.498,0.092
			c-0.206,0-0.379-0.102-0.379-0.411V24.37h-2.726c-0.061-0.117-0.104-0.254-0.104-0.437c0-0.204,0.115-0.417,0.473-0.417h5.959
			c0.056,0.07,0.104,0.197,0.104,0.37c0,0.29-0.125,0.483-0.382,0.483H155.229z"/>
		<path clip-path="url(#SVGID_2_)" fill="#FFFFFF" d="M0.694,0.49C1.87,0.269,3.402,0.172,5.083,0.172
			c1.858,0,3.655,0.194,5.043,1.172c1.057,0.73,1.501,1.828,1.501,2.971c0,1.464-0.913,2.878-2.889,3.584v0.1
			c2.3,0.531,3.537,2.117,3.537,3.921c0,1.363-0.53,2.41-1.473,3.213c-1.178,1.078-3.185,1.662-6.514,1.662
			c-1.475,0-2.712-0.076-3.594-0.173V0.49z M4.552,6.994h0.827c1.386,0,2.448-0.971,2.448-2.313c0-1.194-0.68-2.119-2.271-2.119
			c-0.412,0-0.768,0.02-1.004,0.096V6.994z M4.552,14.284c0.236,0.046,0.499,0.046,0.857,0.046c1.561,0,2.859-0.778,2.859-2.456
			c0-1.634-1.356-2.488-2.889-2.516H4.552V14.284z"/>
		<path clip-path="url(#SVGID_2_)" fill="#FFFFFF" d="M18.08,12.921l-0.882,3.752h-3.743l4.303-16.425h4.629l3.862,16.425h-3.745
			l-0.854-3.752H18.08z M21.297,10.433l-0.651-3.439c-0.206-0.996-0.473-2.628-0.649-3.726h-0.089
			c-0.206,1.098-0.499,2.803-0.704,3.751l-0.74,3.414H21.297z"/>
		<path clip-path="url(#SVGID_2_)" fill="#FFFFFF" d="M29.842,16.673v-6.288L25.479,0.248h4.126l1.358,3.922
			c0.356,1.047,0.736,2.265,1.032,3.485h0.061c0.236-1.195,0.558-2.389,0.912-3.561l1.178-3.846h4.01l-4.451,10.015v6.41H29.842z"/>
		<path clip-path="url(#SVGID_2_)" fill="#FFFFFF" d="M38.953,13.404c0.792,0.366,2.15,0.63,3.269,0.63
			c1.83,0,2.714-0.777,2.714-1.845c0-1.195-0.884-1.779-2.566-2.684c-2.71-1.362-3.743-3.096-3.743-4.58
			c0-2.628,2.121-4.827,6.279-4.827c1.297,0,2.535,0.29,3.125,0.587l-0.62,2.753c-0.56-0.292-1.414-0.559-2.534-0.559
			c-1.651,0-2.447,0.828-2.447,1.705c0,0.976,0.59,1.487,2.74,2.557c2.628,1.317,3.598,2.974,3.598,4.707
			c0,2.995-2.683,4.972-6.573,4.972c-1.592,0-3.156-0.346-3.805-0.661L38.953,13.404z"/>
	</g>
	<rect x="51.006" y="0.248" fill="#FFFFFF" width="3.863" height="16.425"/>
	<g>
		<defs>
			<rect id="SVGID_3_" x="0.1" y="0.05" width="157.958" height="31.666"/>
		</defs>
		<clipPath id="SVGID_4_">
			<use xlink:href="#SVGID_3_"  overflow="visible"/>
		</clipPath>
		<path clip-path="url(#SVGID_4_)" fill="#FFFFFF" d="M58.315,0.489c0.972-0.195,2.387-0.317,3.922-0.317
			c2.504,0,4.245,0.488,5.514,1.464c1.708,1.265,2.593,3.431,2.593,6.629c0,3.314-1.031,5.673-2.771,6.949
			c-1.325,1.067-3.301,1.581-6.074,1.581c-1.207,0-2.416-0.102-3.184-0.173V0.489z M62.18,14.136
			c0.175,0.051,0.473,0.051,0.677,0.051c1.857,0,3.477-1.515,3.477-6.044c0-3.366-1.061-5.412-3.389-5.412
			c-0.266,0-0.53,0-0.765,0.074V14.136z"/>
	</g>
	<polygon fill="#FFFFFF" points="81.192,9.459 76.654,9.459 76.654,13.893 81.779,13.893 81.779,16.674 72.788,16.674 72.788,0.249 
		81.425,0.249 81.425,3.023 76.654,3.023 76.654,6.804 81.192,6.804 	"/>
	<g>
		<defs>
			<rect id="SVGID_5_" x="0.1" y="0.05" width="157.958" height="31.666"/>
		</defs>
		<clipPath id="SVGID_6_">
			<use xlink:href="#SVGID_5_"  overflow="visible"/>
		</clipPath>
		<path clip-path="url(#SVGID_6_)" fill="#FFFFFF" d="M100.111,16.235c-0.853,0.29-2.68,0.585-4.125,0.585
			c-2.267,0-3.98-0.538-5.305-1.637c-1.71-1.368-2.624-3.802-2.566-6.632c0.088-5.97,4.217-8.453,8.433-8.453
			c1.504,0,2.623,0.249,3.242,0.49l-0.677,2.75c-0.56-0.216-1.298-0.361-2.271-0.361c-2.62,0-4.719,1.485-4.719,5.775
			c0,3.95,1.86,5.358,3.658,5.358c0.353,0,0.62-0.02,0.767-0.076V10.07h-1.767V7.457h5.33V16.235z"/>
		<path clip-path="url(#SVGID_6_)" fill="#FFFFFF" d="M103.003,0.49c1.204-0.196,2.738-0.318,4.215-0.318
			c2.12,0,4.009,0.247,5.306,1.22c1.209,0.905,1.565,1.998,1.565,3.411c0,1.754-1.035,3.34-3.068,4.118v0.051
			c1.355,0.437,2.033,1.484,2.416,3.238c0.384,1.825,0.916,3.853,1.269,4.463h-4.038c-0.236-0.463-0.68-2.12-0.974-3.93
			c-0.355-2.043-0.975-2.628-2.271-2.628h-0.559v6.558h-3.86V0.49z M106.864,7.655h0.678c1.681,0,2.654-1.123,2.654-2.562
			c0-1.385-0.679-2.387-2.418-2.435c-0.324,0-0.711,0.026-0.914,0.097V7.655z"/>
		<path clip-path="url(#SVGID_6_)" fill="#FFFFFF" d="M128.585,8.163c0,6.197-2.649,8.708-6.423,8.708
			c-4.515,0-6.276-3.95-6.276-8.461c0-4.486,2.147-8.36,6.541-8.36C127.232,0.05,128.585,4.412,128.585,8.163 M119.894,8.458
			c0,3.731,0.854,5.632,2.415,5.632c1.619,0,2.243-2.44,2.243-5.782c0-2.869-0.532-5.477-2.273-5.477
			C120.748,2.831,119.894,4.925,119.894,8.458"/>
		<path clip-path="url(#SVGID_6_)" fill="#FFFFFF" d="M134.774,0.249v10.675c0,2.41,0.886,3.142,1.892,3.142
			c1.116,0,1.913-0.661,1.913-3.142V0.249h3.866v10.108c0,4.222-1.918,6.515-5.751,6.515c-4.158,0-5.779-2.369-5.779-6.487V0.249
			H134.774z"/>
		<path clip-path="url(#SVGID_6_)" fill="#FFFFFF" d="M145.768,0.49c1.096-0.196,2.566-0.318,4.043-0.318
			c2.299,0,4.097,0.269,5.393,1.266c1.181,0.859,1.711,2.221,1.711,3.609c0,1.779-0.651,3.025-1.684,3.947
			c-1.232,1.075-3.237,1.558-4.832,1.558h-0.766v6.121h-3.865V0.49z M149.633,7.947c0.178,0.051,0.384,0.051,0.618,0.051
			c1.943,0,2.831-1.149,2.831-2.687c0-1.438-0.705-2.557-2.506-2.557c-0.354,0-0.704,0.051-0.943,0.125V7.947z"/>
	</g>
</g>
</svg>
