<?xml version="1.0" encoding="utf-8"?>
<!-- Generator: Adobe Illustrator 15.0.2, SVG Export Plug-In . SVG Version: 6.00 Build 0)  -->
<!DOCTYPE svg PUBLIC "-//W3C//DTD SVG 1.1//EN" "http://www.w3.org/Graphics/SVG/1.1/DTD/svg11.dtd">
<svg version="1.1" id="Layer_1" xmlns="http://www.w3.org/2000/svg" xmlns:xlink="http://www.w3.org/1999/xlink" x="0px" y="0px"
	 width="106.2px" height="56.1px" viewBox="0 0 106.2 56.1" enable-background="new 0 0 106.2 56.1" xml:space="preserve">
<g>
	<g>
		<defs>
			<rect id="SVGID_1_" x="0.2" y="0.082" width="105.759" height="55.918"/>
		</defs>
		<clipPath id="SVGID_2_">
			<use xlink:href="#SVGID_1_"  overflow="visible"/>
		</clipPath>
		<path clip-path="url(#SVGID_2_)" fill="#FFFFFF" d="M6.156,7.897c0-5.276-0.842-5.482-5.956-6.653V0.083h16.841
			c4.33,0,13.533,0.407,13.533,11.045c0,7.068-4.391,9.744-7.159,10.429v0.136c4.209,0.894,9.202,3.636,9.202,12.144
			c0,12.409-11.424,12.409-16,12.409H6.156V7.897z M11.389,21.05h2.944c3.369,0,10.346-0.939,10.346-9.372
			c0-7.069-4.09-8.915-8.9-8.915c-4.152,0-4.39,0.546-4.39,5.134V21.05z M11.389,37.951c0,5.212,0,5.618,4.99,5.618
			c5.237,0,10.343-1.979,10.343-9.733c0-10.503-8.539-12.203-12.389-12.203h-2.944V37.951z"/>
		<path clip-path="url(#SVGID_2_)" fill="#FFFFFF" d="M36.23,29.62c0-2.05-0.412-2.108-2.599-2.611v-0.493h7.277
			c3.137,0,5.735,0.851,5.735,5.068c0,3.354-2.188,4.436-4.451,4.789l5.195,9.873h-2.521l-5.118-9.707h-1.283v9.707H36.23V29.62z
			 M38.465,35.398h0.692c1.831,0,4.963,0,4.963-4.104c0-2.788-1.824-3.639-3.833-3.639c-1.722,0-1.822,0.236-1.822,1.964V35.398z"/>
		<path clip-path="url(#SVGID_2_)" fill="#FFFFFF" d="M51.14,29.855c0-2.022-0.8-1.932-2.575-2.167v-0.503l4.81-0.669v19.729H51.14
			V29.855z"/>
		<path clip-path="url(#SVGID_2_)" fill="#FFFFFF" d="M58.717,29.855c0-2.227-0.333-2.343-2.571-2.847v-0.493h5.447
			c5.453,0,9.438,1.204,9.438,9.883c0,8.68-4.163,9.846-9.536,9.846h-2.778V29.855z M60.954,42.933c0,1.44,0,2.173,1.363,2.173
			c4.142,0,6.198-2.579,6.198-8.706c0-5.052-1.209-8.744-5.818-8.744c-1.54,0-1.743,0.3-1.743,2.2V42.933z"/>
		<path clip-path="url(#SVGID_2_)" fill="#FFFFFF" d="M87.099,45.727c-0.745,0.197-3.061,0.84-5.396,0.84
			c-5.272,0-7.643-4.04-7.643-10.964c0-5.603,1.597-9.412,6.996-9.412c3.857,0,5.737,1.969,5.889,4.397h-2.52
			c-0.127-1.14-0.72-3.077-3.421-3.077c-4.01,0-4.42,4.661-4.42,7.861c0,4.923,1.36,9.883,6.301,9.883
			c0.848,0,1.258-0.059,1.976-0.262v-6.25c0-2.317-0.362-2.552-2.595-2.959v-0.492h4.833V45.727z"/>
		<path clip-path="url(#SVGID_2_)" fill="#FFFFFF" d="M92.159,29.599c0-1.675-0.358-2.231-2.596-2.59v-0.492h12.134l0.13,3.574
			h-0.797c-0.256-1.52-0.232-2.435-2.363-2.435h-2.698c-1.469,0-1.57,0.354-1.57,1.942v5.773h3.267c2.131,0,2.313-1.054,2.517-2.435
			h0.593v6.068h-0.593c-0.256-1.702-0.329-2.488-2.517-2.488h-3.267v6.886c0,1.702,0.232,1.702,2.108,1.702h2.775
			c1.748,0,1.88-0.621,2.236-2.841h0.796l-0.178,3.98h-9.978V29.599z"/>
		<path clip-path="url(#SVGID_2_)" fill="#FFFFFF" d="M6.217,24.521c2.701-0.522,5.774-1.089,8.532-1.541
			c35.722-5.907,67.956-4.519,91.209,2.665c-21.202-9.3-54.112-11.965-91.243-5.943c-2.721,0.437-5.734,0.948-8.499,1.485V24.521z"
			/>
		<path clip-path="url(#SVGID_2_)" fill="#FFFFFF" d="M9.241,55.614C8.97,55.808,8.542,56,7.886,56c-1.57,0-2.142-1.515-2.142-3.21
			c0-1.45,0.45-2.986,2.006-2.986c1.141,0,1.701,0.749,1.701,1.728H8.502c0-0.486-0.152-1.203-0.819-1.203
			c-0.927,0-1.076,1.477-1.076,2.301c0,1.354,0.275,2.745,1.404,2.745c0.626,0,1.018-0.38,1.229-0.572V55.614z"/>
		<path clip-path="url(#SVGID_2_)" fill="#FFFFFF" d="M17.073,52.902c0-1.055,0.125-2.574,1.124-2.574
			c0.994,0,1.125,1.52,1.125,2.574c0,1.064-0.131,2.579-1.125,2.579C17.198,55.481,17.073,53.967,17.073,52.902 M18.197,56
			c1.431,0,1.992-1.295,1.992-3.098c0-1.799-0.561-3.099-1.992-3.099c-1.436,0-1.987,1.3-1.987,3.099
			C16.21,54.705,16.761,56,18.197,56"/>
	</g>
	<polygon fill="#FFFFFF" points="27.463,49.905 28.372,49.905 30.392,54.646 30.406,54.646 30.406,49.905 31.083,49.905 
		31.083,55.894 30.239,55.894 28.153,51.023 28.139,51.023 28.139,55.894 27.463,55.894 	"/>
	<g>
		<defs>
			<rect id="SVGID_3_" x="0.2" y="0.082" width="105.759" height="55.918"/>
		</defs>
		<clipPath id="SVGID_4_">
			<use xlink:href="#SVGID_3_"  overflow="visible"/>
		</clipPath>
		<path clip-path="url(#SVGID_4_)" fill="#FFFFFF" d="M41.162,50.794c-0.183-0.123-0.71-0.412-1.259-0.412
			c-0.451,0-0.769,0.3-0.769,0.76c0,1.257,2.395,1.22,2.395,3.103c0,1.264-0.824,1.755-1.852,1.755
			c-0.575,0-1.134-0.159-1.284-0.229v-0.925c0.225,0.16,0.812,0.528,1.413,0.528c0.531,0,0.915-0.256,0.915-0.86
			c0-1.386-2.395-1.295-2.395-3.163c0-0.979,0.607-1.546,1.664-1.546c0.468,0,0.974,0.118,1.172,0.161V50.794z"/>
		<path clip-path="url(#SVGID_4_)" fill="#FFFFFF" d="M52.064,53.779c0,1.091-0.155,2.22-1.727,2.22
			c-1.569,0-1.726-1.129-1.726-2.22v-3.874h0.812v3.874c0,0.952,0.058,1.701,0.914,1.701c0.86,0,0.918-0.749,0.918-1.701v-3.874
			h0.809V53.779z"/>
	</g>
	<polygon fill="#FFFFFF" points="59.541,49.905 60.354,49.905 60.354,55.277 62.235,55.277 62.235,55.894 59.541,55.894 	"/>
	<polygon fill="#FFFFFF" points="69.697,50.483 68.466,50.483 68.466,49.905 71.747,49.905 71.747,50.483 70.505,50.483 
		70.505,55.894 69.697,55.894 	"/>
	<rect x="78.724" y="49.905" fill="#FFFFFF" width="0.808" height="5.987"/>
	<polygon fill="#FFFFFF" points="87.102,49.905 88.009,49.905 90.033,54.646 90.044,54.646 90.044,49.905 90.723,49.905 
		90.723,55.894 89.88,55.894 87.795,51.023 87.78,51.023 87.78,55.894 87.102,55.894 	"/>
	<g>
		<defs>
			<rect id="SVGID_5_" x="0.2" y="0.082" width="105.759" height="55.918"/>
		</defs>
		<clipPath id="SVGID_6_">
			<use xlink:href="#SVGID_5_"  overflow="visible"/>
		</clipPath>
		<path clip-path="url(#SVGID_6_)" fill="#FFFFFF" d="M101.727,55.428c-0.336,0.246-0.804,0.572-1.577,0.572
			c-1.561,0-2.142-1.461-2.142-3.242c0-1.59,0.436-2.954,1.973-2.954c1.384,0,1.697,0.915,1.746,1.702h-0.934
			c0-0.616-0.168-1.178-0.812-1.178c-1.029,0-1.106,1.478-1.106,2.43c0,1.52,0.278,2.723,1.363,2.723
			c0.289,0,0.538-0.133,0.686-0.304v-2.13H99.92v-0.573h1.807V55.428z"/>
	</g>
</g>
</svg>
