<?xml version="1.0" encoding="utf-8"?>
<!-- Generator: Adobe Illustrator 15.0.2, SVG Export Plug-In . SVG Version: 6.00 Build 0)  -->
<!DOCTYPE svg PUBLIC "-//W3C//DTD SVG 1.1//EN" "http://www.w3.org/Graphics/SVG/1.1/DTD/svg11.dtd">
<svg version="1.1" id="Layer_1" xmlns="http://www.w3.org/2000/svg" xmlns:xlink="http://www.w3.org/1999/xlink" x="0px" y="0px"
	 width="142.6px" height="25.2px" viewBox="0 0 142.6 25.2" enable-background="new 0 0 142.6 25.2" xml:space="preserve">
<g>
	<defs>
		<rect id="SVGID_1_" x="0.1" y="0.071" width="142.373" height="25.03"/>
	</defs>
	<clipPath id="SVGID_2_">
		<use xlink:href="#SVGID_1_"  overflow="visible"/>
	</clipPath>
	<path clip-path="url(#SVGID_2_)" fill="#FFFFFF" d="M13.534,25.101c-3.938,0-7.327-1.396-10.012-4.135
		c-2.23-2.271-3.422-5.221-3.422-8.54c0-3.349,1.41-6.391,4.13-8.866c2.534-2.27,5.691-3.489,9.343-3.489
		c5.442,0,9.726,2.438,11.805,6.708h-4.512c-1.702-2.135-4.197-3.219-7.332-3.219c-2.492,0-4.798,0.882-6.551,2.506
		c-1.86,1.727-2.902,4.098-2.902,6.399c0,2.535,0.969,4.843,2.683,6.47c1.823,1.725,4.315,2.705,6.77,2.705
		c3.059,0,5.557-1.084,7.116-3.045h4.728C23.074,22.792,18.9,25.101,13.534,25.101"/>
</g>
<polygon fill="#FFFFFF" points="51.83,24.623 51.83,21.982 61.477,9.414 52.987,9.414 52.987,6.436 65.083,6.436 65.083,9.787 
	56.078,21.538 65.64,21.538 65.64,24.623 "/>
<polygon fill="#FFFFFF" points="68.477,0.548 74.219,19.1 79.388,0.548 82.254,0.548 87.397,19.1 93.125,0.548 97.04,0.548 
	89.03,24.623 85.568,24.623 80.804,6.641 76.003,24.623 72.573,24.623 64.567,0.548 "/>
<rect x="96.932" y="6.436" fill="#FFFFFF" width="3.576" height="18.188"/>
<g>
	<defs>
		<rect id="SVGID_3_" x="0.1" y="0.071" width="142.373" height="25.03"/>
	</defs>
	<clipPath id="SVGID_4_">
		<use xlink:href="#SVGID_3_"  overflow="visible"/>
	</clipPath>
	<path clip-path="url(#SVGID_4_)" fill="#FFFFFF" d="M102.998,24.623V6.436h3.467v2.068c1.527-1.661,3.27-2.371,5.584-2.371
		c5.181,0,8.119,2.843,8.119,8.124v10.366h-3.613V14.97c0-3.826-1.522-5.691-4.837-5.691c-3.837,0-5.103,2.377-5.103,7.077v8.268
		H102.998z"/>
	<path clip-path="url(#SVGID_4_)" fill="#FFFFFF" d="M132.202,21.845c2.374,0,4.428-1.082,5.579-2.979h4.06
		c-1.859,4.058-5.29,6.234-9.639,6.234c-2.949,0-5.41-0.95-7.377-2.849c-1.904-1.804-2.983-4.298-2.983-6.736
		c0-2.579,0.967-4.81,2.837-6.641c2.004-1.995,4.537-2.978,7.445-2.978c3.5,0,6.663,1.52,8.63,4.231
		c1.199,1.663,1.72,3.584,1.72,6.096v0.506H125.64C126.236,19.808,128.92,21.845,132.202,21.845 M132.236,9.077
		c-3.129,0-5.624,1.798-6.479,4.703h12.769C137.629,10.808,135.321,9.077,132.236,9.077"/>
	<path clip-path="url(#SVGID_4_)" fill="#FFFFFF" d="M52.661,12.153c-1.118-3.166-4.68-5.273-8.689-5.7
		c4.27,1.203,7.206,4.017,7.655,7.333c0.433,2.867-1.52,5.702-4.967,7.226c-3.042,1.154-6.107,1.373-9.076,0.615
		c-1.647-0.498-2.908-1.139-3.919-1.998c-0.938-0.907-1.427-2.02-1.427-3.112c0-0.703,0.199-1.393,0.607-2.025
		c0.612-0.958,2.005-1.857,3.517-2.184c-0.815,0.352-1.562,0.854-2.076,1.596c-0.425,0.657-0.644,1.383-0.644,2.11
		c0,0.303,0.034,0.604,0.118,0.902c0.295,1.241,1.191,2.332,2.529,3.084c3.365,1.696,7.944,1.253,10.68-1.025
		c1.723-1.436,2.518-3.272,2.214-5.178c-0.365-2.388-2.357-4.539-5.335-5.739c-4.087-1.649-8.97-1.272-13.063,0.995
		c-1.758,1.238-2.764,2.208-3.407,3.264c-0.725,1.273-1.141,2.586-1.076,4.042c0.334,7.279,9.026,8.032,9.026,8.032
		c-3.411-1.155-6.065-3.306-7.102-5.762c-0.64-1.52-0.621-3.079,0.062-4.528c0.949-1.596,2.203-3.27,4.795-4.439
		c3.548-1.565,7.959-1.382,11.234,0.467c1.675,1.011,2.709,2.404,2.832,3.832c0.012,0.092,0.012,0.185,0.012,0.274
		c0,1.067-0.534,2.084-1.554,2.973c-0.784,0.719-2.031,1.185-3.312,1.3c0.719-0.221,1.376-0.559,1.921-0.991
		c0.924-0.714,1.456-1.618,1.557-2.613v-0.011c0-1.641-0.899-3.051-2.54-4.045c-4.45-2.318-10.585-0.877-12.653,2.944
		c-0.668,1.421-0.752,2.943-0.244,4.332c0.655,1.77,2.25,3.264,4.613,4.326c5.832,2.606,13.476,0.966,16.695-3.574
		C53.124,16.857,53.487,14.471,52.661,12.153"/>
</g>
</svg>
