<?xml version="1.0" encoding="utf-8"?>
<!-- Generator: Adobe Illustrator 15.0.2, SVG Export Plug-In . SVG Version: 6.00 Build 0)  -->
<!DOCTYPE svg PUBLIC "-//W3C//DTD SVG 1.1//EN" "http://www.w3.org/Graphics/SVG/1.1/DTD/svg11.dtd"[]>
<svg version="1.1" id="Layer_1" xmlns="http://www.w3.org/2000/svg" xmlns:xlink="http://www.w3.org/1999/xlink" x="0px" y="0px" width="154.333px" height="45.5px" viewBox="0 0 154.333 45.5" enable-background="new 0 0 154.333 45.5" xml:space="preserve">
  <path fill-rule="evenodd" clip-rule="evenodd" fill="#8676A6" d="M18.868,34.813c-2.232-1.377-2.404-10.747,0.164-12.002
	c2.151-0.979-9.521,0.09-13.154,2.65C1.593,28.485,3.205,37.584,14.8,37.584c8.513,0.148,8.635-3.658,8.445-3.555
	C23.057,34.131,21.102,36.19,18.868,34.813z" />
  <path fill-rule="evenodd" clip-rule="evenodd" fill="#8676A6" d="M39.505,19.641c-0.094-1.113-2.805-0.48-2.805-0.48
	s-0.032-2.905-0.038-3.068c-0.271-7.156-8.101-7.381-10.334-7.657c-2.234-0.276-10.203,0.341-10.224,0.709
	c0.898,0.327,7.333-0.701,8.188,3.812c0.117,0.986,0.109,8.134,0.109,8.134s-2.614,0.282-2.648,1.317
	c0.041,0.999,2.634,0.415,2.634,0.415s-0.3,7.023-0.104,8.199c0.472,7.076,7.111,6.266,8.233,6.334
	c6.916-0.158,7.099-4.277,6.916-4.309c-0.184-0.031-1.893,2.338-2.365,0.65c-0.2-0.719-0.281-7.772-0.344-12.812
	C36.724,20.886,39.411,20.408,39.505,19.641z" />
  <ellipse fill-rule="evenodd" clip-rule="evenodd" fill="#8676A6" cx="13.101" cy="16.043" rx="6.314" ry="5.293" />
  <g>
    <path fill="#401E6B" d="M64.59,13.589c0.248-0.812,0.706-1.322,1.373-1.53c0.664-0.208,1.57-0.312,2.716-0.312
		c1.185,0,2.116,0.104,2.792,0.312c0.676,0.208,1.139,0.717,1.39,1.53l6.274,20.353c0,0.125-0.072,0.188-0.217,0.188h-4.091
		c-0.209,0-0.343-0.094-0.405-0.281l-1.653-5.4c-0.062-0.207-0.198-0.312-0.406-0.312h-7.336c-0.209,0-0.343,0.115-0.404,0.344
		l-1.655,5.338c-0.064,0.209-0.197,0.312-0.407,0.312H58.5c-0.167,0-0.25-0.062-0.25-0.188L64.59,13.589z M69.052,16.367
		c-0.061-0.229-0.114-0.38-0.156-0.453c-0.041-0.072-0.113-0.109-0.217-0.109c-0.105,0-0.22,0.188-0.346,0.562l-2.185,7.117
		c0,0.043-0.005,0.072-0.017,0.094c-0.008,0.021-0.014,0.041-0.014,0.062c0,0.146,0.082,0.219,0.249,0.219h4.653
		c0.164,0,0.249-0.072,0.249-0.219c0-0.021-0.006-0.04-0.016-0.062c-0.012-0.021-0.017-0.051-0.017-0.094L69.052,16.367z" />
    <path fill="#401E6B" d="M96.09,30.385v3.432c0,0.209-0.104,0.312-0.312,0.312h-8.583c-0.166,0-0.324,0-0.469,0
		s-0.271-0.01-0.375-0.031c-1.727-0.146-2.953-0.65-3.684-1.514c-0.727-0.863-1.092-2.17-1.092-3.92V12.059
		c0-0.208,0.105-0.312,0.311-0.312h3.904c0.209,0,0.311,0.104,0.311,0.312v16.982c0,0.686,0.408,1.029,1.219,1.029h8.458
		C95.987,30.071,96.09,30.174,96.09,30.385z" />
    <path fill="#401E6B" d="M99.172,11.747h3.9c0.207,0,0.312,0.104,0.312,0.312v21.758c0,0.209-0.105,0.312-0.312,0.312h-3.9
		c-0.209,0-0.314-0.104-0.314-0.312V12.059C98.858,11.851,98.963,11.747,99.172,11.747z" />
    <path fill="#401E6B" d="M116.34,33.817c0,0.209-0.105,0.312-0.312,0.312h-3.904c-0.205,0-0.311-0.104-0.311-0.312v-17.7
		c0-0.209-0.104-0.312-0.312-0.312h-5.088c-0.209,0-0.312-0.104-0.312-0.312v-3.433c0-0.208,0.104-0.312,0.312-0.312h15.328
		c0.207,0,0.311,0.104,0.311,0.312v3.433c0,0.209-0.104,0.312-0.311,0.312h-5.09c-0.207,0-0.311,0.104-0.311,0.312V33.817z" />
    <path fill="#401E6B" d="M125.016,11.747h3.904c0.207,0,0.311,0.104,0.311,0.312v21.758c0,0.209-0.104,0.312-0.311,0.312h-3.904
		c-0.207,0-0.311-0.104-0.311-0.312V12.059C124.706,11.851,124.809,11.747,125.016,11.747z" />
    <path fill="#401E6B" d="M138.227,24.826c-0.645,0-1.336-0.082-2.074-0.25c-0.738-0.167-1.41-0.488-2.014-0.967
		c-0.355-0.292-0.65-0.641-0.891-1.047c-0.238-0.405-0.436-0.842-0.594-1.31c-0.154-0.47-0.27-0.948-0.342-1.437
		c-0.072-0.49-0.111-0.972-0.111-1.452c0-0.208,0-0.405,0-0.593s0.021-0.375,0.062-0.562c0.146-1.811,0.822-3.216,2.031-4.214
		c0.352-0.292,0.791-0.573,1.311-0.844c0.52-0.269,1.031-0.405,1.529-0.405h10.332c0.207,0,0.314,0.104,0.314,0.312v3.433
		c0,0.209-0.107,0.312-0.314,0.312h-9.021c-0.293,0-0.557,0.13-0.795,0.391s-0.412,0.504-0.516,0.732
		c-0.105,0.211-0.166,0.416-0.188,0.624c-0.02,0.209-0.031,0.417-0.031,0.627c0,0.331,0.021,0.676,0.062,1.029
		c0.041,0.353,0.188,0.667,0.438,0.937c0.229,0.229,0.545,0.364,0.953,0.406c0.406,0.041,0.846,0.062,1.326,0.062h3.496
		c0.645,0,1.32,0.089,2.029,0.266c0.707,0.176,1.361,0.515,1.965,1.016c0.354,0.29,0.65,0.644,0.891,1.06
		c0.238,0.416,0.436,0.865,0.594,1.342c0.154,0.479,0.264,0.979,0.326,1.498c0.062,0.522,0.096,1.022,0.096,1.499
		c0,0.23,0,0.447,0,0.656c0,0.188-0.021,0.363-0.062,0.531c-0.168,1.893-0.834,3.35-1.998,4.371
		c-0.355,0.291-0.787,0.576-1.297,0.857c-0.508,0.281-0.994,0.422-1.451,0.422h-11.361c-0.211,0-0.314-0.104-0.314-0.312v-3.432
		c0-0.211,0.104-0.314,0.314-0.314h10.049c0.314,0,0.584-0.15,0.814-0.453c0.229-0.303,0.393-0.576,0.498-0.828
		c0.105-0.229,0.168-0.445,0.188-0.654c0.021-0.207,0.033-0.428,0.033-0.654c0-0.334-0.023-0.684-0.064-1.047
		c-0.043-0.362-0.188-0.692-0.438-0.983c-0.209-0.23-0.504-0.391-0.889-0.484c-0.387-0.095-0.838-0.141-1.357-0.141H138.227z" />
  </g>
  <g>
    <path fill-rule="evenodd" clip-rule="evenodd" fill="#401E6B" d="M50.001,42.035c0,0.188-0.153,0.341-0.341,0.341h-1.076
		c-0.188,0-0.341-0.153-0.341-0.341V3.84c0-0.188,0.153-0.341,0.341-0.341h1.076c0.188,0,0.341,0.153,0.341,0.341V42.035z" />
  </g>
</svg>