<?xml version="1.0" encoding="utf-8"?>
<!-- Generator: Adobe Illustrator 15.0.2, SVG Export Plug-In . SVG Version: 6.00 Build 0)  -->
<!DOCTYPE svg PUBLIC "-//W3C//DTD SVG 1.1//EN" "http://www.w3.org/Graphics/SVG/1.1/DTD/svg11.dtd"[]>
<svg version="1.1" id="Layer_1" xmlns="http://www.w3.org/2000/svg" xmlns:xlink="http://www.w3.org/1999/xlink" x="0px" y="0px" width="258px" height="69px" viewBox="0 0 258 69" enable-background="new 0 0 258 69" xml:space="preserve">
  <g>
    <g>
      <path fill="#001B49" d="M7.03,58.918l4.638-12.151c0.216-0.126,0.396-0.233,0.827-0.233c0.413,0,0.665,0.215,0.791,0.539
			l4.602,11.72c-0.126,0.27-0.414,0.323-0.684,0.323c-0.359,0-0.665-0.144-0.79-0.555l-1.007-2.5H9.493l-0.988,2.606
			c-0.126,0.341-0.359,0.448-0.791,0.448C7.372,59.115,7.156,59.045,7.03,58.918z M9.942,54.874h4.998l-2.535-6.417L9.942,54.874z" />
      <path fill="#001B49" d="M27.733,46.677c0.144-0.09,0.359-0.144,0.701-0.144c0.395,0,0.701,0.144,0.701,0.557v7.46
			c0,3.165-1.528,4.745-4.638,4.745s-4.53-1.527-4.53-4.745l-0.018-7.873c0.144-0.09,0.413-0.144,0.719-0.144
			c0.414,0,0.683,0.144,0.683,0.557v7.261c0,2.428,0.863,3.668,3.146,3.668c2.391,0,3.235-1.224,3.235-3.65V46.677z" />
      <path fill="#001B49" d="M37.075,47.864v11.107c-0.144,0.108-0.414,0.144-0.773,0.144c-0.324,0-0.593-0.162-0.593-0.647V47.864
			h-4.243c-0.09-0.18-0.162-0.397-0.162-0.684c0-0.324,0.18-0.647,0.737-0.647h9.275c0.09,0.107,0.162,0.305,0.162,0.574
			c0,0.45-0.198,0.757-0.593,0.757H37.075z" />
      <path fill="#001B49" d="M47.963,46.354c3.092,0,5.177,2.066,5.177,6.471c0,4.637-2.104,6.471-5.177,6.471
			c-3.109,0-5.303-1.886-5.303-6.471C42.661,48.419,44.835,46.354,47.963,46.354z M47.981,58.073c2.301,0,3.793-1.439,3.793-5.23
			c0-3.542-1.528-5.232-3.811-5.232c-2.373,0-3.937,1.709-3.937,5.232C44.027,56.634,45.68,58.073,47.981,58.073z" />
      <path fill="#001B49" d="M61.386,57.678l-3.56-8.7l-0.593,9.634c-0.018,0.378-0.288,0.503-0.684,0.503
			c-0.269,0-0.557-0.053-0.701-0.125l0.81-11.486c0.053-0.593,0.341-0.97,0.97-0.97c0.324,0,0.485,0.035,0.683,0.107l3.991,9.924
			l3.416-9.277c0.162-0.557,0.485-0.754,0.953-0.754c0.432,0,0.611,0.07,0.845,0.18l1.366,12.221c-0.162,0.11-0.414,0.18-0.737,0.18
			c-0.378,0-0.683-0.088-0.737-0.503l-0.863-9.634l-3.29,8.7c-0.179,0.684-0.539,0.755-0.953,0.755
			C61.871,58.433,61.565,58.235,61.386,57.678z" />
      <path fill="#001B49" d="M76.874,46.354c3.092,0,5.177,2.066,5.177,6.471c0,4.637-2.103,6.471-5.177,6.471
			c-3.11,0-5.303-1.886-5.303-6.471C71.57,48.419,73.746,46.354,76.874,46.354z M76.892,58.073c2.301,0,3.792-1.439,3.792-5.23
			c0-3.542-1.528-5.232-3.811-5.232c-2.373,0-3.937,1.709-3.937,5.232C72.937,56.634,74.591,58.073,76.892,58.073z" />
      <path fill="#001B49" d="M89.02,47.864v11.107c-0.144,0.108-0.414,0.144-0.773,0.144c-0.324,0-0.593-0.162-0.593-0.647V47.864
			h-4.243c-0.09-0.18-0.162-0.397-0.162-0.684c0-0.324,0.18-0.647,0.737-0.647h9.275c0.09,0.107,0.162,0.305,0.162,0.574
			c0,0.45-0.198,0.757-0.593,0.757H89.02z" />
      <path fill="#001B49" d="M96.977,47.09v11.845c-0.179,0.11-0.376,0.18-0.754,0.18c-0.359,0-0.647-0.144-0.647-0.665V46.677
			c0.162-0.09,0.413-0.144,0.755-0.144C96.689,46.534,96.977,46.677,96.977,47.09z" />
      <path fill="#001B49" d="M100.822,47.019l4.026,10.192c1.546-2.554,3.631-8.053,3.955-10.516c0.198-0.108,0.395-0.162,0.737-0.162
			c0.27,0,0.503,0.144,0.503,0.36c0,0.107-0.018,0.375-0.126,0.934c-0.377,2.066-2.516,7.568-4.655,11.181
			c-0.198,0.072-0.359,0.107-0.611,0.107c-0.342,0-0.54-0.18-0.701-0.574l-4.674-11.864c0.18-0.09,0.467-0.144,0.809-0.144
			C100.445,46.534,100.678,46.677,100.822,47.019z" />
      <path fill="#001B49" d="M113.741,53.328v4.457h7.064c0.09,0.092,0.162,0.253,0.162,0.577c0,0.448-0.179,0.753-0.575,0.753h-7.424
			c-0.305,0-0.629-0.088-0.629-0.665V46.677c0.144-0.09,0.324-0.144,0.665-0.144h7.802c0.09,0.088,0.162,0.25,0.162,0.574
			c0,0.45-0.179,0.757-0.575,0.757h-6.651v4.133h6.004c0.09,0.09,0.162,0.307,0.162,0.63c0,0.449-0.197,0.701-0.557,0.701H113.741z" />
      <path fill="#001B49" d="M132.717,46.534c1.976,0,3.613,0.916,3.613,3.47c0,1.994-1.384,3.18-2.931,3.521
			c1.169,1.529,2.033,4.352,3.29,4.352h0.503c0.073,0.088,0.126,0.25,0.126,0.467c0,0.449-0.307,0.772-1.079,0.772
			c-1.853,0-2.661-3.631-4.171-5.482h-2.588v5.32c-0.126,0.108-0.414,0.162-0.701,0.162c-0.377,0-0.7-0.088-0.7-0.647v-11.81
			c0.144-0.09,0.395-0.125,0.7-0.125H132.717z M129.48,47.647v4.872h2.732c1.509,0,2.786-0.774,2.786-2.5s-1.005-2.373-2.552-2.373
			H129.48z" />
      <path fill="#001B49" d="M141.519,53.328v4.457h7.064c0.09,0.092,0.162,0.253,0.162,0.577c0,0.448-0.18,0.753-0.574,0.753h-7.424
			c-0.305,0-0.629-0.088-0.629-0.665V46.677c0.144-0.09,0.324-0.144,0.664-0.144h7.802c0.09,0.088,0.162,0.25,0.162,0.574
			c0,0.45-0.18,0.757-0.574,0.757h-6.652v4.133h6.004c0.09,0.09,0.162,0.307,0.162,0.63c0,0.449-0.197,0.701-0.557,0.701H141.519z" />
      <path fill="#001B49" d="M160.515,57.049c0,0.324-0.144,0.592-0.467,0.827c-0.378,0.377-1.511,1.419-3.903,1.419
			c-3.126,0-5.319-1.886-5.319-6.471c0-4.405,2.139-6.471,5.23-6.471c2.121,0,3.181,0.666,3.865,1.492
			c0.252,0.215,0.396,0.412,0.396,0.772c0,0.342-0.252,0.559-0.522,0.647c-0.809-1.023-1.922-1.581-3.685-1.581
			c-2.317,0-3.901,1.636-3.901,5.159c0,3.792,1.636,5.159,3.992,5.159c1.564,0,2.859-0.522,3.703-1.529
			C160.155,56.456,160.515,56.618,160.515,57.049z" />
      <path fill="#001B49" d="M167.7,46.534c1.976,0,3.613,0.916,3.613,3.47c0,1.994-1.384,3.18-2.931,3.521
			c1.169,1.529,2.033,4.352,3.29,4.352h0.504c0.073,0.088,0.126,0.25,0.126,0.467c0,0.449-0.307,0.772-1.079,0.772
			c-1.853,0-2.661-3.631-4.171-5.482h-2.588v5.32c-0.125,0.108-0.414,0.162-0.702,0.162c-0.375,0-0.699-0.088-0.699-0.647v-11.81
			c0.144-0.09,0.394-0.125,0.699-0.125H167.7z M164.464,47.647v4.872h2.732c1.509,0,2.786-0.774,2.786-2.5s-1.005-2.373-2.553-2.373
			H164.464z" />
      <path fill="#001B49" d="M182.758,46.677c0.144-0.09,0.36-0.144,0.702-0.144c0.394,0,0.7,0.144,0.7,0.557v7.46
			c0,3.165-1.527,4.745-4.637,4.745c-3.11,0-4.532-1.527-4.532-4.745l-0.017-7.873c0.143-0.09,0.414-0.144,0.718-0.144
			c0.414,0,0.684,0.144,0.684,0.557v7.261c0,2.428,0.862,3.668,3.146,3.668c2.389,0,3.234-1.224,3.234-3.65V46.677z" />
      <path fill="#001B49" d="M189.098,47.09v11.845c-0.179,0.11-0.377,0.18-0.755,0.18c-0.36,0-0.647-0.144-0.647-0.665V46.677
			c0.162-0.09,0.414-0.144,0.755-0.144C188.809,46.534,189.098,46.677,189.098,47.09z" />
      <path fill="#001B49" d="M197.024,47.864v11.107c-0.145,0.108-0.415,0.144-0.775,0.144c-0.323,0-0.592-0.162-0.592-0.647V47.864
			h-4.242c-0.092-0.18-0.162-0.397-0.162-0.684c0-0.324,0.18-0.647,0.736-0.647h9.277c0.088,0.107,0.162,0.305,0.162,0.574
			c0,0.45-0.198,0.757-0.594,0.757H197.024z" />
      <path fill="#001B49" d="M208.792,57.678l-3.56-8.7l-0.592,9.634c-0.019,0.378-0.289,0.503-0.684,0.503
			c-0.27,0-0.559-0.053-0.702-0.125l0.809-11.486c0.055-0.593,0.342-0.97,0.971-0.97c0.323,0,0.485,0.035,0.684,0.107l3.991,9.924
			l3.415-9.277c0.162-0.557,0.485-0.754,0.952-0.754c0.433,0,0.612,0.07,0.845,0.18l1.367,12.221c-0.162,0.11-0.415,0.18-0.739,0.18
			c-0.377,0-0.682-0.088-0.735-0.503l-0.864-9.634l-3.29,8.7c-0.18,0.684-0.54,0.755-0.952,0.755
			C209.278,58.433,208.971,58.235,208.792,57.678z" />
      <path fill="#001B49" d="M221.098,53.328v4.457h7.064c0.09,0.092,0.162,0.253,0.162,0.577c0,0.448-0.18,0.753-0.574,0.753h-7.424
			c-0.305,0-0.629-0.088-0.629-0.665V46.677c0.144-0.09,0.324-0.144,0.664-0.144h7.801c0.09,0.088,0.162,0.25,0.162,0.574
			c0,0.45-0.18,0.757-0.574,0.757h-6.652v4.133h6.004c0.09,0.09,0.162,0.307,0.162,0.63c0,0.449-0.197,0.701-0.557,0.701H221.098z" />
      <path fill="#001B49" d="M232.453,49.211l0.073,9.742c-0.108,0.091-0.467,0.162-0.791,0.162c-0.288,0-0.613-0.07-0.613-0.647
			V46.677c0.18-0.09,0.433-0.144,0.738-0.144s0.504,0.144,0.647,0.342l6.741,9.724l-0.037-9.885c0.144-0.11,0.342-0.18,0.665-0.18
			c0.36,0,0.739,0.144,0.739,0.557v11.9c-0.127,0.072-0.36,0.125-0.72,0.125c-0.269,0-0.485-0.125-0.666-0.358L232.453,49.211z" />
      <path fill="#001B49" d="M248.501,47.864v11.107c-0.145,0.108-0.415,0.144-0.775,0.144c-0.323,0-0.592-0.162-0.592-0.647V47.864
			h-4.242c-0.092-0.18-0.162-0.397-0.162-0.684c0-0.324,0.18-0.647,0.735-0.647h9.277c0.088,0.107,0.162,0.305,0.162,0.574
			c0,0.45-0.198,0.757-0.594,0.757H248.501z" />
    </g>
    <g>
      <path fill="#001B49" d="M13.961,32.161c0.366,0.073,0.778,0.073,1.33,0.073c2.431,0,4.451-1.213,4.451-3.83
			c0-2.542-2.11-3.87-4.496-3.909h-1.285V32.161L13.961,32.161z M13.961,20.815h1.285c2.156,0,3.811-1.518,3.811-3.603
			c0-1.858-1.059-3.3-3.537-3.3c-0.642,0-1.193,0.037-1.559,0.152V20.815L13.961,20.815z M7.951,10.688
			c1.834-0.342,4.219-0.493,6.837-0.493c2.89,0,5.687,0.302,7.847,1.822c1.648,1.138,2.337,2.842,2.337,4.625
			c0,2.277-1.42,4.478-4.498,5.58v0.149c3.58,0.833,5.507,3.299,5.507,6.108c0,2.125-0.826,3.755-2.293,5.006
			c-1.834,1.671-4.957,2.582-10.14,2.582c-2.295,0-4.221-0.116-5.597-0.267V10.688L7.951,10.688z" />
      <path fill="#001B49" d="M40.021,26.165l-1.008-5.35c-0.324-1.555-0.737-4.095-1.012-5.803h-0.14
			c-0.317,1.708-0.775,4.365-1.096,5.841l-1.149,5.312H40.021L40.021,26.165z M35.017,30.037l-1.373,5.841h-5.827l6.698-25.568
			h7.208l6.008,25.568h-5.829l-1.329-5.841H35.017L35.017,30.037z" />
      <path fill="#001B49" d="M53.327,35.877v-9.79l-6.792-15.779h6.425l2.11,6.106c0.552,1.631,1.146,3.529,1.606,5.425h0.09
			c0.371-1.858,0.873-3.716,1.422-5.54l1.834-5.992h6.247l-6.932,15.593v9.976H53.327L53.327,35.877z" />
      <path fill="#001B49" d="M67.504,30.793c1.239,0.568,3.351,0.983,5.091,0.983c2.849,0,4.225-1.211,4.225-2.878
			c0-1.861-1.376-2.771-3.993-4.178c-4.222-2.121-5.83-4.816-5.83-7.127c0-4.097,3.304-7.513,9.776-7.513
			c2.019,0,3.947,0.455,4.864,0.909l-0.966,4.29c-0.87-0.457-2.2-0.873-3.946-0.873c-2.568,0-3.808,1.289-3.808,2.653
			c0,1.518,0.918,2.318,4.265,3.985c4.089,2.047,5.603,4.626,5.603,7.322c0,4.667-4.176,7.74-10.232,7.74
			c-2.479,0-4.912-0.534-5.922-1.027L67.504,30.793L67.504,30.793z" />
      <polygon fill="#001B49" points="92.282,10.309 92.282,35.877 86.269,35.877 86.269,10.309 92.282,10.309 		" />
      <path fill="#001B49" d="M103.661,31.932c0.276,0.077,0.735,0.077,1.051,0.077c2.893,0,5.417-2.354,5.417-9.408
			c0-5.236-1.652-8.423-5.276-8.423c-0.412,0-0.825,0-1.191,0.113V31.932L103.661,31.932z M97.648,10.688
			c1.515-0.304,3.715-0.493,6.103-0.493c3.9,0,6.608,0.757,8.583,2.276c2.66,1.97,4.036,5.347,4.036,10.318
			c0,5.161-1.602,8.837-4.313,10.812c-2.062,1.669-5.139,2.466-9.454,2.466c-1.88,0-3.761-0.153-4.954-0.267V10.688L97.648,10.688z" />
      <polygon fill="#001B49" points="133.254,24.647 126.189,24.647 126.189,31.55 134.169,31.55 134.169,35.877 120.176,35.877 
			120.176,10.309 133.62,10.309 133.62,14.632 126.189,14.632 126.189,20.513 133.254,20.513 133.254,24.647 		" />
      <path fill="#001B49" d="M162.708,35.194c-1.327,0.457-4.171,0.913-6.422,0.913c-3.532,0-6.195-0.836-8.258-2.542
			c-2.663-2.13-4.086-5.92-3.993-10.324c0.136-9.292,6.561-13.161,13.123-13.161c2.341,0,4.082,0.381,5.047,0.762l-1.056,4.284
			c-0.872-0.342-2.017-0.569-3.536-0.569c-4.077,0-7.34,2.315-7.34,8.993c0,6.144,2.893,8.344,5.693,8.344
			c0.549,0,0.964-0.038,1.191-0.117v-6.18h-2.751v-4.059h8.3V35.194L162.708,35.194z" />
      <path fill="#001B49" d="M173.216,21.84h1.056c2.615,0,4.132-1.746,4.132-3.983c0-2.163-1.056-3.717-3.766-3.793
			c-0.503,0-1.1,0.04-1.422,0.151V21.84L173.216,21.84z M167.203,10.688c1.881-0.304,4.268-0.493,6.565-0.493
			c3.303,0,6.239,0.38,8.261,1.897c1.88,1.405,2.431,3.108,2.431,5.311c0,2.729-1.608,5.198-4.771,6.409v0.08
			c2.107,0.68,3.163,2.31,3.761,5.042c0.597,2.843,1.423,5.995,1.971,6.944h-6.285c-0.368-0.722-1.054-3.302-1.512-6.109
			c-0.552-3.186-1.518-4.098-3.535-4.098h-0.873v10.208h-6.013V10.688L167.203,10.688z" />
      <path fill="#001B49" d="M193.498,23.091c0,5.807,1.329,8.764,3.761,8.764c2.521,0,3.486-3.794,3.486-8.993
			c0-4.474-0.826-8.534-3.535-8.534C194.827,14.328,193.498,17.593,193.498,23.091L193.498,23.091z M207.03,22.634
			c0,9.64-4.127,13.546-10,13.546c-7.025,0-9.771-6.143-9.771-13.162c0-6.98,3.344-13.014,10.183-13.014
			C204.92,10.004,207.03,16.793,207.03,22.634L207.03,22.634z" />
      <path fill="#001B49" d="M216.666,10.309v16.614c0,3.758,1.375,4.893,2.938,4.893c1.742,0,2.978-1.022,2.978-4.893V10.309h6.018
			V26.05c0,6.565-2.985,10.13-8.951,10.13c-6.471,0-8.994-3.68-8.994-10.092V10.309H216.666L216.666,10.309z" />
      <path fill="#001B49" d="M239.791,22.298c0.278,0.073,0.598,0.073,0.963,0.073c3.027,0,4.405-1.785,4.405-4.174
			c0-2.238-1.099-3.982-3.9-3.982c-0.548,0-1.099,0.075-1.468,0.19V22.298L239.791,22.298z M233.779,10.688
			c1.697-0.304,3.99-0.493,6.29-0.493c3.578,0,6.375,0.417,8.394,1.97c1.84,1.332,2.662,3.455,2.662,5.617
			c0,2.768-1.013,4.702-2.617,6.146c-1.924,1.669-5.044,2.427-7.522,2.427c-0.417,0-0.826,0-1.195,0v9.522h-6.012V10.688
			L233.779,10.688z" />
    </g>
  </g>
</svg>