<?xml version="1.0" encoding="utf-8"?>
<!-- Generator: Adobe Illustrator 15.0.2, SVG Export Plug-In . SVG Version: 6.00 Build 0)  -->
<!DOCTYPE svg PUBLIC "-//W3C//DTD SVG 1.1//EN" "http://www.w3.org/Graphics/SVG/1.1/DTD/svg11.dtd"[]>
<svg version="1.1" id="Layer_1" xmlns="http://www.w3.org/2000/svg" xmlns:xlink="http://www.w3.org/1999/xlink" x="0px" y="0px" width="198.43px" height="133.664px" viewBox="0 0 198.43 133.664" enable-background="new 0 0 198.43 133.664" xml:space="preserve">
  <g>
    <g>
      <path fill="#00928F" d="M79.284,27.742l9.058,9.059l1.72,1.718l0,0l18.089,18.092c4.834,4.832,11.258,7.494,18.094,7.494
			c6.834,0,13.258-2.662,18.09-7.494c9.977-9.976,9.977-26.208,0-36.184c-4.832-4.832-11.256-7.494-18.09-7.494
			c-6.836,0-13.26,2.662-18.094,7.494l-8.199,8.201l7.31,7.31l8.201-8.201c2.879-2.879,6.707-4.466,10.781-4.466
			c4.072,0,7.9,1.586,10.781,4.466c5.943,5.945,5.943,15.619,0,21.564c-2.881,2.88-6.709,4.466-10.781,4.466
			c-4.074,0-7.902-1.586-10.781-4.466l-9.061-9.059l-1.719-1.719v0L86.592,20.432" />
      <g>
        <g>
          <path d="M105.73,108.799c-0.799,0.667-1.941,1.001-3.428,1.001h-2.845v4.915H96.62v-13.669h5.869
					c1.354,0,2.432,0.353,3.236,1.058c0.805,0.704,1.207,1.796,1.207,3.273C106.932,106.991,106.531,108.131,105.73,108.799z
					 M103.551,103.875c-0.361-0.303-0.867-0.454-1.52-0.454h-2.574v4.024h2.574c0.652,0,1.158-0.163,1.52-0.491
					c0.361-0.327,0.543-0.847,0.543-1.558S103.912,104.178,103.551,103.875z" />
          <path d="M115.596,104.812c0.705,0.316,1.287,0.814,1.748,1.495c0.412,0.601,0.682,1.298,0.805,2.09
					c0.07,0.465,0.1,1.134,0.086,2.007h-7.361c0.041,1.014,0.395,1.725,1.057,2.133c0.404,0.253,0.891,0.38,1.457,0.38
					c0.604,0,1.092-0.154,1.469-0.464c0.205-0.167,0.387-0.398,0.543-0.695h2.699c-0.072,0.6-0.398,1.209-0.98,1.827
					c-0.904,0.982-2.172,1.475-3.803,1.475c-1.346,0-2.531-0.415-3.561-1.244c-1.027-0.829-1.543-2.178-1.543-4.047
					c0-1.751,0.465-3.094,1.393-4.028c0.93-0.934,2.135-1.401,3.615-1.401C114.098,104.338,114.891,104.497,115.596,104.812z
					 M111.643,107.095c-0.373,0.385-0.609,0.906-0.705,1.564h4.555c-0.049-0.701-0.283-1.233-0.705-1.597s-0.943-0.545-1.566-0.545
					C112.541,106.518,112.016,106.71,111.643,107.095z" />
          <path d="M125.188,104.371c0.033,0.004,0.109,0.008,0.227,0.015v2.707c-0.166-0.019-0.314-0.03-0.445-0.037
					c-0.129-0.006-0.234-0.009-0.314-0.009c-1.064,0-1.777,0.347-2.143,1.039c-0.205,0.389-0.307,0.989-0.307,1.799v4.831h-2.662
					v-10.107h2.523v1.762c0.408-0.674,0.764-1.135,1.066-1.382c0.494-0.414,1.137-0.621,1.93-0.621
					C125.111,104.367,125.152,104.368,125.188,104.371z" />
          <path d="M129.012,111.489c0.057,0.47,0.178,0.804,0.363,1.001c0.33,0.353,0.938,0.528,1.826,0.528
					c0.521,0,0.938-0.077,1.244-0.231c0.309-0.154,0.461-0.387,0.461-0.695c0-0.297-0.123-0.522-0.371-0.677
					c-0.248-0.155-1.17-0.421-2.766-0.798c-1.148-0.284-1.957-0.64-2.428-1.066c-0.469-0.42-0.703-1.026-0.703-1.817
					c0-0.934,0.365-1.736,1.1-2.407c0.734-0.67,1.768-1.006,3.1-1.006c1.264,0,2.295,0.252,3.09,0.756
					c0.797,0.504,1.254,1.374,1.371,2.61h-2.643c-0.037-0.34-0.133-0.608-0.289-0.807c-0.291-0.358-0.787-0.538-1.486-0.538
					c-0.578,0-0.988,0.09-1.232,0.27c-0.246,0.179-0.367,0.39-0.367,0.63c0,0.304,0.129,0.522,0.391,0.659
					c0.26,0.142,1.18,0.386,2.76,0.732c1.053,0.247,1.842,0.621,2.367,1.122c0.52,0.507,0.779,1.141,0.779,1.901
					c0,1.001-0.373,1.818-1.121,2.452c-0.746,0.634-1.9,0.951-3.461,0.951c-1.592,0-2.768-0.336-3.525-1.007
					c-0.76-0.671-1.139-1.525-1.139-2.563H129.012z" />
          <path d="M145.955,113.479c-0.854,1.053-2.148,1.58-3.887,1.58c-1.736,0-3.031-0.527-3.885-1.58s-1.279-2.321-1.279-3.804
					c0-1.458,0.426-2.721,1.279-3.789c0.854-1.069,2.148-1.604,3.885-1.604c1.738,0,3.033,0.534,3.887,1.604
					c0.854,1.068,1.279,2.331,1.279,3.789C147.234,111.158,146.809,112.426,145.955,113.479z M143.84,112.018
					c0.414-0.549,0.621-1.33,0.621-2.343s-0.207-1.792-0.621-2.338s-1.008-0.819-1.779-0.819c-0.773,0-1.369,0.273-1.785,0.819
					c-0.418,0.546-0.627,1.325-0.627,2.338s0.209,1.794,0.627,2.343c0.416,0.55,1.012,0.824,1.785,0.824
					C142.832,112.842,143.426,112.568,143.84,112.018z" />
          <path d="M157.277,105.187c0.662,0.547,0.992,1.454,0.992,2.722v6.807h-2.707v-6.148c0-0.531-0.07-0.939-0.213-1.224
					c-0.258-0.52-0.748-0.779-1.473-0.779c-0.889,0-1.5,0.381-1.832,1.141c-0.172,0.402-0.258,0.915-0.258,1.54v5.471h-2.643
					v-10.089h2.561v1.474c0.338-0.519,0.658-0.893,0.959-1.122c0.543-0.407,1.229-0.611,2.061-0.611
					C155.764,104.367,156.615,104.64,157.277,105.187z" />
          <path d="M168.879,105.187c0.662,0.547,0.992,1.454,0.992,2.722v6.807h-2.707v-6.148c0-0.531-0.07-0.939-0.213-1.224
					c-0.258-0.52-0.748-0.779-1.473-0.779c-0.889,0-1.5,0.381-1.832,1.141c-0.172,0.402-0.258,0.915-0.258,1.54v5.471h-2.643
					v-10.089h2.561v1.474c0.338-0.519,0.658-0.893,0.959-1.122c0.543-0.407,1.229-0.611,2.061-0.611
					C167.365,104.367,168.217,104.64,168.879,105.187z" />
          <path d="M178.916,104.812c0.705,0.316,1.287,0.814,1.748,1.495c0.412,0.601,0.682,1.298,0.805,2.09
					c0.07,0.465,0.1,1.134,0.086,2.007h-7.361c0.041,1.014,0.395,1.725,1.057,2.133c0.404,0.253,0.891,0.38,1.457,0.38
					c0.604,0,1.092-0.154,1.469-0.464c0.205-0.167,0.387-0.398,0.543-0.695h2.699c-0.072,0.6-0.398,1.209-0.98,1.827
					c-0.904,0.982-2.172,1.475-3.803,1.475c-1.346,0-2.531-0.415-3.561-1.244c-1.027-0.829-1.543-2.178-1.543-4.047
					c0-1.751,0.465-3.094,1.393-4.028c0.93-0.934,2.135-1.401,3.615-1.401C177.418,104.338,178.211,104.497,178.916,104.812z
					 M174.963,107.095c-0.373,0.385-0.609,0.906-0.705,1.564h4.555c-0.049-0.701-0.283-1.233-0.705-1.597s-0.943-0.545-1.566-0.545
					C175.861,106.518,175.336,106.71,174.963,107.095z" />
          <path d="M185.59,114.715h-2.643v-13.669h2.643V114.715z" />
        </g>
        <g>
          <path d="M72.217,99.757l0.856,0.047c0.662,0.031,1.297,0.008,1.897-0.07c0.604-0.08,1.109-0.262,1.521-0.547
					c0.395-0.27,0.764-0.832,1.104-1.686s0.487-1.377,0.438-1.566l-9.509-27.018h7.528l5.65,19.088l5.342-19.088h7.195
					l-8.873,25.451c-1.715,4.906-3.071,7.947-4.069,9.129c-0.999,1.178-2.995,1.768-5.989,1.768c-0.603,0-1.086-0.004-1.449-0.012
					c-0.365-0.008-0.915-0.035-1.643-0.084V99.757z" />
          <path d="M101.484,86.533c0.145,1.203,0.457,2.057,0.932,2.564c0.842,0.902,2.402,1.354,4.676,1.354
					c1.336,0,2.396-0.197,3.186-0.594c0.787-0.395,1.18-0.99,1.18-1.781c0-0.76-0.316-1.338-0.949-1.732
					c-0.635-0.396-2.994-1.076-7.078-2.043c-2.941-0.727-5.014-1.637-6.217-2.729c-1.202-1.078-1.804-2.629-1.804-4.654
					c0-2.391,0.94-4.443,2.818-6.16c1.88-1.719,4.525-2.578,7.935-2.578c3.236,0,5.873,0.646,7.912,1.935
					c2.037,1.291,3.207,3.518,3.51,6.684h-6.766c-0.098-0.871-0.344-1.559-0.74-2.064c-0.746-0.918-2.016-1.377-3.809-1.377
					c-1.477,0-2.527,0.229-3.154,0.688s-0.939,0.998-0.939,1.615c0,0.775,0.332,1.338,1,1.686c0.664,0.363,3.02,0.988,7.062,1.875
					c2.697,0.633,4.717,1.592,6.062,2.873c1.33,1.297,1.996,2.92,1.996,4.867c0,2.564-0.957,4.658-2.869,6.279
					c-1.91,1.623-4.863,2.434-8.861,2.434c-4.074,0-7.083-0.859-9.027-2.576c-1.941-1.717-2.916-3.904-2.916-6.564H101.484z" />
          <path d="M121.375,68.917h6.863v25.877h-6.863V68.917z" />
          <path d="M147.512,69.332c1.219,0.689,2.209,1.643,2.969,2.861V59.848h6.859v34.947h-6.576V91.21
					c-0.963,1.535-2.064,2.65-3.297,3.348c-1.236,0.695-2.771,1.045-4.607,1.045c-3.023,0-5.566-1.223-7.633-3.668
					c-2.064-2.445-3.098-5.584-3.098-9.414c0-4.416,1.016-7.891,3.051-10.424c2.033-2.531,4.75-3.798,8.154-3.798
					C144.902,68.299,146.295,68.644,147.512,69.332z M149.172,87.767c1-1.424,1.5-3.268,1.5-5.531c0-3.166-0.801-5.428-2.4-6.791
					c-0.98-0.822-2.119-1.234-3.416-1.234c-1.98,0-3.432,0.748-4.357,2.244c-0.928,1.496-1.389,3.352-1.389,5.568
					c0,2.389,0.469,4.301,1.412,5.732c0.941,1.432,2.371,2.148,4.283,2.148C146.721,89.904,148.178,89.193,149.172,87.767z" />
          <path d="M179.355,69.441c1.805,0.809,3.295,2.084,4.471,3.828c1.061,1.537,1.748,3.322,2.062,5.35
					c0.182,1.189,0.256,2.902,0.223,5.137h-18.848c0.105,2.596,1.008,4.416,2.707,5.461c1.031,0.648,2.275,0.973,3.729,0.973
					c1.543,0,2.795-0.395,3.76-1.188c0.525-0.426,0.99-1.02,1.393-1.779h6.904c-0.18,1.535-1.016,3.094-2.506,4.678
					c-2.318,2.516-5.564,3.773-9.736,3.773c-3.443,0-6.482-1.061-9.113-3.184c-2.635-2.123-3.951-5.576-3.951-10.361
					c0-4.482,1.188-7.92,3.564-10.311c2.379-2.393,5.461-3.59,9.254-3.59C175.52,68.228,177.551,68.633,179.355,69.441z
					 M169.23,75.287c-0.955,0.984-1.557,2.32-1.801,4.004h11.656c-0.121-1.795-0.725-3.158-1.801-4.088
					c-1.078-0.93-2.418-1.395-4.014-1.395C171.533,73.808,170.188,74.3,169.23,75.287z" />
          <path d="M55.771,79.054c1.262-0.158,2.161-0.355,2.703-0.594c0.974-0.41,1.461-1.053,1.461-1.922
					c0-1.062-0.373-1.793-1.121-2.197c-0.746-0.402-1.839-0.605-3.284-0.605c-1.621,0-2.768,0.396-3.441,1.188
					c-0.482,0.586-0.803,1.377-0.961,2.373h-6.531c0.143-2.262,0.779-4.123,1.909-5.578c1.795-2.279,4.879-3.419,9.251-3.419
					c2.846,0,5.371,0.562,7.582,1.687c2.211,1.123,3.313,3.244,3.313,6.361v11.871c0,0.824,0.018,1.82,0.049,2.992
					c0.05,0.887,0.183,1.488,0.404,1.805c0.223,0.316,0.553,0.576,0.995,0.783v0.996h-7.359c-0.203-0.521-0.346-1.012-0.426-1.471
					s-0.143-0.982-0.191-1.568c-0.94,1.014-2.021,1.877-3.246,2.59c-1.464,0.838-3.122,1.258-4.968,1.258
					c-2.356,0-4.304-0.67-5.839-2.006c-1.538-1.338-2.306-3.232-2.306-5.688c0-3.182,1.235-5.484,3.707-6.908
					c1.356-0.775,3.351-1.33,5.98-1.662L55.771,79.054z M59.911,82.212c-0.434,0.268-0.871,0.486-1.312,0.652
					c-0.443,0.166-1.045,0.32-1.815,0.463l-1.541,0.285c-1.444,0.254-2.481,0.561-3.11,0.926c-1.067,0.617-1.599,1.574-1.599,2.873
					c0,1.156,0.325,1.99,0.976,2.504c0.652,0.516,1.442,0.771,2.375,0.771c1.479,0,2.84-0.426,4.088-1.281
					c1.243-0.855,1.891-2.414,1.939-4.678V82.212z" />
          <path d="M38.703,63.526c1.07,1.488,1.607,3.27,1.607,5.342c0,2.137-0.541,3.855-1.621,5.152
					c-0.604,0.729-1.492,1.393-2.669,1.994c1.786,0.648,3.133,1.678,4.043,3.086c0.908,1.408,1.364,3.119,1.364,5.129
					c0,2.074-0.521,3.934-1.561,5.58c-0.66,1.092-1.486,2.01-2.477,2.754c-1.118,0.854-2.436,1.439-3.957,1.756
					c-1.517,0.316-3.164,0.475-4.943,0.475H12.722V59.8h16.91C33.9,59.863,36.925,61.104,38.703,63.526z M19.701,65.877v7.716h8.507
					c1.521,0,2.753-0.289,3.7-0.865c0.948-0.578,1.422-1.604,1.422-3.076c0-1.629-0.625-2.706-1.88-3.228
					c-1.081-0.364-2.459-0.547-4.137-0.547H19.701z M19.701,79.386v9.33h8.497c1.518,0,2.698-0.205,3.545-0.617
					c1.532-0.758,2.298-2.215,2.298-4.367c0-1.82-0.742-3.07-2.229-3.752c-0.828-0.379-1.995-0.578-3.497-0.594H19.701z" />
        </g>
      </g>
    </g>
  </g>
</svg>