<?xml version="1.0" encoding="utf-8"?>
<!-- Generator: Adobe Illustrator 15.0.2, SVG Export Plug-In . SVG Version: 6.00 Build 0)  -->
<!DOCTYPE svg PUBLIC "-//W3C//DTD SVG 1.1//EN" "http://www.w3.org/Graphics/SVG/1.1/DTD/svg11.dtd"[]>
<svg version="1.1" id="Layer_1" xmlns="http://www.w3.org/2000/svg" xmlns:xlink="http://www.w3.org/1999/xlink" x="0px" y="0px" width="475px" height="478px" viewBox="0 0 475 478" enable-background="new 0 0 475 478" xml:space="preserve">
  <g>
    <g>
      <path fill="#00928F" d="M286.605,188.663c84.529,50.053,45.866,74.541-152.891,262.529c0,0,198.738,0.019,198.757-0.014
			C509.685,385.646,480.037,227.815,286.605,188.663z M307.708,187.311c112.811-41.55,93.938-141.629-29.2-166.454
			c53.815,31.735,29.2,47.263-97.328,166.463C181.18,187.32,307.694,187.332,307.708,187.311z" />
    </g>
  </g>
  <g>
    <path d="M70.107,398.092c1.852-8.009,4.095-13.635,6.726-16.876c3.745-4.65,8.6-6.975,14.565-6.975
		c6.294,0,11.497,2.548,15.611,7.632c4.979,6.241,7.468,15.318,7.468,27.223v42.73h-2.239c0-3.933-0.364-6.597-1.092-8
		c-0.728-1.398-1.672-2.378-2.837-2.947c-1.164-0.56-4.033-0.844-8.608-0.844H45.369c-4.574,0-7.454,0.284-8.639,0.844
		c-1.184,0.569-2.131,1.559-2.838,2.985c-0.707,1.417-1.061,4.077-1.061,7.962h-2.239v-40.292c0-9.627,0.858-16.447,2.575-20.454
		c1.717-4.011,4.282-7.173,7.691-9.487c3.412-2.313,7.042-3.471,10.887-3.471c4.054,0,7.664,1.475,10.827,4.418
		C65.733,385.482,68.246,390.67,70.107,398.092z M68.505,420.631c0-5.901-0.665-10.258-1.994-13.062
		c-1.329-2.803-3.2-4.958-5.612-6.451c-2.409-1.501-5.483-2.248-9.224-2.248c-3.741,0-6.806,0.737-9.194,2.212
		c-2.388,1.479-4.208,3.591-5.455,6.333c-1.246,2.743-1.849,7.146-1.807,13.216H68.505z M73.132,420.631h26.89h3.091
		c2.226,0,3.904-0.556,5.038-1.675c1.133-1.119,1.699-2.775,1.699-4.973c0-3.251-0.729-6.251-2.189-8.993
		c-1.459-2.743-3.58-4.846-6.357-6.311c-2.775-1.465-5.873-2.198-9.286-2.198c-3.909,0-7.417,0.836-10.524,2.506
		c-3.106,1.669-5.286,4.104-6.541,7.305C73.696,409.491,73.09,414.273,73.132,420.631z" />
    <path d="M105.671,333.671c6.37,7.043,9.553,13.359,9.553,18.955c0,3.299-1.077,6.037-3.237,8.22
		c-2.159,2.183-4.863,3.273-8.11,3.273c-4.398,0-8.354-1.893-11.872-5.68c-3.515-3.789-8.19-12.045-14.03-24.769h-5.852
		c-4.398,0-7.167,0.233-8.31,0.709c-1.14,0.466-2.136,1.361-2.988,2.677c-0.849,1.316-1.275,2.789-1.275,4.432
		c0,2.673,0.602,4.87,1.803,6.604c0.747,1.073,1.619,1.605,2.612,1.605c0.872,0,1.949-0.579,3.234-1.731
		c1.785-1.562,3.506-2.346,5.164-2.346c2.031,0,3.762,0.75,5.191,2.253c1.432,1.507,2.146,3.475,2.146,5.9
		c0,2.599-0.783,4.771-2.354,6.521c-1.569,1.753-3.406,2.63-5.513,2.63c-2.971,0-5.812-1.175-8.518-3.525
		c-2.705-2.352-4.779-5.626-6.225-9.834c-1.446-4.207-2.169-8.577-2.169-13.116c0-5.479,1.163-9.823,3.491-13.014
		c2.327-3.199,4.848-5.271,7.568-6.219c1.73-0.573,5.705-0.861,11.922-0.861h22.429c2.636,0,4.294-0.104,4.973-0.309
		c0.681-0.205,1.185-0.513,1.514-0.923c0.331-0.411,0.495-0.896,0.495-1.456c0-1.054-0.782-2.127-2.347-3.224l1.521-1.851
		c3.057,2.062,5.277,4.198,6.66,6.408c1.383,2.207,2.075,4.711,2.075,7.519c0,3.304-0.79,5.888-2.371,7.744
		S108.878,333.261,105.671,333.671z M101.194,333.671H82.097c2.911,5,6.024,8.723,9.344,11.161c2.213,1.614,4.444,2.422,6.698,2.422
		c1.883,0,3.544-0.682,4.977-2.053c1.107-1.026,1.66-2.478,1.66-4.338C104.775,338.797,103.581,336.395,101.194,333.671z" />
    <path d="M116.737,275.812l-42.714,18.583c-6.492,2.804-10.481,4.87-11.97,6.213c-1.488,1.335-2.523,2.958-3.102,4.851h-2.239
		v-30.784h2.239c0.084,2.024,0.476,3.441,1.176,4.268c0.702,0.825,1.546,1.236,2.535,1.236c1.567,0,4.662-1.027,9.28-3.088
		l22.581-9.824l-17.408-6.698c-6.241-2.435-10.579-3.647-13.019-3.647c-1.528,0-2.747,0.504-3.657,1.511
		c-0.909,1.014-1.404,2.794-1.488,5.346h-2.239v-19.339h2.239c0.208,1.898,0.942,3.443,2.202,4.637
		c1.261,1.194,5.55,3.195,12.87,5.999l42.843,16.483c10.63,4.156,17.172,7.24,19.626,9.255c3.433,2.841,5.152,6.4,5.152,10.673
		c0,3.414-0.982,6.18-2.946,8.298s-4.331,3.176-7.102,3.176c-2.399,0-4.385-0.728-5.954-2.187c-1.574-1.461-2.359-3.252-2.359-5.388
		c0-2.053,0.668-3.709,2.002-4.964c1.334-1.249,3.396-1.898,6.188-1.94c1.582-0.042,2.604-0.242,3.063-0.596
		c0.458-0.3,0.688-0.756,0.688-1.373c0-0.979-0.602-2.019-1.805-3.124c-1.746-1.633-5.729-3.545-11.952-5.751L116.737,275.812z" />
    <path d="M35.517,216.05h21.195v-13.733h6.12v13.733h35.552c3.328,0,5.475-0.155,6.439-0.465c0.966-0.308,1.748-0.856,2.341-1.64
		c0.598-0.783,0.895-1.504,0.895-2.164c0-2.681-2.039-5.217-6.12-7.61l1.367-1.854c7.945,3.34,11.917,8.763,11.917,16.266
		c0,3.671-1.016,6.772-3.053,9.308c-2.036,2.538-4.311,4.156-6.819,4.855c-1.398,0.413-5.185,0.619-11.355,0.619H62.833v7.613
		h-2.168c-3.674-5.21-7.534-9.644-11.583-13.302c-4.046-3.657-8.568-6.853-13.564-9.582V216.05z" />
    <path d="M83.431,147.927v31.793c7.659-0.371,13.715-2.416,18.159-6.137c3.419-2.85,5.126-6.281,5.126-10.29
		c0-2.479-0.692-4.732-2.077-6.756c-1.387-2.024-3.877-4.195-7.476-6.509l1.493-2.101c6.354,3.125,10.854,6.576,13.498,10.356
		c2.643,3.783,3.965,8.162,3.965,13.133c0,8.55-3.292,15.021-9.882,19.421c-5.308,3.535-11.896,5.301-19.761,5.301
		c-9.632,0-17.3-2.599-23.002-7.8c-5.7-5.198-8.552-11.292-8.552-18.279c0-5.836,2.397-10.901,7.19-15.198
		C66.904,150.566,74.011,148.255,83.431,147.927z M79.401,163.152c-6.652,0-11.216,0.363-13.695,1.087
		c-2.477,0.722-4.356,1.848-5.64,3.376c-0.741,0.87-1.115,2.027-1.115,3.473c0,2.15,1.054,3.908,3.16,5.27
		c3.678,2.44,8.718,3.66,15.12,3.66h2.17V163.152z" />
    <path d="M99.471,93.66l1.482-1.912c5.116,2.72,8.925,6.106,11.421,10.164c2.495,4.059,3.745,8.377,3.745,12.949
		c0,7.706-2.9,13.863-8.706,18.476c-5.805,4.613-12.783,6.921-20.937,6.921c-7.861,0-14.776-2.112-20.748-6.333
		c-7.204-5.094-10.807-12.114-10.807-21.056c0-6.003,1.5-10.779,4.499-14.32c3-3.541,6.346-5.308,10.04-5.308
		c2.341,0,4.212,0.713,5.607,2.145c1.397,1.433,2.095,3.308,2.095,5.63c0,2.448-0.801,4.473-2.4,6.068
		c-1.6,1.596-4.452,2.58-8.557,2.953c-2.584,0.252-4.39,0.854-5.415,1.806c-1.027,0.955-1.54,2.074-1.54,3.357
		c0,1.992,1.049,3.694,3.146,5.103c3.167,2.16,8.023,3.237,14.563,3.237c5.43,0,10.624-0.863,15.579-2.593
		c4.958-1.727,8.65-4.095,11.076-7.099c1.77-2.263,2.654-4.94,2.654-8.027c0-2.016-0.475-3.928-1.42-5.738
		C103.901,98.273,102.107,96.132,99.471,93.66z" />
    <path d="M30.592,60.792h33.494c-3.342-3.177-5.705-6.087-7.088-8.729c-1.383-2.64-2.075-5.386-2.075-8.233
		c0-3.63,1.033-6.738,3.095-9.317c2.062-2.579,4.485-4.293,7.269-5.14c2.786-0.844,7.475-1.269,14.074-1.269h22.58
		c4.398,0,7.144-0.413,8.232-1.241c1.093-0.828,1.779-2.505,2.066-5.028h2.239v29.405h-2.239c-0.287-2.085-1.109-3.65-2.467-4.695
		c-1.068-0.75-3.678-1.126-7.832-1.126H76.145c-4.781,0-7.78,0.187-8.997,0.557c-1.217,0.373-2.165,1.002-2.845,1.892
		c-0.681,0.889-1.022,1.892-1.022,3.006c0,1.654,0.567,3.265,1.701,4.835c1.133,1.572,3.123,3.265,5.965,5.084h30.993
		c4.112,0,6.682-0.313,7.708-0.94c1.398-0.792,2.262-2.418,2.591-4.881h2.239v29.405h-2.239c-0.246-2.439-1.028-4.179-2.344-5.214
		c-0.905-0.702-3.557-1.054-7.955-1.054H43.13c-4.385,0-7.113,0.403-8.188,1.21c-1.075,0.807-1.78,2.493-2.11,5.058h-2.239V60.792z" />
  </g>
</svg>