<?xml version="1.0" encoding="utf-8"?>
<!-- Generator: Adobe Illustrator 15.0.2, SVG Export Plug-In . SVG Version: 6.00 Build 0)  -->
<!DOCTYPE svg PUBLIC "-//W3C//DTD SVG 1.1//EN" "http://www.w3.org/Graphics/SVG/1.1/DTD/svg11.dtd"[]>
<svg version="1.1" id="Layer_1" xmlns="http://www.w3.org/2000/svg" xmlns:xlink="http://www.w3.org/1999/xlink" x="0px" y="0px" width="127.559px" height="74.075px" viewBox="0 0 127.559 74.075" enable-background="new 0 0 127.559 74.075" xml:space="preserve">
  <g>
    <path fill="#00928F" d="M9.11,14.122c0-6.028-0.962-6.262-6.794-7.594V5.197h19.216c4.942,0,15.442,0.47,15.442,12.604
		c0,8.064-5.009,11.117-8.166,11.901v0.155c4.802,1.019,10.499,4.151,10.499,13.856c0,14.17-13.038,14.17-18.255,14.17H9.11V14.122z
		 M15.082,29.124h3.362c3.843,0,11.806-1.068,11.806-10.696c0-8.064-4.669-10.177-10.158-10.177c-4.738,0-5.01,0.625-5.01,5.871
		V29.124z M15.082,48.411c0,5.95,0,6.418,5.695,6.418c5.971,0,11.803-2.269,11.803-11.116c0-11.977-9.745-13.925-14.136-13.925
		h-3.362V48.411z" />
    <path fill="#00928F" d="M43.426,38.908c0-2.342-0.471-2.409-2.963-2.979v-0.568h8.303c3.58,0,6.543,0.971,6.543,5.788
		c0,3.818-2.495,5.056-5.078,5.457l5.926,11.276h-2.875l-5.84-11.076h-1.465v11.076h-2.552V38.908z M45.978,45.501h0.791
		c2.084,0,5.662,0,5.662-4.686c0-3.179-2.082-4.149-4.371-4.149c-1.965,0-2.082,0.268-2.082,2.242V45.501z" />
    <path fill="#00928F" d="M60.439,39.176c0-2.309-0.909-2.208-2.934-2.475V36.13l5.487-0.769v22.521h-2.553V39.176z" />
    <path fill="#00928F" d="M69.089,39.176c0-2.542-0.382-2.677-2.935-3.247v-0.568h6.218c6.221,0,10.768,1.372,10.768,11.279
		c0,9.905-4.753,11.242-10.885,11.242h-3.166V39.176z M71.642,54.102c0,1.639,0,2.476,1.554,2.476c4.725,0,7.071-2.943,7.071-9.938
		c0-5.759-1.379-9.974-6.631-9.974c-1.76,0-1.994,0.334-1.994,2.51V54.102z" />
    <path fill="#00928F" d="M101.473,57.281c-0.849,0.232-3.49,0.97-6.159,0.97c-6.015,0-8.715-4.616-8.715-12.517
		c0-6.389,1.819-10.741,7.98-10.741c4.399,0,6.544,2.243,6.718,5.021h-2.874c-0.145-1.306-0.822-3.514-3.902-3.514
		c-4.577,0-5.046,5.321-5.046,8.967c0,5.623,1.554,11.28,7.188,11.28c0.968,0,1.437-0.067,2.257-0.303v-7.126
		c0-2.646-0.41-2.913-2.96-3.381v-0.569h5.513V57.281z" />
    <path fill="#00928F" d="M107.25,38.874c0-1.905-0.41-2.542-2.963-2.944v-0.568h13.847l0.148,4.081h-0.91
		c-0.295-1.739-0.265-2.776-2.699-2.776h-3.08c-1.674,0-1.791,0.401-1.791,2.208v6.593h3.727c2.436,0,2.642-1.202,2.876-2.775h0.673
		v6.925h-0.673c-0.293-1.94-0.382-2.842-2.876-2.842h-3.727v7.863c0,1.94,0.266,1.94,2.405,1.94h3.169
		c1.996,0,2.145-0.703,2.552-3.246h0.909l-0.203,4.551H107.25V38.874z" />
    <path fill="#00928F" d="M9.181,33.088c3.082-0.596,6.588-1.241,9.735-1.762c40.763-6.74,77.542-5.156,104.08,3.042
		C98.803,23.753,61.248,20.714,18.88,27.581c-3.104,0.503-6.544,1.086-9.699,1.698V33.088z" />
    <g>
      <path fill="#00928F" d="M12.634,68.571c-0.313,0.22-0.804,0.437-1.55,0.437c-1.793,0-2.443-1.735-2.443-3.66
			c0-1.658,0.516-3.403,2.291-3.403c1.298,0,1.939,0.845,1.939,1.965h-1.083c0-0.556-0.17-1.369-0.934-1.369
			c-1.058,0-1.226,1.677-1.226,2.628c0,1.537,0.311,3.125,1.604,3.125c0.708,0,1.157-0.435,1.402-0.654V68.571z" />
      <path fill="#00928F" d="M21.567,65.475c0-1.211,0.143-2.936,1.281-2.936c1.138,0,1.289,1.725,1.289,2.936
			c0,1.209-0.151,2.936-1.289,2.936C21.71,68.411,21.567,66.684,21.567,65.475z M22.848,69.007c1.635,0,2.277-1.481,2.277-3.532
			c0-2.053-0.642-3.531-2.277-3.531s-2.266,1.479-2.266,3.531C20.582,67.526,21.213,69.007,22.848,69.007z" />
      <path fill="#00928F" d="M33.425,62.058h1.032l2.311,5.403h0.016v-5.403h0.77v6.831h-0.963l-2.379-5.556h-0.018v5.556h-0.77V62.058
			z" />
      <path fill="#00928F" d="M49.054,63.063c-0.209-0.138-0.807-0.464-1.438-0.464c-0.514,0-0.877,0.348-0.877,0.863
			c0,1.438,2.733,1.397,2.733,3.542c0,1.438-0.938,2.003-2.109,2.003c-0.657,0-1.293-0.18-1.469-0.258v-1.062
			c0.259,0.18,0.929,0.604,1.612,0.604c0.607,0,1.044-0.297,1.044-0.991c0-1.569-2.732-1.468-2.732-3.601
			c0-1.112,0.696-1.757,1.899-1.757c0.538,0,1.111,0.128,1.337,0.179V63.063z" />
      <path fill="#00928F" d="M61.493,66.468c0,1.247-0.176,2.539-1.968,2.539c-1.792,0-1.967-1.292-1.967-2.539v-4.41h0.922v4.41
			c0,1.09,0.066,1.942,1.045,1.942s1.045-0.853,1.045-1.942v-4.41h0.922V66.468z" />
      <path fill="#00928F" d="M70.034,62.058h0.924v6.12h2.146v0.714h-3.07V62.058z" />
      <path fill="#00928F" d="M81.622,62.713h-1.409v-0.655h3.741v0.655h-1.411v6.179h-0.921V62.713z" />
      <path fill="#00928F" d="M91.916,62.058h0.923v6.834h-0.923V62.058z" />
      <path fill="#00928F" d="M101.48,62.058h1.031l2.311,5.403h0.017v-5.403h0.771v6.831h-0.964l-2.379-5.556h-0.016v5.556h-0.771
			V62.058z" />
      <path fill="#00928F" d="M118.169,68.353c-0.387,0.276-0.921,0.654-1.802,0.654c-1.779,0-2.444-1.669-2.444-3.698
			c0-1.818,0.496-3.365,2.252-3.365c1.577,0,1.936,1.035,1.994,1.935h-1.07c0-0.703-0.192-1.339-0.924-1.339
			c-1.174,0-1.266,1.679-1.266,2.77c0,1.725,0.318,3.102,1.559,3.102c0.328,0,0.614-0.15,0.78-0.348v-2.424H116.1v-0.655h2.069
			V68.353z" />
    </g>
  </g>
</svg>