<?xml version="1.0" encoding="utf-8"?>
<!-- Generator: Adobe Illustrator 15.0.2, SVG Export Plug-In . SVG Version: 6.00 Build 0)  -->
<!DOCTYPE svg PUBLIC "-//W3C//DTD SVG 1.1//EN" "http://www.w3.org/Graphics/SVG/1.1/DTD/svg11.dtd">
<svg version="1.1" id="Layer_1" xmlns="http://www.w3.org/2000/svg" xmlns:xlink="http://www.w3.org/1999/xlink" x="0px" y="0px"
	 width="50px" height="50px" viewBox="0 0 50 50" enable-background="new 0 0 50 50" xml:space="preserve">
<g>
	<defs>
		<rect id="SVGID_1_" width="50" height="50"/>
	</defs>
	<clipPath id="SVGID_2_">
		<use xlink:href="#SVGID_1_"  overflow="visible"/>
	</clipPath>
	<g clip-path="url(#SVGID_2_)">
		<linearGradient id="SVGID_3_" gradientUnits="userSpaceOnUse" x1="0" y1="25.0005" x2="50" y2="25.0005">
			<stop  offset="0" style="stop-color:#0087CD"/>
			<stop  offset="1" style="stop-color:#3465AF"/>
		</linearGradient>
		<path fill="url(#SVGID_3_)" d="M25,50C11.215,50,0,38.785,0,25C0,11.215,11.215,0,25,0S50,11.215,50,25C50,38.785,38.785,50,25,50
			z M25,1.3C11.932,1.3,1.301,11.932,1.301,25c0,13.069,10.631,23.701,23.699,23.701S48.699,38.068,48.699,25
			C48.699,11.932,38.068,1.3,25,1.3z"/>
	</g>
	<g clip-path="url(#SVGID_2_)">
		<linearGradient id="SVGID_4_" gradientUnits="userSpaceOnUse" x1="1.1816" y1="21.2949" x2="20.4365" y2="21.2949">
			<stop  offset="0" style="stop-color:#0087CD"/>
			<stop  offset="1" style="stop-color:#3465AF"/>
		</linearGradient>
		<path fill="url(#SVGID_4_)" d="M1.395,30.219l-0.213-1.282l2.956-0.493c1.094-1.63,7.245-10.787,8.212-11.857
			c0.954-1.054,1.991-1.561,3.711-2.4l0.928-0.456c2.263-1.123,3.035-1.339,3.115-1.36l0.333,1.257
			c-0.008,0.002-0.737,0.209-2.87,1.267l-0.936,0.46c-1.633,0.797-2.531,1.236-3.316,2.104c-0.811,0.896-6.232,8.924-8.253,11.942
			l-0.156,0.233L1.395,30.219z"/>
	</g>
	<g clip-path="url(#SVGID_2_)">
		<linearGradient id="SVGID_5_" gradientUnits="userSpaceOnUse" x1="19.2051" y1="21.541" x2="43.3418" y2="21.541">
			<stop  offset="0" style="stop-color:#0087CD"/>
			<stop  offset="1" style="stop-color:#3465AF"/>
		</linearGradient>
		<path fill="url(#SVGID_5_)" d="M35.115,31.48H24.168v-1.3h10.947c0.533,0,0.967-0.433,0.967-0.965v-5.246l0.927,0.436
			c0.429,0.202,1.073,0.47,1.715,0.47c1.829,0,3.317-1.495,3.317-3.333c0-0.886-0.342-1.721-0.964-2.351
			c-1.044-1.061-2.678-1.275-4.037-0.546l-0.958,0.515v-5.293c0-0.532-0.434-0.965-0.967-0.965h-3.97
			c-0.438,0.156-0.486,0.452-0.486,0.577c-0.001,0.192,0.085,0.408,0.262,0.665c0.3,0.429,0.451,0.97,0.46,1.651
			c0.001,0.82-0.321,1.585-0.909,2.162c-0.584,0.574-1.358,0.889-2.18,0.889c-1.7,0-3.083-1.369-3.083-3.051
			c0.005-0.758,0.347-1.437,0.451-1.626c0.194-0.295,0.274-0.503,0.274-0.687c0-0.156-0.064-0.428-0.48-0.557l-3.985-0.023
			c-0.529,0-0.963,0.433-0.963,0.965v11.412h-1.301V13.867c0-1.249,1.018-2.265,2.268-2.265l4.229,0.043
			c1.132,0.283,1.534,1.166,1.534,1.836c0,0.449-0.152,0.895-0.466,1.362c-0.077,0.145-0.258,0.574-0.26,0.955
			c0,0.961,0.799,1.747,1.782,1.747c0.479,0,0.93-0.184,1.27-0.517c0.335-0.33,0.52-0.765,0.519-1.225
			c-0.005-0.404-0.079-0.707-0.228-0.918c-0.334-0.485-0.495-0.944-0.494-1.408c0-0.652,0.395-1.53,1.507-1.85l0.18-0.025h4.07
			c1.25,0,2.268,1.016,2.268,2.265v3.235c1.591-0.471,3.42-0.042,4.62,1.177c0.863,0.874,1.339,2.033,1.339,3.263
			c0,2.554-2.072,4.632-4.618,4.632c-0.479,0-0.937-0.096-1.341-0.224v3.264C37.383,30.464,36.365,31.48,35.115,31.48z"/>
	</g>
	<g clip-path="url(#SVGID_2_)">
		<linearGradient id="SVGID_6_" gradientUnits="userSpaceOnUse" x1="7.4971" y1="31.8062" x2="30.6035" y2="31.8062">
			<stop  offset="0" style="stop-color:#0087CD"/>
			<stop  offset="1" style="stop-color:#3465AF"/>
		</linearGradient>
		<path fill="url(#SVGID_6_)" d="M7.688,42.737l-0.191-1.286l3.535-0.525c2.138-0.124,3.148-0.779,4.026-1.726l5.89-6.287
			l7.74-6.609c0.845-0.77,0.819-2.042-0.078-3.077c-0.952-1.099-2.014-1.344-2.884-0.673l-10.262,6.258l-0.676-1.11l10.202-6.217
			c0.491-0.384,1.126-0.609,1.776-0.609c0.696,0,1.752,0.26,2.825,1.5c1.364,1.575,1.346,3.637-0.045,4.903l-7.703,6.573
			l-5.835,6.234c-0.897,0.968-2.177,1.98-4.845,2.131L7.688,42.737z"/>
	</g>
</g>
</svg>
