<?xml version="1.0" encoding="utf-8"?>
<!-- Generator: Adobe Illustrator 15.0.2, SVG Export Plug-In . SVG Version: 6.00 Build 0)  -->
<!DOCTYPE svg PUBLIC "-//W3C//DTD SVG 1.1//EN" "http://www.w3.org/Graphics/SVG/1.1/DTD/svg11.dtd">
<svg version="1.1" id="Layer_1" xmlns="http://www.w3.org/2000/svg" xmlns:xlink="http://www.w3.org/1999/xlink" x="0px" y="0px"
	 width="50px" height="50px" viewBox="0 0 50 50" enable-background="new 0 0 50 50" xml:space="preserve">
<g>
	<g>
		<defs>
			<rect id="SVGID_1_" width="50" height="50"/>
		</defs>
		<clipPath id="SVGID_2_">
			<use xlink:href="#SVGID_1_"  overflow="visible"/>
		</clipPath>
		<g clip-path="url(#SVGID_2_)">
			<linearGradient id="SVGID_3_" gradientUnits="userSpaceOnUse" x1="0" y1="25.0005" x2="50" y2="25.0005">
				<stop  offset="0" style="stop-color:#0087CD"/>
				<stop  offset="1" style="stop-color:#3465AF"/>
			</linearGradient>
			<path fill="url(#SVGID_3_)" d="M25,50C11.215,50,0,38.785,0,25S11.215,0.001,25,0.001S50,11.215,50,25S38.785,50,25,50z
				 M25,1.301C11.932,1.301,1.301,11.932,1.301,25S11.932,48.7,25,48.7S48.699,38.068,48.699,25S38.068,1.301,25,1.301z"/>
		</g>
	</g>
	<path fill="none" stroke="#231F20" stroke-width="1.3" d="M18.938,35.574"/>
	<g>
		<defs>
			<rect id="SVGID_4_" width="50" height="50"/>
		</defs>
		<clipPath id="SVGID_5_">
			<use xlink:href="#SVGID_4_"  overflow="visible"/>
		</clipPath>
		<g clip-path="url(#SVGID_5_)">
			<linearGradient id="SVGID_6_" gradientUnits="userSpaceOnUse" x1="5.6875" y1="29.9609" x2="44.4883" y2="29.9609">
				<stop  offset="0" style="stop-color:#0087CD"/>
				<stop  offset="1" style="stop-color:#3465AF"/>
			</linearGradient>
			<path fill="url(#SVGID_6_)" d="M24.29,33.775c-0.515-0.004-1.023-0.01-1.526-0.021c-4.274-0.093-8.257-0.449-11.213-1.002
				c-0.187-0.035-0.37-0.072-0.549-0.109l0.566-2.742c0.161,0.033,0.327,0.067,0.496,0.099c2.812,0.526,6.634,0.866,10.763,0.955
				c0.49,0.012,0.985,0.018,1.484,0.021L24.29,33.775z M26.143,33.773l-0.025-2.8c0.434-0.004,0.861-0.012,1.284-0.021
				c3.577-0.08,6.876-0.341,9.542-0.756c0.389-0.061,0.764-0.123,1.118-0.188l0.259-0.05l0.572,2.741l-0.298,0.058
				c-0.403,0.074-0.804,0.142-1.221,0.206c-2.785,0.435-6.212,0.706-9.909,0.788C27.029,33.762,26.588,33.77,26.143,33.773z
				 M40.942,32.216l-0.781-2.688c0.262-0.076,0.502-0.151,0.721-0.232c0.006-0.002,0.012-0.004,0.017-0.006
				c-0.267-0.098-0.603-0.204-1.024-0.317l0.727-2.704c1.044,0.28,1.841,0.582,2.436,0.922c0.617,0.359,1.024,0.762,1.253,1.236
				c0.133,0.277,0.199,0.566,0.199,0.863c0,0.969-0.658,1.762-1.956,2.357c-0.211,0.096-0.439,0.188-0.688,0.278
				C41.577,32.023,41.272,32.12,40.942,32.216z M8.95,32.132c-0.893-0.274-3.263-1.003-3.263-2.843c0-0.379,0.112-0.945,0.647-1.493
				c0.124-0.126,0.27-0.251,0.437-0.371c0.159-0.11,0.322-0.211,0.505-0.311c0.679-0.363,1.585-0.679,2.779-0.968l0.66,2.721
				c-0.625,0.151-1.093,0.295-1.44,0.422c0.145,0.053,0.31,0.108,0.497,0.166L8.95,32.132z"/>
		</g>
		<g clip-path="url(#SVGID_5_)">
			<linearGradient id="SVGID_7_" gradientUnits="userSpaceOnUse" x1="30.1543" y1="25.6055" x2="40.9961" y2="25.6055">
				<stop  offset="0" style="stop-color:#0087CD"/>
				<stop  offset="1" style="stop-color:#3465AF"/>
			</linearGradient>
			<path fill="url(#SVGID_7_)" d="M40.996,29.295h-1.301c0-3.75-1.876-6.079-4.897-6.079c-1.402,0-2.74,0.603-3.671,1.653
				l-0.973-0.861c1.177-1.329,2.869-2.092,4.644-2.092C38.562,21.916,40.996,24.812,40.996,29.295z"/>
		</g>
		<g clip-path="url(#SVGID_5_)">
			<linearGradient id="SVGID_8_" gradientUnits="userSpaceOnUse" x1="31.083" y1="19.0474" x2="38.5117" y2="19.0474">
				<stop  offset="0" style="stop-color:#0087CD"/>
				<stop  offset="1" style="stop-color:#3465AF"/>
			</linearGradient>
			<path fill="url(#SVGID_8_)" d="M34.798,22.762c-2.048,0-3.715-1.666-3.715-3.714s1.667-3.715,3.715-3.715
				s3.714,1.667,3.714,3.715S36.846,22.762,34.798,22.762z M34.798,16.633c-1.331,0-2.414,1.084-2.414,2.415
				s1.083,2.414,2.414,2.414s2.413-1.083,2.413-2.414S36.129,16.633,34.798,16.633z"/>
		</g>
		<g clip-path="url(#SVGID_5_)">
			<linearGradient id="SVGID_9_" gradientUnits="userSpaceOnUse" x1="9.4961" y1="25.6055" x2="20.9434" y2="25.6055">
				<stop  offset="0" style="stop-color:#0087CD"/>
				<stop  offset="1" style="stop-color:#3465AF"/>
			</linearGradient>
			<path fill="url(#SVGID_9_)" d="M10.797,29.295H9.496c0-5.069,3.462-7.379,6.678-7.379c1.849,0,3.587,0.816,4.77,2.24l-1,0.83
				c-0.935-1.125-2.309-1.77-3.77-1.77C13.497,23.217,10.797,25.096,10.797,29.295z"/>
		</g>
		<g clip-path="url(#SVGID_5_)">
			<linearGradient id="SVGID_10_" gradientUnits="userSpaceOnUse" x1="12.459" y1="19.0474" x2="19.8887" y2="19.0474">
				<stop  offset="0" style="stop-color:#0087CD"/>
				<stop  offset="1" style="stop-color:#3465AF"/>
			</linearGradient>
			<path fill="url(#SVGID_10_)" d="M16.174,22.762c-2.048,0-3.715-1.666-3.715-3.714s1.667-3.715,3.715-3.715
				s3.715,1.667,3.715,3.715S18.222,22.762,16.174,22.762z M16.174,16.633c-1.331,0-2.414,1.084-2.414,2.415
				s1.083,2.414,2.414,2.414s2.414-1.083,2.414-2.414S17.505,16.633,16.174,16.633z"/>
		</g>
		<g clip-path="url(#SVGID_5_)">
			<linearGradient id="SVGID_11_" gradientUnits="userSpaceOnUse" x1="20.8105" y1="18.3457" x2="30.0938" y2="18.3457">
				<stop  offset="0" style="stop-color:#0087CD"/>
				<stop  offset="1" style="stop-color:#3465AF"/>
			</linearGradient>
			<path fill="url(#SVGID_11_)" d="M25.452,22.986c-2.56,0-4.642-2.082-4.642-4.641s2.082-4.641,4.642-4.641
				s4.642,2.082,4.642,4.641S28.012,22.986,25.452,22.986z M25.452,15.005c-1.843,0-3.341,1.499-3.341,3.341s1.498,3.34,3.341,3.34
				s3.341-1.498,3.341-3.34S27.295,15.005,25.452,15.005z"/>
		</g>
		<g clip-path="url(#SVGID_5_)">
			<linearGradient id="SVGID_12_" gradientUnits="userSpaceOnUse" x1="17.6895" y1="25.8608" x2="33.2158" y2="25.8608">
				<stop  offset="0" style="stop-color:#0087CD"/>
				<stop  offset="1" style="stop-color:#3465AF"/>
			</linearGradient>
			<path fill="url(#SVGID_12_)" d="M33.216,29.742h-1.301c0-3.563-2.899-6.463-6.463-6.463s-6.462,2.899-6.462,6.463h-1.301
				c0-4.28,3.482-7.763,7.763-7.763S33.216,25.462,33.216,29.742z"/>
		</g>
	</g>
</g>
</svg>
