<?xml version="1.0" encoding="utf-8"?>
<!-- Generator: Adobe Illustrator 15.0.2, SVG Export Plug-In . SVG Version: 6.00 Build 0)  -->
<!DOCTYPE svg PUBLIC "-//W3C//DTD SVG 1.1//EN" "http://www.w3.org/Graphics/SVG/1.1/DTD/svg11.dtd">
<svg version="1.1" id="Layer_1" xmlns="http://www.w3.org/2000/svg" xmlns:xlink="http://www.w3.org/1999/xlink" x="0px" y="0px"
	 width="50px" height="50px" viewBox="0 0 50 50" enable-background="new 0 0 50 50" xml:space="preserve">
<g>
	<defs>
		<rect id="SVGID_1_" x="0" width="50" height="50"/>
	</defs>
	<clipPath id="SVGID_2_">
		<use xlink:href="#SVGID_1_"  overflow="visible"/>
	</clipPath>
	<g clip-path="url(#SVGID_2_)">
		<linearGradient id="SVGID_3_" gradientUnits="userSpaceOnUse" x1="-4.882812e-04" y1="25" x2="49.999" y2="25">
			<stop  offset="0" style="stop-color:#0087CD"/>
			<stop  offset="1" style="stop-color:#3465AF"/>
		</linearGradient>
		<path fill="url(#SVGID_3_)" d="M25,50C11.214,50,0,38.785,0,25S11.214,0,25,0c13.785,0,25,11.215,25,25S38.784,50,25,50z
			 M25,1.301c-13.068,0-23.7,10.631-23.7,23.699S11.931,48.699,25,48.699c13.068,0,23.7-10.631,23.7-23.699S38.067,1.301,25,1.301z"
			/>
	</g>
	<g clip-path="url(#SVGID_2_)">
		<linearGradient id="SVGID_4_" gradientUnits="userSpaceOnUse" x1="13.4111" y1="20.7734" x2="36.9717" y2="20.7734">
			<stop  offset="0" style="stop-color:#0087CD"/>
			<stop  offset="1" style="stop-color:#3465AF"/>
		</linearGradient>
		<path fill="url(#SVGID_4_)" d="M34.443,29.183H15.94c-1.395,0-2.529-1.121-2.529-2.498V14.861c0-1.376,1.135-2.496,2.529-2.496
			h18.503c1.395,0,2.528,1.12,2.528,2.496v11.823C36.972,28.062,35.838,29.183,34.443,29.183z M15.94,13.666
			c-0.678,0-1.229,0.536-1.229,1.195v11.823c0,0.66,0.552,1.197,1.229,1.197h18.503c0.678,0,1.229-0.537,1.229-1.197V14.861
			c0-0.659-0.551-1.195-1.229-1.195H15.94z"/>
	</g>
	<g clip-path="url(#SVGID_2_)">
		<linearGradient id="SVGID_5_" gradientUnits="userSpaceOnUse" x1="9.4897" y1="33.5049" x2="40.8936" y2="33.5049">
			<stop  offset="0" style="stop-color:#0087CD"/>
			<stop  offset="1" style="stop-color:#3465AF"/>
		</linearGradient>
		<path fill="url(#SVGID_5_)" d="M38.73,37.635H11.654c-1.529,0-2.164-1.436-2.164-2.204c0-0.13,0.039-0.257,0.112-0.364
			l3.102-4.577c0.593-0.771,1.394-1.114,2.544-1.114h19.887c1.166,0,1.943,0.334,2.521,1.081l3.125,4.61
			c0.073,0.107,0.112,0.234,0.112,0.364C40.894,36.199,40.259,37.635,38.73,37.635z M10.82,35.585
			c0.067,0.258,0.271,0.749,0.833,0.749H38.73c0.539,0,0.763-0.48,0.834-0.746l-2.961-4.37c-0.191-0.245-0.502-0.542-1.469-0.542
			H15.248c-0.966,0-1.276,0.297-1.491,0.575L10.82,35.585z"/>
	</g>
	<linearGradient id="SVGID_6_" gradientUnits="userSpaceOnUse" x1="22.6987" y1="34.8018" x2="27.6855" y2="34.8018">
		<stop  offset="0" style="stop-color:#0087CD"/>
		<stop  offset="1" style="stop-color:#3465AF"/>
	</linearGradient>
	<path clip-path="url(#SVGID_2_)" fill="url(#SVGID_6_)" d="M27.434,35.378h-2.242H22.95c-0.184,0-0.251-0.182-0.251-0.258
		l0.513-0.758c0.062-0.079,0.15-0.137,0.333-0.137h1.647h1.646c0.184,0,0.271,0.058,0.334,0.137l0.514,0.758
		C27.686,35.196,27.617,35.378,27.434,35.378"/>
</g>
<g>
	<linearGradient id="SVGID_7_" gradientUnits="userSpaceOnUse" x1="17.3115" y1="20.7754" x2="33.0615" y2="20.7754">
		<stop  offset="0" style="stop-color:#0087CD"/>
		<stop  offset="1" style="stop-color:#3465AF"/>
	</linearGradient>
	<path fill="url(#SVGID_7_)" d="M23.527,26.731l-6.215-5.274l3.378-3.261l2.752,2.14l6.942-5.516l2.677,2.576L23.527,26.731z
		 M19.248,21.395l4.216,3.579l7.731-7.569l-0.893-0.859l-6.852,5.443l-2.669-2.073L19.248,21.395z"/>
</g>
</svg>
