<?xml version="1.0" encoding="utf-8"?>
<!-- Generator: Adobe Illustrator 15.0.2, SVG Export Plug-In . SVG Version: 6.00 Build 0)  -->
<!DOCTYPE svg PUBLIC "-//W3C//DTD SVG 1.1//EN" "http://www.w3.org/Graphics/SVG/1.1/DTD/svg11.dtd">
<svg version="1.1" id="Layer_1" xmlns="http://www.w3.org/2000/svg" xmlns:xlink="http://www.w3.org/1999/xlink" x="0px" y="0px"
	 width="50px" height="50px" viewBox="0 0 50 50" enable-background="new 0 0 50 50" xml:space="preserve">
<g>
	<g>
		<defs>
			<rect id="SVGID_1_" y="0.001" width="49.999" height="49.999"/>
		</defs>
		<clipPath id="SVGID_2_">
			<use xlink:href="#SVGID_1_"  overflow="visible"/>
		</clipPath>
		<circle clip-path="url(#SVGID_2_)" fill="none" stroke="#231F20" stroke-width="1.3" cx="25" cy="25" r="24.35"/>
		<path clip-path="url(#SVGID_2_)" fill="none" stroke="#231F20" stroke-width="1.3" d="M25.88,8.141
			c2.713,0.488,4.519,3.083,4.029,5.796l-2.537,14.078c-0.134,0.946-0.999,1.812-1.945,1.945c-1.312,0.237-2.573-0.634-2.804-1.945
			L20.09,13.937c-0.105-0.465-0.105-1.301,0-1.765C20.578,9.459,23.168,7.652,25.88,8.141z"/>
		<path clip-path="url(#SVGID_2_)" fill="none" stroke="#231F20" stroke-width="1.3" d="M24.998,34.998
			c1.81,0,3.281,1.465,3.281,3.282c0,1.812-1.472,3.276-3.281,3.276c-1.812,0-3.283-1.465-3.283-3.276
			C21.715,36.463,23.186,34.998,24.998,34.998z"/>
	</g>
</g>
<g>
	<defs>
		<rect id="SVGID_3_" width="49.999" height="49.999"/>
	</defs>
	<clipPath id="SVGID_4_">
		<use xlink:href="#SVGID_3_"  overflow="visible"/>
	</clipPath>
	<g clip-path="url(#SVGID_4_)">
		<linearGradient id="SVGID_5_" gradientUnits="userSpaceOnUse" x1="0" y1="24.999" x2="50" y2="24.999">
			<stop  offset="0" style="stop-color:#0087CD"/>
			<stop  offset="1" style="stop-color:#3465AF"/>
		</linearGradient>
		<path fill="url(#SVGID_5_)" d="M25,49.999c-13.785,0-25-11.215-25-25s11.215-25,25-25s25,11.215,25,25S38.785,49.999,25,49.999z
			 M25,1.3C11.932,1.3,1.301,11.931,1.301,24.999S11.932,48.698,25,48.698s23.699-10.631,23.699-23.699S38.068,1.3,25,1.3z"/>
	</g>
	<g clip-path="url(#SVGID_4_)">
		<linearGradient id="SVGID_6_" gradientUnits="userSpaceOnUse" x1="19.3604" y1="19.0293" x2="30.6396" y2="19.0293">
			<stop  offset="0" style="stop-color:#0087CD"/>
			<stop  offset="1" style="stop-color:#3465AF"/>
		</linearGradient>
		<path fill="url(#SVGID_6_)" d="M24.994,30.648c-1.488,0-2.755-1.062-3.012-2.522L19.45,14.051c-0.12-0.528-0.12-1.468,0.006-2.024
			c0.479-2.662,2.81-4.616,5.535-4.616c0.335,0,0.672,0.03,1.004,0.09c1.483,0.267,2.773,1.095,3.634,2.332
			c0.86,1.238,1.188,2.736,0.92,4.219l-2.537,14.078c-0.17,1.203-1.267,2.3-2.494,2.474C25.358,30.632,25.175,30.648,24.994,30.648z
			 M24.991,8.71c-2.097,0-3.889,1.504-4.262,3.576c-0.091,0.401-0.091,1.133-0.006,1.506l2.539,14.106
			c0.165,0.944,1.073,1.6,2.049,1.421c0.686-0.098,1.323-0.735,1.417-1.396L29.27,13.82c0.206-1.141-0.046-2.294-0.708-3.246
			s-1.655-1.59-2.797-1.795C25.509,8.733,25.249,8.71,24.991,8.71z"/>
	</g>
	<g clip-path="url(#SVGID_4_)">
		<linearGradient id="SVGID_7_" gradientUnits="userSpaceOnUse" x1="21.0645" y1="38.2764" x2="28.9297" y2="38.2764">
			<stop  offset="0" style="stop-color:#0087CD"/>
			<stop  offset="1" style="stop-color:#3465AF"/>
		</linearGradient>
		<path fill="url(#SVGID_7_)" d="M24.998,42.206c-2.169,0-3.934-1.762-3.934-3.927c0-2.168,1.765-3.933,3.934-3.933
			c2.168,0,3.932,1.765,3.932,3.933C28.93,40.444,27.166,42.206,24.998,42.206z M24.998,35.647c-1.452,0-2.633,1.181-2.633,2.632
			c0,1.448,1.181,2.626,2.633,2.626c1.451,0,2.631-1.178,2.631-2.626C27.629,36.828,26.449,35.647,24.998,35.647z"/>
	</g>
</g>
</svg>
