<?xml version="1.0" encoding="utf-8"?>
<!-- Generator: Adobe Illustrator 15.0.2, SVG Export Plug-In . SVG Version: 6.00 Build 0)  -->
<!DOCTYPE svg PUBLIC "-//W3C//DTD SVG 1.1//EN" "http://www.w3.org/Graphics/SVG/1.1/DTD/svg11.dtd">
<svg version="1.1" id="Layer_1" xmlns="http://www.w3.org/2000/svg" xmlns:xlink="http://www.w3.org/1999/xlink" x="0px" y="0px"
	 width="111.2px" height="65.5px" viewBox="0 0 111.2 65.5" enable-background="new 0 0 111.2 65.5" xml:space="preserve">
<g>
	<g>
		<defs>
			<rect id="SVGID_1_" x="0.2" y="0.15" width="110.801" height="65.258"/>
		</defs>
		<clipPath id="SVGID_2_">
			<use xlink:href="#SVGID_1_"  overflow="visible"/>
		</clipPath>
		<path clip-path="url(#SVGID_2_)" fill="#FFFFFF" d="M42.733,9.612l5.788,5.789l1.099,1.098l11.559,11.56
			c3.089,3.088,7.194,4.789,11.562,4.789c4.367,0,8.471-1.701,11.559-4.789c6.375-6.374,6.375-16.746,0-23.121
			C81.212,1.85,77.108,0.15,72.741,0.15c-4.368,0-8.474,1.7-11.562,4.788l-5.239,5.24l4.671,4.671l5.24-5.24
			c1.84-1.84,4.285-2.854,6.89-2.854c2.602,0,5.048,1.014,6.889,2.854c3.798,3.799,3.798,9.98,0,13.779
			c-1.841,1.84-4.287,2.854-6.889,2.854c-2.604,0-5.05-1.014-6.89-2.854l-5.79-5.788l-1.098-1.099L47.403,4.941"/>
		<path clip-path="url(#SVGID_2_)" fill="#FFFFFF" d="M58.239,58.261c-0.23-0.192-0.554-0.289-0.971-0.289h-1.644v2.57h1.644
			c0.417,0,0.74-0.104,0.971-0.312c0.231-0.209,0.348-0.541,0.348-0.996C58.587,58.779,58.471,58.455,58.239,58.261 M59.633,61.408
			c-0.511,0.426-1.241,0.64-2.19,0.64h-1.818v3.141h-1.814v-8.734h3.75c0.865,0,1.554,0.226,2.068,0.676
			c0.514,0.45,0.771,1.147,0.771,2.092C60.4,60.252,60.145,60.981,59.633,61.408"/>
		<path clip-path="url(#SVGID_2_)" fill="#FFFFFF" d="M63.41,60.319c-0.237,0.246-0.389,0.579-0.451,1h2.911
			c-0.03-0.448-0.181-0.788-0.451-1.021c-0.269-0.231-0.602-0.348-1.001-0.348C63.984,59.95,63.648,60.073,63.41,60.319
			 M65.937,58.86c0.451,0.202,0.822,0.52,1.117,0.955c0.263,0.384,0.436,0.83,0.514,1.336c0.045,0.297,0.064,0.724,0.055,1.282
			h-4.704c0.026,0.647,0.252,1.102,0.676,1.362c0.259,0.162,0.569,0.243,0.931,0.243c0.386,0,0.698-0.099,0.939-0.297
			c0.131-0.105,0.246-0.254,0.347-0.444h1.725c-0.046,0.384-0.255,0.773-0.627,1.168c-0.578,0.628-1.388,0.942-2.43,0.942
			c-0.86,0-1.617-0.265-2.275-0.795c-0.655-0.53-0.985-1.392-0.985-2.586c0-1.119,0.297-1.977,0.89-2.574
			c0.594-0.597,1.364-0.896,2.31-0.896C64.979,58.558,65.485,58.658,65.937,58.86"/>
		<path clip-path="url(#SVGID_2_)" fill="#FFFFFF" d="M72.065,58.578c0.021,0.002,0.07,0.005,0.146,0.009v1.73
			c-0.106-0.012-0.201-0.02-0.285-0.024c-0.082-0.003-0.15-0.005-0.201-0.005c-0.68,0-1.135,0.222-1.369,0.664
			c-0.131,0.248-0.196,0.632-0.196,1.149v3.087h-1.701V58.73h1.613v1.125c0.26-0.43,0.488-0.726,0.682-0.883
			c0.315-0.265,0.726-0.397,1.232-0.397C72.017,58.575,72.043,58.576,72.065,58.578"/>
		<path clip-path="url(#SVGID_2_)" fill="#FFFFFF" d="M74.509,63.127c0.036,0.3,0.114,0.514,0.232,0.64
			c0.211,0.226,0.599,0.337,1.167,0.337c0.333,0,0.599-0.049,0.795-0.147c0.197-0.099,0.295-0.247,0.295-0.444
			c0-0.189-0.079-0.334-0.237-0.432c-0.158-0.101-0.747-0.27-1.768-0.511c-0.734-0.182-1.25-0.408-1.551-0.682
			c-0.3-0.268-0.449-0.656-0.449-1.161c0-0.597,0.233-1.109,0.702-1.538c0.47-0.428,1.13-0.643,1.98-0.643
			c0.808,0,1.467,0.161,1.975,0.482c0.51,0.322,0.802,0.879,0.876,1.669h-1.688c-0.023-0.218-0.085-0.39-0.185-0.516
			c-0.187-0.229-0.503-0.344-0.95-0.344c-0.369,0-0.631,0.057-0.787,0.172c-0.157,0.114-0.234,0.249-0.234,0.402
			c0,0.194,0.083,0.334,0.25,0.422c0.166,0.09,0.754,0.246,1.763,0.468c0.673,0.158,1.177,0.397,1.513,0.717
			c0.332,0.324,0.498,0.729,0.498,1.215c0,0.64-0.238,1.162-0.716,1.567s-1.215,0.607-2.212,0.607c-1.018,0-1.769-0.215-2.253-0.644
			c-0.485-0.429-0.728-0.975-0.728-1.638H74.509z"/>
		<path clip-path="url(#SVGID_2_)" fill="#FFFFFF" d="M83.984,63.465c0.265-0.351,0.396-0.85,0.396-1.497s-0.132-1.146-0.396-1.493
			c-0.265-0.349-0.645-0.524-1.138-0.524c-0.494,0-0.874,0.176-1.14,0.524c-0.267,0.348-0.401,0.846-0.401,1.493
			s0.135,1.146,0.401,1.497c0.266,0.352,0.646,0.526,1.14,0.526C83.34,63.991,83.72,63.816,83.984,63.465 M85.336,64.398
			c-0.545,0.673-1.373,1.01-2.484,1.01c-1.108,0-1.937-0.337-2.481-1.01s-0.817-1.483-0.817-2.431c0-0.932,0.272-1.738,0.817-2.421
			c0.545-0.684,1.373-1.024,2.481-1.024c1.111,0,1.939,0.341,2.484,1.024c0.545,0.683,0.817,1.489,0.817,2.421
			C86.153,62.915,85.881,63.726,85.336,64.398"/>
		<path clip-path="url(#SVGID_2_)" fill="#FFFFFF" d="M92.571,59.1c0.423,0.35,0.634,0.93,0.634,1.739v4.351h-1.73v-3.93
			c0-0.34-0.045-0.601-0.136-0.782c-0.165-0.331-0.478-0.497-0.941-0.497c-0.567,0-0.958,0.242-1.17,0.729
			c-0.109,0.257-0.165,0.584-0.165,0.984v3.496h-1.688v-6.447h1.636v0.94c0.216-0.331,0.421-0.569,0.613-0.717
			c0.347-0.26,0.785-0.39,1.316-0.39C91.604,58.576,92.147,58.751,92.571,59.1"/>
		<path clip-path="url(#SVGID_2_)" fill="#FFFFFF" d="M99.984,59.1c0.423,0.35,0.634,0.93,0.634,1.739v4.351h-1.729v-3.93
			c0-0.34-0.045-0.601-0.137-0.782c-0.165-0.331-0.478-0.497-0.94-0.497c-0.568,0-0.958,0.242-1.171,0.729
			c-0.109,0.257-0.164,0.584-0.164,0.984v3.496h-1.689v-6.447h1.636v0.94c0.217-0.331,0.422-0.569,0.613-0.717
			c0.347-0.26,0.785-0.39,1.317-0.39C99.018,58.576,99.562,58.751,99.984,59.1"/>
		<path clip-path="url(#SVGID_2_)" fill="#FFFFFF" d="M103.872,60.319c-0.238,0.246-0.389,0.579-0.451,1h2.911
			c-0.031-0.448-0.181-0.788-0.451-1.021c-0.269-0.231-0.602-0.348-1.001-0.348C104.446,59.95,104.11,60.073,103.872,60.319
			 M106.398,58.86c0.45,0.202,0.821,0.52,1.116,0.955c0.264,0.384,0.437,0.83,0.515,1.336c0.045,0.297,0.063,0.724,0.055,1.282
			h-4.704c0.026,0.647,0.252,1.102,0.675,1.362c0.26,0.162,0.57,0.243,0.932,0.243c0.386,0,0.697-0.099,0.938-0.297
			c0.131-0.105,0.247-0.254,0.348-0.444h1.725c-0.046,0.384-0.255,0.773-0.627,1.168c-0.578,0.628-1.388,0.942-2.43,0.942
			c-0.86,0-1.617-0.265-2.275-0.795c-0.656-0.53-0.986-1.392-0.986-2.586c0-1.119,0.297-1.977,0.891-2.574
			c0.594-0.597,1.363-0.896,2.31-0.896C105.441,58.558,105.947,58.658,106.398,58.86"/>
	</g>
	<rect x="108.974" y="56.454" fill="#FFFFFF" width="1.688" height="8.734"/>
	<g>
		<defs>
			<rect id="SVGID_3_" x="0.2" y="0.15" width="110.801" height="65.258"/>
		</defs>
		<clipPath id="SVGID_4_">
			<use xlink:href="#SVGID_3_"  overflow="visible"/>
		</clipPath>
		<path clip-path="url(#SVGID_4_)" fill="#FFFFFF" d="M38.218,55.631l0.547,0.029c0.423,0.021,0.829,0.005,1.213-0.045
			c0.385-0.051,0.709-0.167,0.972-0.349c0.252-0.173,0.488-0.532,0.705-1.077c0.217-0.546,0.312-0.88,0.28-1.001l-6.076-17.265h4.81
			l3.611,12.197l3.413-12.197h4.598l-5.67,16.264c-1.096,3.135-1.962,5.078-2.6,5.833c-0.639,0.753-1.914,1.129-3.827,1.129
			c-0.385,0-0.694-0.002-0.926-0.007c-0.234-0.005-0.585-0.022-1.05-0.054V55.631z"/>
		<path clip-path="url(#SVGID_4_)" fill="#FFFFFF" d="M56.919,47.18c0.093,0.77,0.292,1.314,0.596,1.64
			c0.538,0.575,1.534,0.864,2.987,0.864c0.854,0,1.531-0.126,2.036-0.38c0.503-0.252,0.753-0.633,0.753-1.138
			c0-0.486-0.202-0.855-0.605-1.107c-0.406-0.253-1.913-0.688-4.523-1.306c-1.88-0.464-3.204-1.045-3.973-1.743
			c-0.768-0.688-1.152-1.68-1.152-2.974c0-1.528,0.601-2.839,1.801-3.937c1.201-1.099,2.891-1.647,5.07-1.647
			c2.068,0,3.753,0.413,5.056,1.236c1.303,0.825,2.05,2.248,2.243,4.271h-4.324c-0.062-0.557-0.219-0.996-0.473-1.319
			c-0.476-0.587-1.288-0.88-2.433-0.88c-0.944,0-1.615,0.146-2.017,0.439c-0.4,0.293-0.6,0.638-0.6,1.031
			c0,0.496,0.212,0.855,0.639,1.077c0.424,0.232,1.93,0.632,4.514,1.198c1.723,0.405,3.014,1.017,3.874,1.836
			c0.85,0.829,1.274,1.866,1.274,3.11c0,1.639-0.61,2.977-1.833,4.013c-1.221,1.037-3.107,1.555-5.663,1.555
			c-2.603,0-4.525-0.549-5.768-1.646c-1.24-1.097-1.863-2.495-1.863-4.195H56.919z"/>
	</g>
	<rect x="69.629" y="35.924" fill="#FFFFFF" width="4.387" height="16.535"/>
	<g>
		<defs>
			<rect id="SVGID_5_" x="0.2" y="0.15" width="110.801" height="65.258"/>
		</defs>
		<clipPath id="SVGID_6_">
			<use xlink:href="#SVGID_5_"  overflow="visible"/>
		</clipPath>
		<path clip-path="url(#SVGID_6_)" fill="#FFFFFF" d="M87.392,47.969c0.639-0.909,0.958-2.089,0.958-3.534
			c0-2.023-0.511-3.469-1.533-4.34c-0.627-0.525-1.354-0.788-2.183-0.788c-1.266,0-2.193,0.478-2.785,1.434
			c-0.593,0.956-0.887,2.141-0.887,3.558c0,1.526,0.299,2.748,0.901,3.663s1.516,1.373,2.737,1.373
			C85.826,49.334,86.757,48.879,87.392,47.969 M86.331,36.188c0.778,0.44,1.412,1.05,1.896,1.828v-7.889h4.383v22.331h-4.201v-2.29
			c-0.615,0.981-1.319,1.693-2.107,2.14c-0.79,0.443-1.771,0.667-2.944,0.667c-1.932,0-3.557-0.781-4.877-2.344
			c-1.318-1.562-1.979-3.567-1.979-6.016c0-2.822,0.648-5.042,1.95-6.661c1.299-1.617,3.034-2.427,5.21-2.427
			C84.664,35.528,85.553,35.748,86.331,36.188"/>
		<path clip-path="url(#SVGID_6_)" fill="#FFFFFF" d="M100.209,39.993c-0.61,0.629-0.995,1.483-1.151,2.559h7.449
			c-0.078-1.146-0.463-2.018-1.151-2.611s-1.545-0.892-2.564-0.892C101.681,39.049,100.821,39.363,100.209,39.993 M106.679,36.258
			c1.153,0.518,2.105,1.332,2.857,2.446c0.677,0.982,1.117,2.123,1.317,3.419c0.116,0.76,0.163,1.854,0.143,3.282H98.952
			c0.067,1.659,0.644,2.822,1.729,3.489c0.659,0.415,1.454,0.622,2.383,0.622c0.986,0,1.786-0.252,2.402-0.76
			c0.336-0.271,0.633-0.65,0.89-1.137h4.412c-0.114,0.981-0.648,1.978-1.601,2.989c-1.482,1.607-3.556,2.412-6.222,2.412
			c-2.2,0-4.143-0.679-5.823-2.035c-1.685-1.356-2.525-3.563-2.525-6.621c0-2.864,0.759-5.061,2.278-6.588
			c1.52-1.529,3.489-2.294,5.913-2.294C104.228,35.483,105.526,35.742,106.679,36.258"/>
		<path clip-path="url(#SVGID_6_)" fill="#FFFFFF" d="M30.354,44.419c-0.277,0.171-0.556,0.312-0.838,0.417
			c-0.284,0.106-0.668,0.205-1.161,0.296l-0.984,0.183c-0.923,0.162-1.586,0.357-1.988,0.592c-0.682,0.394-1.021,1.005-1.021,1.835
			c0,0.739,0.208,1.271,0.623,1.6c0.417,0.33,0.922,0.493,1.518,0.493c0.945,0,1.814-0.271,2.612-0.818
			c0.794-0.547,1.208-1.543,1.239-2.988V44.419z M27.708,42.401c0.806-0.102,1.381-0.228,1.727-0.379
			c0.622-0.263,0.934-0.674,0.934-1.229c0-0.679-0.239-1.146-0.717-1.405c-0.476-0.257-1.175-0.386-2.098-0.386
			c-1.036,0-1.769,0.253-2.199,0.758c-0.308,0.375-0.513,0.88-0.614,1.518h-4.174c0.091-1.445,0.498-2.635,1.22-3.565
			c1.147-1.456,3.118-2.185,5.912-2.185c1.818,0,3.432,0.358,4.845,1.078c1.412,0.718,2.117,2.072,2.117,4.064v7.586
			c0,0.527,0.011,1.163,0.031,1.912c0.032,0.566,0.117,0.951,0.258,1.153c0.143,0.202,0.354,0.368,0.636,0.5v0.637h-4.702
			c-0.13-0.333-0.221-0.646-0.272-0.939c-0.052-0.293-0.091-0.629-0.123-1.002c-0.601,0.647-1.291,1.198-2.074,1.654
			c-0.935,0.535-1.995,0.805-3.174,0.805c-1.506,0-2.75-0.429-3.731-1.282c-0.983-0.855-1.474-2.066-1.474-3.634
			c0-2.033,0.79-3.506,2.369-4.415c0.867-0.495,2.141-0.851,3.822-1.062L27.708,42.401z"/>
		<path clip-path="url(#SVGID_6_)" fill="#FFFFFF" d="M4.66,42.613v5.962h5.429c0.97,0,1.725-0.132,2.266-0.395
			c0.979-0.483,1.468-1.415,1.468-2.791c0-1.163-0.474-1.962-1.424-2.396c-0.529-0.242-1.275-0.37-2.235-0.38H4.66z M4.66,33.98
			v4.932h5.436c0.971,0,1.759-0.186,2.364-0.554c0.606-0.369,0.909-1.024,0.909-1.966c0-1.041-0.4-1.729-1.202-2.062
			c-0.69-0.232-1.571-0.35-2.643-0.35H4.66z M16.802,32.479c0.684,0.951,1.027,2.089,1.027,3.414c0,1.365-0.346,2.463-1.036,3.292
			c-0.385,0.466-0.953,0.891-1.705,1.274c1.141,0.415,2.002,1.072,2.583,1.972c0.581,0.9,0.872,1.993,0.872,3.278
			c0,1.325-0.333,2.513-0.997,3.564c-0.422,0.698-0.95,1.284-1.583,1.761c-0.714,0.545-1.556,0.92-2.528,1.122
			c-0.969,0.201-2.022,0.303-3.159,0.303H0.201V30.097h10.805C13.733,30.137,15.666,30.93,16.802,32.479"/>
	</g>
</g>
</svg>
