<?xml version="1.0" encoding="utf-8"?>
<!-- Generator: Adobe Illustrator 15.0.2, SVG Export Plug-In . SVG Version: 6.00 Build 0)  -->
<!DOCTYPE svg PUBLIC "-//W3C//DTD SVG 1.1//EN" "http://www.w3.org/Graphics/SVG/1.1/DTD/svg11.dtd">
<svg version="1.1" id="Layer_1" xmlns="http://www.w3.org/2000/svg" xmlns:xlink="http://www.w3.org/1999/xlink" x="0px" y="0px"
	 width="103.75px" height="69.1px" viewBox="0 0 103.75 69.1" enable-background="new 0 0 103.75 69.1" xml:space="preserve">
<g>
	<g>
		<defs>
			<rect id="SVGID_1_" x="0.101" y="-0.2" width="103.592" height="69.184"/>
		</defs>
		<clipPath id="SVGID_2_">
			<use xlink:href="#SVGID_1_"  overflow="visible"/>
		</clipPath>
		<path clip-path="url(#SVGID_2_)" fill="#FFFFFF" d="M5.667,59.437L5.667,59.437V68.8H2.434v-9.363H0.101v-2.961h7.845v2.961H5.667
			z M20.021,65.857h-4.998v-2h4.045v-2.748h-4.045v-1.795h4.998v-2.838h-8.329V68.8h8.329V65.857z M30.279,64.091
			c-0.053,1.025-0.455,2.053-1.508,2.053c-1.536,0-1.6-2.104-1.6-3.342c0-1.172,0.064-3.74,1.567-3.74
			c1.151,0,1.504,1.311,1.478,2.355l3.167-0.182c-0.229-3.072-1.846-4.939-4.677-4.939c-3.493,0-5.03,2.943-5.03,6.506
			c0,3.5,1.748,6.182,5.079,6.182c2.558,0,4.415-1.836,4.628-4.678L30.279,64.091z M46.988,56.476h-3.397v4.545H40.97v-4.545h-3.392
			V68.8h3.392v-4.799h2.621V68.8h3.397V56.476z M51.165,65.478c0.746,2.389,2.231,3.506,4.494,3.506c1,0,2.087-0.217,2.9-0.896
			c0.803-0.688,1.242-1.693,1.242-2.807c0-0.975-0.343-1.814-1.039-2.445c-0.567-0.541-1.291-0.771-2.021-0.953l-1.667-0.445
			c-1.032-0.27-2.004-0.578-2.004-1.961c0-1.348,1.331-1.959,2.379-1.959c1.184,0,2.473,0.828,2.718,2.172l1.259-0.375
			c-0.595-1.996-2.082-3.018-3.943-3.018c-1.926,0-3.769,1.021-3.769,3.393c0,0.867,0.328,1.713,0.912,2.285
			c0.577,0.594,1.258,0.791,2.001,0.988l1.841,0.504c0.975,0.268,1.892,0.771,1.892,2.012c0,0.594-0.257,1.227-0.677,1.58
			c-0.52,0.451-1.327,0.613-1.99,0.613c-1.553,0-2.825-0.795-3.283-2.498L51.165,65.478z M67.985,68.8V57.82h3.153v-1.344h-7.696
			v1.344h3.149V68.8H67.985z M87.775,68.8v-5.838h4.484v-1.238h-4.484v-3.918h5.404v-1.33h-6.791V68.8H87.775z M98.29,68.8v-5.838
			h4.483v-1.238H98.29v-3.918h5.403v-1.33h-6.79V68.8H98.29z M82.227,68.8L82.227,68.8h-1.43l-1.111-3.592h-4.106L74.59,68.8h-1.16
			l3.588-12.324h1.602L82.227,68.8z M79.378,64.041L79.378,64.041l-1.7-5.912l-1.713,5.912H79.378z"/>
	</g>
	<g>
		<defs>
			<polygon id="SVGID_3_" points="35.449,-0.2 13.838,14.034 14.182,14.145 13.854,24.738 55.057,52.488 76.274,37.285 
				76.196,26.488 76.353,26.301 			"/>
		</defs>
		<clipPath id="SVGID_4_">
			<use xlink:href="#SVGID_3_"  overflow="visible"/>
		</clipPath>
		<path clip-path="url(#SVGID_4_)" fill="none" stroke="#FFFFFF" stroke-miterlimit="3.864" d="M35.184,0.812l-20.248,13.09
			l8.171,5.511l12.195-8.176l32.563,20.487l7.471-5.489L35.184,0.812z M54.988,40.982L14.779,14.356v10.121l40.295,27.062
			L75.44,36.707l0.103-9.912L54.988,40.982z M54.988,40.982L14.779,14.356v10.121l40.295,27.062L75.44,36.707l0.103-9.912
			L54.988,40.982z M55.073,51.412V40.923"/>
	</g>
	<polygon fill="#FFFFFF" points="31.308,25.5 35.808,28.481 40.486,31.736 60.883,17.331 51.358,11.528 	"/>
	<polygon fill="#FFFFFF" points="55.016,40.962 14.807,14.336 14.807,24.458 55.103,51.519 75.469,36.685 75.571,26.775 	"/>
</g>
</svg>
