<?xml version="1.0" encoding="utf-8"?>
<!-- Generator: Adobe Illustrator 15.0.2, SVG Export Plug-In . SVG Version: 6.00 Build 0)  -->
<!DOCTYPE svg PUBLIC "-//W3C//DTD SVG 1.1//EN" "http://www.w3.org/Graphics/SVG/1.1/DTD/svg11.dtd"[]>
<svg version="1.1" id="Layer_1" xmlns="http://www.w3.org/2000/svg" xmlns:xlink="http://www.w3.org/1999/xlink" x="0px" y="0px" width="359px" height="114.333px" viewBox="0 0 359 114.333" enable-background="new 0 0 359 114.333" xml:space="preserve">
  <g>
    <g>
      <g>
        <path fill="#013A81" stroke="#013A81" stroke-width="0.2357" d="M17.653,76.088h4.651l12.356,31.61h-4.65l-3.455-9.514H13.18
				l-3.543,9.514h-4.34L17.653,76.088z M14.509,94.65h10.717l-5.271-14.755h-0.089L14.509,94.65z" />
        <path fill="#013A81" stroke="#013A81" stroke-width="0.2357" d="M63.499,96.27c0,4.013-1.085,7.044-3.254,9.095
				c-2.168,2.049-5.23,3.076-9.183,3.076c-2.037,0-3.86-0.236-5.467-0.708c-1.609-0.473-2.966-1.208-4.073-2.213
				c-1.106-1.002-1.955-2.273-2.545-3.807c-0.589-1.534-0.884-3.35-0.884-5.443V76.088h4.202v20.187c0,2.804,0.76,4.943,2.28,6.419
				c1.521,1.475,3.683,2.212,6.488,2.212c2.686,0,4.73-0.737,6.133-2.212c1.401-1.476,2.104-3.615,2.104-6.419V76.088h4.201V96.27z" />
        <path fill="#013A81" stroke="#013A81" stroke-width="0.2357" d="M89.022,85.33c-0.236-2.275-1.056-3.925-2.459-4.944
				c-1.404-1.021-3.197-1.529-5.384-1.529c-0.886,0-1.757,0.09-2.615,0.265c-0.855,0.179-1.617,0.473-2.281,0.888
				c-0.665,0.414-1.197,0.967-1.595,1.662c-0.399,0.692-0.598,1.557-0.598,2.592c0,0.973,0.287,1.765,0.863,2.369
				c0.576,0.605,1.344,1.1,2.304,1.484c0.959,0.386,2.045,0.701,3.255,0.953c1.21,0.25,2.451,0.524,3.721,0.819
				c1.27,0.295,2.509,0.644,3.72,1.041c1.211,0.398,2.288,0.937,3.233,1.616c0.946,0.68,1.705,1.541,2.281,2.59
				c0.575,1.048,0.864,2.339,0.864,3.873c0,1.684-0.376,3.123-1.129,4.318c-0.753,1.196-1.719,2.169-2.901,2.921
				c-1.181,0.753-2.501,1.308-3.963,1.662c-1.461,0.352-2.916,0.53-4.362,0.53c-1.771,0-3.446-0.223-5.026-0.664
				c-1.579-0.442-2.966-1.122-4.162-2.036c-1.196-0.916-2.141-2.074-2.833-3.476c-0.694-1.402-1.042-3.063-1.042-4.981h3.979
				c0,1.329,0.258,2.476,0.775,3.436c0.517,0.959,1.197,1.751,2.04,2.371c0.841,0.62,1.816,1.078,2.924,1.372
				c1.108,0.297,2.268,0.443,3.479,0.443c0.945,0,1.897-0.088,2.857-0.265c0.96-0.178,1.824-0.479,2.592-0.909
				c0.768-0.426,1.389-1.009,1.861-1.748c0.473-0.736,0.709-1.682,0.709-2.832c0-1.093-0.288-1.979-0.863-2.657
				c-0.577-0.679-1.336-1.23-2.282-1.659c-0.945-0.428-2.022-0.784-3.233-1.063c-1.211-0.28-2.451-0.552-3.721-0.818
				c-1.27-0.267-2.51-0.583-3.721-0.953c-1.209-0.368-2.296-0.864-3.255-1.484c-0.959-0.619-1.727-1.402-2.303-2.348
				c-0.576-0.944-0.864-2.141-0.864-3.588c0-1.595,0.324-2.975,0.974-4.142c0.649-1.166,1.513-2.125,2.59-2.88
				c1.078-0.751,2.302-1.313,3.676-1.684c1.372-0.368,2.782-0.553,4.228-0.553c1.623,0,3.13,0.191,4.516,0.576
				c1.387,0.384,2.598,0.988,3.631,1.815c1.033,0.825,1.86,1.865,2.479,3.119c0.62,1.256,0.959,2.753,1.018,4.497H89.022z" />
        <path fill="#013A81" stroke="#013A81" stroke-width="0.2357" d="M107.082,79.623h-10.54v-3.535h25.283v3.535h-10.542v28.075
				h-4.202V79.623z" />
        <path fill="#013A81" stroke="#013A81" stroke-width="0.2357" d="M125.824,76.088h14.882c2.981,0,5.329,0.747,7.041,2.236
				c1.713,1.492,2.57,3.509,2.57,6.049c0,1.919-0.437,3.603-1.308,5.053c-0.872,1.444-2.267,2.437-4.187,2.967v0.088
				c0.917,0.178,1.661,0.473,2.237,0.885c0.576,0.414,1.042,0.906,1.395,1.483c0.356,0.574,0.605,1.216,0.754,1.923
				c0.149,0.708,0.266,1.447,0.355,2.213c0.059,0.768,0.11,1.556,0.155,2.366c0.042,0.812,0.117,1.595,0.221,2.345
				c0.104,0.752,0.265,1.476,0.487,2.17c0.221,0.69,0.553,1.302,0.997,1.833h-4.69c-0.294-0.324-0.494-0.767-0.597-1.325
				c-0.104-0.562-0.169-1.188-0.2-1.88c-0.029-0.695-0.058-1.441-0.087-2.236c-0.03-0.795-0.118-1.577-0.265-2.345
				c-0.119-0.768-0.267-1.496-0.445-2.19c-0.175-0.694-0.457-1.297-0.842-1.814c-0.385-0.516-0.894-0.929-1.53-1.238
				c-0.634-0.31-1.455-0.464-2.459-0.464h-10.284v13.493h-4.201V76.088z M138.801,90.669c0.975,0,1.905-0.072,2.792-0.223
				c0.887-0.146,1.662-0.435,2.327-0.864c0.666-0.426,1.197-1.005,1.596-1.729c0.398-0.725,0.599-1.664,0.599-2.818
				c0-1.566-0.445-2.859-1.332-3.882c-0.887-1.019-2.318-1.529-4.299-1.529h-10.46v11.046H138.801z" />
        <path fill="#013A81" stroke="#013A81" stroke-width="0.2357" d="M165.225,76.088h4.651l12.356,31.61h-4.651l-3.454-9.514h-13.375
				l-3.544,9.514h-4.339L165.225,76.088z M162.08,94.65h10.718l-5.27-14.755h-0.09L162.08,94.65z" />
      </g>
      <path fill="#B51A8A" stroke="#B51A8A" stroke-width="0.2357" d="M192.833,76.088h4.202v13.594h16.657V76.088h4.202v31.61h-4.202
			V93.217h-16.657v14.481h-4.202V76.088z" />
      <path fill="#B51A8A" stroke="#B51A8A" stroke-width="0.2357" d="M223.216,76.088h21.834v3.535h-17.633v10.059h16.438v3.535
			h-16.438v10.947h17.766v3.534h-21.967V76.088z" />
      <path fill="#B51A8A" stroke="#B51A8A" stroke-width="0.2357" d="M259.339,76.088h4.648l12.358,31.61h-4.65l-3.455-9.514h-13.375
			l-3.545,9.514h-4.34L259.339,76.088z M256.195,94.65h10.718l-5.271-14.755h-0.089L256.195,94.65z" />
      <path fill="#B51A8A" stroke="#B51A8A" stroke-width="0.2357" d="M279.949,76.088h4.202v28.076h16.74v3.534h-20.942V76.088z" />
      <path fill="#B51A8A" stroke="#B51A8A" stroke-width="0.2357" d="M308.154,79.623h-10.541v-3.535h25.284v3.535h-10.541v28.075
			h-4.202V79.623z" />
      <path fill="#B51A8A" stroke="#B51A8A" stroke-width="0.2357" d="M326.894,76.088h4.202v13.594h16.657V76.088h4.202v31.61h-4.202
			V93.217h-16.657v14.481h-4.202V76.088z" />
    </g>
    <g>
      <path fill="#CE86B8" d="M54.239,5.849c-10.107,0-18.309,8.188-18.309,18.296c0,3.888,1.215,7.495,3.283,10.461
			c3.311-4.744,8.806-7.849,15.026-7.849c0.963,0,1.908,0.077,2.831,0.218c-0.143-0.921-0.218-1.869-0.218-2.83
			c0-6.219,3.101-11.711,7.844-15.02C61.732,7.061,58.126,5.849,54.239,5.849" />
      <path fill="none" stroke="#FFFFFF" stroke-width="1.571" stroke-miterlimit="10" d="M54.239,5.849
			c-10.107,0-18.309,8.188-18.309,18.296c0,3.888,1.215,7.495,3.283,10.461c3.311-4.744,8.806-7.849,15.026-7.849
			c0.963,0,1.908,0.077,2.831,0.218c-0.143-0.921-0.218-1.869-0.218-2.83c0-6.219,3.101-11.711,7.844-15.02
			C61.732,7.061,58.126,5.849,54.239,5.849" />
      <path fill="#CE86B8" d="M39.213,34.793c-2.068,2.978-3.283,6.597-3.283,10.501c0,10.145,8.202,18.376,18.309,18.376
			c3.752,0,7.241-1.134,10.143-3.082c-4.568-3.341-7.532-8.754-7.532-14.859c0-1.123,0.101-2.223,0.292-3.291
			c-0.946,0.153-1.916,0.233-2.904,0.233C48.019,42.672,42.522,39.555,39.213,34.793" />
      <path fill="none" stroke="#FFFFFF" stroke-width="1.571" stroke-miterlimit="10" d="M39.213,34.793
			c-2.068,2.978-3.283,6.597-3.283,10.501c0,10.145,8.202,18.376,18.309,18.376c3.752,0,7.241-1.134,10.143-3.082
			c-4.568-3.341-7.532-8.754-7.532-14.859c0-1.123,0.101-2.223,0.292-3.291c-0.946,0.153-1.916,0.233-2.904,0.233
			C48.019,42.672,42.522,39.555,39.213,34.793" />
      <path fill="#BF549D" d="M54.31,26.849c-6.275,0-11.821,3.132-15.16,7.917c3.338,4.785,8.885,7.918,15.16,7.918
			c0.997,0,1.974-0.08,2.93-0.232c0.497-2.748,1.6-5.286,3.17-7.467c-1.654-2.299-2.792-4.995-3.247-7.917
			C56.233,26.926,55.279,26.849,54.31,26.849" />
      <path fill="#CE86B8" d="M75.482,5.849c-3.892,0-7.5,1.212-10.464,3.279c4.741,3.306,7.841,8.801,7.841,15.021
			c0,1.12-0.101,2.215-0.293,3.28c0.948-0.153,1.924-0.231,2.916-0.231c6.124,0,11.542,3.008,14.865,7.632
			c2.159-3.009,3.433-6.697,3.433-10.681C93.78,14.038,85.592,5.849,75.482,5.849" />
      <path fill="none" stroke="#FFFFFF" stroke-width="1.571" stroke-miterlimit="10" d="M75.482,5.849
			c-3.892,0-7.5,1.212-10.464,3.279c4.741,3.306,7.841,8.801,7.841,15.021c0,1.12-0.101,2.215-0.293,3.28
			c0.948-0.153,1.924-0.231,2.916-0.231c6.124,0,11.542,3.008,14.865,7.632c2.159-3.009,3.433-6.697,3.433-10.681
			C93.78,14.038,85.592,5.849,75.482,5.849" />
      <path fill="#BF549D" d="M64.855,9.064c-4.784,3.335-7.912,8.877-7.912,15.149c0,0.973,0.076,1.925,0.22,2.856
			c2.96,0.461,5.689,1.624,8.009,3.317c2.155-1.439,4.633-2.438,7.299-2.865c0.194-1.072,0.296-2.18,0.296-3.309
			C72.767,17.941,69.639,12.399,64.855,9.064" />
      <path fill="#B72D8E" d="M57.163,27.069c0.454,2.921,1.592,5.617,3.247,7.917c1.294-1.804,2.91-3.366,4.762-4.599
			C62.852,28.693,60.124,27.53,57.163,27.069" />
      <path fill="#CE86B8" d="M90.348,35.042c-3.323,4.636-8.744,7.659-14.866,7.659c-0.967,0-1.918-0.076-2.841-0.221
			c0.141,0.926,0.216,1.875,0.216,2.843c0,6.378-3.238,12.002-8.154,15.294c3.022,2.215,6.748,3.52,10.779,3.52
			c10.107,0,18.299-8.232,18.299-18.376C93.78,41.76,92.507,38.058,90.348,35.042" />
      <path fill="none" stroke="#FFFFFF" stroke-width="1.571" stroke-miterlimit="10" d="M90.348,35.042
			c-3.323,4.636-8.744,7.659-14.866,7.659c-0.967,0-1.918-0.076-2.841-0.221c0.141,0.926,0.216,1.875,0.216,2.843
			c0,6.378-3.238,12.002-8.154,15.294c3.022,2.215,6.748,3.52,10.779,3.52c10.107,0,18.299-8.232,18.299-18.376
			C93.78,41.76,92.507,38.058,90.348,35.042" />
      <path fill="#BF549D" d="M64.855,39.374c-2.228,1.556-4.817,2.633-7.616,3.079c-0.195,1.072-0.296,2.177-0.296,3.306
			c0,6.136,2.991,11.574,7.599,14.934c4.958-3.312,8.225-8.963,8.225-15.373c0-0.972-0.075-1.927-0.22-2.856
			C69.719,42.024,67.104,40.942,64.855,39.374" />
      <path fill="#B72D8E" d="M60.41,34.986c-1.57,2.182-2.673,4.719-3.17,7.467c2.798-0.446,5.388-1.523,7.616-3.079
			C63.137,38.172,61.631,36.689,60.41,34.986" />
      <path fill="#BF549D" d="M75.414,27.288c-1.003,0-1.985,0.081-2.943,0.234c-0.478,2.656-1.528,5.113-3.013,7.245
			c1.569,2.25,2.651,4.868,3.089,7.697c0.934,0.145,1.892,0.221,2.866,0.221c6.177,0,11.645-3.038,14.996-7.699
			C87.058,30.325,81.59,27.288,75.414,27.288" />
      <path fill="#B72D8E" d="M72.471,27.522c-2.666,0.427-5.144,1.425-7.299,2.865c1.66,1.21,3.111,2.69,4.286,4.38
			C70.943,32.635,71.993,30.178,72.471,27.522" />
      <path fill="#B72D8E" d="M69.458,34.767c-1.249,1.794-2.808,3.355-4.603,4.607c2.249,1.568,4.863,2.65,7.692,3.09
			C72.109,39.635,71.027,37.017,69.458,34.767" />
      <path fill="#B51A8A" d="M65.172,30.387c-1.853,1.233-3.468,2.795-4.762,4.599c1.221,1.703,2.728,3.187,4.446,4.388
			c1.795-1.252,3.354-2.813,4.603-4.607C68.283,33.077,66.832,31.597,65.172,30.387" />
      <g>
        <path fill="#CE86B8" stroke="#FFFFFF" stroke-width="0.7855" stroke-miterlimit="10" d="M80.16,34.897
				c0,8.554-6.938,15.487-15.489,15.487c-8.552,0-15.49-6.934-15.49-15.487c0-8.554,6.938-15.488,15.49-15.488
				C73.222,19.41,80.16,26.343,80.16,34.897z" />
        <circle fill="#B51A8A" cx="64.67" cy="34.897" r="8.641" />
      </g>
    </g>
  </g>
</svg>