<?xml version="1.0" encoding="utf-8"?>
<!-- Generator: Adobe Illustrator 15.0.2, SVG Export Plug-In . SVG Version: 6.00 Build 0)  -->
<!DOCTYPE svg PUBLIC "-//W3C//DTD SVG 1.1//EN" "http://www.w3.org/Graphics/SVG/1.1/DTD/svg11.dtd"[]>
<svg version="1.1" id="Layer_1" xmlns="http://www.w3.org/2000/svg" xmlns:xlink="http://www.w3.org/1999/xlink" x="0px" y="0px" width="218px" height="46px" viewBox="0 0 218 46" enable-background="new 0 0 218 46" xml:space="preserve">
  <g>
    <path fill="#7C0040" d="M23.019,42.975c-5.914,0-10.988-2.173-15.006-6.465c-3.347-3.552-5.131-8.16-5.131-13.354
		c0-5.247,2.118-10.017,6.19-13.884c3.795-3.551,8.534-5.458,14.002-5.458c8.145,0,14.559,3.816,17.682,10.493h-6.749
		c-2.566-3.339-6.303-5.035-10.988-5.035c-3.738,0-7.195,1.378-9.817,3.92c-2.789,2.703-4.352,6.413-4.352,10.017
		c0,3.974,1.45,7.578,4.018,10.12c2.732,2.703,6.469,4.24,10.151,4.24c4.574,0,8.312-1.695,10.653-4.77h7.084
		C37.298,39.37,31.05,42.975,23.019,42.975z" />
    <path fill="#7C0040" d="M80.39,42.232V38.1l14.446-19.661H82.118v-4.663h18.129v5.246L86.749,37.41h14.335v4.822H80.39z" />
    <path fill="#7C0040" d="M105.332,4.556l8.591,29.039l7.753-29.039h4.295l7.698,29.039l8.59-29.039h5.856l-11.991,37.677h-5.189
		l-7.141-28.139L116.6,42.232h-5.131L99.474,4.556H105.332z" />
    <path fill="#7C0040" d="M147.957,13.776h5.354v28.456h-5.354V13.776z" />
    <path fill="#7C0040" d="M157.053,42.232V13.776h5.188v3.232c2.286-2.596,4.907-3.708,8.366-3.708c7.754,0,12.16,4.451,12.16,12.718
		v16.215h-5.41V27.129c0-5.986-2.287-8.902-7.251-8.902c-5.745,0-7.644,3.71-7.644,11.075v12.931H157.053z" />
    <path fill="#7C0040" d="M200.788,37.888c3.568,0,6.639-1.696,8.367-4.664h6.08c-2.789,6.359-7.92,9.751-14.447,9.751
		c-4.407,0-8.088-1.483-11.045-4.451c-2.844-2.809-4.463-6.73-4.463-10.546c0-4.027,1.45-7.524,4.241-10.386
		c3.01-3.126,6.805-4.663,11.154-4.663c5.243,0,9.985,2.384,12.941,6.623c1.785,2.597,2.565,5.617,2.565,9.539
		c0,0.265,0,0.53,0,0.794H190.97C191.863,34.708,195.879,37.888,200.788,37.888z M200.843,17.909c-4.686,0-8.422,2.809-9.704,7.366
		h19.131C208.932,20.612,205.473,17.909,200.843,17.909z" />
    <path fill="#7C0040" d="M81.635,22.713c-1.677-4.943-7.012-8.243-13.021-8.914c6.405,1.887,10.802,6.286,11.473,11.48
		c0.643,4.492-2.282,8.925-7.448,11.302c-4.561,1.809-9.146,2.141-13.595,0.97c-2.475-0.781-4.353-1.778-5.877-3.126
		c-1.403-1.422-2.135-3.16-2.135-4.876c0-1.096,0.299-2.184,0.91-3.175c0.922-1.491,3.01-2.892,5.264-3.409
		c-1.213,0.554-2.325,1.34-3.108,2.494c-0.636,1.028-0.959,2.165-0.959,3.311c0,0.47,0.055,0.941,0.164,1.408
		c0.455,1.934,1.804,3.646,3.796,4.821c5.048,2.655,11.912,1.958,16.002-1.604c2.589-2.244,3.771-5.121,3.33-8.103
		c-0.554-3.746-3.547-7.103-8.005-8.981c-6.116-2.576-13.433-1.992-19.572,1.563c-2.631,1.932-4.134,3.443-5.1,5.099
		c-1.089,2.005-1.713,4.055-1.613,6.336c0.495,11.382,13.523,12.565,13.523,12.565c-5.109-1.808-9.088-5.181-10.642-9.023
		c-0.959-2.373-0.927-4.82,0.094-7.078c1.42-2.503,3.301-5.131,7.179-6.949c5.319-2.45,11.931-2.166,16.837,0.726
		c2.505,1.583,4.058,3.774,4.239,6.003c0.012,0.145,0.018,0.287,0.018,0.43c0,1.668-0.797,3.268-2.322,4.65
		c-1.18,1.118-3.055,1.853-4.964,2.032c1.072-0.353,2.055-0.874,2.883-1.548c1.373-1.119,2.179-2.533,2.33-4.09
		c0-0.004,0-0.008,0-0.013c0-2.565-1.354-4.788-3.811-6.34c-6.673-3.624-15.864-1.368-18.959,4.614
		c-1.004,2.218-1.125,4.61-0.359,6.778c0.977,2.771,3.368,5.11,6.915,6.765c8.734,4.076,20.189,1.517,25.012-5.591
		C82.324,30.091,82.867,26.348,81.635,22.713z" />
  </g>
</svg>