<?xml version="1.0" encoding="utf-8"?>
<!-- Generator: Adobe Illustrator 15.0.2, SVG Export Plug-In . SVG Version: 6.00 Build 0)  -->
<!DOCTYPE svg PUBLIC "-//W3C//DTD SVG 1.1//EN" "http://www.w3.org/Graphics/SVG/1.1/DTD/svg11.dtd"[]>
<svg version="1.1" xmlns="http://www.w3.org/2000/svg" xmlns:xlink="http://www.w3.org/1999/xlink" x="0px" y="0px" width="3786.379px" height="2532.254px" viewBox="0 0 3786.379 2532.254" enable-background="new 0 0 3786.379 2532.254" xml:space="preserve">
  <g id="Layer_2"></g>
  <g id="Layer_1">
    <g>
      <g>
        <defs>
          <polygon id="SVGID_1_" points="3786.379,963.098 3786.379,2532.254 1,2532.254 1,48.811 1303.202,48.908 2747.619,962.996 				
					" />
        </defs>
        <clipPath id="SVGID_2_">
          <use xlink:href="#SVGID_1_" overflow="visible" />
        </clipPath>
        <g clip-path="url(#SVGID_2_)">
          <polygon fill="#FFFFFF" points="1267.855,107.658 585.078,526.376 579.536,901.409 2008.612,1861.153 2731.048,1335.188 
					2729.537,982.607 2696.081,946.58 				" />
          <line fill="none" stroke="#013A81" stroke-width="22.4061" stroke-miterlimit="3.8637" x1="2008.612" y1="1856.716" x2="2008.612" y2="1486.214" />
          <polygon fill="#FFE152" points="1946.366,846.772 2462.953,1172.145 2007.186,1494.192 1504.984,1156.386 1946.366,846.772 
					1946.366,846.772 				" />
          <polygon fill="#FFE152" points="875.979,735.413 1308.098,445.228 1600.813,629.697 1159.973,928.454 875.564,735.826 
					875.564,735.826 				" />
          <polygon fill="#013A81" points="1313.878,62.149 595.73,526.376 885.57,721.925 1318.023,431.82 2472.908,1158.507 
					2737.956,963.853 1313.878,62.149 1313.878,62.149 				" />
          <g>
            <defs>
              <rect id="SVGID_3_" x="59.065" y="10.904" width="3673.894" height="2468.973" />
            </defs>
            <clipPath id="SVGID_4_">
              <use xlink:href="#SVGID_3_" overflow="visible" />
            </clipPath>
            <path clip-path="url(#SVGID_4_)" fill="none" stroke="#013A81" stroke-width="22.4061" stroke-miterlimit="3.8637" d="
						M1303.227,62.149L585.078,526.376l289.84,195.549l432.453-290.104l1154.884,726.687l265.055-194.654L1303.227,62.149
						L1303.227,62.149L1303.227,62.149z M579.536,526.376v375.033l1429.076,959.745l722.436-525.966V964.652" />
          </g>
          <polygon fill="#013A81" points="256.353,2141.352 337.268,2141.352 337.268,2036.284 59.065,2036.284 59.065,2141.352 
					141.702,2141.352 141.702,2473.523 256.353,2473.523 256.353,2141.352 256.353,2141.352 				" />
          <polygon fill="#013A81" points="765.414,2369.016 588.152,2369.016 588.152,2298.154 731.562,2298.154 731.562,2200.716 
					588.152,2200.716 588.152,2136.976 765.414,2136.976 765.414,2036.284 469.997,2036.284 469.997,2473.523 765.414,2473.523 
					765.414,2369.016 765.414,2369.016 				" />
          <path fill="#013A81" d="M1129.236,2306.5c-1.788,36.346-16.025,72.716-53.482,72.716c-54.464,0-56.747-74.533-56.747-118.543
					c0-41.437,2.282-132.565,55.586-132.565c40.886,0,53.437,46.424,52.368,83.469l112.383-6.424
					c-8.138-108.854-65.402-175.215-165.829-175.215c-123.894,0-178.418,104.474-178.418,230.735
					c0,124.253,61.971,219.204,180.21,219.204c90.648,0,156.492-65.065,164.038-165.75L1129.236,2306.5L1129.236,2306.5
					L1129.236,2306.5z" />
          <polygon fill="#013A81" points="1721.851,2036.284 1601.399,2036.284 1601.399,2197.514 1508.454,2197.514 1508.454,2036.284 
					1388.133,2036.284 1388.133,2473.523 1508.454,2473.523 1508.454,2303.31 1601.399,2303.31 1601.399,2473.523 
					1721.851,2473.523 1721.851,2036.284 1721.851,2036.284 				" />
          <path fill="#013A81" d="M1869.979,2355.59c26.464,84.781,79.133,124.287,159.457,124.287c35.559,0,74.003-7.642,102.737-31.766
					c28.594-24.312,44.092-59.982,44.092-99.543c0-34.441-12.076-64.27-36.737-86.685c-20.049-19.176-45.796-27.338-71.698-33.75
					l-59.098-15.896c-36.571-9.542-71.056-20.504-71.056-69.525c0-47.763,47.075-69.509,84.28-69.509
					c41.952,0,87.804,29.386,96.398,77.134l44.658-13.361c-21.159-70.714-73.846-107.038-139.907-107.038
					c-68.201,0-133.653,36.324-133.653,120.399c0,30.622,11.578,60.658,32.262,80.999c20.498,21.048,44.604,28.064,71.088,35.043
					l65.301,17.92c34.486,9.468,67.086,27.295,67.086,71.291c0,21.092-9.131,43.368-24.013,56.02
					c-18.468,15.997-47.105,21.747-70.61,21.747c-55.004,0-100.318-28.088-116.427-88.552L1869.979,2355.59L1869.979,2355.59
					L1869.979,2355.59z" />
          <polygon fill="#013A81" points="2466.581,2473.523 2466.581,2084.003 2578.443,2084.003 2578.443,2036.284 2305.438,2036.284 
					2305.438,2084.003 2417.215,2084.003 2417.215,2473.523 2466.581,2473.523 2466.581,2473.523 				" />
          <path fill-rule="evenodd" clip-rule="evenodd" fill="#013A81" d="M2870.785,2304.683h-121.162l60.756-209.733L2870.785,2304.683
					L2870.785,2304.683L2870.785,2304.683z M2971.621,2473.523l-127.893-437.239h-56.812l-127.268,437.239h41.231l35.024-127.521
					h145.636l39.511,127.521H2971.621L2971.621,2473.523L2971.621,2473.523z" />
          <polygon fill="#013A81" points="3168.498,2473.523 3168.498,2266.379 3327.404,2266.379 3327.404,2222.479 3168.498,2222.479 
					3168.498,2083.459 3360.13,2083.459 3360.13,2036.284 3119.256,2036.284 3119.256,2473.523 3168.498,2473.523 
					3168.498,2473.523 				" />
          <polygon fill="#013A81" points="3541.376,2473.523 3541.376,2266.379 3700.322,2266.379 3700.322,2222.479 3541.376,2222.479 
					3541.376,2083.459 3732.959,2083.459 3732.959,2036.284 3492.135,2036.284 3492.135,2473.523 3541.376,2473.523 
					3541.376,2473.523 				" />
          <polygon fill="#FFFFFF" points="1325.367,1043.417 1504.004,1157.302 2240.264,641.364 1899.335,425.775 1159.496,928.978 
					1325.367,1043.417 1325.367,1043.417 				" />
        </g>
      </g>
    </g>
  </g>
</svg>