<?xml version="1.0" encoding="utf-8"?>
<!-- Generator: Adobe Illustrator 15.0.2, SVG Export Plug-In . SVG Version: 6.00 Build 0)  -->
<!DOCTYPE svg PUBLIC "-//W3C//DTD SVG 1.1//EN" "http://www.w3.org/Graphics/SVG/1.1/DTD/svg11.dtd">
<svg version="1.1" id="Layer_1" xmlns="http://www.w3.org/2000/svg" xmlns:xlink="http://www.w3.org/1999/xlink" x="0px" y="0px"
	 width="50px" height="50px" viewBox="0 0 50 50" enable-background="new 0 0 50 50" xml:space="preserve">
<g>
	<defs>
		<rect id="SVGID_1_" width="50.003" height="50.003"/>
	</defs>
	<clipPath id="SVGID_2_">
		<use xlink:href="#SVGID_1_"  overflow="visible"/>
	</clipPath>
	<g clip-path="url(#SVGID_2_)">
		<linearGradient id="SVGID_3_" gradientUnits="userSpaceOnUse" x1="4.882812e-04" y1="25.002" x2="50.0024" y2="25.002">
			<stop  offset="0" style="stop-color:#0087CD"/>
			<stop  offset="1" style="stop-color:#3465AF"/>
		</linearGradient>
		<path fill="url(#SVGID_3_)" d="M25.001,50.003c-13.785,0-25-11.216-25-25.002C0,11.216,11.216,0,25.001,0
			c13.786,0,25.001,11.215,25.001,25.001C50.002,38.788,38.787,50.003,25.001,50.003z M25.001,1.3C11.933,1.3,1.3,11.933,1.3,25.001
			c0,13.069,10.632,23.702,23.701,23.702c13.069,0,23.702-10.633,23.702-23.702C48.703,11.933,38.07,1.3,25.001,1.3z"/>
	</g>
	<g clip-path="url(#SVGID_2_)">
		<linearGradient id="SVGID_4_" gradientUnits="userSpaceOnUse" x1="31.5063" y1="16.8979" x2="40.1841" y2="16.8979">
			<stop  offset="0" style="stop-color:#0087CD"/>
			<stop  offset="1" style="stop-color:#3465AF"/>
		</linearGradient>
		<path fill="url(#SVGID_4_)" d="M35.845,21.237c-2.392,0-4.338-1.946-4.338-4.339s1.946-4.339,4.338-4.339
			c2.393,0,4.339,1.946,4.339,4.339S38.237,21.237,35.845,21.237z M35.845,13.859c-1.675,0-3.039,1.363-3.039,3.039
			s1.363,3.039,3.039,3.039c1.676,0,3.04-1.363,3.04-3.039S37.521,13.859,35.845,13.859z"/>
	</g>
	<g clip-path="url(#SVGID_2_)">
		<linearGradient id="SVGID_5_" gradientUnits="userSpaceOnUse" x1="30.4106" y1="23.8438" x2="43.0991" y2="23.8438">
			<stop  offset="0" style="stop-color:#0087CD"/>
			<stop  offset="1" style="stop-color:#3465AF"/>
		</linearGradient>
		<path fill="url(#SVGID_5_)" d="M43.099,27.401h-1.3c0-3.261-2.615-5.816-5.954-5.816c-1.705,0-3.332,0.733-4.461,2.011
			l-0.974-0.861c1.376-1.557,3.357-2.449,5.435-2.449C39.913,20.286,43.099,23.411,43.099,27.401z"/>
	</g>
	<g clip-path="url(#SVGID_2_)">
		<linearGradient id="SVGID_6_" gradientUnits="userSpaceOnUse" x1="9.647" y1="16.8979" x2="18.3247" y2="16.8979">
			<stop  offset="0" style="stop-color:#0087CD"/>
			<stop  offset="1" style="stop-color:#3465AF"/>
		</linearGradient>
		<path fill="url(#SVGID_6_)" d="M13.986,21.237c-2.393,0-4.339-1.946-4.339-4.339s1.946-4.339,4.339-4.339s4.339,1.946,4.339,4.339
			S16.378,21.237,13.986,21.237z M13.986,13.859c-1.676,0-3.039,1.363-3.039,3.039s1.363,3.039,3.039,3.039s3.039-1.363,3.039-3.039
			S15.662,13.859,13.986,13.859z"/>
	</g>
	<g clip-path="url(#SVGID_2_)">
		<linearGradient id="SVGID_7_" gradientUnits="userSpaceOnUse" x1="6.7319" y1="23.9121" x2="19.5688" y2="23.9121">
			<stop  offset="0" style="stop-color:#0087CD"/>
			<stop  offset="1" style="stop-color:#3465AF"/>
		</linearGradient>
		<path fill="url(#SVGID_7_)" d="M8.032,27.539h-1.3c0-4,3.254-7.253,7.254-7.253c2.165,0,4.199,0.956,5.583,2.621l-1,0.831
			c-1.136-1.368-2.806-2.152-4.583-2.152C10.703,21.585,8.032,24.256,8.032,27.539z"/>
	</g>
	<g clip-path="url(#SVGID_2_)">
		<linearGradient id="SVGID_8_" gradientUnits="userSpaceOnUse" x1="21.0625" y1="33.9375" x2="43.2695" y2="33.9375">
			<stop  offset="0" style="stop-color:#0087CD"/>
			<stop  offset="1" style="stop-color:#3465AF"/>
		</linearGradient>
		<path fill="url(#SVGID_8_)" d="M29.147,42.296c-0.662,0-1.283-0.259-1.749-0.731l-5.617-5.671c-0.958-0.969-0.958-2.545,0-3.513
			c0.934-0.942,2.564-0.943,3.497,0l3.869,3.906l9.906-10.003c0.933-0.942,2.563-0.942,3.497,0c0.958,0.968,0.958,2.543,0,3.512
			L30.896,41.566C30.432,42.037,29.811,42.296,29.147,42.296z M23.531,32.951c-0.312,0-0.604,0.123-0.825,0.346
			c-0.459,0.463-0.459,1.219,0,1.683l5.617,5.671c0.44,0.447,1.211,0.445,1.649,0.001l11.655-11.77c0.459-0.464,0.459-1.219,0-1.683
			c-0.44-0.445-1.207-0.446-1.649,0l-10.83,10.937l-4.792-4.839C24.134,33.073,23.842,32.951,23.531,32.951z"/>
	</g>
	<g clip-path="url(#SVGID_2_)">
		<linearGradient id="SVGID_9_" gradientUnits="userSpaceOnUse" x1="19.4507" y1="16.0742" x2="30.3022" y2="16.0742">
			<stop  offset="0" style="stop-color:#0087CD"/>
			<stop  offset="1" style="stop-color:#3465AF"/>
		</linearGradient>
		<path fill="url(#SVGID_9_)" d="M24.876,21.5c-2.992,0-5.426-2.434-5.426-5.426c0-2.992,2.434-5.426,5.426-5.426
			s5.426,2.434,5.426,5.426C30.302,19.066,27.868,21.5,24.876,21.5z M24.876,11.948c-2.275,0-4.126,1.851-4.126,4.126
			c0,2.275,1.851,4.126,4.126,4.126s4.126-1.851,4.126-4.126C29.002,13.799,27.151,11.948,24.876,11.948z"/>
	</g>
	<g clip-path="url(#SVGID_2_)">
		<linearGradient id="SVGID_10_" gradientUnits="userSpaceOnUse" x1="15.7861" y1="24.9053" x2="33.9673" y2="24.9053">
			<stop  offset="0" style="stop-color:#0087CD"/>
			<stop  offset="1" style="stop-color:#3465AF"/>
		</linearGradient>
		<path fill="url(#SVGID_10_)" d="M33.967,29.451h-1.3c0-4.296-3.495-7.792-7.792-7.792c-4.295,0-7.79,3.495-7.79,7.792h-1.3
			c0-5.013,4.078-9.091,9.09-9.091C29.889,20.36,33.967,24.438,33.967,29.451z"/>
	</g>
</g>
</svg>
