<?xml version="1.0" encoding="utf-8"?>
<!-- Generator: Adobe Illustrator 15.0.2, SVG Export Plug-In . SVG Version: 6.00 Build 0)  -->
<!DOCTYPE svg PUBLIC "-//W3C//DTD SVG 1.1//EN" "http://www.w3.org/Graphics/SVG/1.1/DTD/svg11.dtd">
<svg version="1.1" id="Layer_1" xmlns="http://www.w3.org/2000/svg" xmlns:xlink="http://www.w3.org/1999/xlink" x="0px" y="0px"
	 width="50px" height="50px" viewBox="0 0 50 50" enable-background="new 0 0 50 50" xml:space="preserve">
<g>
	<g>
		<defs>
			<rect id="SVGID_1_" width="50.002" height="50.001"/>
		</defs>
		<clipPath id="SVGID_2_">
			<use xlink:href="#SVGID_1_"  overflow="visible"/>
		</clipPath>
		<g clip-path="url(#SVGID_2_)">
			<linearGradient id="SVGID_3_" gradientUnits="userSpaceOnUse" x1="9.765625e-04" y1="25" x2="50.001" y2="25">
				<stop  offset="0" style="stop-color:#0087CD"/>
				<stop  offset="1" style="stop-color:#3465AF"/>
			</linearGradient>
			<path fill="url(#SVGID_3_)" d="M25,50.001c-13.784,0-24.999-11.216-24.999-25.002c0-13.785,11.215-25,24.999-25
				c13.785,0,25.001,11.215,25.001,25C50.001,38.785,38.785,50.001,25,50.001z M25,1.3C11.933,1.3,1.301,11.931,1.301,24.999
				C1.301,38.068,11.933,48.7,25,48.7c13.068,0,23.701-10.632,23.701-23.701C48.701,11.931,38.068,1.3,25,1.3z"/>
		</g>
	</g>
	<g>
		<linearGradient id="SVGID_4_" gradientUnits="userSpaceOnUse" x1="20.8066" y1="24.4453" x2="29.1953" y2="24.4453">
			<stop  offset="0" style="stop-color:#0087CD"/>
			<stop  offset="1" style="stop-color:#3465AF"/>
		</linearGradient>
		<path fill="url(#SVGID_4_)" d="M23.699,39.039h2.605v-22.69h1.631l-2.934-5.613l-2.934,5.613h1.631V39.039z M27.068,39.802h-4.133
			V17.112h-2.129l4.195-8.023l4.193,8.023h-2.127V39.802z"/>
	</g>
	<g>
		<linearGradient id="SVGID_5_" gradientUnits="userSpaceOnUse" x1="20.3945" y1="24.3008" x2="29.6084" y2="24.3008">
			<stop  offset="0" style="stop-color:#0087CD"/>
			<stop  offset="1" style="stop-color:#3465AF"/>
		</linearGradient>
		<path fill="url(#SVGID_5_)" d="M27.318,40.052h-4.633V17.362h-2.291l4.607-8.813l4.606,8.813h-2.29V40.052z M23.186,39.552h3.633
			V16.862h1.965l-3.781-7.233l-3.782,7.233h1.966V39.552z M26.555,39.289h-3.105v-22.69h-1.794l3.347-6.403l3.347,6.403h-1.794
			V39.289z M23.949,38.789h2.105v-22.69h1.469l-2.521-4.823l-2.521,4.823h1.469V38.789z"/>
	</g>
	<g>
		<defs>
			<rect id="SVGID_6_" width="50.002" height="50.001"/>
		</defs>
		<clipPath id="SVGID_7_">
			<use xlink:href="#SVGID_6_"  overflow="visible"/>
		</clipPath>
		<g clip-path="url(#SVGID_7_)">
			<g>
				<linearGradient id="SVGID_8_" gradientUnits="userSpaceOnUse" x1="5.3945" y1="28.6943" x2="20.8672" y2="28.6943">
					<stop  offset="0" style="stop-color:#0087CD"/>
					<stop  offset="1" style="stop-color:#3465AF"/>
				</linearGradient>
				<path fill="url(#SVGID_8_)" d="M17.498,39.039h2.605V21.987c0-0.832-0.677-1.509-1.508-1.509h-5.941v-1.632l-5.613,2.936
					l5.613,2.934v-1.631h3.367c0.814,0,1.477,0.662,1.477,1.475V39.039z M20.867,39.802h-4.133V24.56
					c0-0.393-0.319-0.712-0.713-0.712h-2.604v2.128l-8.022-4.193l8.022-4.195v2.129h5.179c1.252,0,2.271,1.018,2.271,2.271V39.802z"
					/>
			</g>
		</g>
		<g clip-path="url(#SVGID_7_)">
			<linearGradient id="SVGID_9_" gradientUnits="userSpaceOnUse" x1="4.8545" y1="28.6133" x2="21.1172" y2="28.6133">
				<stop  offset="0" style="stop-color:#0087CD"/>
				<stop  offset="1" style="stop-color:#3465AF"/>
			</linearGradient>
			<path fill="url(#SVGID_9_)" d="M21.117,40.052h-4.633V24.56c0-0.255-0.207-0.462-0.463-0.462h-2.354v2.291l-8.812-4.606
				l8.812-4.608v2.292h4.929c1.391,0,2.521,1.131,2.521,2.521V40.052z M16.984,39.552h3.633V21.987c0-1.114-0.906-2.021-2.021-2.021
				h-5.429V18l-7.233,3.782l7.233,3.78v-1.965h2.854c0.531,0,0.963,0.432,0.963,0.962V39.552z M20.354,39.289h-3.105V24.56
				c0-0.675-0.55-1.225-1.227-1.225h-3.117v1.794l-6.402-3.347l6.402-3.349v1.795h5.691c0.97,0,1.758,0.789,1.758,1.759V39.289z
				 M17.748,38.789h2.105V21.987c0-0.694-0.564-1.259-1.258-1.259h-6.191V19.26L7.58,21.782l4.824,2.521v-1.468h3.617
				c0.952,0,1.727,0.773,1.727,1.725V38.789z"/>
		</g>
		<g clip-path="url(#SVGID_7_)">
			<g>
				<linearGradient id="SVGID_10_" gradientUnits="userSpaceOnUse" x1="29.1367" y1="28.6943" x2="44.6094" y2="28.6943">
					<stop  offset="0" style="stop-color:#0087CD"/>
					<stop  offset="1" style="stop-color:#3465AF"/>
				</linearGradient>
				<path fill="url(#SVGID_10_)" d="M29.9,39.039h2.605V24.56c0-0.812,0.662-1.475,1.477-1.475h3.367v1.631l5.613-2.934
					l-5.613-2.936v1.632h-5.941c-0.832,0-1.508,0.677-1.508,1.509V39.039z M33.268,39.802h-4.131V21.987
					c0-1.254,1.02-2.271,2.271-2.271h5.178v-2.129l8.023,4.195l-8.023,4.193v-2.128h-2.604c-0.395,0-0.715,0.319-0.715,0.712V39.802
					z"/>
			</g>
		</g>
		<g clip-path="url(#SVGID_7_)">
			<linearGradient id="SVGID_11_" gradientUnits="userSpaceOnUse" x1="28.8867" y1="28.6133" x2="45.1494" y2="28.6133">
				<stop  offset="0" style="stop-color:#0087CD"/>
				<stop  offset="1" style="stop-color:#3465AF"/>
			</linearGradient>
			<path fill="url(#SVGID_11_)" d="M33.518,40.052h-4.631V21.987c0-1.391,1.131-2.521,2.521-2.521h4.928v-2.292l8.813,4.608
				l-8.813,4.606v-2.291h-2.354c-0.256,0-0.465,0.207-0.465,0.462V40.052z M29.387,39.552h3.631V24.56
				c0-0.53,0.434-0.962,0.965-0.962h2.854v1.965l7.234-3.78L36.836,18v1.966h-5.428c-1.115,0-2.021,0.907-2.021,2.021V39.552z
				 M32.756,39.289H29.65V21.987c0-0.97,0.788-1.759,1.758-1.759H37.1v-1.795l6.402,3.349L37.1,25.129v-1.794h-3.117
				c-0.677,0-1.227,0.55-1.227,1.225V39.289z M30.15,38.789h2.105V24.56c0-0.951,0.773-1.725,1.727-1.725H37.6v1.468l4.823-2.521
				L37.6,19.26v1.469h-6.191c-0.693,0-1.258,0.564-1.258,1.259V38.789z"/>
		</g>
	</g>
</g>
</svg>
