<?xml version="1.0" encoding="utf-8"?>
<!-- Generator: Adobe Illustrator 15.0.2, SVG Export Plug-In . SVG Version: 6.00 Build 0)  -->
<!DOCTYPE svg PUBLIC "-//W3C//DTD SVG 1.1//EN" "http://www.w3.org/Graphics/SVG/1.1/DTD/svg11.dtd">
<svg version="1.1" id="Layer_1" xmlns="http://www.w3.org/2000/svg" xmlns:xlink="http://www.w3.org/1999/xlink" x="0px" y="0px"
	 width="50px" height="50px" viewBox="0 0 50 50" enable-background="new 0 0 50 50" xml:space="preserve">
<g>
	<g>
		<defs>
			<rect id="SVGID_1_" width="50.003" height="50.003"/>
		</defs>
		<clipPath id="SVGID_2_">
			<use xlink:href="#SVGID_1_"  overflow="visible"/>
		</clipPath>
		<g clip-path="url(#SVGID_2_)">
			<linearGradient id="SVGID_3_" gradientUnits="userSpaceOnUse" x1="0" y1="25.002" x2="50.0029" y2="25.002">
				<stop  offset="0" style="stop-color:#0087CD"/>
				<stop  offset="1" style="stop-color:#3465AF"/>
			</linearGradient>
			<path fill="url(#SVGID_3_)" d="M25.001,50.004C11.216,50.004,0,38.787,0,25.001C0,11.216,11.216,0,25.001,0
				c13.786,0,25.002,11.216,25.002,25.001C50.003,38.787,38.787,50.004,25.001,50.004z M25.001,1.301
				c-13.068,0-23.7,10.632-23.7,23.7c0,13.069,10.632,23.702,23.7,23.702c13.069,0,23.701-10.633,23.701-23.702
				C48.702,11.933,38.07,1.301,25.001,1.301z"/>
		</g>
		<g clip-path="url(#SVGID_2_)">
			<linearGradient id="SVGID_4_" gradientUnits="userSpaceOnUse" x1="9.0947" y1="28.6221" x2="42.4521" y2="28.6221">
				<stop  offset="0" style="stop-color:#0087CD"/>
				<stop  offset="1" style="stop-color:#3465AF"/>
			</linearGradient>
			<path fill="url(#SVGID_4_)" d="M23.941,16.679c-1.508,0-2.735-1.229-2.735-2.736c0-1.51,1.228-2.736,2.735-2.736
				c1.51,0,2.737,1.227,2.737,2.736C26.679,15.45,25.451,16.679,23.941,16.679 M33.235,26.043c-0.208,0.001-0.431,0.014-0.672,0.042
				l-0.396-5.771c-0.072-1.058-0.959-1.886-2.017-1.886c-0.695,0-1.309,0.353-1.673,0.888c-0.597-1.03-1.527-1.835-2.647-2.271
				c1.049-0.642,1.758-1.787,1.758-3.104c0-2.01-1.636-3.646-3.647-3.646c-2.01,0-3.646,1.637-3.646,3.646
				c0,1.316,0.708,2.461,1.755,3.102c-1.966,0.764-3.37,2.662-3.37,4.896v1.565c0,0.252,0.204,0.455,0.456,0.455
				c0.251,0,0.455-0.203,0.455-0.455v-1.565c0-2.399,1.951-4.351,4.35-4.351c2.01,0,3.688,1.375,4.187,3.228v5.343h-9.472
				c-4.771,0-8.65-3.881-8.65-8.65s3.88-8.649,8.65-8.649h13.269c4.771,0,8.651,3.88,8.651,8.649
				C40.576,21.831,37.383,25.409,33.235,26.043 M39.156,28.311c-0.542-0.771-1.795-1.791-3.545-1.328
				c-0.119-0.144-0.299-0.309-0.536-0.462c3.726-1.306,6.411-4.846,6.411-9.012c0-5.271-4.289-9.56-9.562-9.56H18.656
				c-5.271,0-9.562,4.288-9.562,9.56s4.29,9.561,9.562,9.561h9.472v5.857c-1.162-0.998-3.407-2.653-5.278-2.362
				c-0.488,0.074-0.891,0.397-1.078,0.866c-0.197,0.496-0.119,1.065,0.207,1.484c0.764,0.984,2.239,2.97,3.532,5.217
				c0.621,1.079,1.33,2.065,2.107,2.932l1.268,1.413l-0.391,6.363c0,0.251,0.204,0.455,0.455,0.455s0.455-0.204,0.455-0.455
				l0.391-6.539c0-0.111-0.042-0.22-0.116-0.304l-1.384-1.541c-0.735-0.82-1.407-1.754-1.996-2.776
				c-1.321-2.297-2.825-4.32-3.604-5.322c-0.152-0.198-0.141-0.435-0.078-0.589c0.039-0.1,0.14-0.271,0.367-0.306
				c1.789-0.269,4.41,1.945,5.274,2.821c0.129,0.132,0.326,0.172,0.496,0.102c0.172-0.07,0.283-0.235,0.283-0.421V20.452
				c0-0.613,0.499-1.113,1.113-1.113c0.581,0,1.069,0.455,1.108,1.037l0.431,6.267l0.164,3.662c0.012,0.244,0.213,0.435,0.454,0.435
				c0.007,0,0.015,0,0.021,0c0.251-0.011,0.444-0.224,0.434-0.475l-0.146-3.256c1.617-0.215,2.212,0.421,2.353,0.63v2.646
				c0,0.252,0.204,0.455,0.455,0.455s0.455-0.203,0.455-0.455v-2.409c1.454-0.357,2.323,0.665,2.553,0.996v1.927
				c0,0.252,0.204,0.455,0.455,0.455c0.252,0,0.455-0.203,0.455-0.455v-1.521c1.277,0.312,2.197,1.442,2.197,2.795v0.626
				c0,1.801-0.282,3.58-0.84,5.29l-1.41,4.324c-0.015,0.046-0.023,0.093-0.023,0.141v1.454c0,0.251,0.204,0.455,0.455,0.455
				s0.455-0.204,0.455-0.455v-1.381l1.388-4.256c0.588-1.802,0.887-3.676,0.887-5.572v-0.626
				C42.452,30.175,41.08,28.598,39.156,28.311"/>
		</g>
		<g clip-path="url(#SVGID_2_)">
			<linearGradient id="SVGID_5_" gradientUnits="userSpaceOnUse" x1="8.8945" y1="28.6221" x2="42.6523" y2="28.6221">
				<stop  offset="0" style="stop-color:#0087CD"/>
				<stop  offset="1" style="stop-color:#3465AF"/>
			</linearGradient>
			<path fill="url(#SVGID_5_)" d="M28.95,49.495c-0.361,0-0.655-0.294-0.655-0.655l0.386-6.292l-1.211-1.351
				c-0.787-0.877-1.504-1.874-2.133-2.966c-1.28-2.226-2.753-4.209-3.517-5.193c-0.368-0.474-0.459-1.118-0.234-1.682
				c0.214-0.535,0.675-0.905,1.233-0.989c0.154-0.024,0.315-0.036,0.479-0.036c1.663,0,3.506,1.253,4.629,2.168V27.27h-9.271
				c-5.383,0-9.762-4.379-9.762-9.761s4.379-9.76,9.762-9.76h13.269c5.383,0,9.762,4.378,9.762,9.76c0,4.007-2.475,7.606-6.196,9.07
				c0.076,0.064,0.139,0.126,0.19,0.181c0.268-0.062,0.535-0.094,0.797-0.094c1.546,0,2.479,1.04,2.792,1.46
				c1.965,0.333,3.383,1.979,3.383,3.945v0.626c0,1.915-0.302,3.811-0.896,5.635l-1.378,4.226v1.349
				c0,0.361-0.294,0.655-0.655,0.655s-0.655-0.294-0.655-0.655v-1.454c0-0.065,0.012-0.133,0.033-0.201l1.41-4.326
				c0.551-1.688,0.83-3.447,0.83-5.228v-0.626c0-1.151-0.727-2.156-1.797-2.527v1.254c0,0.361-0.294,0.655-0.655,0.655
				s-0.655-0.294-0.655-0.655v-1.862C38.031,28.662,37.441,28,36.478,28c-0.129,0-0.263,0.013-0.396,0.037v2.247
				c0,0.361-0.294,0.655-0.655,0.655s-0.655-0.294-0.655-0.655v-2.579c-0.125-0.154-0.539-0.54-1.526-0.54
				c-0.133,0-0.273,0.007-0.418,0.021l0.138,3.069c0.007,0.175-0.054,0.342-0.171,0.471c-0.118,0.13-0.279,0.205-0.454,0.213h-0.001
				c-0.379,0-0.666-0.274-0.684-0.625l-0.164-3.663l-0.43-6.262c-0.032-0.478-0.432-0.851-0.909-0.851
				c-0.504,0-0.913,0.409-0.913,0.913v13.513c0,0.267-0.16,0.505-0.407,0.606c-0.24,0.097-0.535,0.039-0.715-0.147
				c-0.808-0.817-3.392-3.034-5.103-2.763c-0.122,0.019-0.182,0.108-0.21,0.181c-0.016,0.037-0.081,0.224,0.05,0.394
				c0.781,1.005,2.291,3.035,3.62,5.345c0.58,1.008,1.243,1.931,1.971,2.742l1.384,1.541c0.108,0.123,0.168,0.277,0.168,0.438
				l-0.392,6.551C29.605,49.201,29.312,49.495,28.95,49.495z M23.299,30.73c-0.144,0-0.284,0.011-0.419,0.031
				c-0.417,0.063-0.762,0.342-0.923,0.743c-0.172,0.432-0.103,0.925,0.18,1.287c0.77,0.993,2.255,2.994,3.548,5.24
				c0.613,1.067,1.314,2.042,2.082,2.897l1.324,1.476l-0.006,0.084l-0.391,6.363c0.001,0.128,0.115,0.242,0.256,0.242
				s0.255-0.114,0.255-0.255l0.392-6.551c-0.001-0.051-0.024-0.111-0.066-0.159l-1.383-1.54c-0.747-0.833-1.427-1.778-2.021-2.811
				c-1.316-2.288-2.814-4.302-3.59-5.299c-0.205-0.267-0.188-0.581-0.105-0.787c0.092-0.234,0.282-0.391,0.522-0.428
				c1.814-0.283,4.392,1.809,5.447,2.878c0.071,0.073,0.183,0.097,0.277,0.058c0.097-0.04,0.159-0.133,0.159-0.236V20.452
				c0-0.725,0.589-1.313,1.313-1.313c0.688,0,1.262,0.538,1.308,1.224l0.431,6.267l0.165,3.667c0.006,0.136,0.118,0.243,0.254,0.243
				c0.08-0.003,0.143-0.031,0.188-0.082c0.046-0.05,0.069-0.115,0.066-0.184l-0.153-3.438l0.182-0.024
				c0.228-0.03,0.446-0.046,0.652-0.046c1.28,0,1.772,0.584,1.893,0.763l0.034,0.051v2.706c0,0.141,0.114,0.255,0.255,0.255
				s0.255-0.114,0.255-0.255v-2.566l0.152-0.037c0.218-0.054,0.435-0.08,0.645-0.08c1.224,0,1.933,0.885,2.12,1.156l0.036,0.052
				v1.989c0,0.141,0.114,0.255,0.255,0.255s0.255-0.114,0.255-0.255v-1.776l0.248,0.061c1.383,0.338,2.35,1.566,2.35,2.989v0.626
				c0,1.822-0.286,3.623-0.85,5.352l-1.41,4.324c-0.01,0.028-0.014,0.055-0.014,0.079v1.454c0,0.141,0.114,0.255,0.255,0.255
				s0.255-0.114,0.255-0.255l0.01-1.442l1.388-4.256c0.582-1.784,0.877-3.638,0.877-5.511v-0.626c0-1.794-1.314-3.293-3.125-3.562
				l-0.085-0.013l-0.05-0.07c-0.224-0.319-1.067-1.359-2.515-1.359c-0.267,0-0.54,0.037-0.815,0.109l-0.123,0.032l-0.082-0.098
				c-0.12-0.146-0.295-0.295-0.49-0.422l-0.343-0.222l0.385-0.135c3.755-1.316,6.277-4.861,6.277-8.823
				c0-5.161-4.199-9.359-9.361-9.359H18.656c-5.162,0-9.361,4.198-9.361,9.359s4.199,9.36,9.361,9.36h9.672v6.493l-0.33-0.284
				C26.977,32.201,25.009,30.73,23.299,30.73z M28.328,26.359h-9.672c-4.88,0-8.851-3.971-8.851-8.851s3.971-8.85,8.851-8.85h13.269
				c4.881,0,8.852,3.97,8.852,8.85c0,4.323-3.229,8.077-7.511,8.731c-0.239,0.004-0.458,0.018-0.679,0.043l-0.209,0.024
				l-0.409-5.979c-0.065-0.953-0.863-1.699-1.817-1.699c-0.603,0-1.166,0.299-1.508,0.8l-0.179,0.264l-0.159-0.275
				c-0.576-0.994-1.48-1.77-2.547-2.185l-0.377-0.146l0.345-0.211c1.041-0.637,1.662-1.732,1.662-2.933
				c0-1.9-1.546-3.446-3.447-3.446c-1.899,0-3.445,1.546-3.445,3.446c0,1.199,0.62,2.295,1.659,2.931l0.345,0.211l-0.377,0.146
				c-1.97,0.765-3.242,2.613-3.242,4.709v1.565c0,0.141,0.114,0.255,0.256,0.255c0.141,0,0.255-0.114,0.255-0.255v-1.565
				c0-2.509,2.041-4.551,4.55-4.551c2.043,0,3.845,1.389,4.38,3.376l0.007,0.052V26.359z M18.656,9.06
				c-4.659,0-8.45,3.79-8.45,8.449s3.791,8.45,8.45,8.45h9.271v-5.116c-0.497-1.799-2.132-3.054-3.986-3.054
				c-2.288,0-4.149,1.861-4.149,4.15v1.565c0,0.361-0.294,0.655-0.655,0.655s-0.656-0.294-0.656-0.655v-1.565
				c0-2.138,1.227-4.037,3.155-4.936c-0.971-0.727-1.54-1.847-1.54-3.062c0-2.121,1.726-3.847,3.846-3.847
				c2.121,0,3.848,1.726,3.848,3.847c0,1.216-0.57,2.337-1.543,3.064c0.914,0.43,1.698,1.112,2.252,1.961
				c0.42-0.468,1.019-0.739,1.653-0.739c1.163,0,2.137,0.91,2.216,2.072l0.382,5.564c0.165-0.014,0.327-0.021,0.485-0.022
				c4.059-0.622,7.142-4.206,7.142-8.334c0-4.659-3.791-8.449-8.451-8.449H18.656z M23.941,16.879c-1.618,0-2.936-1.317-2.936-2.937
				s1.317-2.937,2.936-2.937c1.62,0,2.938,1.317,2.938,2.937S25.562,16.879,23.941,16.879z M23.941,11.406
				c-1.398,0-2.535,1.138-2.535,2.536s1.137,2.536,2.535,2.536c1.399,0,2.537-1.138,2.537-2.536S25.341,11.406,23.941,11.406z"/>
		</g>
	</g>
</g>
</svg>
