<?xml version="1.0" encoding="utf-8" standalone="no"?>
<svg xmlns="http://www.w3.org/2000/svg" 
    xmlns:xlink="http://www.w3.org/1999/xlink" viewBox="0 0 336.69 384">
    <defs>
        <style>.cls-1{fill:none;}.cls-2{clip-path:url(#clip-path);}.cls-3{fill:#2c2f33;}.cls-4{fill:#6d001e;}</style>
        <clipPath id="clip-path" transform="translate(-0.66)">
            <rect class="cls-1" width="338" height="384"/>
        </clipPath>
    </defs>
    <title>change-password</title>
    <g id="Layer_2" data-name="Layer 2">
        <g id="Layer_1-2" data-name="Layer 1">
            <g class="cls-2">
                <path class="cls-3" d="M.66,192a7.73,7.73,0,1,0,15.45,0c0-83.43,67.27-151.49,150.39-152.81L156,49.74a7.68,7.68,0,0,0,0,10.92,7.74,7.74,0,0,0,10.93,0l23.73-23.72a7.69,7.69,0,0,0,0-10.93L166.89,2.28A7.73,7.73,0,0,0,156,13.21l10.62,10.62C74.88,25,.66,100,.66,192Z" transform="translate(-0.66)"/>
            </g>
            <path class="cls-3" d="M329.62,184.29a7.69,7.69,0,0,0-7.73,7.72c0,83.43-67.27,151.49-150.39,152.81L182,334.29a7.73,7.73,0,0,0-10.93-10.93l-23.73,23.73a7.73,7.73,0,0,0,0,10.92l23.73,23.73a7.74,7.74,0,0,0,10.93,0,7.69,7.69,0,0,0,0-10.93L171.42,360.2C263.12,359,337.34,284,337.34,192a7.69,7.69,0,0,0-7.72-7.72Z" transform="translate(-0.66)"/>
            <path class="cls-4" d="M150,146a49.78,49.78,0,0,0,19,95.76A48.47,48.47,0,0,0,188,238,49.76,49.76,0,1,0,150,146Zm50.73,32.86A34.12,34.12,0,1,1,169,157.67a34.16,34.16,0,0,1,31.69,21.23Z" transform="translate(-0.66)"/>
            <path class="cls-4" d="M184.61,89.07l-3.2,7.73a93.15,93.15,0,0,0-24.74,0l-3.2-7.73a17.1,17.1,0,0,0-22.4-9.21l-14.59,6a17.15,17.15,0,0,0-9.29,22.4l3.2,7.72a94.91,94.91,0,0,0-17.48,17.49l-7.73-3.2a17.1,17.1,0,0,0-22.4,9.21l-6,14.59a17.15,17.15,0,0,0,9.29,22.4l7.73,3.2a93.15,93.15,0,0,0,0,24.74l-7.73,3.2A17.15,17.15,0,0,0,56.77,230l6,14.59a17.1,17.1,0,0,0,22.4,9.21l7.73-3.2a94.55,94.55,0,0,0,17.48,17.48l-3.2,7.73a17.08,17.08,0,0,0,9.29,22.32l14.59,6a17.1,17.1,0,0,0,22.4-9.21l3.2-7.73a93.15,93.15,0,0,0,24.74,0l3.2,7.73a17.1,17.1,0,0,0,15.84,10.54,17.28,17.28,0,0,0,6.56-1.33l14.59-6a17.16,17.16,0,0,0,9.29-9.29,17.39,17.39,0,0,0,0-13.11l-3.2-7.72a94.91,94.91,0,0,0,17.48-17.49l7.73,3.2a17.1,17.1,0,0,0,22.4-9.2l6-14.6a17.15,17.15,0,0,0-9.28-22.4l-7.73-3.2a93.15,93.15,0,0,0,0-24.74l7.73-3.2A17.15,17.15,0,0,0,281.3,154l-6-14.59a17.1,17.1,0,0,0-22.4-9.21l-7.73,3.2a94.86,94.86,0,0,0-17.48-17.48l3.2-7.73a17.39,17.39,0,0,0,0-13.11,17.19,17.19,0,0,0-9.29-9.29l-14.59-6a17.28,17.28,0,0,0-6.56-1.33,17,17,0,0,0-15.84,10.62Zm8.74,19.28,5.54-13.43a1.61,1.61,0,0,1,1.56-1,1.94,1.94,0,0,1,.62.15l14.6,6a1.51,1.51,0,0,1,.86.85,1.43,1.43,0,0,1,0,1.25L211,115.61A7.69,7.69,0,0,0,213.8,125,79.92,79.92,0,0,1,236,147.13a7.76,7.76,0,0,0,9.37,2.89l13.42-5.54a1.76,1.76,0,0,1,.63-.15,1.62,1.62,0,0,1,1.56,1l6,14.6a1.75,1.75,0,0,1-.85,2.18l-13.43,5.54a7.69,7.69,0,0,0-4.6,8.67,80,80,0,0,1,0,31.37,7.82,7.82,0,0,0,4.6,8.66l13.43,5.54a1.46,1.46,0,0,1,.85.86,1.37,1.37,0,0,1,0,1.25l-6,14.59a1.63,1.63,0,0,1-1.56,1,1.78,1.78,0,0,1-.63-.16l-13.42-5.54a7.72,7.72,0,0,0-9.37,2.81A80,80,0,0,1,213.8,258.9a7.74,7.74,0,0,0-2.89,9.36l5.54,13.43a1.4,1.4,0,0,1,0,1.25,1.5,1.5,0,0,1-.93.85l-14.6,6a1.78,1.78,0,0,1-.62.16,1.63,1.63,0,0,1-1.57-1l-5.53-13.42a7.68,7.68,0,0,0-7.11-4.76,9.43,9.43,0,0,0-1.48.16,82,82,0,0,1-31.38,0,7.81,7.81,0,0,0-8.66,4.6L139,288.94a1.61,1.61,0,0,1-1.56,1,1.83,1.83,0,0,1-.63-.16l-14.59-6a1.6,1.6,0,0,1-.86-2.18l5.54-13.43a7.69,7.69,0,0,0-2.81-9.36A80,80,0,0,1,102,236.65a7.77,7.77,0,0,0-9.37-2.88l-13.42,5.54a2,2,0,0,1-.62.15,1.62,1.62,0,0,1-1.57-1l-6-14.6a1.34,1.34,0,0,1,0-1.25,1.51,1.51,0,0,1,.85-.85l13.43-5.55a7.67,7.67,0,0,0,4.6-8.66,80,80,0,0,1,0-31.37,7.81,7.81,0,0,0-4.6-8.66L71.83,162a1.45,1.45,0,0,1-.85-.85,1.37,1.37,0,0,1,0-1.25l6-14.6a1.62,1.62,0,0,1,1.57-1,2,2,0,0,1,.62.15L92.59,150a7.71,7.71,0,0,0,9.37-2.82A80.05,80.05,0,0,1,124.12,125a7.75,7.75,0,0,0,2.89-9.36l-5.54-13.43a1.34,1.34,0,0,1,0-1.25,1.76,1.76,0,0,1,.94-.93L137,94a1.78,1.78,0,0,1,.62-.16,1.62,1.62,0,0,1,1.57,1l5.54,13.42a7.72,7.72,0,0,0,8.66,4.6,82,82,0,0,1,31.38,0,7.54,7.54,0,0,0,8.58-4.52Z" transform="translate(-0.66)"/>
        </g>
    </g>
</svg>