<?xml version="1.0" encoding="utf-8" standalone="no"?>
<svg xmlns="http://www.w3.org/2000/svg" viewBox="0 0 319.7 384">
    <defs>
        <style>.cls-1{fill:#64001e;}.cls-2{fill:#2c2f33;}</style>
    </defs>
    <title>connect</title>
    <g id="Layer_2" data-name="Layer 2">
        <g id="Layer_1-2" data-name="Layer 1">
            <path class="cls-1" d="M154.13,268.4a8.59,8.59,0,0,0,3.06.63,7.58,7.58,0,0,0,5.4-2.19l43.24-41.36h81.53a32.35,32.35,0,0,0,32.34-32.34V102a32.35,32.35,0,0,0-32.34-32.34H137.92A32.35,32.35,0,0,0,105.58,102v91.17a32.35,32.35,0,0,0,32.34,32.34h11.51v35.79a7.61,7.61,0,0,0,4.7,7.13ZM137.92,210a16.81,16.81,0,0,1-16.84-16.83V102a16.82,16.82,0,0,1,16.84-16.84H287.28A16.82,16.82,0,0,1,304.12,102v91.17A16.81,16.81,0,0,1,287.28,210H202.61a7.46,7.46,0,0,0-5.32,2.2l-32.35,31V217.8a7.72,7.72,0,0,0-7.75-7.75H137.92Z"/>
            <path class="cls-1" d="M154.84,134.87H266.29a7.76,7.76,0,0,0,0-15.51H154.84a7.76,7.76,0,0,0,0,15.51Z"/>
            <path class="cls-1" d="M274,169.33a7.73,7.73,0,0,0-7.75-7.76H154.84a7.76,7.76,0,0,0,0,15.51H266.29a7.72,7.72,0,0,0,7.75-7.75Z"/>
            <path class="cls-2" d="M238.56,355.49V251.8a7.75,7.75,0,1,0-15.5,0V355.57a12.94,12.94,0,0,1-12.93,12.92H28.43a12.93,12.93,0,0,1-12.92-12.92V28.43A12.87,12.87,0,0,1,28.43,15.59h181.7a12.92,12.92,0,0,1,12.93,12.84V44.64a7.75,7.75,0,0,0,15.5,0V28.43A28.48,28.48,0,0,0,210.13,0H28.43A28.48,28.48,0,0,0,0,28.43V355.57A28.48,28.48,0,0,0,28.43,384h181.7a28.54,28.54,0,0,0,28.43-28.51Z"/>
            <path class="cls-2" d="M142.62,321.89H96a7.76,7.76,0,0,0,0,15.51h46.6a7.76,7.76,0,1,0,0-15.51Z"/>
        </g>
    </g>
</svg>