<?xml version="1.0" encoding="utf-8" standalone="no"?>
<svg xmlns="http://www.w3.org/2000/svg" viewBox="0 0 384 339.51">
    <defs>
        <style>.cls-1{fill:#2c2f33;}.cls-2{fill:#64001e;}</style>
    </defs>
    <title>convince-clients</title>
    <g id="Layer_2" data-name="Layer 2">
        <g id="Layer_1-2" data-name="Layer 1">
            <path class="cls-1" d="M123.85,119.23a21.29,21.29,0,0,0-7.76,16.45v19.19a7.76,7.76,0,0,0,15.51,0V135.68a5.82,5.82,0,0,1,2.12-4.47,215.48,215.48,0,0,1,38.38-24.59,9.13,9.13,0,0,0,5.09-8.07v-27a7.78,7.78,0,0,0-3.44-6.42,5,5,0,0,1-2.2-4.08V33A17.49,17.49,0,0,1,189,15.51h6A17.48,17.48,0,0,1,212.52,33V61a4.82,4.82,0,0,1-2.19,4.08,7.6,7.6,0,0,0-3.45,6.42v27a9,9,0,0,0,5,8.07,218.5,218.5,0,0,1,38.38,24.59,5.82,5.82,0,0,1,2.12,4.47v19.19a7.76,7.76,0,0,0,15.51,0V135.68a21.05,21.05,0,0,0-7.76-16.45,229.67,229.67,0,0,0-37.76-24.68V75.05A20.31,20.31,0,0,0,228,61V33a33,33,0,0,0-33-33h-6a33,33,0,0,0-33,33V61a20.32,20.32,0,0,0,5.64,14.1V94.55a226.66,226.66,0,0,0-37.83,24.68Z"/>
            <path class="cls-1" d="M376.25,339.51a7.73,7.73,0,0,0,7.75-7.76V312.56a21.1,21.1,0,0,0-7.75-16.45,231.21,231.21,0,0,0-37.76-24.68v-19.5a20.34,20.34,0,0,0,5.64-14.1V209.78a33,33,0,0,0-33-33h-6a33,33,0,0,0-33,33v28.05a20.29,20.29,0,0,0,5.64,14.1v19.5A230.78,230.78,0,0,0,240,296.11a21.21,21.21,0,0,0-7.75,16.45v19.19a7.75,7.75,0,1,0,15.5,0V312.56a5.83,5.83,0,0,1,2.12-4.47,206.52,206.52,0,0,1,38.38-24.59,9.06,9.06,0,0,0,5-8.07v-27a7.77,7.77,0,0,0-3.45-6.42,5,5,0,0,1-2.19-4.07v-28a17.49,17.49,0,0,1,17.47-17.47h6a17.49,17.49,0,0,1,17.47,17.47v28a4.83,4.83,0,0,1-2.2,4.07A7.59,7.59,0,0,0,323,248.4v27a9,9,0,0,0,5,8.07,219.08,219.08,0,0,1,38.39,24.59,5.83,5.83,0,0,1,2.11,4.47v19.19a7.78,7.78,0,0,0,7.76,7.76Z"/>
            <path class="cls-1" d="M144,296.11a230.78,230.78,0,0,0-37.76-24.68v-19.5a20.29,20.29,0,0,0,5.64-14.1V209.78a33,33,0,0,0-33-33h-6a33,33,0,0,0-33,33v28.05a20.34,20.34,0,0,0,5.64,14.1v19.5A231.21,231.21,0,0,0,7.75,296.11,21.21,21.21,0,0,0,0,312.56v19.19a7.76,7.76,0,1,0,15.51,0V312.56a5.8,5.8,0,0,1,2.12-4.47A206.18,206.18,0,0,1,56,283.5a9,9,0,0,0,5-8.07v-27A7.78,7.78,0,0,0,57.58,242a5,5,0,0,1-2.2-4.07v-28a17.49,17.49,0,0,1,17.47-17.47h6a17.49,17.49,0,0,1,17.47,17.47v28A4.82,4.82,0,0,1,94.16,242a7.57,7.57,0,0,0-3.45,6.42v27a9,9,0,0,0,5,8.07,214.1,214.1,0,0,1,38.38,24.59,5.83,5.83,0,0,1,2.12,4.47v19.19a7.75,7.75,0,1,0,15.5,0V312.56A21.1,21.1,0,0,0,144,296.11Z"/>
            <path class="cls-2" d="M236.1,249.81a7.77,7.77,0,0,0,7.76-13.47l-43.48-25.07V161.06a7.76,7.76,0,1,0-15.51,0v50.21l-43.48,25.15a7.78,7.78,0,0,0,3.92,14.49,7.37,7.37,0,0,0,3.84-1l43.47-25.14Z"/>
        </g>
    </g>
</svg>