<?xml version="1.0" encoding="utf-8" standalone="no"?>
<svg xmlns="http://www.w3.org/2000/svg" viewBox="0 0 356.09 384">
    <defs>
        <style>.cls-1{fill:#2c2f33;}.cls-2{fill:#6d001e;}</style>
    </defs>
    <title>coporate</title>
    <g id="Layer_2" data-name="Layer 2">
        <g id="Layer_1-2" data-name="Layer 1">
            <path class="cls-1" d="M348.33,95.1H229.47V7.76A7.73,7.73,0,0,0,221.71,0H7.76A7.73,7.73,0,0,0,0,7.76V376.24A7.73,7.73,0,0,0,7.76,384H348.33a7.73,7.73,0,0,0,7.76-7.76V102.86a7.73,7.73,0,0,0-7.76-7.76ZM214,102.86V368.55H15.52v-353H214ZM340.57,368.48H229.47V110.54h111.1Z"/>
            <path class="cls-2" d="M259.73,150H310.3a7.77,7.77,0,0,0,0-15.53H259.73a7.77,7.77,0,0,0,0,15.53Z"/>
            <path class="cls-2" d="M259.73,188.94H310.3a7.76,7.76,0,0,0,0-15.52H259.73a7.76,7.76,0,0,0,0,15.52Z"/>
            <path class="cls-2" d="M259.73,227.83H310.3a7.77,7.77,0,0,0,0-15.53H259.73a7.77,7.77,0,0,0,0,15.53Z"/>
            <path class="cls-2" d="M259.73,266.79H310.3a7.76,7.76,0,1,0,0-15.52H259.73a7.76,7.76,0,1,0,0,15.52Z"/>
            <path class="cls-2" d="M259.73,305.68H310.3a7.76,7.76,0,0,0,0-15.52H259.73a7.76,7.76,0,0,0,0,15.52Z"/>
            <path class="cls-2" d="M259.73,344.64H310.3a7.76,7.76,0,1,0,0-15.52H259.73a7.76,7.76,0,0,0,0,15.52Z"/>
            <path class="cls-1" d="M51.51,76.05a7.73,7.73,0,0,0,7.76-7.76V51.12a7.76,7.76,0,0,0-15.52,0V68.29a7.72,7.72,0,0,0,7.76,7.76Z"/>
            <path class="cls-1" d="M93.68,76.05a7.72,7.72,0,0,0,7.76-7.76V51.12a7.76,7.76,0,1,0-15.52,0V68.29a7.73,7.73,0,0,0,7.76,7.76Z"/>
            <path class="cls-1" d="M135.78,76.05a7.73,7.73,0,0,0,7.77-7.76V51.12a7.77,7.77,0,0,0-15.53,0V68.29a7.78,7.78,0,0,0,7.76,7.76Z"/>
            <path class="cls-1" d="M178,76.05a7.73,7.73,0,0,0,7.77-7.76V51.12a7.77,7.77,0,0,0-15.53,0V68.29A7.73,7.73,0,0,0,178,76.05Z"/>
            <path class="cls-1" d="M51.51,129.2a7.73,7.73,0,0,0,7.76-7.76V104.19a7.76,7.76,0,0,0-15.52,0v17.25a7.77,7.77,0,0,0,7.76,7.76Z"/>
            <path class="cls-1" d="M93.68,129.2a7.72,7.72,0,0,0,7.76-7.76V104.19a7.76,7.76,0,1,0-15.52,0v17.25a7.77,7.77,0,0,0,7.76,7.76Z"/>
            <path class="cls-1" d="M135.78,129.2a7.73,7.73,0,0,0,7.77-7.76V104.19a7.77,7.77,0,0,0-15.53,0v17.25a7.83,7.83,0,0,0,7.76,7.76Z"/>
            <path class="cls-1" d="M178,129.2a7.73,7.73,0,0,0,7.77-7.76V104.19a7.77,7.77,0,0,0-15.53,0v17.25A7.77,7.77,0,0,0,178,129.2Z"/>
            <path class="cls-1" d="M51.51,182.28a7.73,7.73,0,0,0,7.76-7.76V157.35a7.76,7.76,0,0,0-15.52,0v17.17a7.72,7.72,0,0,0,7.76,7.76Z"/>
            <path class="cls-1" d="M93.68,182.28a7.72,7.72,0,0,0,7.76-7.76V157.35a7.76,7.76,0,1,0-15.52,0v17.17a7.73,7.73,0,0,0,7.76,7.76Z"/>
            <path class="cls-1" d="M135.78,182.28a7.73,7.73,0,0,0,7.77-7.76V157.35a7.77,7.77,0,0,0-15.53,0v17.17a7.78,7.78,0,0,0,7.76,7.76Z"/>
            <path class="cls-1" d="M178,182.28a7.73,7.73,0,0,0,7.77-7.76V157.35a7.77,7.77,0,0,0-15.53,0v17.17a7.73,7.73,0,0,0,7.76,7.76Z"/>
            <path class="cls-1" d="M51.51,235.43a7.73,7.73,0,0,0,7.76-7.76V210.5a7.76,7.76,0,0,0-15.52,0v17.17a7.77,7.77,0,0,0,7.76,7.76Z"/>
            <path class="cls-1" d="M93.68,235.43a7.72,7.72,0,0,0,7.76-7.76V210.5a7.76,7.76,0,1,0-15.52,0v17.17a7.77,7.77,0,0,0,7.76,7.76Z"/>
            <path class="cls-1" d="M135.78,235.43a7.73,7.73,0,0,0,7.77-7.76V210.5a7.77,7.77,0,0,0-15.53,0v17.17a7.83,7.83,0,0,0,7.76,7.76Z"/>
            <path class="cls-1" d="M178,235.43a7.73,7.73,0,0,0,7.77-7.76V210.5a7.77,7.77,0,0,0-15.53,0v17.17a7.77,7.77,0,0,0,7.76,7.76Z"/>
            <path class="cls-1" d="M51.51,288.51a7.73,7.73,0,0,0,7.76-7.76V263.58a7.76,7.76,0,0,0-15.52,0v17.17a7.72,7.72,0,0,0,7.76,7.76Z"/>
            <path class="cls-1" d="M93.68,288.51a7.72,7.72,0,0,0,7.76-7.76V263.58a7.76,7.76,0,1,0-15.52,0v17.17a7.73,7.73,0,0,0,7.76,7.76Z"/>
            <path class="cls-1" d="M135.78,288.51a7.73,7.73,0,0,0,7.77-7.76V263.58a7.77,7.77,0,0,0-15.53,0v17.17a7.78,7.78,0,0,0,7.76,7.76Z"/>
            <path class="cls-1" d="M178,288.51a7.73,7.73,0,0,0,7.77-7.76V263.58a7.77,7.77,0,0,0-15.53,0v17.17a7.73,7.73,0,0,0,7.76,7.76Z"/>
            <path class="cls-1" d="M51.51,341.66a7.73,7.73,0,0,0,7.76-7.76V316.66a7.76,7.76,0,1,0-15.52,0V333.9a7.77,7.77,0,0,0,7.76,7.76Z"/>
            <path class="cls-1" d="M93.68,341.66a7.72,7.72,0,0,0,7.76-7.76V316.66a7.76,7.76,0,1,0-15.52,0V333.9a7.77,7.77,0,0,0,7.76,7.76Z"/>
            <path class="cls-1" d="M135.78,341.66a7.73,7.73,0,0,0,7.77-7.76V316.66a7.77,7.77,0,1,0-15.53,0V333.9a7.83,7.83,0,0,0,7.76,7.76Z"/>
            <path class="cls-1" d="M178,341.66a7.73,7.73,0,0,0,7.77-7.76V316.66a7.77,7.77,0,1,0-15.53,0V333.9a7.77,7.77,0,0,0,7.76,7.76Z"/>
        </g>
    </g>
</svg>