<?xml version="1.0" encoding="utf-8" standalone="no"?>
<svg xmlns="http://www.w3.org/2000/svg" 
    xmlns:xlink="http://www.w3.org/1999/xlink" viewBox="0 0 262.47 384">
    <defs>
        <style>.cls-1{fill:none;}.cls-2{fill:#2c2f33;}.cls-3{clip-path:url(#clip-path);}.cls-4{fill:#6d001e;}</style>
        <clipPath id="clip-path" transform="translate(-0.77)">
            <rect class="cls-1" width="264" height="384"/>
        </clipPath>
    </defs>
    <title>corporates</title>
    <g id="Layer_2" data-name="Layer 2">
        <g id="Layer_1-2" data-name="Layer 1">
            <path class="cls-2" d="M12.82,280a5.81,5.81,0,0,0-.08,1.18,9.2,9.2,0,0,1-.08,1.56c-3.21,10.75-.54,19.61,8.08,27.29a12.38,12.38,0,0,1,4.08,11.6,13.94,13.94,0,0,1-8.71,10.66c-.07,0-.15.08-.23.08C7.57,335.86,3.34,341.66,2.78,350c-.15,2.2-.54,4.63-.86,7.14s-.78,5.41-1,8.07c-.55,5.41.55,9.88,3.37,13.25S11.41,383.69,17,384H242.23a15.32,15.32,0,0,0,10.11-3.21c4.63-3.45,6.82-8.94,6-15.22-.39-3.21-.86-6.34-1.41-9.48s-.94-6-1.33-9c0-.15-.08-.39-.08-.55-1.81-8.78-7.45-12.23-12-13.64a13.47,13.47,0,0,1-9.33-10.66,14.75,14.75,0,0,1,6-14.74c5.57-3.76,8.08-9.41,7.45-16.15-.39-5.26-1.18-10.51-2-15.52-1.34-9.1-7.29-14.35-16.54-14.35H33.91c-14.27.39-19,4.47-21.09,18.5ZM230,277.37a8.75,8.75,0,0,1,.23,1.1c.79,4.94,1.49,9.64,1.88,14.5.16,1.34-.07,1.5-.78,2-.16.08-.24.16-.39.24-9.64,7.29-14.19,18.58-12,30.11A28.82,28.82,0,0,0,239.17,348c.55.16.78.24,1.1,1.49.39,3.06.86,6.2,1.33,9.18s.94,6,1.33,9a3,3,0,0,1,0,.87H17.68a10.29,10.29,0,0,1-1.41-.24,14,14,0,0,1,.08-1.57v-.23c.15-2.2.55-4.63.86-7.14s.79-5.41,1-8.31c.16-2.12.31-3.06,3.68-4.47A29.25,29.25,0,0,0,40.1,324.18,27.83,27.83,0,0,0,31,298.31c-4.55-4-4.78-6.75-3.45-11.06a18.9,18.9,0,0,0,.71-5.57,23.09,23.09,0,0,1,.86-4.15,41.78,41.78,0,0,1,4.86-.24H229.14a3.4,3.4,0,0,0,.86.08Z" transform="translate(-0.77)"/>
            <g class="cls-3">
                <path class="cls-2" d="M86.13,330.77h86.79a7.77,7.77,0,0,0,0-15.53H86.13a7.77,7.77,0,0,0,0,15.53Z" transform="translate(-0.77)"/>
                <path class="cls-4" d="M35.4,158.67c-.47,8.23-.55,16.46-.55,24.39,0,5.17-.08,10.5-.23,15.83v25.17A19.07,19.07,0,0,0,53.9,243.34H161.71l47.75.79c10.19,0,18.11-7.76,18.11-17.72V209.48a32.09,32.09,0,0,0-15.29-27.37,233,233,0,0,1-26.43-19.91A7.78,7.78,0,0,0,175.66,174a243.87,243.87,0,0,0,28.46,21.4,16.47,16.47,0,0,1,7.92,14.2v16.93a2.24,2.24,0,0,1-2.5,2.19l-47.75-.78H53.9a3.54,3.54,0,0,1-3.76-3.76V199.28c.16-5.4.16-10.81.24-16.07.07-8.08.07-15.68.55-23.68.86-19.36,3-35.51,6.74-50.8C61.19,94,65.74,78.54,75.31,65.29,84.71,51.73,93.57,46.48,105.89,47c15.6.48,26.89-6.11,33.63-19.52a22.52,22.52,0,0,1,10.58-9.88c-.07,13,5.88,24.15,17.72,33.17,12.86,10,25.64,20,38.42,29.95s25.56,20,38.42,30c2.2,1.72,3.06,3.06,3.14,3.68s-.4,2-2,4.16l-12.55,14.74c-5.25,5.72-9.56,6.5-16.23,2.9-.07,0-.16-.08-.23-.08a96.66,96.66,0,0,1-10.27-5.64c-.08-.08-.16-.08-.16-.16-7.53-4.71-16.46-6.12-25.8-4.08-.07,0-.15.08-.23.08-8.86,2.27-16.86.39-25.17-5.88l-5.64-4.55a7.76,7.76,0,0,0-9.73,12.08l5.73,4.62.16.16c12.07,9.17,25,12.07,38.34,8.7,5.25-1.1,10-.47,14,2A108.84,108.84,0,0,0,209.69,150c13.09,7,24.86,4.86,35.05-6.27.08-.08.16-.16.16-.24l12.69-15c.09-.07.09-.15.16-.23,4.23-5.41,6-10.51,5.33-15.76s-3.6-9.72-9-14c-12.86-10-25.64-20-38.42-29.95s-25.56-20-38.5-30c-9.4-7.14-12.93-15.29-11.21-25.56a3.22,3.22,0,0,1,.08-.39c.63-5.65-2-8.78-3.61-10.12-2-1.72-5.8-3.45-11.76-1.64-11.36,3.45-20,10.19-24.93,19.68-4.07,8.07-9.8,11.36-19.21,11.05-22.73-1-35.44,12.7-43.91,24.7C51.47,71.56,46.22,89.52,42.54,105c-4,16.3-6.28,33.39-7.14,53.7Z" transform="translate(-0.77)"/>
            </g>
        </g>
    </g>
</svg>