<?xml version="1.0" encoding="utf-8" standalone="no"?>
<svg xmlns="http://www.w3.org/2000/svg" viewBox="0 0 384 380.48">
    <defs>
        <style>.cls-1{fill:#2c2f33;}.cls-2{fill:#6d001e;}</style>
    </defs>
    <title>dashboard</title>
    <g id="Layer_2" data-name="Layer 2">
        <g id="Layer_1-2" data-name="Layer 1">
            <path class="cls-1" d="M7.76,15.52H22.17v225a20.63,20.63,0,0,0,20.61,20.6H342.71a20.63,20.63,0,0,0,20.61-20.6v-225h12.92a7.76,7.76,0,0,0,0-15.52H7.76a7.76,7.76,0,0,0,0,15.52Zm29.93,0H347.8v225a5.08,5.08,0,0,1-5.09,5.09H42.78a5.08,5.08,0,0,1-5.09-5.09Z"/>
            <path class="cls-1" d="M134,367.23a7.72,7.72,0,0,0,0,11,7.74,7.74,0,0,0,11,0l43.8-43.79v38.31a7.76,7.76,0,1,0,15.51,0V334.41L247.82,378a7.76,7.76,0,0,0,11,0,7.7,7.7,0,0,0,0-11l-54.53-54.54V292.25h27a7.76,7.76,0,1,0,0-15.51H160.62a7.76,7.76,0,1,0,0,15.51h28.13v20.21Z"/>
            <path class="cls-1" d="M318.81,134.38,306,147.22a7.77,7.77,0,0,0,0,11,7.74,7.74,0,0,0,11,0l18.26-18.41a7.75,7.75,0,0,0,2.27-5.48,8.06,8.06,0,0,0-2.27-5.49l-18.42-18.26a7.76,7.76,0,0,0-11,11Z"/>
            <path class="cls-1" d="M70,158.11a7.84,7.84,0,0,0,5.48,2.28,8,8,0,0,0,5.49-2.28,7.72,7.72,0,0,0,0-11L68.16,134.3,81,121.52a7.76,7.76,0,0,0-11-11L51.63,128.81a7.76,7.76,0,0,0,0,11Z"/>
            <path class="cls-2" d="M102.33,213.51H281.75a7.73,7.73,0,0,0,7.76-7.76V55.47a7.72,7.72,0,0,0-7.76-7.75H102.33a7.72,7.72,0,0,0-7.76,7.75V205.83a7.71,7.71,0,0,0,7.76,7.68Zm7.75-150.28H274v75.3l-37.38-37.38a7.72,7.72,0,0,0-11,0l-57.43,57.44-17.79-17.71a7.76,7.76,0,0,0-11,0l-29.38,29.38Zm0,129L145,157.33l17.78,17.79a7.76,7.76,0,0,0,11,0l57.44-57.44L274,160.54v37.53H110.08Z"/>
            <path class="cls-2" d="M179.58,103a23.9,23.9,0,1,0-23.9,23.9,23.94,23.94,0,0,0,23.9-23.9Zm-32.28,0a8.39,8.39,0,1,1,8.38,8.39A8.39,8.39,0,0,1,147.3,103Z"/>
        </g>
    </g>
</svg>