<?xml version="1.0" encoding="utf-8" standalone="no"?>
<svg xmlns="http://www.w3.org/2000/svg" viewBox="0 0 321.18 384">
    <defs>
        <style>.cls-1{fill:#2c2f33;}.cls-2{fill:#6d001e;}</style>
    </defs>
    <title>delete-profile</title>
    <g id="Layer_2" data-name="Layer 2">
        <g id="Layer_1-2" data-name="Layer 1">
            <path class="cls-1" d="M307.46,265.32c-36.34-29.84-75.51-50.6-88.2-56.95V154.71a35.9,35.9,0,0,0,12.61-27.41V64.39A64.49,64.49,0,0,0,167.48,0H153.93a64.5,64.5,0,0,0-64.4,64.39v62.82a35.91,35.91,0,0,0,12.62,27.42v53.66c-12.62,6.35-51.78,27.11-88.21,57A38.1,38.1,0,0,0,0,294.78v43.08a7.76,7.76,0,1,0,15.51,0V294.78a22.58,22.58,0,0,1,8.23-17.55c38.38-31.49,80-52.48,87.89-56.4a10.4,10.4,0,0,0,5.87-9.48V150.72a7.77,7.77,0,0,0-3.45-6.43,20.67,20.67,0,0,1-9.16-17.15V64.39a49,49,0,0,1,48.88-48.88h13.55A49,49,0,0,1,216.2,64.39v62.82A20.65,20.65,0,0,1,207,144.37a7.58,7.58,0,0,0-3.45,6.43v60.63a10.47,10.47,0,0,0,6,9.48c8,3.91,49.58,24.91,87.89,56.4a22.61,22.61,0,0,1,8.22,17.55v43.08a7.76,7.76,0,1,0,15.51,0V294.86a37.11,37.11,0,0,0-13.71-29.54Z"/>
            <path class="cls-2" d="M204.61,294.07a7.72,7.72,0,0,0-11,0L160.82,327,128,294.15a7.76,7.76,0,1,0-11,11l32.83,32.82L117,370.76a7.72,7.72,0,0,0,0,11,7.76,7.76,0,0,0,11,0l32.82-32.82,32.82,32.82a7.76,7.76,0,0,0,11,0,7.72,7.72,0,0,0,0-11l-32.82-32.82,32.82-32.82a7.82,7.82,0,0,0,0-11.05Z"/>
        </g>
    </g>
</svg>