<?xml version="1.0" encoding="utf-8" standalone="no"?>
<svg xmlns="http://www.w3.org/2000/svg" viewBox="0 0 338.73 384">
    <defs>
        <style>.cls-1{fill:#6d001e;}.cls-2{fill:#2c2f33;}</style>
    </defs>
    <title>down</title>
    <g id="Layer_2" data-name="Layer 2">
        <g id="Layer_1-2" data-name="Layer 1">
            <path class="cls-1" d="M169.37,0a7.73,7.73,0,0,0-7.77,7.77V290.25l-58-58a7.77,7.77,0,1,0-11,11l71.24,71.23a7.77,7.77,0,0,0,11,0l71.23-71.23a7.77,7.77,0,1,0-11-11l-58,58V7.77A7.73,7.73,0,0,0,169.37,0Z"/>
            <path class="cls-2" d="M7.76,287.82A7.73,7.73,0,0,0,0,295.59v80.64A7.73,7.73,0,0,0,7.76,384H331a7.73,7.73,0,0,0,7.76-7.77V295.59a7.77,7.77,0,1,0-15.53,0v72.88H15.53V295.59a7.73,7.73,0,0,0-7.77-7.77Z"/>
        </g>
    </g>
</svg>