<?xml version="1.0" encoding="utf-8" standalone="no"?>
<svg xmlns="http://www.w3.org/2000/svg" viewBox="0 0 309.17 384">
    <defs>
        <style>.cls-1{fill:#2c2f33;}.cls-2{fill:#6d001e;}</style>
    </defs>
    <title>empathy</title>
    <g id="Layer_2" data-name="Layer 2">
        <g id="Layer_1-2" data-name="Layer 1">
            <path class="cls-1" d="M7.75,332.6a7.72,7.72,0,0,0,7.76-7.76V283.48a21.23,21.23,0,0,1,7.84-16.62c36.82-30.24,76.78-50.45,84.38-54.14a10.4,10.4,0,0,0,5.88-9.4V145.11a7.77,7.77,0,0,0-3.45-6.43,19.35,19.35,0,0,1-8.69-16.22V62.13a46.67,46.67,0,0,1,46.61-46.62h13a46.68,46.68,0,0,1,46.62,46.62v60.33a19.64,19.64,0,0,1-8.7,16.22,7.6,7.6,0,0,0-3.45,6.43v58.21a10.5,10.5,0,0,0,5.88,9.4c7.6,3.76,47.56,23.9,84.38,54.14a21.48,21.48,0,0,1,7.84,16.62v41.36a7.76,7.76,0,1,0,15.51,0V283.48a37,37,0,0,0-13.47-28.6c-34.79-28.6-72.24-48.5-84.62-54.69V149a34.87,34.87,0,0,0,12.14-26.49V62.13A62.22,62.22,0,0,0,161.09,0h-13A62.22,62.22,0,0,0,86,62.13v60.33A34.87,34.87,0,0,0,98.09,149v51.24c-12.3,6.19-49.83,26.09-84.61,54.69A37,37,0,0,0,0,283.48v41.36a7.77,7.77,0,0,0,7.75,7.76Z"/>
            <path class="cls-2" d="M221.18,304.55A38.78,38.78,0,0,0,155,277.13l-.47.47-.47-.47A38.76,38.76,0,0,0,99.27,332L149,381.65l.07.08a7.76,7.76,0,0,0,11,0L209.75,332a38.1,38.1,0,0,0,11.43-27.43ZM198.86,321l-44.27,44.27-44.35-44.34A23.24,23.24,0,1,1,143.07,288l6,6a7.7,7.7,0,0,0,11,0l6-6a23.23,23.23,0,0,1,39.64,16.45A22.83,22.83,0,0,1,198.86,321Z"/>
        </g>
    </g>
</svg>