<?xml version="1.0" encoding="utf-8" standalone="no"?>
<svg xmlns="http://www.w3.org/2000/svg" viewBox="0 0 384 216.18">
    <defs>
        <style>.cls-1{fill:#2c2f33;}.cls-2{fill:#6d001e;}</style>
    </defs>
    <title>executives</title>
    <g id="Layer_2" data-name="Layer 2">
        <g id="Layer_1-2" data-name="Layer 1">
            <path class="cls-1" d="M267,80V109.5a21.11,21.11,0,0,0,6,14.66v10a7.76,7.76,0,0,0,15.52,0V120.55a7.77,7.77,0,0,0-3.45-6.43,5.47,5.47,0,0,1-2.51-4.62V80A18.87,18.87,0,0,1,301.3,61.14h6.36A18.86,18.86,0,0,1,326.46,80V109.5a5.46,5.46,0,0,1-2.5,4.62,7.58,7.58,0,0,0-3.45,6.43V149a9.17,9.17,0,0,0,5.1,8.15,226.6,226.6,0,0,1,40.52,25.94,6.57,6.57,0,0,1,2.35,5.1v12.46h-54.4a7.76,7.76,0,1,0,0,15.52h62.16a7.73,7.73,0,0,0,7.76-7.76V188.2a21.9,21.9,0,0,0-8.07-17.09A247.52,247.52,0,0,0,336,145V124.08a21.11,21.11,0,0,0,6-14.66V79.87a34.37,34.37,0,0,0-34.33-34.33H301.3A34.49,34.49,0,0,0,267,80Z"/>
            <path class="cls-1" d="M7.76,216.18h63.1a7.76,7.76,0,1,0,0-15.52H15.52V188.2a6.69,6.69,0,0,1,2.35-5.1,219,219,0,0,1,40.52-25.94,9,9,0,0,0,5.1-8.15V120.55A7.77,7.77,0,0,0,60,114.12a5.47,5.47,0,0,1-2.51-4.62V80A18.87,18.87,0,0,1,76.34,61.14h6.35A18.87,18.87,0,0,1,101.51,80V109.5A5.47,5.47,0,0,1,99,114.12a7.58,7.58,0,0,0-3.45,6.43v14.27a7.76,7.76,0,0,0,15.52,0V124.16a21.11,21.11,0,0,0,6-14.66V80A34.37,34.37,0,0,0,82.69,45.62H76.34A34.37,34.37,0,0,0,42,80V109.5a21.11,21.11,0,0,0,6,14.66v20.93a238.69,238.69,0,0,0-39.9,26.1A22.15,22.15,0,0,0,0,188.28v20.14a7.73,7.73,0,0,0,7.76,7.76Z"/>
            <path class="cls-2" d="M238.6,80.34V42.17A42.18,42.18,0,0,0,196.43,0H188.2A42.18,42.18,0,0,0,146,42.17V80.34a25,25,0,0,0,7.68,18v29.4c-9.17,4.7-31.59,16.92-52.52,34.17a26.08,26.08,0,0,0-9.56,20.3v26.18a7.73,7.73,0,0,0,7.76,7.76H285.16a7.73,7.73,0,0,0,7.76-7.76V182.24a26.08,26.08,0,0,0-9.56-20.3c-20.93-17.17-43.35-29.47-52.52-34.17V98.37a24.63,24.63,0,0,0,7.76-18Zm35,93.59a10.68,10.68,0,0,1,3.92,8.31v18.42H107.23V182.24a10.68,10.68,0,0,1,3.92-8.31c23-19,48-31.59,52.83-33.94a9.57,9.57,0,0,0,5.33-8.46V94.69a7.77,7.77,0,0,0-3.45-6.43,9.43,9.43,0,0,1-4.23-7.84V42.25A26.67,26.67,0,0,1,188.28,15.6h8.23a26.68,26.68,0,0,1,26.65,26.65V80.42a9.36,9.36,0,0,1-4.23,7.84,7.58,7.58,0,0,0-3.45,6.43v36.84A9.47,9.47,0,0,0,220.8,140c4.71,2.35,29.71,15,52.76,33.94Z"/>
        </g>
    </g>
</svg>