<?xml version="1.0" encoding="utf-8" standalone="no"?>
<svg xmlns="http://www.w3.org/2000/svg" viewBox="0 0 384 340.9">
    <defs>
        <style>.cls-1{fill:#2c2f33;}.cls-2{fill:#6d001e;}</style>
    </defs>
    <title>experienced-professionals</title>
    <g id="Layer_2" data-name="Layer 2">
        <g id="Layer_1-2" data-name="Layer 1">
            <path class="cls-1" d="M133.62,214.49a32.29,32.29,0,0,0-11.76,25v34.72a7.76,7.76,0,0,0,15.52,0V239.49a16.67,16.67,0,0,1,6.11-13c30.8-25.31,64.26-42.16,70.61-45.3a10,10,0,0,0,5.64-9v-48.9a7.77,7.77,0,0,0-3.45-6.42,15.09,15.09,0,0,1-6.74-12.54V53.6a38,38,0,0,1,37.93-37.93h10.9A38,38,0,0,1,296.31,53.6v50.71a15.09,15.09,0,0,1-6.74,12.54,7.57,7.57,0,0,0-3.45,6.42v48.82a10,10,0,0,0,5.64,9c6.43,3.14,39.81,20,70.61,45.3a16.93,16.93,0,0,1,6.11,13v34.72a7.76,7.76,0,0,0,15.52,0V239.41a32.45,32.45,0,0,0-11.75-25c-28.69-23.59-59.56-40.12-70.61-45.76V127a30.71,30.71,0,0,0,10.18-22.81V53.44A53.51,53.51,0,0,0,258.38,0h-10.9A53.51,53.51,0,0,0,194,53.44v50.71A30.69,30.69,0,0,0,204.23,127v41.69c-11,5.64-41.85,22.25-70.61,45.84Z"/>
            <path class="cls-1" d="M112.61,49.53h-8.85a45,45,0,0,0-45,45v41.3a26.3,26.3,0,0,0,8.3,19.2v32.44c-9.64,4.94-34.17,18.26-57,37A27.58,27.58,0,0,0,0,245.92v28.29A7.72,7.72,0,0,0,7.76,282a7.72,7.72,0,0,0,7.76-7.75V245.92A12.34,12.34,0,0,1,20,236.43c25-20.53,52-34.17,57.29-36.75a9.66,9.66,0,0,0,5.41-8.62V151.25a7.8,7.8,0,0,0-3.45-6.43,10.82,10.82,0,0,1-4.86-9V94.51a29.53,29.53,0,0,1,29.47-29.46h8.85a29.53,29.53,0,0,1,29.47,29.46v41.3a10.84,10.84,0,0,1-4.86,9,7.58,7.58,0,0,0-3.45,6.43v32.68a7.76,7.76,0,1,0,15.52,0V155a26.31,26.31,0,0,0,8.31-19.2V94.51a45.1,45.1,0,0,0-45.07-45Z"/>
            <path class="cls-2" d="M269.74,178.36a7.73,7.73,0,0,0-7.76,7.76,9,9,0,0,1-9,9,8.49,8.49,0,0,1-5-1.57,5.17,5.17,0,0,0-1.1-.86A8.94,8.94,0,0,1,244,186a7.76,7.76,0,0,0-15.52,0,24.58,24.58,0,0,0,6.19,16.3L229.38,318a7.82,7.82,0,0,0,2.59,6.11l16.38,14.73a7.85,7.85,0,0,0,5.17,2,7.63,7.63,0,0,0,5.17-2l16.15-14.5a7.83,7.83,0,0,0,2.58-6.11l-5-117.08a24.29,24.29,0,0,0,5.25-15.05,8.1,8.1,0,0,0-7.92-7.84ZM253.44,322.8,245,315.2l4.7-104.63a20.62,20.62,0,0,0,3.13.24,26.31,26.31,0,0,0,4.23-.39l4.55,105Z"/>
        </g>
    </g>
</svg>