<?xml version="1.0" encoding="utf-8" standalone="no"?>
<svg xmlns="http://www.w3.org/2000/svg" viewBox="0 0 294.76 384">
    <defs>
        <style>.cls-1{fill:#2c2f33;}.cls-2{fill:#6d001e;}</style>
    </defs>
    <title>graduates</title>
    <g id="Layer_2" data-name="Layer 2">
        <g id="Layer_1-2" data-name="Layer 1">
            <path class="cls-1" d="M108.75,193.76V138.37a7.76,7.76,0,0,0-3.44-6.42,18,18,0,0,1-8.08-15V59.47a44,44,0,0,1,44-44h12.38a44,44,0,0,1,44,44V116.9a18.19,18.19,0,0,1-8.07,15,7.56,7.56,0,0,0-3.44,6.42v55.39a10.33,10.33,0,0,0,5.8,9.25c7.28,3.53,45.2,22.72,80.15,51.47A20.11,20.11,0,0,1,279.25,270v39.33a7.76,7.76,0,1,0,15.51,0V270a35.36,35.36,0,0,0-12.93-27.5c-32.91-27-68.32-45.92-80.31-51.95V142.21A33.52,33.52,0,0,0,213,116.82V59.47A59.49,59.49,0,0,0,153.57,0H141.19A59.49,59.49,0,0,0,81.72,59.47V116.9a33.64,33.64,0,0,0,11.52,25.39v48.34c-11.91,6-47.4,24.91-80.31,51.94A35.38,35.38,0,0,0,0,270.08v39.33a7.76,7.76,0,1,0,15.51,0V270.08a20.11,20.11,0,0,1,7.29-15.52c35-28.75,73-47.87,80.15-51.47a10.54,10.54,0,0,0,5.8-9.33Z"/>
            <path class="cls-2" d="M166.34,201.91a7.73,7.73,0,0,0-7.76,7.76,11.19,11.19,0,0,1-3.6,8.23,5.68,5.68,0,0,0-1.33,1.09,11.62,11.62,0,0,1-6.27,2,11.28,11.28,0,0,1-11.28-11.28,7.76,7.76,0,1,0-15.52,0,26.35,26.35,0,0,0,6,16.76l-5.72,133a8,8,0,0,0,2.58,6.11L141.66,382a7.87,7.87,0,0,0,5.17,2,7.57,7.57,0,0,0,5.17-2l18.49-16.69a7.8,7.8,0,0,0,2.59-6.11l-6-131.39a26.65,26.65,0,0,0,7.05-18,7.92,7.92,0,0,0-7.84-7.84ZM146.67,365.74l-10.34-9.32,5.17-120.58a27.91,27.91,0,0,0,5.72.62,28.31,28.31,0,0,0,4.55-.39l5.4,120.11Z"/>
        </g>
    </g>
</svg>