<?xml version="1.0" encoding="utf-8" standalone="no"?>
<svg xmlns="http://www.w3.org/2000/svg" viewBox="0 0 16 12.57">
    <defs>
        <style>.cls-1{fill:#bcbec0;}</style>
    </defs>
    <title>ico-mail</title>
    <g id="Layer_2" data-name="Layer 2">
        <g id="Layer_1-2" data-name="Layer 1">
            <path class="cls-1" d="M16,1.43a2.38,2.38,0,0,1-.44,1.35,4.22,4.22,0,0,1-1.09,1.1l-4.18,2.9-.37.27-.49.34L9,7.68a2.31,2.31,0,0,1-.51.24A1.59,1.59,0,0,1,8,8H8a1.59,1.59,0,0,1-.45-.08A2.31,2.31,0,0,1,7,7.68l-.46-.29-.49-.34-.37-.27L3.37,5.15,1.54,3.88a4.48,4.48,0,0,1-1-1A2,2,0,0,1,0,1.63,1.8,1.8,0,0,1,.37.46,1.28,1.28,0,0,1,1.43,0H14.57a1.4,1.4,0,0,1,1,.42A1.38,1.38,0,0,1,16,1.43Zm-.89,3.4A4.79,4.79,0,0,0,16,4.05v7.09a1.37,1.37,0,0,1-.42,1,1.38,1.38,0,0,1-1,.42H1.43a1.38,1.38,0,0,1-1-.42,1.37,1.37,0,0,1-.42-1V4.05a4.51,4.51,0,0,0,.9.78Q4.14,7,5.34,7.91c.34.25.61.45.83.59A4.66,4.66,0,0,0,7,8.92a2.5,2.5,0,0,0,1,.22H8a2.5,2.5,0,0,0,1-.22,4.66,4.66,0,0,0,.84-.42c.22-.14.49-.34.83-.59q1.52-1.1,4.45-3.08Z"/>
        </g>
    </g>
</svg>