<?xml version="1.0" encoding="utf-8" standalone="no"?>
<svg xmlns="http://www.w3.org/2000/svg" viewBox="0 0 14 14">
    <defs>
        <style>.cls-1{fill:#bcbec0;}</style>
    </defs>
    <title>ico-linkedin</title>
    <g id="Layer_2" data-name="Layer 2">
        <g id="Layer_1-2" data-name="Layer 1">
            <path class="cls-1" d="M1.69,3.38A1.63,1.63,0,0,1,.5,2.88,1.65,1.65,0,0,1,0,1.69,1.63,1.63,0,0,1,.5.5,1.63,1.63,0,0,1,1.69,0,1.65,1.65,0,0,1,2.88.5a1.63,1.63,0,0,1,.5,1.19,1.65,1.65,0,0,1-.5,1.19A1.65,1.65,0,0,1,1.69,3.38ZM3.13,14H.22V4.66H3.13ZM14,14H11.09V9.44a5.31,5.31,0,0,0-.18-1.63A1.32,1.32,0,0,0,9.56,7a1.46,1.46,0,0,0-1.4.75,3.46,3.46,0,0,0-.32,1.66V14H5V4.66H7.75V5.94h0a2.47,2.47,0,0,1,1-1,3,3,0,0,1,1.75-.5,3.1,3.1,0,0,1,2.85,1.28A6.41,6.41,0,0,1,14,8.88Z"/>
        </g>
    </g>
</svg>