<?xml version="1.0" encoding="utf-8" standalone="no"?>
<svg xmlns="http://www.w3.org/2000/svg" 
    xmlns:xlink="http://www.w3.org/1999/xlink" viewBox="0 0 384 383.9">
    <defs>
        <style>.cls-1{fill:none;}.cls-2{clip-path:url(#clip-path);}.cls-3{fill:#2c2f33;}.cls-4{fill:#6d001e;}</style>
        <clipPath id="clip-path" transform="translate(0 -0.05)">
            <rect class="cls-1" width="384" height="384"/>
        </clipPath>
    </defs>
    <title>investment-banking</title>
    <g id="Layer_2" data-name="Layer 2">
        <g id="Layer_1-2" data-name="Layer 1">
            <g class="cls-2">
                <path class="cls-3" d="M65.82,68.6C133.83-1,245.71-2.3,315.28,65.7l-19.82.23a7.76,7.76,0,0,0,.07,15.52h.09L334.16,81a7.78,7.78,0,0,0,7.68-7.84l-.47-38.55a7.76,7.76,0,0,0-15.51.16l.23,19.82c-75.68-74-197.43-72.47-271.39,3.22A192,192,0,0,0,11.29,257a7.9,7.9,0,0,0,7.29,5.17,7.57,7.57,0,0,0,2.58-.47,7.83,7.83,0,0,0,4.7-9.95c-22.95-64.17-7.68-134.37,40-183.1Z" transform="translate(0 -0.05)"/>
                <path class="cls-3" d="M57.91,329.34A190.75,190.75,0,0,0,192,384h2.27a192.07,192.07,0,0,0,185.69-152.7,192.41,192.41,0,0,0-7.21-104.36,7.78,7.78,0,1,0-14.65,5.25c23,64.16,7.76,134.37-39.88,183.1a176.4,176.4,0,0,1-249.46,2.9l19.82-.24a7.76,7.76,0,0,0-.08-15.51h-.08l-38.54.47a7.79,7.79,0,0,0-5.49,2.35,8,8,0,0,0-2.19,5.49l.47,38.54a7.82,7.82,0,0,0,7.76,7.68h.07a7.78,7.78,0,0,0,7.68-7.83Z" transform="translate(0 -0.05)"/>
            </g>
            <path class="cls-4" d="M299.3,147.42A115.88,115.88,0,0,0,199.09,76c-.78-.08-1.65-.08-2.51-.15h-.31c-.47,0-.94-.09-1.41-.09h-.24c-.86,0-1.72-.07-2.66-.07a116.15,116.15,0,0,0,.16,232.3,13.55,13.55,0,0,0,1.8-.08c.31,0,.7.08,1,.08a.58.58,0,0,0,.39-.08c.71,0,1.33-.07,2-.07h.78a1.71,1.71,0,0,0,.63-.08A116.07,116.07,0,0,0,299.37,147.5c-.07,0-.07,0-.07-.08ZM151.53,99.86c-8.62,11.2-15.51,25.85-20.05,42.85H104.29a100.16,100.16,0,0,1,47.24-42.85ZM97.24,158.31H128.1A201.08,201.08,0,0,0,125.36,192a187.11,187.11,0,0,0,3,33.69H97.24a99.45,99.45,0,0,1,0-67.38Zm7.05,82.81h27.65c4.86,17.32,12.23,32.28,21.24,43.72a100.12,100.12,0,0,1-48.89-43.72Zm82.81,50.3c-16.21-4.78-30.63-24.21-38.86-50.3H187.1Zm0-65.81H144.25a167.27,167.27,0,0,1-3.37-33.69,192.85,192.85,0,0,1,3-33.69H187.1Zm0-82.82H147.54c7.91-26.95,22.33-46,39.56-50.37Zm92.69-.08H258.24c-4-15-9.71-28-16.92-38.54a100.46,100.46,0,0,1,38.47,38.54ZM202.62,92.34c17.23,4.46,31.57,23.5,39.56,50.37H202.62Zm0,66h43.24a183.79,183.79,0,0,1,3,33.69,167.27,167.27,0,0,1-3.37,33.69H202.62Zm0,133.11v-50.3h38.86c-8.23,26.09-22.64,45.52-38.86,50.3Zm37.13-10.89c7.6-10.73,13.79-24.21,18.1-39.41h21.94a99.4,99.4,0,0,1-40,39.41Zm47.09-54.92H261.38a186.47,186.47,0,0,0,3-33.69,201.08,201.08,0,0,0-2.74-33.69h25.23a99.45,99.45,0,0,1,0,67.38Z" transform="translate(0 -0.05)"/>
        </g>
    </g>
</svg>