<?xml version="1.0" encoding="utf-8" standalone="no"?>
<svg xmlns="http://www.w3.org/2000/svg" viewBox="0 0 384 318.67">
    <defs>
        <style>.cls-1{fill:#2c2f33;}.cls-2{fill:#6d001e;}</style>
    </defs>
    <title>job-application</title>
    <g id="Layer_2" data-name="Layer 2">
        <g id="Layer_1-2" data-name="Layer 1">
            <path class="cls-1" d="M157.37,257.1H67.21a7.76,7.76,0,0,0,0,15.51h83.51a17.51,17.51,0,0,0,16.45,11.52h49.51a17.5,17.5,0,0,0,16.44-11.52h83.59a7.76,7.76,0,0,0,0-15.51H226.55a7.73,7.73,0,0,0-7.76,7.76v1.72a2.07,2.07,0,0,1-2,2h-49.5a2.07,2.07,0,0,1-2-2v-1.72a7.85,7.85,0,0,0-7.84-7.76Z"/>
            <path class="cls-1" d="M376.25,257.1H355.88V78.41a7.76,7.76,0,0,0-15.51,0V264.86a7.79,7.79,0,0,0,7.83,7.75h20.29v10.65a19.93,19.93,0,0,1-19.9,19.9H35.41a19.93,19.93,0,0,1-19.9-19.9V272.61H35.8a7.72,7.72,0,0,0,7.75-7.75V78.41a7.76,7.76,0,0,0-15.51,0V257.1H7.75A7.72,7.72,0,0,0,0,264.86v18.4a35.47,35.47,0,0,0,35.41,35.41H348.59A35.47,35.47,0,0,0,384,283.26v-18.4a7.73,7.73,0,0,0-7.75-7.76Z"/>
            <path class="cls-2" d="M222.16,54.52,177.43,99,161.84,83.35a7.76,7.76,0,0,0-11,11l21,21.15a7.81,7.81,0,0,0,5.48,2.27,8,8,0,0,0,5.49-2.27l50.28-50a7.7,7.7,0,0,0,0-11,7.78,7.78,0,0,0-11,0Z"/>
            <path class="cls-1" d="M287.73,0H96.27A28.48,28.48,0,0,0,67.84,28.44V141.55A28.48,28.48,0,0,0,96.27,170h8.07v34.08a11.47,11.47,0,0,0,11.52,11.43,11.27,11.27,0,0,0,8.62-4L160.35,170H287.73a28.49,28.49,0,0,0,28.43-28.44V28.44A28.49,28.49,0,0,0,287.73,0Zm12.92,141.55a12.94,12.94,0,0,1-12.92,12.93h-131a7.71,7.71,0,0,0-5.88,2.66l-31.1,36V162.23a7.72,7.72,0,0,0-7.75-7.75H96.19a12.94,12.94,0,0,1-12.92-12.93V28.44A12.94,12.94,0,0,1,96.19,15.51H287.65a12.94,12.94,0,0,1,12.92,12.93V141.55Z"/>
        </g>
    </g>
</svg>