<?xml version="1.0" encoding="utf-8" standalone="no"?>
<svg xmlns="http://www.w3.org/2000/svg" 
    xmlns:xlink="http://www.w3.org/1999/xlink" viewBox="0 0 367.43 384">
    <defs>
        <style>.cls-1{fill:none;}.cls-2{clip-path:url(#clip-path);}.cls-3{fill:#2c2f33;}.cls-4{fill:#6d001e;}</style>
        <clipPath id="clip-path" transform="translate(-0.28)">
            <rect class="cls-1" width="368" height="384"/>
        </clipPath>
    </defs>
    <title>job-alerts</title>
    <g id="Layer_2" data-name="Layer 2">
        <g id="Layer_1-2" data-name="Layer 1">
            <g class="cls-2">
                <path class="cls-3" d="M365.48,147.83a19.74,19.74,0,0,0-8.64-26.56L314.39,99.73a4,4,0,0,1-2.2-3.06l-7.38-47A19.63,19.63,0,0,0,285.32,33a20.88,20.88,0,0,0-3.15.24l-47,7.46a4.08,4.08,0,0,1-3.62-1.18L198,5.82a19.72,19.72,0,0,0-28,0L136.38,39.45a4.25,4.25,0,0,1-3,1.26,1.51,1.51,0,0,1-.63-.08l-47-7.47a22.11,22.11,0,0,0-3.14-.23A19.62,19.62,0,0,0,63.14,49.59l-7.39,47a4.26,4.26,0,0,1-2.2,3.07L11.11,121.19a19.46,19.46,0,0,0-9.83,11.47,19.78,19.78,0,0,0,1.18,15.09l21.62,42.36a4,4,0,0,1,0,3.78L2.46,236.25a19.73,19.73,0,0,0,8.65,26.56l42.44,21.53a4.06,4.06,0,0,1,2.2,3.07l7.39,47a19.62,19.62,0,0,0,19.49,16.66,22.11,22.11,0,0,0,3.14-.23l47-7.47a4.1,4.1,0,0,1,3.61,1.18L170,378.18a19.72,19.72,0,0,0,28,0l33.64-33.63a4.1,4.1,0,0,1,3.61-1.18l47,7.47a22.11,22.11,0,0,0,3.14.23,19.64,19.64,0,0,0,19.5-16.66l7.38-47a4.26,4.26,0,0,1,2.2-3.07l42.44-21.53a19.46,19.46,0,0,0,9.83-11.47,19.74,19.74,0,0,0-1.18-15.09L344,193.89a4,4,0,0,1,0-3.78ZM330,201l21.61,42.36a4.14,4.14,0,0,1,.23,3.22,3.85,3.85,0,0,1-2.12,2.44l-42.44,21.53a19.64,19.64,0,0,0-10.53,14.54l-7.39,47a4.19,4.19,0,0,1-4.79,3.46l-47-7.47a20,20,0,0,0-3.14-.23,19.61,19.61,0,0,0-14,5.81L187,367.34a4.28,4.28,0,0,1-5.9,0L147.46,333.7a20,20,0,0,0-14-5.81,20.77,20.77,0,0,0-3.15.23l-47,7.47a4.19,4.19,0,0,1-4.8-3.46l-7.39-47a19.79,19.79,0,0,0-10.53-14.54L18.18,249.06a4.08,4.08,0,0,1-2.12-2.44,4.53,4.53,0,0,1,.24-3.22L37.91,201a19.65,19.65,0,0,0,0-18L16.3,140.68a4.14,4.14,0,0,1-.24-3.22A3.85,3.85,0,0,1,18.18,135l42.44-21.53A19.59,19.59,0,0,0,71.15,99l7.39-47a4.19,4.19,0,0,1,4.8-3.46l47,7.47a21.32,21.32,0,0,0,3.15.23,19.61,19.61,0,0,0,14-5.81L181,16.82a4.28,4.28,0,0,1,5.9,0l33.63,33.64a19.52,19.52,0,0,0,14,5.81,22.11,22.11,0,0,0,3.14-.23l47-7.47A4.24,4.24,0,0,1,289.48,52l7.39,47a19.83,19.83,0,0,0,10.53,14.54l42.44,21.53a4.06,4.06,0,0,1,2.12,2.44,4.18,4.18,0,0,1-.23,3.22l-21.62,42.36A19.51,19.51,0,0,0,330,201Z" transform="translate(-0.28)"/>
            </g>
            <path class="cls-4" d="M245.47,145.16H210.81v-24c0-12.73-3.85-22-11.47-27.59-11.72-8.64-27-4.16-28.77-3.61a7.76,7.76,0,0,0-5.42,7.39V128c0,21.61-25.78,29.23-26.8,29.55a8.44,8.44,0,0,0-1.57.63,15.57,15.57,0,0,0-9.2-3.07H105.34A15.33,15.33,0,0,0,90,170.46v76.79a15.33,15.33,0,0,0,15.32,15.32h22.24a15.61,15.61,0,0,0,10-3.69,27.82,27.82,0,0,0,17.76,6.45h75.3c18.23,0,30.41-10.06,32.53-26.88l10.14-64.29a5.81,5.81,0,0,0,.08-1.18,27.89,27.89,0,0,0-27.9-27.82Zm-118,102H105.58V170.78h21.85Zm120.4-10.85v.24c-.48,3.62-1.65,13.36-17.13,13.36H155.4A12.45,12.45,0,0,1,143,237.5v-65c4.41-1.34,37.73-12.42,37.73-44.41V103.9c3.14-.16,6.84.23,9.43,2.2,3.38,2.51,5,7.54,5,15v31.83a7.75,7.75,0,0,0,7.78,7.78h42.44a12.31,12.31,0,0,1,12.34,11.87Z" transform="translate(-0.28)"/>
        </g>
    </g>
</svg>