<?xml version="1.0" encoding="utf-8" standalone="no"?>
<svg xmlns="http://www.w3.org/2000/svg" viewBox="0 0 10.29 10.29">
    <defs>
        <style>.cls-1{fill:#404040;}</style>
    </defs>
    <title>linkedin</title>
    <g id="Layer_2" data-name="Layer 2">
        <g id="Layer_1-2" data-name="Layer 1">
            <path class="cls-1" d="M10.29,1.93V8.36a1.95,1.95,0,0,1-1.93,1.93H1.93A1.84,1.84,0,0,1,.57,9.72,1.85,1.85,0,0,1,0,8.36V1.93A1.84,1.84,0,0,1,.57.57,1.84,1.84,0,0,1,1.93,0H8.36A1.85,1.85,0,0,1,9.72.57,1.84,1.84,0,0,1,10.29,1.93Zm-7.06.6A.75.75,0,0,0,3,2a.81.81,0,0,0-.62-.23A.85.85,0,0,0,1.74,2a.72.72,0,0,0-.25.57.75.75,0,0,0,.24.57.84.84,0,0,0,.62.23h0A.85.85,0,0,0,3,3.1.75.75,0,0,0,3.23,2.53ZM1.59,8.61H3.13V4H1.59Zm5.56,0H8.7V6a2.2,2.2,0,0,0-.49-1.56,1.66,1.66,0,0,0-1.29-.53,1.55,1.55,0,0,0-1.4.78h0V4H4q0,.45,0,4.65H5.53V6a1.09,1.09,0,0,1,0-.37,1.08,1.08,0,0,1,.3-.4.75.75,0,0,1,.5-.16c.51,0,.77.35.77,1Z"/>
        </g>
    </g>
</svg>