<?xml version="1.0" encoding="utf-8" standalone="no"?>
<svg xmlns="http://www.w3.org/2000/svg" viewBox="0 0 310.39 384">
    <defs>
        <style>.cls-1{fill:#2c2f33;}</style>
    </defs>
    <title>location</title>
    <g id="Layer_2" data-name="Layer 2">
        <g id="Layer_1-2" data-name="Layer 1">
            <path class="cls-1" d="M155.08,76.52a80.33,80.33,0,1,0,80.29,80.36,80.38,80.38,0,0,0-80.29-80.36Zm0,141.41a61,61,0,1,1,61-61.05,61.1,61.1,0,0,1-61,61.05Z"/>
            <path class="cls-1" d="M155.08,0c-1.81,0-3.69,0-5.5.08C72.12,2.75,8.09,62.93.71,140a156.92,156.92,0,0,0,2,44.23,50.61,50.61,0,0,0,1.1,5.19,148.58,148.58,0,0,0,10.37,30.48c16,37.79,50.91,96,126.79,159a22.35,22.35,0,0,0,28.45,0C245.26,316,280.23,257.68,296.09,220.2a152.27,152.27,0,0,0,10.45-30.72c.47-1.88.79-3.45,1-4.94a153.68,153.68,0,0,0,2.83-29.46C310.23,69.61,240.63,0,155.08,0ZM288.47,181.24c0,.16-.23,1.49-.78,3.92a141.77,141.77,0,0,1-9.27,27.27c-15.17,35.82-48.48,91.2-121.3,151.62a3.15,3.15,0,0,1-2,.7,3.34,3.34,0,0,1-2-.7C80.37,303.55,47,248.17,31.74,212.11a135.14,135.14,0,0,1-9.19-27c-.47-2.05-.71-3.3-.79-3.69,0-.16-.08-.32-.08-.48a138.4,138.4,0,0,1-1.8-39C26.4,74.39,82.41,21.68,150.28,19.32,227.35,16.66,291,78.56,291,155.16a141,141,0,0,1-2.52,26.08Z"/>
        </g>
    </g>
</svg>