<?xml version="1.0" encoding="utf-8" standalone="no"?>
<svg xmlns="http://www.w3.org/2000/svg" 
    xmlns:xlink="http://www.w3.org/1999/xlink" viewBox="0 0 384 383.95">
    <defs>
        <style>.cls-1{fill:none;}.cls-2{clip-path:url(#clip-path);}.cls-3{fill:#2c2f33;}.cls-4{fill:#6d001e;}</style>
        <clipPath id="clip-path" transform="translate(0 -0.02)">
            <rect class="cls-1" width="384" height="384"/>
        </clipPath>
    </defs>
    <title>log-out</title>
    <g id="Layer_2" data-name="Layer 2">
        <g id="Layer_1-2" data-name="Layer 1">
            <g class="cls-2">
                <path class="cls-3" d="M384,192C384,86.15,297.88,0,192,0a7.73,7.73,0,0,0-7.76,7.76v71h-3.6A65.28,65.28,0,0,0,115.45,144v96.06a65.28,65.28,0,0,0,65.22,65.22H203.3a65.28,65.28,0,0,0,65.22-65.22V143.93A65.28,65.28,0,0,0,203.3,78.71h-3.6V15.61C293.49,19.68,368.5,97.27,368.5,192c0,62.32-31.87,118.77-85.18,151.11C228.2,376.46,160.94,377,98.85,344.59A140.54,140.54,0,0,1,39.35,285C-2.38,204.92,11.4,116.68,74.51,60.39A7.77,7.77,0,0,0,64.17,48.8,193,193,0,0,0,3.34,156c-8.46,44.71-.79,91.84,22.23,136.08a154.42,154.42,0,0,0,66.08,66.15C124.53,375.44,158.83,384,192.34,384A192,192,0,0,0,384,192ZM203.38,94.21a49.78,49.78,0,0,1,49.71,49.72V240a49.79,49.79,0,0,1-49.71,49.72H180.75A49.79,49.79,0,0,1,131,240V143.93a49.78,49.78,0,0,1,49.71-49.72Z" transform="translate(0 -0.02)"/>
            </g>
            <path class="cls-4" d="M192,172.43a7.72,7.72,0,0,0,7.75-7.75V126.31a7.76,7.76,0,0,0-15.51,0v38.37a7.78,7.78,0,0,0,7.76,7.75Z" transform="translate(0 -0.02)"/>
        </g>
    </g>
</svg>