<?xml version="1.0" encoding="utf-8" standalone="no"?>
<svg xmlns="http://www.w3.org/2000/svg" 
    xmlns:xlink="http://www.w3.org/1999/xlink" viewBox="0 0 384 253.06">
    <defs>
        <style>.cls-1{fill:none;}.cls-2{clip-path:url(#clip-path);}.cls-3{fill:#64001e;}.cls-4{fill:#2c2f33;}</style>
        <clipPath id="clip-path" transform="translate(0 -0.47)">
            <rect class="cls-1" width="384" height="254"/>
        </clipPath>
    </defs>
    <title>meet</title>
    <g id="Layer_2" data-name="Layer 2">
        <g id="Layer_1-2" data-name="Layer 1">
            <g class="cls-2">
                <path class="cls-3" d="M.77,131.57a7.65,7.65,0,0,0,4.47,3.91l49.07,16.86a7.08,7.08,0,0,0,2.51.39,7.83,7.83,0,0,0,7.37-5.25L102.67,35.15l2,.71a39.76,39.76,0,0,0,30.57-1.73L140,31.78a24.09,24.09,0,0,1,18.34-1.1l89.52,30.89C246.9,65,245.09,69,242,71.21c-3.61,2.51-9.17,2.51-16.46,0L185.37,57.49a7.76,7.76,0,0,0-6.2.55,7.94,7.94,0,0,0-3.84,4.86c-.08.24-5.72,20.93-23.12,30.26-11,5.87-24.69,6-40.76.55a7.78,7.78,0,1,0-5,14.73,82.79,82.79,0,0,0,26.66,4.86,55.69,55.69,0,0,0,26.57-6.5c15.67-8.47,24-23,27.82-32.06L220.4,86c12.23,4.16,22.42,3.53,30.34-2,12.46-8.62,13.32-25.47,13.4-27.35a7.93,7.93,0,0,0-5.25-7.6l-95.63-33A39.67,39.67,0,0,0,133,18l-4.78,2.35a24.32,24.32,0,0,1-18.58,1.1l-7.92-2.83a5.35,5.35,0,0,0-1.49-.7L51.41.9a7.77,7.77,0,0,0-9.88,4.86L.38,125.69a8.07,8.07,0,0,0,.39,5.88Zm53-113.5L88.09,29.82,52,135.09,17.7,123.34Z" transform="translate(0 -0.47)"/>
                <path class="cls-4" d="M81.59,202.66a22.7,22.7,0,0,0,19.67,12.69,23.21,23.21,0,0,0,2.28,10,22.28,22.28,0,0,0,13.09,11.52,21.83,21.83,0,0,0,7.36,1.26,22.14,22.14,0,0,0,10-2.36l4.07-2a23.6,23.6,0,0,0,2.12,7.05,22.33,22.33,0,0,0,13.09,11.52,22.22,22.22,0,0,0,17.32-1.09l89.12-43.66a229.45,229.45,0,0,0,54.56-37.23L334.14,152l45.54-22.26a7.72,7.72,0,0,0,3.53-10.35L327.71,5.52a7.61,7.61,0,0,0-4.47-3.92,7.53,7.53,0,0,0-5.95.4L270.73,24.81a7.71,7.71,0,0,0-3.53,10.34l53.14,108.64-16.46,15.13A216.34,216.34,0,0,1,253,193.64L163.89,237.3a7.22,7.22,0,0,1-5.57.32,7.38,7.38,0,0,1-4.15-3.69,7.19,7.19,0,0,1-.31-5.56,7.38,7.38,0,0,1,3.68-4.16l49.85-24.37A7.73,7.73,0,1,0,200.57,186l-49.85,24.38-23.51,11.52a7.26,7.26,0,0,1-5.57.32,7.46,7.46,0,0,1-4.16-3.69,7.28,7.28,0,0,1-.31-5.56,7.4,7.4,0,0,1,3.69-4.16l71.48-35a7.73,7.73,0,1,0-6.82-13.87l-80.34,39.27a7.36,7.36,0,0,1-9.72-3.29,7.21,7.21,0,0,1-.31-5.57,7.36,7.36,0,0,1,3.68-4.15l31.67-15.52,41.15-20.15a7.73,7.73,0,1,0-6.82-13.87l-64,31.35a7.26,7.26,0,1,1-6.43-13l34-16.62a7.73,7.73,0,1,0-6.82-13.87l-34,16.62a22.78,22.78,0,0,0-4,38.41,22.38,22.38,0,0,0-2,23.12ZM284.52,35.31l32.61-16L366,119.26l-32.61,16Z" transform="translate(0 -0.47)"/>
            </g>
        </g>
    </g>
</svg>