<?xml version="1.0" encoding="utf-8" standalone="no"?>
<svg xmlns="http://www.w3.org/2000/svg" viewBox="0 0 320.21 384">
    <defs>
        <style>.cls-1{fill:#2c2f33;}.cls-2{fill:#6d001e;}</style>
    </defs>
    <title>my-profile</title>
    <g id="Layer_2" data-name="Layer 2">
        <g id="Layer_1-2" data-name="Layer 1">
            <path class="cls-1" d="M117.32,210.81V150.39a7.8,7.8,0,0,0-3.45-6.43,20.54,20.54,0,0,1-9.17-17.08V64.18a48.71,48.71,0,0,1,48.67-48.66h13.47a48.71,48.71,0,0,1,48.67,48.66v62.7A20.54,20.54,0,0,1,206.34,144a7.6,7.6,0,0,0-3.45,6.43v60.42a10.54,10.54,0,0,0,5.88,9.48c7.92,3.84,49.45,24.84,87.69,56.27A22.46,22.46,0,0,1,304.69,294V337a7.76,7.76,0,0,0,15.52,0V294a38.22,38.22,0,0,0-13.87-29.47c-36.29-29.78-75.31-50.47-87.93-56.82V154.23A35.9,35.9,0,0,0,231,126.88V64.18A64.27,64.27,0,0,0,166.84,0H153.37A64.27,64.27,0,0,0,89.18,64.18v62.7a35.9,35.9,0,0,0,12.62,27.35v53.52c-12.62,6.35-51.64,27-87.93,56.82A37.74,37.74,0,0,0,0,294V337a7.76,7.76,0,0,0,15.52,0V294a22.46,22.46,0,0,1,8.23-17.48c38.24-31.43,79.77-52.35,87.69-56.27a10.54,10.54,0,0,0,5.88-9.48Z"/>
            <path class="cls-2" d="M205.32,299.52l-65.75,65.75-24.68-24.68a7.76,7.76,0,1,0-11,11l30.17,30.17a7.76,7.76,0,0,0,11,0l71.23-71.24a7.7,7.7,0,0,0,0-11,7.85,7.85,0,0,0-11,0Z"/>
        </g>
    </g>
</svg>