<?xml version="1.0" encoding="utf-8" standalone="no"?>
<svg xmlns="http://www.w3.org/2000/svg" 
    xmlns:xlink="http://www.w3.org/1999/xlink" viewBox="0 0 384 286.85">
    <defs>
        <style>.cls-1{fill:none;}.cls-2{clip-path:url(#clip-path);}.cls-3{fill:#2c2f33;}.cls-4{fill:#64001e;}</style>
        <clipPath id="clip-path" transform="translate(0 -0.57)">
            <rect class="cls-1" width="384" height="288"/>
        </clipPath>
    </defs>
    <title>negotiate-offers</title>
    <g id="Layer_2" data-name="Layer 2">
        <g id="Layer_1-2" data-name="Layer 1">
            <g class="cls-2">
                <path class="cls-3" d="M37.07,8.36v195L.82,276.18a7.76,7.76,0,0,0,6.92,11.25H376.21a7.75,7.75,0,0,0,7.79-7.79,7.39,7.39,0,0,0-1.18-4.09L347.2,203.37V8.36A7.75,7.75,0,0,0,339.41.57H44.86a7.75,7.75,0,0,0-7.79,7.79ZM145.74,269l4.09-8.18h84.45l4,8.18ZM52.64,16.14H331.79V197.39H52.64ZM334.7,213l29,58.9H257.16l-11-22.34a7.79,7.79,0,0,0-7-4.32H145a7.79,7.79,0,0,0-7,4.32L127,271.86H20.4L49.73,213Z" transform="translate(0 -0.57)"/>
            </g>
            <path class="cls-4" d="M201,98.86H183.17a11.8,11.8,0,0,1,0-23.59H214.7a7.78,7.78,0,1,0,0-15.56H199.84V48.77a7.79,7.79,0,0,0-15.57,0V59.71h-1.18a27.36,27.36,0,0,0,0,54.72h17.85a11.8,11.8,0,1,1,0,23.59H168.78a7.79,7.79,0,0,0,0,15.57H184.2v11.17a7.78,7.78,0,0,0,15.56,0V153.59h1.18A27.37,27.37,0,0,0,201,98.86Z" transform="translate(0 -0.57)"/>
        </g>
    </g>
</svg>