<?xml version="1.0" encoding="UTF-8"?>
<svg width="12px" height="12px" viewBox="0 0 12 12" version="1.1" xmlns="http://www.w3.org/2000/svg" xmlns:xlink="http://www.w3.org/1999/xlink">
    <!-- Generator: Sketch 54.1 (76490) - https://sketchapp.com -->
    <title>Fill 3</title>
    <desc>Created with Sketch.</desc>
    <g id="Main-pages" stroke="none" stroke-width="1" fill="none" fill-rule="evenodd">
        <g id="Homepage" transform="translate(-1841.000000, -10.000000)" fill="#6F0A1C">
            <path d="M1852.70176,10.2980465 C1852.30397,9.90065116 1851.67168,9.90065116 1851.27402,10.2980465 L1846.99993,14.5794807 L1842.7265,10.3081961 C1842.32832,9.91080074 1841.69603,9.91080074 1841.29824,10.3081961 C1840.90059,10.7057216 1840.90059,11.3379888 1841.29824,11.7355143 L1845.57233,16.0062784 L1841.29824,20.2774329 C1840.90059,20.6748283 1840.90059,21.3067051 1841.29824,21.7042306 C1841.49212,21.8978535 1841.7571,22 1842.01243,22 C1842.26725,22 1842.53275,21.8978535 1842.7265,21.7042306 L1846.99993,17.4334665 L1851.27402,21.7042306 C1851.46777,21.8978535 1851.73275,22 1851.98757,22 C1852.2429,22 1852.50788,21.8978535 1852.70176,21.7042306 C1853.09941,21.3067051 1853.09941,20.6748283 1852.70176,20.2774329 L1848.42819,16.0062784 L1852.70176,11.7355143 C1853.09941,11.3379888 1853.09941,10.695572 1852.70176,10.2980465 Z" id="Fill-3"></path>
        </g>
    </g>
</svg>