<?xml version="1.0" encoding="utf-8" standalone="no"?>
<svg xmlns="http://www.w3.org/2000/svg" 
    xmlns:xlink="http://www.w3.org/1999/xlink" viewBox="0 0 384 380.47">
    <defs>
        <style>.cls-1{fill:none;}.cls-2{clip-path:url(#clip-path);}.cls-3{fill:#2c2f33;}.cls-4{fill:#64001e;}</style>
        <clipPath id="clip-path" transform="translate(0 -0.76)">
            <rect class="cls-1" width="384" height="382"/>
        </clipPath>
    </defs>
    <title>ongoing-dialogue</title>
    <g id="Layer_2" data-name="Layer 2">
        <g id="Layer_1-2" data-name="Layer 1">
            <g class="cls-2">
                <path class="cls-3" d="M196,379.71l19.19-7.92a20.1,20.1,0,0,0,10.89-26.25l-4.93-11.91A122.14,122.14,0,0,0,246.4,308.4l11.91,4.94a20.09,20.09,0,0,0,26.25-10.9l8-19.19A20.08,20.08,0,0,0,281.66,257L264,249.71a7.75,7.75,0,1,0-5.87,14.34l17.62,7.29a4.64,4.64,0,0,1,2.51,6l-8,19.2a4.64,4.64,0,0,1-2.51,2.51,4.57,4.57,0,0,1-3.52,0l-17.63-7.29a7.74,7.74,0,0,0-9.41,2.82,106.07,106.07,0,0,1-29.85,29.85,7.8,7.8,0,0,0-2.9,9.41l7.29,17.63a4.67,4.67,0,0,1-2.51,6l-19.2,7.92a4.61,4.61,0,0,1-6-2.51l-7.29-17.63a7.63,7.63,0,0,0-8.7-4.62,107.61,107.61,0,0,1-42.16,0,7.84,7.84,0,0,0-8.69,4.62l-7.29,17.63a4.65,4.65,0,0,1-6,2.51l-19.2-8a4.61,4.61,0,0,1-2.51-6l7.28-17.63a7.72,7.72,0,0,0-2.82-9.4,106.36,106.36,0,0,1-29.85-29.86,7.8,7.8,0,0,0-9.4-2.9l-17.63,7.29a4.6,4.6,0,0,1-3.53,0,4.64,4.64,0,0,1-2.51-2.51l-7.91-19.2a4.62,4.62,0,0,1,2.51-6l17.63-7.29a7.71,7.71,0,0,0,4.62-8.7,107.55,107.55,0,0,1,0-42.15,7.85,7.85,0,0,0-4.62-8.7L18.3,197.05a4.64,4.64,0,0,1-2.51-6l8-19.2a4.65,4.65,0,0,1,6-2.51l17.62,7.29a7.74,7.74,0,0,0,9.41-2.82A106.2,106.2,0,0,1,86.7,143.93a7.79,7.79,0,0,0,2.9-9.41l-7.28-17.63a4.63,4.63,0,0,1,2.5-6l19.2-7.92a4.61,4.61,0,0,1,6,2.51l7.29,17.63a7.75,7.75,0,0,0,14.34-5.87l-7.29-17.64A20,20,0,0,0,113.5,88.68a20.32,20.32,0,0,0-7.68-1.57,20.09,20.09,0,0,0-7.68,1.57L78.94,96.6a20.1,20.1,0,0,0-10.89,26.25L73,134.76A122.14,122.14,0,0,0,47.76,160l-11.91-4.94A20.1,20.1,0,0,0,9.6,165.94l-8.07,19.2a20.09,20.09,0,0,0,10.89,26.25l11.91,4.94a123.09,123.09,0,0,0,0,35.65l-11.91,4.94A20.1,20.1,0,0,0,1.53,283.17l7.91,19.2a20.1,20.1,0,0,0,26.25,10.89l11.91-4.94a121.7,121.7,0,0,0,25.24,25.23L67.9,345.46a20.1,20.1,0,0,0,10.89,26.25l19.2,8a20.1,20.1,0,0,0,26.25-10.89l4.94-11.91a123.8,123.8,0,0,0,35.65,0l4.94,11.91A20.1,20.1,0,0,0,196,379.71Z" transform="translate(0 -0.76)"/>
            </g>
            <path class="cls-3" d="M84,234.66A63.13,63.13,0,0,0,147,297.27h.47a63.13,63.13,0,0,0,62.69-63.54,7.76,7.76,0,0,0-7.76-7.68h-.08a7.67,7.67,0,0,0-7.68,7.83,47.61,47.61,0,0,1-47.25,48h-.31a47.61,47.61,0,0,1-.32-95.21,7.67,7.67,0,0,0,7.68-7.83,7.75,7.75,0,0,0-7.75-7.68h-.08A63.15,63.15,0,0,0,84,234.66Z" transform="translate(0 -0.76)"/>
            <path class="cls-4" d="M278,.76H262.85a16.78,16.78,0,0,0-16.76,16.77v7.76a88.77,88.77,0,0,0-21.47,8.93l-5.49-5.48A16.69,16.69,0,0,0,207.3,23.8a16.36,16.36,0,0,0-11.83,4.94L184.81,39.39a16.77,16.77,0,0,0-4.94,11.84,16.42,16.42,0,0,0,4.94,11.83l5.49,5.48A88.87,88.87,0,0,0,181.36,90H173.6a16.77,16.77,0,0,0-16.76,16.76v15.13a16.79,16.79,0,0,0,16.76,16.77h7.76a88.73,88.73,0,0,0,8.94,21.46l-5.49,5.49a16.76,16.76,0,0,0-4.94,11.83,16.44,16.44,0,0,0,4.94,11.84L195.47,200a16.69,16.69,0,0,0,11.83,4.94A16.4,16.4,0,0,0,219.13,200l5.49-5.48a88.77,88.77,0,0,0,21.47,8.93v7.76a16.78,16.78,0,0,0,16.76,16.77H278a16.79,16.79,0,0,0,16.77-16.77V203.4a88.93,88.93,0,0,0,21.47-8.93L321.7,200a16.73,16.73,0,0,0,11.84,4.94A16.44,16.44,0,0,0,345.37,200L356,189.3a16.8,16.8,0,0,0,0-23.67l-5.49-5.49a88.3,88.3,0,0,0,8.93-21.46h7.76A16.79,16.79,0,0,0,384,121.91V106.78A16.78,16.78,0,0,0,367.23,90h-7.76a88.44,88.44,0,0,0-8.93-21.48L356,63.06a16.8,16.8,0,0,0,0-23.67L345.37,28.74a16.72,16.72,0,0,0-11.83-4.94,16.4,16.4,0,0,0-11.84,4.94l-5.48,5.48a88.93,88.93,0,0,0-21.47-8.93V17.53A16.89,16.89,0,0,0,278,.76Zm35,49.68a8,8,0,0,0,4.31,1.33,7.69,7.69,0,0,0,5.48-2.27l9.8-9.79a1.16,1.16,0,0,1,.86-.39,1.17,1.17,0,0,1,.86.39L345,50.36a1.24,1.24,0,0,1,0,1.73l-9.8,9.79a7.74,7.74,0,0,0-.94,9.8,75.6,75.6,0,0,1,11.44,27.58,7.8,7.8,0,0,0,7.6,6.27h13.87a1.24,1.24,0,0,1,1.26,1.25v15.13a1.24,1.24,0,0,1-1.26,1.25H353.28a7.73,7.73,0,0,0-7.6,6.27A75.6,75.6,0,0,1,334.24,157a7.81,7.81,0,0,0,.94,9.79l9.8,9.8a1.23,1.23,0,0,1,0,1.72L334.32,189a1.17,1.17,0,0,1-.86.39,1.16,1.16,0,0,1-.86-.39L322.8,179a7.7,7.7,0,0,0-9.79-.94,75.67,75.67,0,0,1-27.58,11.44,7.79,7.79,0,0,0-6.27,7.6V211a1.24,1.24,0,0,1-1.26,1.25H262.78a1.23,1.23,0,0,1-1.26-1.25V197.13a7.71,7.71,0,0,0-6.27-7.6,75.67,75.67,0,0,1-27.58-11.44,7.8,7.8,0,0,0-9.79.94l-9.8,9.79a1.12,1.12,0,0,1-1.72,0L195.7,178.17a1.15,1.15,0,0,1,0-1.73l9.8-9.79a7.74,7.74,0,0,0,.94-9.8A75.6,75.6,0,0,1,195,129.27a7.81,7.81,0,0,0-7.61-6.27H173.53a1.23,1.23,0,0,1-1.26-1.25V106.62a1.24,1.24,0,0,1,1.26-1.25h13.86A7.73,7.73,0,0,0,195,99.1a75.67,75.67,0,0,1,11.44-27.58,7.81,7.81,0,0,0-.94-9.79l-9.8-9.8a1.14,1.14,0,0,1,0-1.72l10.66-10.66a1.14,1.14,0,0,1,1.72,0l9.8,9.8a7.71,7.71,0,0,0,9.79.93,75.48,75.48,0,0,1,27.58-11.43,7.8,7.8,0,0,0,6.27-7.6V17.53a1.24,1.24,0,0,1,1.26-1.25H277.9a1.25,1.25,0,0,1,1.26,1.25V31.4a7.7,7.7,0,0,0,6.27,7.6A75.67,75.67,0,0,1,313,50.44Z" transform="translate(0 -0.76)"/>
            <path class="cls-4" d="M224.38,114.23a46.08,46.08,0,1,0,46.08-46.08,46.15,46.15,0,0,0-46.08,46.08Zm76.56,0a30.56,30.56,0,1,1-30.56-30.56,30.6,30.6,0,0,1,30.56,30.56Z" transform="translate(0 -0.76)"/>
        </g>
    </g>
</svg>