<?xml version="1.0" encoding="utf-8" standalone="no"?>
<svg xmlns="http://www.w3.org/2000/svg" viewBox="0 0 384 332.04">
    <defs>
        <style>.cls-1{fill:#2c2f33;}.cls-2{fill:#6d001e;}</style>
    </defs>
    <title>partnership</title>
    <g id="Layer_2" data-name="Layer 2">
        <g id="Layer_1-2" data-name="Layer 1">
            <path class="cls-1" d="M70.78,50A7.76,7.76,0,0,0,81.91,60.83a150.27,150.27,0,0,1,210.62-4.38l-14.27.15a7.76,7.76,0,0,0,.08,15.52h.08l33.08-.39a7.78,7.78,0,0,0,7.68-7.84l-.32-33a7.81,7.81,0,0,0-7.76-7.68H311a7.78,7.78,0,0,0-7.68,7.84l.16,14.42A165.77,165.77,0,0,0,70.78,50Z"/>
            <path class="cls-1" d="M297,271.14a150.28,150.28,0,0,1-210.62,4.39l14.26-.16a7.76,7.76,0,0,0-.07-15.52h-.08l-33.08.39a7.78,7.78,0,0,0-7.68,7.84l.39,33.08a7.82,7.82,0,0,0,7.76,7.68H68A7.78,7.78,0,0,0,75.64,301l-.16-14.42a164.79,164.79,0,0,0,114,45.46h2A165.19,165.19,0,0,0,308.2,282.11a7.84,7.84,0,0,0-11.2-11Z"/>
            <path class="cls-2" d="M61.3,162.34a7.79,7.79,0,0,0-3.45-6.42,5,5,0,0,1-2.2-4.16v-28.3a17.7,17.7,0,0,1,17.72-17.71h6.11a17.69,17.69,0,0,1,17.71,17.71v28.3A5.18,5.18,0,0,1,95,155.92a7.57,7.57,0,0,0-3.45,6.42v27.28a8.89,8.89,0,0,0,5.1,8.07,217.48,217.48,0,0,1,38.72,24.85,6,6,0,0,1,2.11,4.63v19.36a7.76,7.76,0,1,0,15.52,0V227.17a21.45,21.45,0,0,0-7.84-16.62,227.65,227.65,0,0,0-38.09-24.93V166a20.56,20.56,0,0,0,5.72-14.19v-28.3A33.25,33.25,0,0,0,79.56,90.23H73.44a33.25,33.25,0,0,0-33.23,33.23v28.3A20.26,20.26,0,0,0,45.93,166v19.67A229.59,229.59,0,0,0,7.84,210.55,21.47,21.47,0,0,0,0,227.17v19.36a7.76,7.76,0,0,0,15.52,0V227.17a6.12,6.12,0,0,1,2.12-4.63,214.53,214.53,0,0,1,38.72-24.85,9.13,9.13,0,0,0,5.09-8.07V162.34Z"/>
            <path class="cls-2" d="M376.16,210.63a228.06,228.06,0,0,0-38.09-24.93V166a20.63,20.63,0,0,0,5.72-14.19v-28.3a33.25,33.25,0,0,0-33.24-33.23h-6.11a33.25,33.25,0,0,0-33.23,33.23v28.3A20.27,20.27,0,0,0,276.93,166v19.59a229.59,229.59,0,0,0-38.09,24.93A21.43,21.43,0,0,0,231,227.17v19.36a7.76,7.76,0,1,0,15.52,0V227.17a6.14,6.14,0,0,1,2.11-4.63,214.53,214.53,0,0,1,38.72-24.85,9,9,0,0,0,5-8.07V162.34a7.77,7.77,0,0,0-3.45-6.42,5,5,0,0,1-2.19-4.16v-28.3a17.69,17.69,0,0,1,17.71-17.71h6.11a17.7,17.7,0,0,1,17.72,17.71v28.3a5.17,5.17,0,0,1-2.2,4.16,7.6,7.6,0,0,0-3.45,6.42v27.28a9,9,0,0,0,5,8.07,214.53,214.53,0,0,1,38.72,24.85,6,6,0,0,1,2.12,4.63v19.36a7.76,7.76,0,0,0,15.52,0V227.17a21.68,21.68,0,0,0-7.84-16.54Z"/>
        </g>
    </g>
</svg>