<?xml version="1.0" encoding="utf-8" standalone="no"?>
<svg xmlns="http://www.w3.org/2000/svg" viewBox="0 0 335.12 384">
    <defs>
        <style>.cls-1{fill:#2c2f33;}.cls-2{fill:#6d001e;}</style>
    </defs>
    <title>passion</title>
    <g id="Layer_2" data-name="Layer 2">
        <g id="Layer_1-2" data-name="Layer 1">
            <path class="cls-1" d="M235.87,368.49H175.31V350.86a7.76,7.76,0,0,0-15.51,0v17.63H99.25a7.76,7.76,0,0,0,0,15.51H236a7.72,7.72,0,0,0,7.75-7.75,7.84,7.84,0,0,0-7.83-7.76Z"/>
            <path class="cls-1" d="M155.73,217.07a49.45,49.45,0,0,0-37.52,40.57h-31a27.66,27.66,0,0,1,26.63-20.36,7.76,7.76,0,0,0,0-15.51,43.17,43.17,0,0,0-42.53,35.87H10.11a8,8,0,0,0-2.36-.39A7.73,7.73,0,0,0,0,265v42.3a17.82,17.82,0,0,0,17.78,17.78H317.34a17.82,17.82,0,0,0,17.78-17.78V101.13a17.82,17.82,0,0,0-17.78-17.78H233.52a7.76,7.76,0,1,0,0,15.51h83.82a2.27,2.27,0,0,1,2.27,2.27V307.39a2.27,2.27,0,0,1-2.27,2.27H17.78a2.27,2.27,0,0,1-2.27-2.27V273.23H295.32a7.76,7.76,0,1,0,0-15.51H262.19a43.18,43.18,0,0,0-42.54-35.87,7.75,7.75,0,1,0,0,15.5,27.6,27.6,0,0,1,26.64,20.37H215.42a49.27,49.27,0,0,0-44.18-41.67,55.86,55.86,0,0,0-15.51,1Zm11.13,14.25a33.68,33.68,0,0,1,32.82,26.32H134a33.61,33.61,0,0,1,32.83-26.32Z"/>
            <path class="cls-1" d="M109.67,91.11a7.73,7.73,0,0,0-7.76-7.76H17.78A17.82,17.82,0,0,0,0,101.13V236.42a7.76,7.76,0,0,0,15.51,0V101.13a2.27,2.27,0,0,1,2.27-2.27h84.13a7.73,7.73,0,0,0,7.76-7.75Z"/>
            <path class="cls-2" d="M196.39,209.16a7.72,7.72,0,0,0,7.75-7.76v-15h17.08a7.72,7.72,0,0,0,7.75-7.76V163.25a27.87,27.87,0,0,0-4.31-14.88l-12-18.88a11,11,0,0,1-1.72-6v-62a39,39,0,0,0-9.56-25.61L172.73,2.66A7.74,7.74,0,0,0,161,2.74L132.62,36a39.45,39.45,0,0,0-9.4,25.45V123a10.92,10.92,0,0,1-2,6.42l-12.77,18.41a27.54,27.54,0,0,0-5,15.9v15a7.73,7.73,0,0,0,7.76,7.76l14.1.08v15a7.76,7.76,0,0,0,15.51,0v-15l.08-.08a7.76,7.76,0,0,0,0-15.51H118.91v-7.21a12.71,12.71,0,0,1,2.2-7.05l12.76-18.41a26.72,26.72,0,0,0,4.78-15.35V61.41a23.79,23.79,0,0,1,5.64-15.35L167,19.66,189.73,46a23.8,23.8,0,0,1,5.72,15.43v62a26.55,26.55,0,0,0,4.15,14.33l12,18.88a12.09,12.09,0,0,1,1.88,6.58v7.68H192.62a7.72,7.72,0,0,0-7.75,7.75,7.56,7.56,0,0,0,3.76,6.58V201.4a7.78,7.78,0,0,0,7.76,7.76Z"/>
            <path class="cls-1" d="M158.32,184.17v33.45a8,8,0,0,0,7.28,8.06,7.77,7.77,0,0,0,8.22-7.75V184.17a7.75,7.75,0,1,0-15.5,0Z"/>
        </g>
    </g>
</svg>