<?xml version="1.0" encoding="utf-8" standalone="no"?>
<svg xmlns="http://www.w3.org/2000/svg" 
    xmlns:xlink="http://www.w3.org/1999/xlink" viewBox="0 0 382.55 384">
    <defs>
        <style>.cls-1{fill:none;}.cls-2{clip-path:url(#clip-path);}.cls-3{fill:#2c2f33;}</style>
        <clipPath id="clip-path" transform="translate(-0.73)">
            <rect class="cls-1" width="384" height="384"/>
        </clipPath>
    </defs>
    <title>phone</title>
    <g id="Layer_2" data-name="Layer 2">
        <g id="Layer_1-2" data-name="Layer 1">
            <g class="cls-2">
                <path class="cls-3" d="M78.25,255.26A407.3,407.3,0,0,0,213.75,361.4c19.82,9.39,46.31,20.53,75.83,22.44,1.83.08,3.58.16,5.41.16,19.81,0,35.73-6.84,48.7-20.93a1.67,1.67,0,0,0,.32-.39,205.71,205.71,0,0,1,15.35-15.92c3.75-3.58,7.56-7.32,11.22-11.14,16.95-17.66,16.95-40.1-.15-57.21l-47.82-47.82c-8.12-8.43-17.83-12.89-28-12.89s-20,4.46-28.32,12.81L237.79,259c-2.63-1.52-5.34-2.87-7.88-4.14a98,98,0,0,1-8.76-4.77c-25.94-16.48-49.49-38-72-65.57-11.37-14.4-19-26.5-24.34-38.83,7.47-6.76,14.48-13.84,21.24-20.77,2.39-2.46,4.86-4.93,7.32-7.4C162,108.93,166.57,99,166.57,88.88s-4.54-20-13.21-28.65L129.65,36.52c-2.79-2.78-5.41-5.49-8.12-8.27-5.25-5.41-10.74-11-16.15-16C97.18,4.22,87.56,0,77.37,0S57.56,4.22,49.05,12.33L19.28,42.09A61.12,61.12,0,0,0,1.07,81.24c-1.52,19,2,39.23,11.06,63.66,13.92,37.79,34.92,72.88,66.12,110.36ZM20.48,82.91a42.06,42.06,0,0,1,12.65-27l29.6-29.6c4.62-4.46,9.71-6.76,14.64-6.76s9.79,2.3,14.32,6.92C97,31.35,102,36.52,107.45,42c2.71,2.79,5.49,5.57,8.27,8.44l23.72,23.71c4.93,4.93,7.47,10,7.47,14.88s-2.54,9.94-7.47,14.88c-2.47,2.46-4.94,5-7.41,7.48-7.39,7.48-14.32,14.56-22,21.32l-.39.4c-6.61,6.6-5.58,12.89-4,17.67.08.23.16.39.24.63,6.12,14.72,14.64,28.73,27.93,45.43,23.87,29.44,49,52.28,76.7,69.86a113.39,113.39,0,0,0,10.5,5.74,98,98,0,0,1,8.76,4.77c.31.16.55.32.87.48a16.66,16.66,0,0,0,7.72,2c6.37,0,10.5-4.05,11.86-5.41L280,244.52c4.61-4.62,9.62-7.09,14.55-7.09,6.05,0,11,3.74,14.09,7.09l48,47.9c9.55,9.54,9.47,19.89-.24,30-3.34,3.59-6.84,7-10.58,10.59a229.7,229.7,0,0,0-16.63,17.26c-9.15,9.87-20,14.49-34.14,14.49-1.35,0-2.78-.09-4.14-.16-26.09-1.68-50.36-11.86-68.58-20.54A386.7,386.7,0,0,1,93.37,243c-29.68-35.72-49.66-69-62.86-104.63-8.2-21.88-11.3-39.47-10-55.46Z" transform="translate(-0.73)"/>
            </g>
        </g>
    </g>
</svg>