<?xml version="1.0" encoding="utf-8" standalone="no"?>
<svg xmlns="http://www.w3.org/2000/svg" viewBox="0 0 296.28 384">
    <defs>
        <style>.cls-1{fill:#2c2f33;}.cls-2{fill:#6d001e;}</style>
    </defs>
    <title>piggy-bank</title>
    <g id="Layer_2" data-name="Layer 2">
        <g id="Layer_1-2" data-name="Layer 1">
            <path class="cls-1" d="M235.32,332.21l2-1.73a3.4,3.4,0,0,0,.78-.78c1-1.17,23.9-27.58,32.59-47.87h4.16a21.51,21.51,0,0,0,21.47-21.47V226.43A21.5,21.5,0,0,0,274.81,205h-4.62c-7.13-18.57-19.28-35.34-35.42-49-2.35-8.39-.63-17.32,5.25-26.64A16,16,0,0,0,224.51,105c-22.64,2.82-36.2,13.08-44.11,22.64a150.44,150.44,0,0,0-22.88-4.46,7.77,7.77,0,0,0-1.81,15.43A137.14,137.14,0,0,1,181,144.09,7.87,7.87,0,0,0,189.8,141c5.33-7.91,16.06-17.94,36.59-20.53a.47.47,0,0,1,.47.24.35.35,0,0,1,0,.47c-8.15,13-10.58,26.56-7,39.25a7.65,7.65,0,0,0,2.9,5.8c16.53,13.32,28.52,30.24,34.64,49a7.72,7.72,0,0,0,7.36,5.33h10a6,6,0,0,1,5.95,6v33.92a6,6,0,0,1-5.95,5.95h-9.48a7.82,7.82,0,0,0-7.45,5.49c-4.38,14.34-23.66,38.63-31.18,47.32L225,320.69c-16.14,14.58-17.79,31.81-17.87,37v10.89H162.37v-10.5a7.82,7.82,0,0,0-2.58-5.8,7.73,7.73,0,0,0-6-2,145.92,145.92,0,0,1-34.09-.47,7.59,7.59,0,0,0-6.11,1.88,7.68,7.68,0,0,0-2.66,5.87v10.9H66.16v-3.37c-.39-8.23-3-29.07-19.28-45.84-7.68-7.91-14.57-18.41-20.52-31.1-.08-.08-.08-.16-.16-.32a91.8,91.8,0,0,1-8-21.39l-.08-.31c0-.08-.08-.16-.08-.23-2.82-9.41-2.51-21.24-2.51-21.32v-.23a102.06,102.06,0,0,1,1.26-15.52,7.75,7.75,0,1,0-15.28-2.58A105.18,105.18,0,0,0,0,244.22C0,245.79-.21,259,3.17,270.31a111.89,111.89,0,0,0,9.16,24.45C18.91,309,26.83,320.85,35.68,330c12.46,12.85,14.57,29,14.89,35.57v3.21a5.13,5.13,0,0,0,.08,1A15.27,15.27,0,0,0,65.77,384h45.36a15.21,15.21,0,0,0,15.2-15.2v-2.59a162.11,162.11,0,0,0,20.45.32v2.27A15.22,15.22,0,0,0,162,384h45.37a15.22,15.22,0,0,0,15.2-15.2V357.75a37.6,37.6,0,0,1,12.77-25.54Z"/>
            <path class="cls-2" d="M.66,150A63.86,63.86,0,1,0,64.51,86.11,63.91,63.91,0,0,0,.66,150Zm112.2,0a48.35,48.35,0,1,1-48.35-48.34A48.43,48.43,0,0,1,112.86,150Z"/>
            <path class="cls-2" d="M182,44.5A44.51,44.51,0,1,0,137.46,89,44.57,44.57,0,0,0,182,44.5Zm-73.57,0a29,29,0,1,1,29,29,29,29,0,0,1-29-29Z"/>
        </g>
    </g>
</svg>