<?xml version="1.0" encoding="utf-8" standalone="no"?>
<svg xmlns="http://www.w3.org/2000/svg" 
    xmlns:xlink="http://www.w3.org/1999/xlink" viewBox="0 0 383.91 330.7">
    <defs>
        <style>.cls-1{fill:none;}.cls-2{clip-path:url(#clip-path);}.cls-3{fill:#2c2f33;}</style>
        <clipPath id="clip-path" transform="translate(0 -0.8)">
            <rect class="cls-1" x="0.03" width="384" height="332"/>
        </clipPath>
    </defs>
    <title>mail</title>
    <g id="Layer_2" data-name="Layer 2">
        <g id="Layer_1-2" data-name="Layer 1">
            <g class="cls-2">
                <path class="cls-3" d="M0,166a18.52,18.52,0,0,0,13.3,16.8L154,225.4l5.2,97a9.68,9.68,0,0,0,6.5,8.5,8.53,8.53,0,0,0,3.1.6,9.64,9.64,0,0,0,7.2-3.2l49.7-55.1,70.5,48.8a18.32,18.32,0,0,0,10.6,3.4,18.92,18.92,0,0,0,18.4-15l58.5-298.2a9.58,9.58,0,0,0-13-10.7L11.33,147.6A19,19,0,0,0,0,166ZM177,298.3l-3.2-61.2,36,24.9Zm129.6,7.5L178.33,217,358.23,43Zm31.9-270.6L160.63,207.3,20.13,164.8Z" transform="translate(0 -0.8)"/>
            </g>
        </g>
    </g>
</svg>