<?xml version="1.0" encoding="utf-8" standalone="no"?>
<svg xmlns="http://www.w3.org/2000/svg" viewBox="0 0 269.59 384">
    <defs>
        <style>.cls-1{fill:#64001e;}.cls-2{fill:#2c2f33;}</style>
    </defs>
    <title>prepare-cv</title>
    <g id="Layer_2" data-name="Layer 2">
        <g id="Layer_1-2" data-name="Layer 1">
            <path class="cls-1" d="M37.93,228.44a134.55,134.55,0,0,0,96.86,41.14c74.3,0,134.8-60.49,134.8-134.79S209.09,0,134.79,0,0,60.5,0,134.79a134.28,134.28,0,0,0,36.21,91.77,8,8,0,0,0,1.72,1.88Zm96.86,25.63a118.75,118.75,0,0,1-77-28.29c34.95-11.6,47.88-25.71,52.66-35.11a57,57,0,0,0,22.33,4.55h1.81a57.15,57.15,0,0,0,24-5.34c4.46,9.41,17.16,24,53.13,35.9a118.21,118.21,0,0,1-76.88,28.29ZM91.22,109.87v-.47c1.88-40.83,32-44,41.22-44H135c9.17,0,39.34,3.21,41.22,44v.47c.08.39,3.92,38.17-13.71,58-7,7.84-16.3,11.76-28.45,11.84h-.47c-12.23-.16-21.47-4-28.45-11.84-17.71-19.67-14-57.6-13.87-58Zm43.57-94.35a119.21,119.21,0,0,1,89.58,198c-50.63-14.73-52.59-32.6-52.59-32.83V181h-.55c1-.94,1.88-1.88,2.82-2.9,21.55-24.22,17.95-65.67,17.56-69.75C189.49,65.13,159.79,49.76,135,49.76h-2.51c-24.84,0-54.62,15.37-56.66,58.62-.39,4-3.92,45.46,17.56,69.75,1.25,1.41,2.58,2.74,3.91,4-1.64,4.54-10,19-52,31.27A119.16,119.16,0,0,1,134.79,15.52Z"/>
            <path class="cls-2" d="M36.36,329.54H233.14a7.76,7.76,0,0,0,0-15.52H36.36a7.73,7.73,0,0,0-7.76,7.76,7.83,7.83,0,0,0,7.76,7.76Z"/>
            <path class="cls-2" d="M206.34,376.24a7.73,7.73,0,0,0-7.75-7.76H71A7.76,7.76,0,0,0,71,384H198.66a7.76,7.76,0,0,0,7.68-7.76Z"/>
        </g>
    </g>
</svg>