<?xml version="1.0" encoding="UTF-8"?>
<svg width="2560px" height="768px" viewBox="0 0 2560 768" version="1.1" xmlns="http://www.w3.org/2000/svg" xmlns:xlink="http://www.w3.org/1999/xlink">
    <!-- Generator: Sketch 53.2 (72643) - https://sketchapp.com -->
    <title>THRONSBERG PRISMS</title>
    <desc>Created with Sketch.</desc>
    <g id="Main-pages" stroke="none" stroke-width="1" fill="none" fill-rule="evenodd">
        <g id="Homepage" fill-rule="nonzero" stroke-width="1.51">
            <g id="Hero-header">
                <g id="THRONSBERG-PRISMS" transform="translate(-603.000000, -1207.000000)">
                    <polygon id="Path" stroke="#E8EFF5" fill="#E8EFF5" points="1877.91713 1360 1822 1700 2171 1597.61364"></polygon>
                    <polygon id="Path" stroke="#DAE9F2" fill="#DAE9F2" points="1822 1699.64557 1899.12707 1903 2171 1597"></polygon>
                    <polygon id="Path" stroke="#EAF0F5" fill="#EAF0F5" points="2171.12435 1597 2251 1299 1875 1358.98701"></polygon>
                    <polygon id="Path" stroke="#CAE1EE" fill="#CAE1EE" points="1901 1901.69565 2264 1952 2173.25 1596"></polygon>
                    <polygon id="Path" stroke="#D8E7F1" fill="#D8E7F1" points="2171 1595.81564 2489 1644 2250.01818 1299"></polygon>
                    <polygon id="Path" stroke="#C6DEED" fill="#C6DEED" points="2497 1835 2489.26036 1644.98387 2170 1597"></polygon>
                    <polygon id="Path" stroke="#F2EFEE" fill="#F2EFEE" points="1878 1360 1403 1493.29545 1821.77551 1700"></polygon>
                    <polygon id="Path" stroke="#DBE3E8" fill="#DBE3E8" points="1822.71429 1702 1359 1805.88571 1900 1904"></polygon>
                    <polygon id="Path" stroke="#FCE3D6" fill="#FCE3D6" points="1528.64789 889 1466 1236.96327 1883 1360"></polygon>
                    <polygon id="Path" stroke="#FAECE4" fill="#FAECE4" points="1881 1359.66917 1465.43265 1236 1403 1493"></polygon>
                    <polygon id="Path" stroke="#C1DCEB" fill="#C1DCEB" points="2260.94083 1952 2497 1835.91304 2170 1596"></polygon>
                    <polygon id="Path" stroke="#EAE4E2" fill="#EAE4E2" points="1405.2 1495 1359 1805 1821 1701.02484"></polygon>
                    <polygon id="Path" stroke="#B9CFDF" fill="#B9CFDF" points="1526 2211.57143 1789.40722 2227 1899 1903"></polygon>
                    <polygon id="Path" stroke="#BAD7E7" fill="#BAD7E7" points="1897.57959 1903 1788 2227 2259 1953.14286"></polygon>
                    <polygon id="Path" stroke="#85BBD9" fill="#85BBD9" points="2616.02469 2455 2808 1955.55763 2497 1836"></polygon>
                    <polygon id="Path" stroke="#EEE6E1" fill="#EEE6E1" points="2251 1300.18824 2136.05699 868 1875 1360"></polygon>
                    <polygon id="Path" stroke="#E5D8D2" fill="#E5D8D2" points="2488 1011.38393 2138 869 2251.46154 1300"></polygon>
                    <polygon id="Path" stroke="#F0DDD4" fill="#F0DDD4" points="1409 1495.02874 1234 1470 1362.33333 1805"></polygon>
                    <polygon id="Path" stroke="#FBE4D8" fill="#FBE4D8" points="1467 1236 1231 1467.8797 1405.09836 1493"></polygon>
                    <polygon id="Path" stroke="#D8D8D9" fill="#D8D8D9" points="2626 1119.52 2487.16923 1012 2250 1300"></polygon>
                    <polygon id="Path" stroke="#D5E2EA" fill="#D5E2EA" points="2626 1121 2250 1301.42491 2489.09744 1645"></polygon>
                    <polygon id="Path" stroke="#CBD7DD" fill="#CBD7DD" points="1359 1806 1525.16429 2212 1900 1904.1327"></polygon>
                    <polygon id="Path" stroke="#E9D5CD" fill="#E9D5CD" points="1234 1470 1235.90909 1828 1360 1804.90323"></polygon>
                    <polygon id="Path" stroke="#C5DDEA" fill="#C5DDEA" points="2822 1458.81685 2623.6954 1121 2487 1645"></polygon>
                    <polygon id="Path" stroke="#FBD9C8" fill="#FBD9C8" points="1747.88398 727 1530 887.179878 1879 1360"></polygon>
                    <polygon id="Path" stroke="#FBD7C7" fill="#FBD7C7" points="1466 1237 972 1325.16667 1231.49416 1467"></polygon>
                    <polygon id="Path" stroke="#D0CECE" fill="#D0CECE" points="1234 1829.09005 1526 2212 1359.69536 1806"></polygon>
                    <polygon id="Path" stroke="#F7DACD" fill="#F7DACD" points="2134 867.881098 1746 727 1876.61386 1360"></polygon>
                    <polygon id="Path" stroke="#ACD0E5" fill="#ACD0E5" points="2807.55172 1957 2823 1460 2487 1646.85659"></polygon>
                    <polygon id="Path" stroke="#A1C5DF" fill="#A1C5DF" points="1788 2224.83871 2195.55918 2430 2259 1950"></polygon>
                    <polygon id="Path" stroke="#A8CFE4" fill="#A8CFE4" points="2496.71084 1835.62112 2809 1955 2489 1645"></polygon>
                    <polygon id="Path" stroke="#95C3DE" fill="#95C3DE" points="2618 2455 2498.04348 1836 2262 1951.70093"></polygon>
                    <polygon id="Path" stroke="#EEC9BB" fill="#EEC9BB" points="1233.07554 1470 700 1529.66667 1235 1828"></polygon>
                    <polygon id="Path" stroke="#FBCDB5" fill="#FBCDB5" points="1233.41634 823 972 1329 1466 1240.4981"></polygon>
                    <polygon id="Path" stroke="#FCCCB3" fill="#FCCCB3" points="1529 889.179724 1227 820 1465.8366 1237"></polygon>
                    <polygon id="Path" stroke="#BFC2C9" fill="#BFC2C9" points="2959 1208 2814.63584 942 2626 1121.26087"></polygon>
                    <polygon id="Path" stroke="#BBCBD8" fill="#BBCBD8" points="2824.26012 1460 2959 1206.93182 2626 1120"></polygon>
                    <polygon id="Path" stroke="#AAC0D5" fill="#AAC0D5" points="3231 1263.00763 2957.08451 1207 2823 1460"></polygon>
                    <polygon id="Path" stroke="#85B6D7" fill="#85B6D7" points="2196 2430.84674 2614 2456 2259.56682 1951"></polygon>
                    <polygon id="Path" stroke="#C4BBBE" fill="#C4BBBE" points="968 2192.75377 1524 2212 1232.48611 1829"></polygon>
                    <polygon id="Path" stroke="#CBB3AE" fill="#CBB3AE" points="845 1975.2963 971.79803 2191 1235 1827"></polygon>
                    <polygon id="Path" stroke="#DEB7AD" fill="#DEB7AD" points="700 1527 844.334532 1977 1235 1827.64655"></polygon>
                    <polygon id="Path" stroke="#F9BDA2" fill="#F9BDA2" points="1237 823 819 1221.60076 973.814815 1327"></polygon>
                    <polygon id="Path" stroke="#F6C7B6" fill="#F6C7B6" points="700 1529 1234 1469.3619 973.747292 1327"></polygon>
                    <polygon id="Path" stroke="#77ABD1" fill="#77ABD1" points="3296 1982 3253.56522 1707 2808 1956.82394"></polygon>
                    <polygon id="Path" stroke="#F4B9A7" fill="#F4B9A7" points="817.070423 1219 697 1530 972 1325.90625"></polygon>
                    <polygon id="Path" stroke="#95BFDB" fill="#95BFDB" points="2809 1957 3254 1708.5 2824.41126 1460"></polygon>
                    <polygon id="Path" stroke="#5EA1CB" fill="#5EA1CB" points="2912 2441.46332 2807.50649 1955 2614 2453"></polygon>
                    <polygon id="Path" stroke="#9EBDDA" fill="#9EBDDA" points="3253 1708 3233.71749 1262 2823 1458.93506"></polygon>
                    <polygon id="Path" stroke="#F4AB8E" fill="#F4AB8E" points="1235 821 742 952.096154 819.03125 1222"></polygon>
                    <polygon id="Path" stroke="#EFA998" fill="#EFA998" points="822 1221.06383 482 1167 702.227273 1530"></polygon>
                    <polygon id="Path" stroke="#5DA0CB" fill="#5DA0CB" points="2912.1581 2444 3296 1981.0751 2808 1956"></polygon>
                    <polygon id="Path" stroke="#AAADC0" fill="#AAADC0" points="3235 1263 3204.11888 833 2959 1207.08072"></polygon>
                    <polygon id="Path" stroke="#B89599" fill="#B89599" points="843.56383 1974 608 2251 971 2189.44444"></polygon>
                    <polygon id="Path" stroke="#BA8C8F" fill="#BA8C8F" points="452 2016.31944 611.521951 2251 846 1974"></polygon>
                    <polygon id="Path" stroke="#D29E99" fill="#D29E99" points="448 2019 846 1975.95276 700.390244 1522"></polygon>
                    <polygon id="Path" stroke="#EEA18A" fill="#EEA18A" points="744.727273 950 482 1166 822 1220"></polygon>
                    <polygon id="Path" stroke="#D49691" fill="#D49691" points="289 1694.90551 447.985915 2019 697 1529"></polygon>
                    <polygon id="Path" stroke="#E6A096" fill="#E6A096" points="480.028169 1166 289 1694 700 1528.27737"></polygon>
                </g>
            </g>
        </g>
    </g>
</svg>