<?xml version="1.0" encoding="utf-8" standalone="no"?>
<svg xmlns="http://www.w3.org/2000/svg" viewBox="0 0 384 381.81">
    <defs>
        <style>.cls-1{fill:#6d001e;}.cls-2{fill:#2c2f33;}</style>
    </defs>
    <title>private-debt</title>
    <g id="Layer_2" data-name="Layer 2">
        <g id="Layer_1-2" data-name="Layer 1">
            <path class="cls-1" d="M223.22,0a7.7,7.7,0,0,0-7.73,7.73V160.78a7.7,7.7,0,0,0,7.73,7.73h153a7.7,7.7,0,0,0,7.73-7.73A160.73,160.73,0,0,0,223.22,0Zm7.72,153.05V15.69A145.4,145.4,0,0,1,368.39,153.05Z"/>
            <path class="cls-2" d="M346.3,208.63a7.69,7.69,0,0,0-7.73-7.73H180.92V43.16a7.7,7.7,0,0,0-7.73-7.73C77.66,35.43,0,113.09,0,208.63S77.66,381.81,173.19,381.81,346.3,304.08,346.3,208.63ZM173.19,366.36c-86.95,0-157.74-70.79-157.74-157.73C15.45,124.25,82,55.1,165.46,51V208.55a7.69,7.69,0,0,0,7.73,7.72h157.5c-4.06,83.44-73.13,150.09-157.5,150.09Z"/>
        </g>
    </g>
</svg>