<?xml version="1.0" encoding="utf-8" standalone="no"?>
<svg xmlns="http://www.w3.org/2000/svg" viewBox="0 0 384 384">
    <defs>
        <style>.cls-1{fill:#2c2f33;}.cls-2{fill:#6d001e;}</style>
    </defs>
    <title>private-capital</title>
    <g id="Layer_2" data-name="Layer 2">
        <g id="Layer_1-2" data-name="Layer 1">
            <path class="cls-1" d="M192,271.64a7.73,7.73,0,0,0-7.77,7.77V314a35.46,35.46,0,1,0,15.54,0v-34.6a7.73,7.73,0,0,0-7.77-7.77Zm19.93,77A19.93,19.93,0,1,1,192,328.68a20,20,0,0,1,19.93,19.93Z"/>
            <path class="cls-1" d="M192,112.36a7.73,7.73,0,0,0,7.77-7.77V70a35.46,35.46,0,1,0-15.54,0v34.6a7.73,7.73,0,0,0,7.77,7.77Zm-19.93-77A19.93,19.93,0,1,1,192,55.32a20,20,0,0,1-19.93-19.93Z"/>
            <path class="cls-1" d="M314,199.77a35.46,35.46,0,1,0,0-15.54h-34.6a7.77,7.77,0,0,0,0,15.54ZM328.68,192a19.93,19.93,0,1,1,19.93,19.93A20,20,0,0,1,328.68,192Z"/>
            <path class="cls-1" d="M0,192a35.42,35.42,0,0,0,70,7.77h34.6a7.77,7.77,0,0,0,0-15.54H70A35.42,35.42,0,0,0,0,192Zm55.32,0a19.93,19.93,0,1,1-19.93-19.93A20,20,0,0,1,55.32,192Z"/>
            <path class="cls-1" d="M248.34,248.34a7.71,7.71,0,0,0,0,11l24.48,24.48a35.38,35.38,0,0,0,54.92,43.94,35.41,35.41,0,0,0-43.94-55l-24.48-24.48a7.79,7.79,0,0,0-11,.08Zm40.33,40.33a19.88,19.88,0,0,1,28.09,0,19.89,19.89,0,0,1-14.05,34,19.82,19.82,0,0,1-19.85-19.85,19.34,19.34,0,0,1,5.81-14.12Z"/>
            <path class="cls-1" d="M106.32,56.26a35.41,35.41,0,1,0-6.12,54.92l24.48,24.48a7.75,7.75,0,0,0,11,0,7.71,7.71,0,0,0,0-11L111.18,100.2a35,35,0,0,0,5.5-18.91,34.51,34.51,0,0,0-10.36-25Zm-11,39.07a19.88,19.88,0,1,1,5.81-14,19.27,19.27,0,0,1-5.81,14Z"/>
            <path class="cls-1" d="M267.25,81.29a35.27,35.27,0,0,0,5.49,18.91l-24.48,24.48a7.71,7.71,0,0,0,0,11,7.75,7.75,0,0,0,11,0l24.56-24.48a35.35,35.35,0,0,0,43.94-4.86,35.43,35.43,0,0,0-25-60.5,35.49,35.49,0,0,0-35.46,35.47Zm21.42-14.05a20,20,0,1,1-5.81,14.13,19.23,19.23,0,0,1,5.81-14.13Z"/>
            <path class="cls-1" d="M135.66,248.34a7.71,7.71,0,0,0-11,0L100.2,272.82a35.37,35.37,0,1,0,6.12,54.92,35.45,35.45,0,0,0,4.86-44l24.48-24.48a7.62,7.62,0,0,0,0-10.9ZM95.33,316.76a19.86,19.86,0,1,1,0-28.09,19.76,19.76,0,0,1,0,28.09Z"/>
            <path class="cls-2" d="M183,199.61h18a12,12,0,0,1,0,23.93H168.62a7.77,7.77,0,0,0,0,15.54h15.61v11.3a7.77,7.77,0,0,0,15.54,0v-11.3H201a27.51,27.51,0,1,0,0-55h-18a11.93,11.93,0,0,1,0-23.85h31.7a7.77,7.77,0,1,0,0-15.53h-15V133.63a7.77,7.77,0,0,0-15.54,0v11.06H183a27.46,27.46,0,1,0,0,54.92Z"/>
        </g>
    </g>
</svg>