<?xml version="1.0" encoding="utf-8" standalone="no"?>
<svg xmlns="http://www.w3.org/2000/svg" viewBox="0 0 32.64 27.52">
    <defs>
        <style>.cls-1{fill:#404040;}</style>
    </defs>
    <title>quote</title>
    <g id="Layer_2" data-name="Layer 2">
        <g id="Layer_1-2" data-name="Layer 1">
            <path class="cls-1" d="M10.11,14.46A6.11,6.11,0,0,1,12.8,17a7.07,7.07,0,0,1,.9,3.52,6.88,6.88,0,0,1-2,5.06,6.69,6.69,0,0,1-4.93,2A6.67,6.67,0,0,1,2,25.6a6.81,6.81,0,0,1-2-5.12,8.21,8.21,0,0,1,.58-2.94c.38-1,.78-2,1.21-2.95L8.7,0h6.53L10.11,14.46Zm17.41,0A6.16,6.16,0,0,1,30.21,17a7.16,7.16,0,0,1,.89,3.52,6.87,6.87,0,0,1-2,5.06,6.7,6.7,0,0,1-4.93,2,6.64,6.64,0,0,1-4.8-1.92,6.81,6.81,0,0,1-2-5.12A8.41,8.41,0,0,1,18,17.54c.39-1,.79-2,1.22-2.95L26.11,0h6.53L27.52,14.46Z"/>
        </g>
    </g>
</svg>