<?xml version="1.0" encoding="utf-8" standalone="no"?>
<svg xmlns="http://www.w3.org/2000/svg" viewBox="0 0 116.55 384">
    <defs>
        <style>.cls-1{fill:#2c2f33;}.cls-2{fill:#6d001e;}</style>
    </defs>
    <title>reference-id</title>
    <g id="Layer_2" data-name="Layer 2">
        <g id="Layer_1-2" data-name="Layer 1">
            <path class="cls-1" d="M0,310a7.74,7.74,0,0,0,1.57,4.71l50.51,66.19a7.8,7.8,0,0,0,12.39,0L115,314.75a7.74,7.74,0,0,0,1.57-4.71V97.41a7.77,7.77,0,0,0-15.53,0v210l-42.75,56-42.74-56V97.8A7.77,7.77,0,0,0,0,97.8Z"/>
            <path class="cls-1" d="M50.51,97.8V293.1a7.77,7.77,0,0,0,15.53,0V97.8a7.77,7.77,0,0,0-15.53,0Z"/>
            <path class="cls-2" d="M0,30.51V65.25A7.73,7.73,0,0,0,7.76,73H108.7a7.73,7.73,0,0,0,7.77-7.77V30.51A30.55,30.55,0,0,0,86,0H30.51A30.54,30.54,0,0,0,0,30.51Zm101,0v27H15.53v-27a15,15,0,0,1,15-15H86a15,15,0,0,1,15.06,15Z"/>
        </g>
    </g>
</svg>