<?xml version="1.0" encoding="utf-8" standalone="no"?>
<svg xmlns="http://www.w3.org/2000/svg" viewBox="0 0 384 384">
    <defs>
        <style>.cls-1{fill:#6d001e;}.cls-2{fill:#2c2f33;}</style>
    </defs>
    <title>seniority</title>
    <g id="Layer_2" data-name="Layer 2">
        <g id="Layer_1-2" data-name="Layer 1">
            <path class="cls-1" d="M124.29,265.35a299.53,299.53,0,0,1,37.93-22.49,9.61,9.61,0,0,0,5.33-8.54V196.7a7.77,7.77,0,0,0-3.45-6.42,9.76,9.76,0,0,1-4.39-8.15v-39a27.38,27.38,0,0,1,27.35-27.35h8.39A27.38,27.38,0,0,1,222.8,143.1v39a9.76,9.76,0,0,1-4.39,8.15A7.57,7.57,0,0,0,215,196.7v37.62a9.61,9.61,0,0,0,5.33,8.54,291.72,291.72,0,0,1,32.52,18.89q3.42,2.22,6.82,4.7a7.77,7.77,0,0,0,8.94-12.7c-2.43-1.72-4.86-3.37-7.22-4.93a328.9,328.9,0,0,0-31-18.18V200.46a25.4,25.4,0,0,0,7.84-18.33v-39a42.88,42.88,0,0,0-42.87-42.87H187a42.88,42.88,0,0,0-42.86,42.87v39A25.56,25.56,0,0,0,152,200.46v30.18a330.3,330.3,0,0,0-36.6,22,7.76,7.76,0,1,0,8.94,12.69Z"/>
            <path class="cls-2" d="M0,192a7.73,7.73,0,0,0,7.76,7.76H41c3.93,77,66.15,139,143.26,142.55v33.93a7.76,7.76,0,0,0,15.52,0v-34c76.49-4.31,137.85-65.91,141.76-142.47h34.72a7.76,7.76,0,0,0,0-15.52H341.52c-3.91-76.56-65.27-138.16-141.76-142.47v-34a7.76,7.76,0,1,0-15.52,0V41.69C107.05,45.22,44.91,107.21,41,184.24H7.76A7.73,7.73,0,0,0,0,192Zm56.35-3.13c1.72-73,61.51-131.82,134.86-131.82,74.45,0,135,60.58,135,135s-60.57,135-135,135C117.86,327,58,268.09,56.35,195.13a8.28,8.28,0,0,0,.7-3.13,7,7,0,0,0-.7-3.13Z"/>
        </g>
    </g>
</svg>