<?xml version="1.0" encoding="utf-8"?>
<!-- Generator: Adobe Illustrator 23.0.3, SVG Export Plug-In . SVG Version: 6.00 Build 0)  -->
<svg version="1.1" id="Ebene_1" xmlns="http://www.w3.org/2000/svg" xmlns:xlink="http://www.w3.org/1999/xlink" x="0px" y="0px"
	 viewBox="0 0 234 59.81" style="enable-background:new 0 0 234 59.81;" xml:space="preserve">
<style type="text/css">
	.st0{fill:none;stroke:#404040;stroke-width:2;stroke-linejoin:round;}
	.st1{enable-background:new    ;}
	.st2{fill:#404040;}
	.st3{fill:none;}
</style>
<title>THRONSBERG LOGO</title>
<rect x="1" y="1" class="st0" width="232" height="39"/>
<g class="st1">
	<path class="st2" d="M15.7,9.75h-5.57c-0.35,0-0.61-0.29-0.61-0.61V8.21c0-0.32,0.26-0.61,0.61-0.61H23.7
		c0.35,0,0.61,0.29,0.61,0.61v0.93c0,0.32-0.26,0.61-0.61,0.61h-5.57v19.65c0,0.32-0.29,0.61-0.61,0.61h-1.22
		c-0.32,0-0.61-0.29-0.61-0.61V9.75z"/>
	<path class="st2" d="M28.85,8.21c0-0.32,0.29-0.61,0.61-0.61h1.25c0.35,0,0.61,0.29,0.61,0.61v9.34H44.3V8.21
		c0-0.32,0.26-0.61,0.61-0.61h1.25c0.32,0,0.61,0.29,0.61,0.61v21.18c0,0.32-0.29,0.61-0.61,0.61h-1.25c-0.35,0-0.61-0.29-0.61-0.61
		v-9.7H31.31v9.7c0,0.32-0.26,0.61-0.61,0.61h-1.25c-0.32,0-0.61-0.29-0.61-0.61V8.21z"/>
</g>
<g class="st1">
	<path class="st2" d="M53.36,8.21c0-0.32,0.26-0.61,0.61-0.61h8.29c3.84,0,6.98,3.01,6.98,6.82c0,2.94-1.95,5.41-4.74,6.53
		l4.38,8.13c0.22,0.42,0,0.93-0.54,0.93H66.8c-0.38,0-0.54-0.16-0.7-0.48l-4.16-8.29h-6.11v8.16c0,0.32-0.29,0.61-0.61,0.61h-1.25
		c-0.35,0-0.61-0.29-0.61-0.61V8.21z M62.1,19.12c2.46,0,4.61-2.05,4.61-4.67c0-2.43-2.14-4.51-4.61-4.51h-6.21v9.18H62.1z"/>
</g>
<g class="st1">
	<path class="st2" d="M84.69,7.28c6.4,0,11.52,5.15,11.52,11.55s-5.12,11.49-11.52,11.49c-6.4,0-11.49-5.09-11.49-11.49
		S78.29,7.28,84.69,7.28z M84.69,28.08c5.09,0,9.28-4.16,9.28-9.25s-4.19-9.31-9.28-9.31c-5.09,0-9.25,4.22-9.25,9.31
		S79.6,28.08,84.69,28.08z"/>
</g>
<g class="st1">
	<path class="st2" d="M101.46,7.86c0-0.32,0.29-0.58,0.61-0.58h0.48c0.22,0,0.38,0.06,0.51,0.26l14.24,17.73c0.03,0,0.03,0,0.06,0
		V8.21c0-0.32,0.26-0.61,0.61-0.61h1.12c0.32,0,0.61,0.29,0.61,0.61v21.53c0,0.32-0.29,0.58-0.61,0.58h-0.26
		c-0.22,0-0.38-0.06-0.51-0.26l-14.49-18.08h-0.03v17.41c0,0.32-0.26,0.61-0.61,0.61h-1.12c-0.32,0-0.61-0.29-0.61-0.61V7.86z"/>
	<path class="st2" d="M124.92,26.64l0.48-0.61c0.32-0.42,0.58-0.58,1.02-0.19c0.22,0.19,2.66,2.34,5.5,2.34
		c2.59,0,4.29-1.63,4.29-3.65c0-2.21-1.92-3.49-5.6-5.06c-3.52-1.5-5.63-2.85-5.63-6.5c0-2.18,1.73-5.7,6.82-5.7
		c3.14,0,5.47,1.63,5.47,1.63c0.19,0.1,0.54,0.48,0.19,1.09l-0.32,0.54c-0.26,0.45-0.61,0.45-1.12,0.16
		c-1.34-0.8-2.46-1.28-4.26-1.28c-3.39,0-4.42,2.18-4.42,3.52c0,2.27,1.63,3.26,4.32,4.38c4.32,1.76,7.1,3.39,7.1,7.1
		c0,3.33-3.17,5.89-6.91,5.89c-3.78,0-6.34-2.21-6.75-2.59C124.85,27.5,124.47,27.22,124.92,26.64z"/>
</g>
<g class="st1">
	<path class="st2" d="M154.89,18.64c1.7,0.7,3.81,2.27,3.81,5.18c0,3.58-2.78,6.18-6.75,6.18h-7.52c-0.35,0-0.61-0.29-0.61-0.61
		V8.21c0-0.32,0.26-0.61,0.61-0.61h7.07c3.9,0,6.5,2.53,6.5,5.89c0,2.59-1.63,4.19-3.1,5.09V18.64z M151.79,27.86
		c2.59,0,4.22-1.76,4.22-4.06c0-2.27-1.92-3.94-4.35-3.94h-5.5v8H151.79z M151.09,17.65c2.62,0,4.19-1.76,4.19-4
		c0-2.3-1.57-3.84-4.19-3.84h-4.86v7.84H151.09z"/>
	<path class="st2" d="M164.08,8.21c0-0.32,0.26-0.61,0.61-0.61h12.61c0.35,0,0.61,0.29,0.61,0.61v0.93c0,0.32-0.26,0.61-0.61,0.61
		h-10.75v7.81h9.18c0.32,0,0.61,0.29,0.61,0.61v0.93c0,0.35-0.29,0.61-0.61,0.61h-9.18v8.16h10.75c0.35,0,0.61,0.29,0.61,0.61v0.93
		c0,0.32-0.26,0.61-0.61,0.61h-12.61c-0.35,0-0.61-0.29-0.61-0.61V8.21z"/>
</g>
<g class="st1">
	<path class="st2" d="M183.02,8.21c0-0.32,0.26-0.61,0.61-0.61h8.29c3.84,0,6.98,3.01,6.98,6.82c0,2.94-1.95,5.41-4.74,6.53
		l4.38,8.13c0.22,0.42,0,0.93-0.54,0.93h-1.54c-0.38,0-0.54-0.16-0.7-0.48l-4.16-8.29h-6.11v8.16c0,0.32-0.29,0.61-0.61,0.61h-1.25
		c-0.35,0-0.61-0.29-0.61-0.61V8.21z M191.76,19.12c2.46,0,4.61-2.05,4.61-4.67c0-2.43-2.14-4.51-4.61-4.51h-6.21v9.18H191.76z"/>
</g>
<g class="st1">
	<path class="st2" d="M214.42,7.28c3.23,0,5.57,1.12,7.74,2.98c0.26,0.26,0.29,0.64,0.03,0.9c-0.29,0.29-0.64,0.61-0.9,0.9
		c-0.29,0.32-0.48,0.29-0.83-0.03c-1.63-1.44-3.94-2.5-6.08-2.5c-5.06,0-8.9,4.22-8.9,9.18c0,4.93,3.84,9.25,8.9,9.25
		c3.52,0,5.76-1.34,5.76-1.34v-4.48h-3.68c-0.35,0-0.61-0.26-0.61-0.58v-1.18c0-0.35,0.26-0.61,0.61-0.61H222
		c0.32,0,0.58,0.29,0.58,0.61v7.33c0,0.16-0.13,0.42-0.26,0.51c0,0-3.26,2.11-7.9,2.11c-6.4,0-11.55-5.09-11.55-11.49
		S208.02,7.28,214.42,7.28z"/>
</g>
<g class="st1">
	<path class="st2" d="M2.84,45.7c0-0.13,0.11-0.25,0.26-0.25h3c1.67,0,3.04,1.3,3.04,2.87c0,1.61-1.37,2.93-3.03,2.93H3.88v3.05
		c0,0.13-0.12,0.25-0.26,0.25H3.1c-0.15,0-0.26-0.12-0.26-0.25V45.7z M6.03,50.29c1.11,0,2.06-0.79,2.06-1.99
		c0-1.16-0.95-1.86-2.06-1.86H3.88v3.85H6.03z"/>
	<path class="st2" d="M11.98,45.7c0-0.13,0.11-0.25,0.26-0.25h3.51c1.63,0,2.96,1.22,2.96,2.77c0,1.2-0.83,2.2-2.01,2.65l1.86,3.3
		c0.09,0.17,0,0.38-0.23,0.38h-0.65c-0.16,0-0.23-0.07-0.3-0.2l-1.76-3.37h-2.59v3.32c0,0.13-0.12,0.25-0.26,0.25h-0.53
		c-0.15,0-0.26-0.12-0.26-0.25V45.7z M15.68,50.13c1.04,0,1.95-0.83,1.95-1.9c0-0.99-0.91-1.83-1.95-1.83h-2.63v3.73H15.68z"/>
	<path class="st2" d="M21.88,45.7c0-0.13,0.12-0.25,0.26-0.25h0.54c0.14,0,0.26,0.12,0.26,0.25v8.61c0,0.13-0.12,0.25-0.26,0.25
		h-0.54c-0.14,0-0.26-0.12-0.26-0.25V45.7z"/>
	<path class="st2" d="M25.42,45.79c-0.08-0.17,0.03-0.34,0.23-0.34h0.54c0.12,0,0.2,0.08,0.23,0.14l3.38,7.28h0.05l3.38-7.28
		c0.03-0.07,0.12-0.14,0.23-0.14h0.54c0.2,0,0.31,0.17,0.23,0.34l-4.12,8.75c-0.04,0.08-0.12,0.14-0.23,0.14h-0.14
		c-0.1,0-0.19-0.06-0.23-0.14L25.42,45.79z"/>
	<path class="st2" d="M34.88,54.21L39,45.46c0.04-0.08,0.11-0.14,0.23-0.14h0.14c0.12,0,0.19,0.07,0.23,0.14l4.1,8.75
		c0.08,0.17-0.03,0.34-0.23,0.34h-0.54c-0.12,0-0.2-0.08-0.23-0.14l-1-2.15h-4.82l-0.99,2.15c-0.03,0.06-0.11,0.14-0.23,0.14h-0.54
		C34.9,54.55,34.8,54.38,34.88,54.21z M41.32,51.46c-0.67-1.42-1.32-2.85-1.98-4.26h-0.11l-1.98,4.26H41.32z"/>
	<path class="st2" d="M47.33,46.32h-2.36c-0.15,0-0.26-0.12-0.26-0.25V45.7c0-0.13,0.11-0.25,0.26-0.25h5.75
		c0.15,0,0.26,0.12,0.26,0.25v0.38c0,0.13-0.11,0.25-0.26,0.25h-2.36v7.98c0,0.13-0.12,0.25-0.26,0.25h-0.52
		c-0.14,0-0.26-0.12-0.26-0.25V46.32z"/>
	<path class="st2" d="M53.72,45.7c0-0.13,0.11-0.25,0.26-0.25h5.34c0.15,0,0.26,0.12,0.26,0.25v0.38c0,0.13-0.11,0.25-0.26,0.25
		h-4.56v3.17h3.89c0.14,0,0.26,0.12,0.26,0.25v0.38c0,0.14-0.12,0.25-0.26,0.25h-3.89v3.32h4.56c0.15,0,0.26,0.12,0.26,0.25v0.38
		c0,0.13-0.11,0.25-0.26,0.25h-5.34c-0.15,0-0.26-0.12-0.26-0.25V45.7z"/>
	<path class="st2" d="M71.26,45.32c1.37,0,2.36,0.46,3.28,1.21c0.11,0.1,0.12,0.26,0.01,0.36l-0.37,0.35
		c-0.11,0.13-0.22,0.12-0.35-0.01c-0.71-0.58-1.6-0.97-2.59-0.97c-2.14,0-3.78,1.73-3.78,3.74c0,2,1.64,3.73,3.78,3.73
		c1.18,0,1.87-0.39,2.59-0.97c0.14-0.1,0.24-0.09,0.35,0.01l0.31,0.3c0.11,0.08,0.08,0.26-0.01,0.35c-0.9,0.78-2.02,1.26-3.23,1.26
		c-2.71,0-4.9-2.07-4.9-4.67C66.37,47.41,68.55,45.32,71.26,45.32z"/>
	<path class="st2" d="M76.42,54.21l4.12-8.75c0.04-0.08,0.11-0.14,0.23-0.14h0.14c0.12,0,0.19,0.07,0.23,0.14l4.1,8.75
		c0.08,0.17-0.03,0.34-0.23,0.34h-0.54c-0.12,0-0.2-0.08-0.23-0.14l-1-2.15h-4.82l-0.99,2.15c-0.03,0.06-0.11,0.14-0.23,0.14h-0.54
		C76.45,54.55,76.34,54.38,76.42,54.21z M82.86,51.46c-0.67-1.42-1.32-2.85-1.98-4.26h-0.11l-1.98,4.26H82.86z"/>
	<path class="st2" d="M87.74,45.7c0-0.13,0.11-0.25,0.26-0.25h3c1.67,0,3.04,1.3,3.04,2.87c0,1.61-1.37,2.93-3.03,2.93h-2.24v3.05
		c0,0.13-0.12,0.25-0.26,0.25h-0.52c-0.15,0-0.26-0.12-0.26-0.25V45.7z M90.92,50.29c1.11,0,2.06-0.79,2.06-1.99
		c0-1.16-0.95-1.86-2.06-1.86h-2.16v3.85H90.92z"/>
	<path class="st2" d="M96.87,45.7c0-0.13,0.12-0.25,0.26-0.25h0.54c0.14,0,0.26,0.12,0.26,0.25v8.61c0,0.13-0.12,0.25-0.26,0.25
		h-0.54c-0.14,0-0.26-0.12-0.26-0.25V45.7z"/>
	<path class="st2" d="M103.28,46.32h-2.36c-0.15,0-0.26-0.12-0.26-0.25V45.7c0-0.13,0.11-0.25,0.26-0.25h5.75
		c0.15,0,0.26,0.12,0.26,0.25v0.38c0,0.13-0.11,0.25-0.26,0.25h-2.36v7.98c0,0.13-0.12,0.25-0.26,0.25h-0.52
		c-0.14,0-0.26-0.12-0.26-0.25V46.32z"/>
	<path class="st2" d="M107.94,54.21l4.12-8.75c0.04-0.08,0.11-0.14,0.23-0.14h0.14c0.12,0,0.19,0.07,0.23,0.14l4.1,8.75
		c0.08,0.17-0.03,0.34-0.23,0.34h-0.54c-0.12,0-0.2-0.08-0.23-0.14l-1-2.15h-4.82l-0.99,2.15c-0.03,0.06-0.11,0.14-0.23,0.14h-0.54
		C107.96,54.55,107.86,54.38,107.94,54.21z M114.38,51.46c-0.67-1.42-1.32-2.85-1.98-4.26h-0.11l-1.98,4.26H114.38z"/>
	<path class="st2" d="M119.25,45.7c0-0.13,0.11-0.25,0.26-0.25h0.53c0.13,0,0.26,0.12,0.26,0.25v7.98h3.91
		c0.15,0,0.26,0.12,0.26,0.25v0.38c0,0.13-0.11,0.25-0.26,0.25h-4.69c-0.15,0-0.26-0.12-0.26-0.25V45.7z"/>
	<path class="st2" d="M131.38,45.7c0-0.13,0.11-0.25,0.26-0.25h3.51c1.63,0,2.96,1.22,2.96,2.77c0,1.2-0.83,2.2-2.01,2.65l1.86,3.3
		c0.09,0.17,0,0.38-0.23,0.38h-0.65c-0.16,0-0.23-0.07-0.3-0.2l-1.76-3.37h-2.59v3.32c0,0.13-0.12,0.25-0.26,0.25h-0.53
		c-0.15,0-0.26-0.12-0.26-0.25V45.7z M135.08,50.13c1.04,0,1.95-0.83,1.95-1.9c0-0.99-0.91-1.83-1.95-1.83h-2.63v3.73H135.08z"/>
	<path class="st2" d="M141.29,45.7c0-0.13,0.11-0.25,0.26-0.25h5.34c0.15,0,0.26,0.12,0.26,0.25v0.38c0,0.13-0.11,0.25-0.26,0.25
		h-4.56v3.17h3.89c0.14,0,0.26,0.12,0.26,0.25v0.38c0,0.14-0.12,0.25-0.26,0.25h-3.89v3.32h4.56c0.15,0,0.26,0.12,0.26,0.25v0.38
		c0,0.13-0.11,0.25-0.26,0.25h-5.34c-0.15,0-0.26-0.12-0.26-0.25V45.7z"/>
	<path class="st2" d="M154.32,45.32c1.37,0,2.36,0.46,3.28,1.21c0.11,0.1,0.12,0.26,0.01,0.36l-0.37,0.35
		c-0.11,0.13-0.22,0.12-0.35-0.01c-0.71-0.58-1.6-0.97-2.59-0.97c-2.14,0-3.78,1.73-3.78,3.74c0,2,1.64,3.73,3.78,3.73
		c1.18,0,1.87-0.39,2.59-0.97c0.13-0.1,0.24-0.09,0.35,0.01l0.31,0.3c0.11,0.08,0.08,0.26-0.01,0.35c-0.89,0.78-2.02,1.26-3.23,1.26
		c-2.71,0-4.9-2.07-4.9-4.67C149.43,47.41,151.61,45.32,154.32,45.32z"/>
	<path class="st2" d="M160.69,45.7c0-0.13,0.11-0.25,0.26-0.25h3.51c1.63,0,2.96,1.22,2.96,2.77c0,1.2-0.83,2.2-2.01,2.65l1.86,3.3
		c0.09,0.17,0,0.38-0.23,0.38h-0.65c-0.16,0-0.23-0.07-0.3-0.2l-1.76-3.37h-2.59v3.32c0,0.13-0.12,0.25-0.26,0.25h-0.53
		c-0.15,0-0.26-0.12-0.26-0.25V45.7z M164.39,50.13c1.04,0,1.95-0.83,1.95-1.9c0-0.99-0.91-1.83-1.95-1.83h-2.63v3.73H164.39z"/>
	<path class="st2" d="M170.5,45.7c0-0.13,0.12-0.25,0.26-0.25h0.52c0.15,0,0.26,0.12,0.26,0.25v5.47c0,1.48,0.96,2.59,2.55,2.59
		c1.6,0,2.58-1.08,2.58-2.56v-5.5c0-0.13,0.11-0.25,0.26-0.25h0.52c0.14,0,0.26,0.12,0.26,0.25v5.55c0,1.98-1.46,3.43-3.61,3.43
		c-2.13,0-3.58-1.46-3.58-3.43V45.7z"/>
	<path class="st2" d="M181.28,45.7c0-0.13,0.12-0.25,0.26-0.25h0.54c0.14,0,0.26,0.12,0.26,0.25v8.61c0,0.13-0.12,0.25-0.26,0.25
		h-0.54c-0.13,0-0.26-0.12-0.26-0.25V45.7z"/>
	<path class="st2" d="M187.7,46.32h-2.36c-0.15,0-0.26-0.12-0.26-0.25V45.7c0-0.13,0.11-0.25,0.26-0.25h5.75
		c0.15,0,0.26,0.12,0.26,0.25v0.38c0,0.13-0.11,0.25-0.26,0.25h-2.36v7.98c0,0.13-0.12,0.25-0.26,0.25h-0.52
		c-0.14,0-0.26-0.12-0.26-0.25V46.32z"/>
	<path class="st2" d="M194.83,45.5c0.03-0.1,0.14-0.18,0.24-0.18h0.22c0.09,0,0.2,0.07,0.23,0.14l2.69,7.16c0.03,0,0.04,0,0.07,0
		l2.64-7.16c0.03-0.08,0.14-0.14,0.23-0.14h0.22c0.11,0,0.22,0.08,0.24,0.18l1.75,8.74c0.04,0.18-0.04,0.31-0.24,0.31h-0.54
		c-0.11,0-0.22-0.09-0.24-0.18l-1.21-6.7c-0.01,0-0.04,0-0.05,0l-2.5,6.86c-0.03,0.08-0.15,0.14-0.23,0.14h-0.24
		c-0.08,0-0.2-0.06-0.23-0.14l-2.52-6.86c-0.01,0-0.04,0-0.05,0l-1.18,6.7c-0.01,0.09-0.14,0.18-0.24,0.18h-0.54
		c-0.2,0-0.29-0.13-0.24-0.31L194.83,45.5z"/>
	<path class="st2" d="M206.46,45.7c0-0.13,0.11-0.25,0.26-0.25h5.34c0.15,0,0.26,0.12,0.26,0.25v0.38c0,0.13-0.11,0.25-0.26,0.25
		h-4.56v3.17h3.89c0.14,0,0.26,0.12,0.26,0.25v0.38c0,0.14-0.12,0.25-0.26,0.25h-3.89v3.32h4.56c0.15,0,0.26,0.12,0.26,0.25v0.38
		c0,0.13-0.11,0.25-0.26,0.25h-5.34c-0.15,0-0.26-0.12-0.26-0.25V45.7z"/>
	<path class="st2" d="M215.36,45.55c0-0.13,0.12-0.23,0.26-0.23h0.2c0.09,0,0.16,0.03,0.22,0.1l6.04,7.2c0.01,0,0.01,0,0.03,0V45.7
		c0-0.13,0.11-0.25,0.26-0.25h0.47c0.14,0,0.26,0.12,0.26,0.25v8.75c0,0.13-0.12,0.23-0.26,0.23h-0.11c-0.09,0-0.16-0.03-0.22-0.1
		l-6.14-7.35h-0.01v7.07c0,0.13-0.11,0.25-0.26,0.25h-0.47c-0.14,0-0.26-0.12-0.26-0.25V45.55z"/>
	<path class="st2" d="M228.46,46.32h-2.36c-0.15,0-0.26-0.12-0.26-0.25V45.7c0-0.13,0.11-0.25,0.26-0.25h5.75
		c0.15,0,0.26,0.12,0.26,0.25v0.38c0,0.13-0.11,0.25-0.26,0.25h-2.36v7.98c0,0.13-0.12,0.25-0.26,0.25h-0.52
		c-0.14,0-0.26-0.12-0.26-0.25V46.32z"/>
</g>
<rect x="211.8" y="59.81" class="st3" width="2.98" height="0.98"/>
</svg>
