<?xml version="1.0" encoding="utf-8"?>
<!-- Generator: Adobe Illustrator 15.1.0, SVG Export Plug-In . SVG Version: 6.00 Build 0)  -->
<!DOCTYPE svg PUBLIC "-//W3C//DTD SVG 1.1//EN" "http://www.w3.org/Graphics/SVG/1.1/DTD/svg11.dtd">
<svg version="1.1" id="Layer_1" xmlns="http://www.w3.org/2000/svg" xmlns:xlink="http://www.w3.org/1999/xlink" x="0px" y="0px"
	 width="255px" height="55px" viewBox="0 0 255 55" enable-background="new 0 0 255 55" xml:space="preserve">
<g>
	<g>
		<path fill="#121E47" d="M0.36,1.73c1.921-0.358,4.42-0.516,7.161-0.516c3.025,0,5.953,0.316,8.216,1.907
			c1.726,1.193,2.447,2.978,2.447,4.845c0,2.384-1.489,4.688-4.71,5.841v0.158c3.749,0.873,5.768,3.455,5.768,6.396
			c0,2.224-0.865,3.933-2.402,5.243c-1.921,1.749-5.191,2.703-10.619,2.703c-2.402,0-4.42-0.121-5.86-0.279L0.36,1.73L0.36,1.73z
			 M6.655,12.335h1.346c2.256,0,3.989-1.59,3.989-3.774c0-1.944-1.108-3.456-3.701-3.456c-0.675,0-1.25,0.039-1.634,0.16V12.335z
			 M6.655,24.214c0.384,0.079,0.813,0.079,1.392,0.079c2.545,0,4.66-1.271,4.66-4.013c0-2.659-2.209-4.05-4.706-4.093H6.655V24.214z
			"/>
		<path fill="#121E47" d="M28.705,21.99l-1.442,6.117h-6.101l7.016-26.773h7.547l6.292,26.773h-6.103l-1.393-6.117H28.705z
			 M33.943,17.936l-1.057-5.601c-0.338-1.628-0.77-4.288-1.058-6.076H31.68c-0.33,1.788-0.813,4.571-1.146,6.117l-1.203,5.56H33.943
			z"/>
		<path fill="#121E47" d="M47.877,28.107v-10.25L40.764,1.333h6.73l2.207,6.395c0.58,1.708,1.201,3.695,1.685,5.681h0.093
			c0.387-1.945,0.914-3.892,1.488-5.801l1.922-6.274h6.541L54.17,17.66v10.447H47.877z"/>
		<path fill="#121E47" d="M62.723,22.784c1.297,0.596,3.506,1.029,5.332,1.029c2.98,0,4.424-1.268,4.424-3.015
			c0-1.948-1.443-2.899-4.183-4.373c-4.419-2.222-6.103-5.044-6.103-7.465c0-4.29,3.457-7.867,10.234-7.867
			c2.115,0,4.133,0.477,5.094,0.953l-1.012,4.492c-0.909-0.478-2.304-0.914-4.13-0.914c-2.69,0-3.988,1.349-3.988,2.779
			c0,1.589,0.962,2.427,4.465,4.171c4.281,2.144,5.866,4.846,5.866,7.669c0,4.886-4.371,8.104-10.713,8.104
			c-2.598,0-5.145-0.561-6.201-1.076L62.723,22.784z"/>
		<path fill="#121E47" d="M88.668,1.333v26.772H82.37V1.333H88.668z"/>
		<path fill="#121E47" d="M94.286,1.73c1.587-0.319,3.891-0.516,6.391-0.516c4.084,0,6.921,0.793,8.987,2.383
			c2.787,2.063,4.229,5.6,4.229,10.805c0,5.404-1.679,9.254-4.52,11.322c-2.159,1.746-5.381,2.583-9.898,2.583
			c-1.969,0-3.939-0.16-5.188-0.281L94.286,1.73L94.286,1.73z M100.583,23.976c0.289,0.079,0.771,0.079,1.103,0.079
			c3.029,0,5.672-2.464,5.672-9.851c0-5.482-1.732-8.82-5.527-8.82c-0.432,0-0.863,0-1.247,0.119L100.583,23.976L100.583,23.976z"/>
		<path fill="#121E47" d="M131.572,16.348h-7.396v7.229h8.355v4.53h-14.654V1.333h14.079V5.86h-7.78v6.159h7.396V16.348
			L131.572,16.348z"/>
		<path fill="#121E47" d="M162.416,27.39c-1.393,0.48-4.369,0.956-6.727,0.956c-3.697,0-6.488-0.875-8.646-2.662
			c-2.787-2.228-4.279-6.197-4.182-10.808c0.142-9.732,6.871-13.783,13.742-13.783c2.448,0,4.273,0.4,5.283,0.798l-1.104,4.486
			c-0.912-0.356-2.112-0.595-3.701-0.595c-4.271,0-7.688,2.424-7.688,9.416c0,6.434,3.029,8.738,5.961,8.738
			c0.574,0,1.012-0.039,1.248-0.123v-6.47h-2.881v-4.251h8.693V27.39H162.416z"/>
		<path fill="#121E47" d="M167.121,1.73c1.97-0.319,4.468-0.516,6.875-0.516c3.459,0,6.535,0.397,8.65,1.987
			c1.967,1.469,2.543,3.254,2.543,5.56c0,2.859-1.684,5.442-4.994,6.712v0.081c2.207,0.715,3.313,2.421,3.938,5.282
			c0.624,2.977,1.49,6.277,2.063,7.271h-6.582c-0.383-0.754-1.104-3.458-1.582-6.396c-0.578-3.336-1.592-4.292-3.702-4.292h-0.913
			v10.687h-6.297L167.121,1.73L167.121,1.73z M173.418,13.409h1.105c2.738,0,4.326-1.827,4.326-4.17
			c0-2.266-1.105-3.894-3.943-3.973c-0.527,0-1.152,0.042-1.488,0.159V13.409z"/>
		<path fill="#121E47" d="M208.826,14.24c0,10.093-4.322,14.184-10.471,14.184c-7.356,0-10.232-6.434-10.232-13.783
			c0-7.308,3.502-13.627,10.663-13.627C206.617,1.014,208.826,8.124,208.826,14.24z M194.656,14.718
			c0,6.081,1.392,9.179,3.938,9.179c2.641,0,3.65-3.975,3.65-9.417c0-4.686-0.864-8.938-3.702-8.938
			C196.048,5.542,194.656,8.96,194.656,14.718z"/>
		<path fill="#121E47" d="M218.918,1.333V18.73c0,3.934,1.438,5.124,3.074,5.124c1.824,0,3.117-1.071,3.117-5.124V1.333h6.303
			v16.483c0,6.874-3.125,10.607-9.373,10.607c-6.777,0-9.42-3.854-9.42-10.567V1.333H218.918z"/>
		<path fill="#121E47" d="M236.836,1.73c1.779-0.319,4.18-0.516,6.584-0.516c3.749,0,6.678,0.435,8.791,2.064
			c1.928,1.393,2.788,3.617,2.788,5.881c0,2.897-1.06,4.924-2.739,6.434c-2.016,1.75-5.281,2.544-7.878,2.544
			c-0.435,0-0.862,0-1.249,0v9.97h-6.297V1.73z M243.133,13.886c0.287,0.079,0.625,0.079,1.008,0.079
			c3.17,0,4.611-1.869,4.611-4.372c0-2.343-1.15-4.169-4.082-4.169c-0.575,0-1.15,0.079-1.537,0.2V13.886z"/>
	</g>
	<g>
		<path fill="#121E47" d="M8.797,41.047c0.217,0.215,0.316,0.508,0.316,0.766c0,0.293-0.218,0.568-0.434,0.729
			c-0.609-0.514-1.845-1.082-3.948-1.082c-2.08,0-2.903,0.902-2.903,2.043c0,1.217,0.842,1.889,3.493,2.648
			c2.944,0.789,4.318,1.75,4.341,4.049c0.02,2.275-1.533,3.787-4.813,3.787c-1.785,0-3.141-0.41-3.967-0.924
			C0.293,52.689,0,52.298,0,51.906c0-0.373,0.137-0.631,0.274-0.787c0.98,0.846,2.749,1.354,4.516,1.354
			c2.476,0,3.38-0.979,3.38-2.219c0-1.275-0.767-1.964-3.339-2.689c-3.3-0.901-4.499-1.846-4.499-4.086
			c0-2.06,1.377-3.633,4.399-3.633C7.029,39.848,8.229,40.496,8.797,41.047z"/>
		<path fill="#121E47" d="M17.906,40.044c2.16,0,3.871,1.257,3.871,4.046c0,3.338-2.2,4.24-4.36,4.24h-3.044v5.303
			c-0.158,0.098-0.474,0.156-0.846,0.156s-0.685-0.137-0.685-0.705V40.182c0.194-0.098,0.391-0.138,0.763-0.138H17.906z
			 M14.373,41.301v5.754h2.729c1.902,0,3.221-0.688,3.221-2.867c0-1.963-1.022-2.887-2.652-2.887H14.373z"/>
		<path fill="#121E47" d="M26.563,47.467v4.872h7.721c0.098,0.097,0.176,0.272,0.176,0.628c0,0.49-0.198,0.822-0.628,0.822h-8.11
			c-0.333,0-0.688-0.1-0.688-0.727V40.2c0.158-0.097,0.354-0.156,0.725-0.156h8.525c0.098,0.101,0.176,0.274,0.176,0.63
			c0,0.488-0.198,0.822-0.628,0.822h-7.269v4.518h6.561c0.1,0.098,0.176,0.336,0.176,0.688c0,0.491-0.214,0.766-0.606,0.766
			L26.563,47.467L26.563,47.467z"/>
		<path fill="#121E47" d="M47.321,51.533c0,0.352-0.158,0.646-0.512,0.902c-0.412,0.412-1.649,1.551-4.26,1.551
			c-3.419,0-5.813-2.063-5.813-7.068c0-4.813,2.338-7.07,5.713-7.07c2.318,0,3.475,0.729,4.223,1.631
			c0.275,0.233,0.432,0.449,0.432,0.846c0,0.371-0.274,0.605-0.568,0.705c-0.883-1.116-2.104-1.729-4.026-1.729
			c-2.532,0-4.263,1.787-4.263,5.639c0,4.143,1.789,5.635,4.361,5.635c1.711,0,3.123-0.568,4.043-1.67
			C46.928,50.885,47.321,51.061,47.321,51.533z"/>
		<path fill="#121E47" d="M51.639,40.652v12.939c-0.199,0.117-0.409,0.195-0.825,0.195c-0.394,0-0.706-0.156-0.706-0.729V40.2
			c0.176-0.097,0.451-0.156,0.824-0.156C51.322,40.044,51.639,40.2,51.639,40.652z"/>
		<path fill="#121E47" d="M54.033,53.574L59.098,40.3c0.234-0.14,0.43-0.256,0.906-0.256c0.449,0,0.726,0.235,0.859,0.589
			l5.029,12.803c-0.137,0.295-0.449,0.354-0.748,0.354c-0.389,0-0.725-0.156-0.861-0.606l-1.1-2.729h-6.462l-1.077,2.848
			c-0.141,0.373-0.397,0.488-0.865,0.488C54.405,53.789,54.17,53.711,54.033,53.574z M57.214,49.154h5.46l-2.771-7.01L57.214,49.154
			z"/>
		<path fill="#121E47" d="M70.172,40.652v11.687h6.499c0.08,0.097,0.179,0.332,0.179,0.628c0,0.49-0.217,0.822-0.883,0.822h-6.639
			c-0.412,0-0.688-0.174-0.688-0.705V40.182c0.156-0.078,0.453-0.138,0.786-0.138C69.781,40.044,70.172,40.2,70.172,40.652z"/>
		<path fill="#121E47" d="M80.774,40.652v12.939c-0.195,0.117-0.413,0.195-0.824,0.195c-0.394,0-0.706-0.156-0.706-0.729V40.2
			c0.175-0.097,0.451-0.156,0.824-0.156C80.461,40.044,80.774,40.2,80.774,40.652z"/>
		<path fill="#121E47" d="M92.751,41.047c0.218,0.215,0.316,0.508,0.316,0.766c0,0.293-0.218,0.568-0.433,0.729
			c-0.609-0.514-1.846-1.082-3.951-1.082c-2.08,0-2.904,0.902-2.904,2.043c0,1.217,0.85,1.889,3.495,2.648
			c2.944,0.789,4.322,1.75,4.341,4.049c0.02,2.275-1.533,3.787-4.813,3.787c-1.785,0-3.138-0.41-3.966-0.924
			c-0.587-0.373-0.884-0.765-0.884-1.154c0-0.373,0.139-0.631,0.275-0.787c0.982,0.846,2.748,1.354,4.516,1.354
			c2.477,0,3.379-0.98,3.379-2.22c0-1.274-0.766-1.964-3.338-2.688c-3.301-0.902-4.498-1.846-4.498-4.086
			c0-2.061,1.378-3.633,4.396-3.633C90.986,39.848,92.183,40.496,92.751,41.047z"/>
		<path fill="#121E47" d="M101.371,41.496v12.137c-0.162,0.117-0.453,0.156-0.848,0.156c-0.352,0-0.646-0.174-0.646-0.705V41.496
			h-4.633c-0.101-0.195-0.178-0.432-0.178-0.746c0-0.352,0.195-0.706,0.805-0.706h10.133c0.1,0.116,0.178,0.333,0.178,0.63
			c0,0.488-0.215,0.822-0.649,0.822H101.371z"/>
		<path fill="#121E47" d="M121.568,40.044c2.16,0,3.95,1.003,3.95,3.792c0,2.178-1.517,3.475-3.202,3.848
			c1.274,1.668,2.217,4.752,3.592,4.752h0.549c0.08,0.1,0.139,0.276,0.139,0.51c0,0.49-0.334,0.846-1.178,0.846
			c-2.025,0-2.908-3.965-4.557-5.988h-2.828v5.814c-0.137,0.113-0.45,0.174-0.766,0.174c-0.414,0-0.768-0.1-0.768-0.705V40.182
			c0.159-0.098,0.434-0.138,0.768-0.138H121.568z M118.033,41.262v5.32h2.984c1.649,0,3.045-0.843,3.045-2.729
			c0-1.887-1.101-2.594-2.789-2.594L118.033,41.262L118.033,41.262z"/>
		<path fill="#121E47" d="M131.189,47.467v4.872h7.717c0.099,0.097,0.176,0.272,0.176,0.628c0,0.49-0.195,0.822-0.628,0.822h-8.108
			c-0.336,0-0.688-0.1-0.688-0.727V40.2c0.156-0.097,0.352-0.156,0.727-0.156h8.521c0.099,0.101,0.176,0.274,0.176,0.63
			c0,0.488-0.195,0.822-0.628,0.822h-7.265v4.518h6.559c0.098,0.098,0.176,0.336,0.176,0.688c0,0.491-0.215,0.766-0.609,0.766
			L131.189,47.467L131.189,47.467z"/>
		<path fill="#121E47" d="M151.943,51.533c0,0.352-0.158,0.646-0.512,0.902c-0.41,0.412-1.648,1.551-4.261,1.551
			c-3.419,0-5.813-2.063-5.813-7.068c0-4.813,2.338-7.07,5.716-7.07c2.317,0,3.477,0.729,4.221,1.631
			c0.274,0.233,0.433,0.449,0.433,0.846c0,0.371-0.271,0.605-0.568,0.705c-0.883-1.116-2.1-1.729-4.024-1.729
			c-2.532,0-4.26,1.787-4.26,5.639c0,4.143,1.787,5.635,4.354,5.635c1.713,0,3.125-0.568,4.047-1.67
			C151.551,50.885,151.943,51.061,151.943,51.533z"/>
		<path fill="#121E47" d="M159.797,40.044c2.16,0,3.947,1.003,3.947,3.792c0,2.178-1.512,3.475-3.201,3.848
			c1.279,1.668,2.219,4.752,3.596,4.752h0.549c0.076,0.1,0.14,0.276,0.14,0.51c0,0.49-0.335,0.846-1.181,0.846
			c-2.021,0-2.906-3.965-4.557-5.988h-2.828v5.814c-0.141,0.113-0.451,0.174-0.765,0.174c-0.413,0-0.767-0.1-0.767-0.705V40.182
			c0.158-0.098,0.432-0.138,0.767-0.138H159.797z M156.262,41.262v5.32h2.986c1.648,0,3.043-0.843,3.043-2.729
			c0-1.887-1.1-2.594-2.79-2.594L156.262,41.262L156.262,41.262z"/>
		<path fill="#121E47" d="M176.252,40.2c0.156-0.097,0.395-0.156,0.766-0.156c0.434,0,0.768,0.156,0.768,0.608v8.148
			c0,3.455-1.67,5.186-5.064,5.186c-3.398,0-4.947-1.67-4.947-5.186l-0.021-8.603c0.157-0.099,0.451-0.156,0.785-0.156
			c0.453,0,0.746,0.156,0.746,0.606v7.936c0,2.648,0.945,4.006,3.438,4.006c2.61,0,3.534-1.334,3.534-3.984L176.252,40.2
			L176.252,40.2z"/>
		<path fill="#121E47" d="M183.182,40.652v12.939c-0.197,0.117-0.41,0.195-0.824,0.195c-0.393,0-0.709-0.156-0.709-0.729V40.2
			c0.18-0.097,0.455-0.156,0.826-0.156C182.869,40.044,183.182,40.2,183.182,40.652z"/>
		<path fill="#121E47" d="M191.841,41.496v12.137c-0.157,0.117-0.454,0.156-0.845,0.156c-0.354,0-0.648-0.174-0.648-0.705V41.496
			h-4.635c-0.098-0.195-0.179-0.432-0.179-0.746c0-0.352,0.198-0.706,0.808-0.706h10.133c0.101,0.116,0.176,0.333,0.176,0.63
			c0,0.488-0.217,0.822-0.646,0.822H191.841z"/>
		<path fill="#121E47" d="M204.701,52.221l-3.889-9.506l-0.648,10.526c-0.02,0.411-0.314,0.548-0.745,0.548
			c-0.296,0-0.61-0.059-0.767-0.137l0.885-12.547c0.059-0.648,0.371-1.063,1.061-1.063c0.354,0,0.527,0.04,0.746,0.116l4.36,10.843
			l3.729-10.135c0.176-0.608,0.528-0.824,1.041-0.824c0.469,0,0.668,0.078,0.922,0.196l1.49,13.354
			c-0.177,0.117-0.451,0.195-0.807,0.195c-0.41,0-0.744-0.1-0.803-0.549l-0.941-10.525l-3.596,9.505
			c-0.193,0.747-0.59,0.824-1.038,0.824C205.23,53.044,204.896,52.828,204.701,52.221z"/>
		<path fill="#121E47" d="M218.15,47.467v4.872h7.717c0.1,0.097,0.176,0.272,0.176,0.628c0,0.49-0.195,0.822-0.629,0.822h-8.109
			c-0.332,0-0.686-0.1-0.686-0.727V40.2c0.156-0.097,0.354-0.156,0.725-0.156h8.523c0.1,0.101,0.176,0.274,0.176,0.63
			c0,0.488-0.195,0.822-0.629,0.822h-7.264v4.518h6.558c0.099,0.098,0.177,0.336,0.177,0.688c0,0.491-0.215,0.766-0.609,0.766
			L218.15,47.467L218.15,47.467z"/>
		<path fill="#121E47" d="M230.559,42.971l0.078,10.646c-0.115,0.096-0.51,0.174-0.861,0.174c-0.314,0-0.666-0.078-0.666-0.705V40.2
			c0.193-0.097,0.471-0.156,0.807-0.156c0.334,0,0.547,0.156,0.705,0.373l7.361,10.624l-0.039-10.8
			c0.156-0.119,0.373-0.197,0.727-0.197c0.395,0,0.809,0.156,0.809,0.608v13c-0.14,0.078-0.395,0.137-0.787,0.137
			c-0.295,0-0.528-0.137-0.727-0.391L230.559,42.971z"/>
		<path fill="#121E47" d="M248.096,41.496v12.137c-0.16,0.117-0.453,0.156-0.848,0.156c-0.354,0-0.648-0.174-0.648-0.705V41.496
			h-4.633c-0.1-0.195-0.176-0.432-0.176-0.746c0-0.352,0.195-0.706,0.805-0.706h10.133c0.102,0.116,0.176,0.333,0.176,0.63
			c0,0.488-0.213,0.822-0.645,0.822H248.096z"/>
	</g>
</g>
</svg>
