<?xml version="1.0" encoding="UTF-8" standalone="no"?>
<svg id="Layer_1" xmlns="http://www.w3.org/2000/svg" width="380.51" height="148.95" viewBox="0 0 380.51 148.95">
  <defs>
    <style>.cls-1{fill:#fff;}</style>
  </defs>
  <title>hudson_logo_white</title>
  <path class="cls-1" d="M90.72,194.52a4.43,4.43,0,0,0-4.08-2.25c-2.64,0-4.44,1.69-4.44,5.48,0,3.35,1.51,5.48,4.44,5.48a3.64,3.64,0,0,0,3.84-3.13H86.64v-3.35h7.47v9.63H90.76v-1.55a6.49,6.49,0,0,1-5,2c-5.21,0-7.85-3.79-7.85-9.05s2.83-9.19,8.46-9.19a8.93,8.93,0,0,1,8,4.32Z" transform="translate(-76.96 -61.7)" />
  <path class="cls-1" d="M96.62,193.48h3.78v1.31a6,6,0,0,1,3.54-1.36l0,3.35-.42.05c-2.25.26-3.15.65-3.15,2.08v7.47H96.62Z" transform="translate(-76.96 -61.7)" />
  <path class="cls-1" d="M108.46,200.71c0,2.47,1.6,3.25,2.81,3.25,1.41,0,2.06-.73,3.15-2.28l2.84,1.48a6.53,6.53,0,0,1-6.26,3.56c-4,0-6.33-2.76-6.33-6.4,0-4.56,2.4-7.18,6.33-7.18,4.71,0,6.31,3.59,6.33,7.57Zm5.09-2.33A2.45,2.45,0,0,0,111,195.9a2.61,2.61,0,0,0-2.57,2.48Z" transform="translate(-76.96 -61.7)" />
  <path class="cls-1" d="M130.41,203.69a7.49,7.49,0,0,0,.34,2.69h-3.49a5.12,5.12,0,0,1-.25-1.33h0c-.63,1-2.53,1.67-3.89,1.67-2.47,0-4.31-1.36-4.31-3.83,0-3.1,2.5-4.19,6.62-4.78l1.38-.19v-1.07c0-1-.77-1.38-1.79-1.38a1.71,1.71,0,0,0-2,1.72h-3.64c.12-3.71,3.56-4.05,5.31-4.05,3.52,0,5.72.82,5.75,3.73Zm-3.64-3.59-2.55.73c-.94.27-1.81.63-1.81,1.67s.84,1.46,1.77,1.46c1.48,0,2.59-1,2.59-3Z" transform="translate(-76.96 -61.7)" />
  <path class="cls-1" d="M139.83,196.05h-2.26v6.33c0,1,.51,1.29,1.19,1.29a9.58,9.58,0,0,0,1.14-.08v3c-.49,0-1.6.14-2.43.14-3.22,0-3.68-2-3.68-3.88v-6.79h-1.85v-2.33h1.85V190h3.78v3.73h2.26Z" transform="translate(-76.96 -61.7)" />
  <path class="cls-1" d="M147.61,193.48h3.5v1.19h0a4.18,4.18,0,0,1,3.44-1.53c3.06,0,5.53,2.23,5.53,6.35,0,4.85-2,7.23-5.5,7.23a4.65,4.65,0,0,1-3.18-1.16h0v5.09h-3.79ZM153.92,204c1.94,0,2.62-1.82,2.62-4.44,0-1.75-.68-3.62-2.57-3.62s-2.67,1.82-2.67,4,.68,4,2.62,4" transform="translate(-76.96 -61.7)" />
  <path class="cls-1" d="M165,200.71c0,2.47,1.6,3.25,2.81,3.25,1.41,0,2.06-.73,3.15-2.28l2.84,1.48a6.53,6.53,0,0,1-6.26,3.56c-4,0-6.33-2.76-6.33-6.4,0-4.56,2.4-7.18,6.33-7.18,4.71,0,6.31,3.59,6.34,7.57Zm5.09-2.33a2.45,2.45,0,0,0-2.57-2.48,2.61,2.61,0,0,0-2.57,2.48Z" transform="translate(-76.96 -61.7)" />
  <path class="cls-1" d="M188.86,199.93c0,4.34-2.84,6.79-6.87,6.79s-6.86-2.45-6.86-6.79,2.84-6.79,6.86-6.79,6.87,2.45,6.87,6.79m-10,0c0,2.21.92,3.88,3.08,3.88s3.08-1.67,3.08-4c0-2.06-.92-3.73-3.08-3.73s-3.08,1.67-3.08,3.88" transform="translate(-76.96 -61.7)" />
  <path class="cls-1" d="M190.71,193.48h3.49v1.19h.05a4.18,4.18,0,0,1,3.44-1.53c3.06,0,5.53,2.23,5.53,6.35,0,4.85-2,7.23-5.5,7.23a4.65,4.65,0,0,1-3.18-1.16h0v5.09h-3.78ZM197,204c1.94,0,2.62-1.82,2.62-4.44,0-1.75-.68-3.62-2.57-3.62s-2.67,1.82-2.67,4,.68,4,2.62,4" transform="translate(-76.96 -61.7)" />
  <rect class="cls-1" x="128.27" y="127.41" width="3.78" height="17.27" />
  <path class="cls-1" d="M214.82,200.71c0,2.47,1.6,3.25,2.82,3.25,1.4,0,2.06-.73,3.15-2.28l2.84,1.48a6.53,6.53,0,0,1-6.26,3.56c-4,0-6.33-2.76-6.33-6.4,0-4.56,2.4-7.18,6.33-7.18,4.7,0,6.31,3.59,6.33,7.57Zm5.1-2.33a2.46,2.46,0,0,0-2.58-2.48,2.61,2.61,0,0,0-2.57,2.48Z" transform="translate(-76.96 -61.7)" />
  <rect class="cls-1" x="148.63" y="140.6" width="3.93" height="4.07" />
  <path class="cls-1" d="M250.46,194.52a4.41,4.41,0,0,0-4.07-2.25c-2.65,0-4.44,1.69-4.44,5.48,0,3.35,1.5,5.48,4.44,5.48a3.64,3.64,0,0,0,3.83-3.13h-3.83v-3.35h7.47v9.63h-3.35v-1.55a6.52,6.52,0,0,1-5,2c-5.22,0-7.86-3.79-7.86-9.05s2.84-9.19,8.46-9.19a8.93,8.93,0,0,1,8,4.32Z" transform="translate(-76.96 -61.7)" />
  <path class="cls-1" d="M256.36,193.48h3.78v1.31a6,6,0,0,1,3.54-1.36l0,3.35-.41.05c-2.26.26-3.16.65-3.16,2.08v7.47h-3.78Z" transform="translate(-76.96 -61.7)" />
  <path class="cls-1" d="M268.2,200.71c0,2.47,1.6,3.25,2.81,3.25,1.41,0,2.06-.73,3.16-2.28l2.84,1.48a6.55,6.55,0,0,1-6.26,3.56,6,6,0,0,1-6.34-6.4c0-4.56,2.41-7.18,6.34-7.18,4.7,0,6.3,3.59,6.33,7.57Zm5.09-2.33a2.45,2.45,0,0,0-2.57-2.48,2.61,2.61,0,0,0-2.57,2.48Z" transform="translate(-76.96 -61.7)" />
  <path class="cls-1" d="M290.15,203.69a7.71,7.71,0,0,0,.34,2.69H287a5.1,5.1,0,0,1-.24-1.33h-.05c-.63,1-2.52,1.67-3.88,1.67-2.48,0-4.32-1.36-4.32-3.83,0-3.1,2.5-4.19,6.62-4.78l1.38-.19v-1.07c0-1-.77-1.38-1.79-1.38a1.72,1.72,0,0,0-2,1.72h-3.64c.12-3.71,3.57-4.05,5.32-4.05,3.51,0,5.72.82,5.74,3.73Zm-3.64-3.59-2.54.73c-1,.27-1.82.63-1.82,1.67S283,204,283.92,204c1.48,0,2.59-1,2.59-3Z" transform="translate(-76.96 -61.7)" />
  <path class="cls-1" d="M299.57,196.05h-2.26v6.33c0,1,.51,1.29,1.19,1.29a9.42,9.42,0,0,0,1.14-.08v3c-.48,0-1.6.14-2.43.14-3.22,0-3.68-2-3.68-3.88v-6.79h-1.84v-2.33h1.84V190h3.78v3.73h2.26Z" transform="translate(-76.96 -61.7)" />
  <path class="cls-1" d="M307.36,193.48h3.49v1.19h0a4.21,4.21,0,0,1,3.44-1.53c3.06,0,5.54,2.23,5.54,6.35,0,4.85-2,7.23-5.51,7.23a4.67,4.67,0,0,1-3.18-1.16h-.05v5.09h-3.78ZM313.67,204c1.93,0,2.62-1.82,2.62-4.44,0-1.75-.69-3.62-2.58-3.62s-2.66,1.82-2.66,4,.68,4,2.62,4" transform="translate(-76.96 -61.7)" />
  <path class="cls-1" d="M324.73,200.71c0,2.47,1.6,3.25,2.81,3.25,1.41,0,2.07-.73,3.16-2.28l2.83,1.48a6.52,6.52,0,0,1-6.25,3.56c-4,0-6.33-2.76-6.33-6.4,0-4.56,2.4-7.18,6.33-7.18,4.7,0,6.3,3.59,6.33,7.57Zm5.09-2.33a2.44,2.44,0,0,0-2.57-2.48,2.61,2.61,0,0,0-2.57,2.48Z" transform="translate(-76.96 -61.7)" />
  <path class="cls-1" d="M335.8,193.48h3.78v1.31a6,6,0,0,1,3.54-1.36l0,3.35-.41.05c-2.25.26-3.15.65-3.15,2.08v7.47H335.8Z" transform="translate(-76.96 -61.7)" />
  <path class="cls-1" d="M345.26,196.05h-2v-2.33h2v-1.26c0-1.45.46-3.54,3.68-3.54a9.92,9.92,0,0,1,2.48.29V192h-1.07c-.65,0-1.31.19-1.31.92v.82h2.33v2.33H349v10.33h-3.78Z" transform="translate(-76.96 -61.7)" />
  <path class="cls-1" d="M365.66,199.93c0,4.34-2.84,6.79-6.87,6.79s-6.86-2.45-6.86-6.79,2.84-6.79,6.86-6.79,6.87,2.45,6.87,6.79m-10,0c0,2.21.93,3.88,3.08,3.88s3.08-1.67,3.08-4c0-2.06-.92-3.73-3.08-3.73s-3.08,1.67-3.08,3.88" transform="translate(-76.96 -61.7)" />
  <path class="cls-1" d="M367.67,193.48h3.79v1.31a6,6,0,0,1,3.54-1.36l0,3.35-.41.05c-2.25.26-3.15.65-3.15,2.08v7.47h-3.79Z" transform="translate(-76.96 -61.7)" />
  <path class="cls-1" d="M376.65,193.48h3.79v1.14a5,5,0,0,1,3.73-1.48,4,4,0,0,1,3.42,1.72,5.55,5.55,0,0,1,4.15-1.72c1.26,0,4,.44,4,3.4v9.84h-3.79v-7.54c0-1.82-.5-2.64-1.94-2.64-1.26,0-1.91.94-1.91,2.25v7.93h-3.79v-8.07c0-1.27-.38-2.11-1.84-2.11s-2,1-2,2.15v8h-3.79Z" transform="translate(-76.96 -61.7)" />
  <path class="cls-1" d="M409.53,203.69a7.71,7.71,0,0,0,.33,2.69h-3.49a4.72,4.72,0,0,1-.24-1.33h-.05c-.63,1-2.52,1.67-3.88,1.67-2.47,0-4.32-1.36-4.32-3.83,0-3.1,2.5-4.19,6.62-4.78l1.39-.19v-1.07c0-1-.78-1.38-1.8-1.38a1.72,1.72,0,0,0-2,1.72h-3.63c.12-3.71,3.56-4.05,5.31-4.05,3.52,0,5.72.82,5.75,3.73Zm-3.64-3.59-2.55.73c-.95.27-1.82.63-1.82,1.67s.85,1.46,1.77,1.46c1.48,0,2.6-1,2.6-3Z" transform="translate(-76.96 -61.7)" />
  <path class="cls-1" d="M412.56,193.48h3.78v1.14a5,5,0,0,1,3.74-1.48c3.06,0,3.91,1.77,3.91,3.71v9.53H420.2v-8.07c0-1.27-.39-2.11-1.84-2.11s-2,1-2,2.15v8h-3.78Z" transform="translate(-76.96 -61.7)" />
  <path class="cls-1" d="M435.27,197.82a2.79,2.79,0,0,0-2.43-1.77c-2.16,0-2.93,1.67-2.93,3.88s.92,3.88,2.93,3.88a2.65,2.65,0,0,0,2.69-1.89l2.72,1.38a6.54,6.54,0,0,1-5.75,3.42c-3.85,0-6.52-2.45-6.52-6.79s2.84-6.79,6.4-6.79a6.16,6.16,0,0,1,5.8,3.15Z" transform="translate(-76.96 -61.7)" />
  <path class="cls-1" d="M442.77,200.71c0,2.47,1.6,3.25,2.81,3.25,1.41,0,2.06-.73,3.15-2.28l2.84,1.48a6.53,6.53,0,0,1-6.26,3.56c-4,0-6.33-2.76-6.33-6.4,0-4.56,2.41-7.18,6.33-7.18,4.71,0,6.31,3.59,6.33,7.57Zm5.09-2.33a2.45,2.45,0,0,0-2.57-2.48,2.61,2.61,0,0,0-2.57,2.48Z" transform="translate(-76.96 -61.7)" />
  <rect class="cls-1" x="376.58" y="140.6" width="3.93" height="4.07" />
  <path class="cls-1" d="M219.83,154.55V101.39C217,104,212.5,104.2,208,104.2H196.84v2H208v30.29c0,9.45-8.75,19.55-18.62,19.55-5.36,0-8.75-3.46-8.75-9V101.39c-2.82,2.56-7.33,2.81-11.85,2.81H155.18V68.05h10.5V66H131.82v2.06H143v36.14H99.62V68.05h11.21V66H77v2.06h10.5v86.48H77v2.08h33.87v-2.08H99.62V106.25H143v48.28h-11.2v2.08h33.86v-2.08h-10.5V106.25h13.59V144c0,7.41,5.08,14.18,19.19,14.18,12.55,0,18.47-10.22,19.74-13.16H208v11.64h23.13v-2.06Z" transform="translate(-76.96 -61.7)" />
  <path class="cls-1" d="M270.76,138a17.62,17.62,0,0,1-17.38,18.07c-12.81,0-14.38-7.35-14.38-26.59,0-17.69,2-26.6,13.46-26.6,10.86,0,18.3,10.59,18.3,20Zm44.53-15.16-4.91-.26c-9.55-.52-15.19-2.84-15.19-9.6s5.93-10.38,13.3-10.38c11.43,0,15.76,6.74,16.78,14.14h1.88l-.59-15.44h-2v1c0,1.82-.15,2.72-1,2.72-1.44,0-6.8-4.54-14.6-4.54-11.28,0-18.07,7.4-18.07,16.74,0,13.49,9.11,14.66,18.51,15.58,7.65.77,16.34.9,16.34,11.16,0,7.4-6.08,12.07-14,12.07-15.18,0-18.93-11.69-20.09-18.3H289.7l.26,16.75h-8.21V61.7c-2.62,3-6.8,3.24-11,3.24H260.3V67h10.46v47h-.26c-2.35-6.06-8.63-13.16-18-13.16-15.69,0-26,16-26,28.66,0,15.1,10.59,28.66,26.93,28.66,9,0,15.16-6.58,17.12-11h.26v9.43h21.4c.29-2.73-.14-4,1.73-4,2.89,0,6.37,5.57,17.78,5.57,11.13,0,20.11-7.91,20.11-20,0-8.94-4.78-14.66-16.49-15.31" transform="translate(-76.96 -61.7)" />
  <path class="cls-1" d="M377.05,124.45c0-11.23-.52-21.56-15.17-21.56s-15.17,10.33-15.17,21.56v10.07c0,11.24.53,21.56,15.17,21.56s15.17-10.32,15.17-21.56Zm-15.17-23.62c16.87,0,27.72,13.81,27.72,28.65s-10.85,28.66-27.72,28.66-27.71-13.8-27.71-28.66,10.85-28.65,27.71-28.65" transform="translate(-76.96 -61.7)" />
  <path class="cls-1" d="M395.75,105.73H385.41v-2.07h10.34c6.27,0,8.62,0,11-2.83V114H407c3.39-6.2,9.92-13.17,19.47-13.17,14,0,17.91,7,17.91,14.58v39.13H454.7v2.07H423.07v-2.07h10.32V112.32c0-7.1-3.53-9.43-7.72-9.43-11,0-16.59,10.84-18.94,15.24v36.41h9.93v2.07H385.41v-2.07h10.34Z" transform="translate(-76.96 -61.7)" />
</svg>