<svg id="Layer_1" data-name="Layer 1" xmlns="http://www.w3.org/2000/svg" width="146.8mm" height="33.9mm" viewBox="0 0 416.2 96">
  <defs>
    <style>
      .cls-1 {
        fill: #231f20;
      }

      .cls-2 {
        fill: #2dc3ea;
      }
    </style>
  </defs>
  <title>winston-fox-logo-rev2</title>
  <g>
    <g>
      <path class="cls-1" d="M140.2,29.9V31c-2,.4-3.5,2-4.3,4.7l-10.3,33h-.9l-9.5-28-8.6,28h-.9L94.1,34.4c-.7-2.2-2-3.4-3.7-3.4V29.9h11.7V31a3.6,3.6,0,0,0-2.1.5,1.6,1.6,0,0,0-.6,1.4,9.8,9.8,0,0,0,.6,2.6l8,24.4,6.6-21.1-1.4-4.4c-.8-2.2-1.8-3.4-3.3-3.4V29.9h12.3V31a9,9,0,0,0-2.9.4,1.6,1.6,0,0,0-.8,1.5,10.5,10.5,0,0,0,.5,2.6l7.9,24.3,6.7-21.1a14.8,14.8,0,0,0,.9-4.4,3,3,0,0,0-1.1-2.6,7.5,7.5,0,0,0-3.6-.7V29.9h10.4Z"/>
      <path class="cls-1" d="M149.4,63.4a4.3,4.3,0,0,0,.9,3.1,4.9,4.9,0,0,0,3.3.8v1.2l-6.6-.2c-1.1,0-3.3,0-6.6.2V67.3c1.5,0,2.6-.2,3.2-.8a4.3,4.3,0,0,0,.9-3.1V46.3a5.8,5.8,0,0,0-.9-3.6,3.8,3.8,0,0,0-3.2-1.2V40.4l3.3.2a18.2,18.2,0,0,0,5.7-.8ZM149,27.8a3.4,3.4,0,0,1,1.1,2.4,3.4,3.4,0,0,1-1.1,2.5,3.3,3.3,0,0,1-2.4,1,3.4,3.4,0,0,1-3.5-3.5,3.3,3.3,0,0,1,1-2.4,3.3,3.3,0,0,1,2.5-1A3.3,3.3,0,0,1,149,27.8Z"/>
      <path class="cls-1" d="M180.4,41.7a5.9,5.9,0,0,1,1.5,2.7,17.2,17.2,0,0,1,.5,4.4V63.4a4.3,4.3,0,0,0,.9,3.1c.6.6,1.7.8,3.2.8v1.2l-6.5-.2c-1.1,0-3.1,0-6.1.2V67.3a3.8,3.8,0,0,0,2.8-.8,4.9,4.9,0,0,0,.7-3.1V47.6a9.7,9.7,0,0,0-.8-4.6c-.6-1.1-1.8-1.6-3.6-1.6a5.9,5.9,0,0,0-3.9,1.3,7.7,7.7,0,0,0-2.7,3.6,11.5,11.5,0,0,0-1,5V63.4a4.8,4.8,0,0,0,.8,3.1,3.6,3.6,0,0,0,2.8.8v1.2l-6.1-.2-6.6.2V67.3a4.9,4.9,0,0,0,3.3-.8,4.3,4.3,0,0,0,.9-3.1V46.3a5.8,5.8,0,0,0-.9-3.6,4,4,0,0,0-3.3-1.2V40.4l3.4.2a18.2,18.2,0,0,0,5.7-.8v6.4a10,10,0,0,1,3.8-5,9.4,9.4,0,0,1,5.5-1.6A7.4,7.4,0,0,1,180.4,41.7Z"/>
      <path class="cls-1" d="M202.2,40.2a8.9,8.9,0,0,1,2.4,1.4,1.9,1.9,0,0,0,1,.5q.9,0,1.2-2.4H208c-.1,1.8-.2,4.9-.2,9.3h-1.2a14.8,14.8,0,0,0-2.3-6,5.9,5.9,0,0,0-5.1-2.3,4.6,4.6,0,0,0-3.3,1.1,4,4,0,0,0-1.2,3.1,4.4,4.4,0,0,0,1.3,3.2,34,34,0,0,0,4.2,3l1.5,1a42.4,42.4,0,0,1,4,2.9,13.2,13.2,0,0,1,2.5,2.8,7.9,7.9,0,0,1,.9,3.8,6.5,6.5,0,0,1-2.7,5.6,10.4,10.4,0,0,1-6.6,2,11.4,11.4,0,0,1-4.3-.7,10.7,10.7,0,0,1-2.2-1.5l-.5-.2c-.3,0-.5.2-.7.5a5,5,0,0,0-.5,1.6h-1.2c.1-2.1.2-5.7.2-10.9h1.2a19.7,19.7,0,0,0,2.2,7.6c1.1,1.7,2.9,2.5,5.4,2.5a5.2,5.2,0,0,0,3.4-1.2,4.7,4.7,0,0,0,1.5-3.9,4.9,4.9,0,0,0-1.5-3.6,24.2,24.2,0,0,0-4.7-3.6A39.8,39.8,0,0,1,194,53a8.5,8.5,0,0,1-2.4-2.6,6.6,6.6,0,0,1-1-3.7,6.5,6.5,0,0,1,2.3-5.3,8.9,8.9,0,0,1,5.8-1.8A9.9,9.9,0,0,1,202.2,40.2Z"/>
      <path class="cls-1" d="M222.1,40.4h8v1.1h-8V62.6a5.6,5.6,0,0,0,.9,3.6,3.1,3.1,0,0,0,2.5,1.1,3.7,3.7,0,0,0,2.9-1.4,11.8,11.8,0,0,0,2.1-4.5l1,.3c-.9,5-3.2,7.5-7,7.5a9,9,0,0,1-3.1-.4,4.9,4.9,0,0,1-2.1-1.4,6.1,6.1,0,0,1-1.7-2.9,19.2,19.2,0,0,1-.5-4.7V41.5h-5.2V40.4h5.2V32.1a16.3,16.3,0,0,0,5-.8Z"/>
      <path class="cls-1" d="M254.9,43.3c2.3,2.5,3.4,6.2,3.4,11.2s-1.1,8.7-3.4,11.1a11.9,11.9,0,0,1-9,3.6,11.5,11.5,0,0,1-8.9-3.6c-2.3-2.4-3.4-6.2-3.4-11.1s1.1-8.7,3.4-11.2a11.6,11.6,0,0,1,8.9-3.7A12,12,0,0,1,254.9,43.3Zm-14.1.8c-1.3,2.2-1.9,5.7-1.9,10.4s.6,8.1,1.9,10.3a5.7,5.7,0,0,0,5.1,3.3c2.2,0,3.9-1.1,5.2-3.3s1.9-5.6,1.9-10.3-.6-8.2-1.9-10.4-3-3.4-5.2-3.4A5.6,5.6,0,0,0,240.8,44.1Z"/>
      <path class="cls-1" d="M286.6,41.7a5.8,5.8,0,0,1,1.4,2.7,17.2,17.2,0,0,1,.5,4.4V63.4a4.3,4.3,0,0,0,.9,3.1c.6.6,1.7.8,3.2.8v1.2l-6.5-.2c-1,0-3.1,0-6.1.2V67.3a3.8,3.8,0,0,0,2.8-.8,4.8,4.8,0,0,0,.8-3.1V47.6a9.6,9.6,0,0,0-.9-4.6c-.6-1.1-1.8-1.6-3.6-1.6a6.1,6.1,0,0,0-3.9,1.3,7.7,7.7,0,0,0-2.7,3.6,11.5,11.5,0,0,0-1,5V63.4a4.8,4.8,0,0,0,.8,3.1,3.6,3.6,0,0,0,2.8.8v1.2c-3-.2-5.1-.2-6.1-.2l-6.5.2V67.3c1.5,0,2.6-.2,3.2-.8a4.3,4.3,0,0,0,.9-3.1V46.3a5.8,5.8,0,0,0-.9-3.6,3.8,3.8,0,0,0-3.2-1.2V40.4l3.3.2a18.2,18.2,0,0,0,5.7-.8v6.4a10,10,0,0,1,3.8-5,9.4,9.4,0,0,1,5.5-1.6A7.6,7.6,0,0,1,286.6,41.7Z"/>
      <path class="cls-2" d="M336.1,36.8c0,1.9.1,3.4.2,4.5H335a29.3,29.3,0,0,0-1-6.2,5.1,5.1,0,0,0-2.3-3,9.8,9.8,0,0,0-5.1-1h-3.4a10.2,10.2,0,0,0-2.9.3,1.8,1.8,0,0,0-1.2,1.2,11.5,11.5,0,0,0-.3,3V49.1h4a4.4,4.4,0,0,0,2.9-.9,4,4,0,0,0,1.4-2.2q.3-1.2.6-3V41.9h1.3c-.1,1.5-.2,3.2-.2,5.1v2.6c0,1.9.1,4.4.4,7.8H328q0-.4-.3-2.7a5.7,5.7,0,0,0-1.5-3.4,4.7,4.7,0,0,0-3.4-1.1h-4V62.7a7.4,7.4,0,0,0,.4,3,2.7,2.7,0,0,0,1.6,1.3,19.8,19.8,0,0,0,3.5.4v1.1l-8-.2-7,.2V67.4a14.3,14.3,0,0,0,2.9-.4,2.2,2.2,0,0,0,1.2-1.3,10.5,10.5,0,0,0,.3-3V35.6a11.5,11.5,0,0,0-.3-3,1.8,1.8,0,0,0-1.2-1.2,9.5,9.5,0,0,0-2.9-.4V29.9h27.2C336.3,32.4,336.1,34.8,336.1,36.8Z"/>
      <path class="cls-2" d="M360.6,43.3c2.3,2.5,3.5,6.2,3.5,11.2s-1.2,8.7-3.5,11.1a11.5,11.5,0,0,1-8.9,3.6,11.9,11.9,0,0,1-9-3.6c-2.3-2.4-3.4-6.2-3.4-11.1s1.1-8.7,3.4-11.2a12,12,0,0,1,9-3.7A11.6,11.6,0,0,1,360.6,43.3Zm-14.1.8c-1.3,2.2-1.9,5.7-1.9,10.4s.6,8.1,1.9,10.3,3,3.3,5.2,3.3,3.9-1.1,5.2-3.3,1.9-5.6,1.9-10.3-.7-8.2-1.9-10.4-3-3.4-5.2-3.4S347.8,41.8,346.5,44.1Z"/>
      <path class="cls-2" d="M391.6,66.5a3,3,0,0,0,1.7.8v1.2a34.8,34.8,0,0,0-3.9-.2c-1.2,0-3.4,0-6.4.2V67.3a3.3,3.3,0,0,0,1.5-.3,1,1,0,0,0,.6-.9,1.4,1.4,0,0,0-.2-.6l-6.2-9.1-4,5.2a6.2,6.2,0,0,0-1.5,3.3,2.1,2.1,0,0,0,1,1.8,7.3,7.3,0,0,0,3,.7v1.1l-6.2-.2-4.2.2V67.4a4,4,0,0,0,2.2-1,12,12,0,0,0,2.6-2.8l6.3-8.3-7.6-11a8.6,8.6,0,0,0-1.7-2.1,3.3,3.3,0,0,0-1.7-.7V40.4l3.9.2,6.5-.2v1.1a2.4,2.4,0,0,0-1.5.4c-.5.2-.7.5-.7.8a1.4,1.4,0,0,0,.2.7l5.9,8.5,3.7-5.3c1.1-1.6,1.7-2.7,1.7-3.4a1.4,1.4,0,0,0-.8-1.2,5.6,5.6,0,0,0-2.3-.5V40.4l4.5.2,4.2-.2v1.1c-1.5.2-3.1,1.4-4.8,3.8l-5.5,7.6,8,11.7A8.4,8.4,0,0,0,391.6,66.5Z"/>
    </g>
    <g>
      <path class="cls-2" d="M74.9,61.9h-52l-.3-.2c-.1-.2-.1-.3,0-.4l26-31.6c.1-.2.4-.2.6,0l26,31.6c0,.1.1.2,0,.4Zm-51.2-.8H74.1L48.9,30.5Z"/>
      <path class="cls-2" d="M48.9,82.7h-.3L22.7,61.8a.4.4,0,0,1-.2-.4c.1-.2.2-.3.4-.3h52a.3.3,0,0,1,.3.3c.1.1,0,.3-.1.4l-26,20.8ZM24,61.9,48.9,81.8,73.8,61.9Z"/>
      <path class="cls-2" d="M22.9,61.9h-.1a.5.5,0,0,1-.3-.4l4.3-47.9.2-.3h.4L49.1,29.6l.2.3c0,.1-.1.2-.1.3l-26,31.5Zm4.6-47.5L23.4,60.3,48.3,30Z"/>
      <path class="cls-2" d="M74.9,61.9l-.3-.2-26-31.5c0-.1-.1-.2-.1-.3l.2-.3L70.4,13.4h.4l.2.3,4.3,47.9a.5.5,0,0,1-.3.4ZM49.5,30,74.4,60.3,70.3,14.4Z"/>
      <rect class="cls-2" x="48.5" y="29.9" width="0.8" height="52.4"/>
      <rect class="cls-2" x="37.7" y="12" width="0.7" height="72.02" transform="translate(-12.7 13.7) rotate(-17.6)"/>
      <rect class="cls-2" x="23.8" y="47.6" width="72" height="0.75" transform="translate(-4 90.5) rotate(-72.4)"/>
      <path class="cls-2" d="M52.4,27.5,48.9,25l-3.4,2.5-.5-.6,3.7-2.6a.3.3,0,0,1,.4,0l3.7,2.6Z"/>
    </g>
  </g>
</svg>
