<?xml version="1.0" encoding="utf-8"?>
<!-- Generator: Adobe Illustrator 23.0.1, SVG Export Plug-In . SVG Version: 6.00 Build 0)  -->
<svg version="1.1" id="Layer_1" xmlns="http://www.w3.org/2000/svg" xmlns:xlink="http://www.w3.org/1999/xlink" x="0px" y="0px"
	 viewBox="0 0 43.1 49.1" style="enable-background:new 0 0 43.1 49.1;" xml:space="preserve">
<style type="text/css">
	.st0{fill:#0088CF;}
</style>
<path class="st0" d="M37.8,40H5.3c-3.2,0-4.6,0-5.1-1.4c-0.5-1.2,0.5-2.1,1.6-2.9c2.1-1.8,6.6-5.4,6.6-13.4
	c0-14.4,9.8-17.7,13.2-17.7s13.2,3.3,13.2,17.7c0,7.9,4.5,11.6,6.6,13.4c1,0.9,2,1.7,1.6,2.9C42.4,40,41,40,37.8,40z M5.1,37
	c0.1,0,0.1,0,0.2,0h32.6c0.1,0,0.1,0,0.2,0c-2.6-2.3-6.4-6.7-6.4-14.6c0-14-10-14.6-10.1-14.6S11.5,8.4,11.5,22.4
	C11.5,30.2,7.7,34.6,5.1,37z"/>
<path class="st0" d="M31.6,42.2c-0.5,2.4-3.4,6.9-10.1,6.9c-6.7,0-9.5-4.5-10.1-6.9L31.6,42.2z"/>
<path class="st0" d="M21.6,46.2"/>
<path class="st0" d="M21.6,7.7c-0.9,0-1.6-0.7-1.6-1.5V1.6c0-0.8,0.7-1.5,1.6-1.5s1.6,0.7,1.6,1.5v4.6C23.1,7.1,22.4,7.7,21.6,7.7z"
	/>
</svg>
