<svg id="Layer_1" data-name="Layer 1" xmlns="http://www.w3.org/2000/svg" viewBox="0 0 170 34"><defs><style>.cls-1{fill:#005c89;}.cls-2,.cls-3{fill:#fff;}.cls-2{fill-rule:evenodd;}</style></defs><title>linkedin-hover</title><rect class="cls-1" width="170" height="34"/><path class="cls-2" d="M28.77,26V19.32c0-1.33-.19-2.66-1.75-2.66S25,18,25,19.36V26H20.6V14.06H25v1.48c0.63-1.39,2-2,3.7-2s4.47,0.81,4.47,5.49V26h-4.4Zm-12-13.82a2.22,2.22,0,0,1-2.33-2.09A2.22,2.22,0,0,1,16.74,8a2.22,2.22,0,0,1,2.33,2.09,2.22,2.22,0,0,1-2.33,2.09m2,13.82H14.94V14.06h3.77V26Z"/><path class="cls-3" d="M46,11.9h1.43l3.38,9.33H49.42l-1-2.79H44.79l-1,2.79H42.48Zm2.09,5.5-1.44-4.12L45.16,17.4h2.93Z"/><path class="cls-3" d="M51.7,14.46h1.12v0.9a2.77,2.77,0,0,1,.75-0.72,2.42,2.42,0,0,1,1.36-.38,2.57,2.57,0,0,1,2,.89,3.62,3.62,0,0,1,.81,2.53,3.88,3.88,0,0,1-1.17,3.17,2.64,2.64,0,0,1-1.72.6,2.34,2.34,0,0,1-1.29-.34,3,3,0,0,1-.68-0.65v3.47H51.7V14.46ZM56,19.78a3.18,3.18,0,0,0,.53-2,3.72,3.72,0,0,0-.24-1.4,1.73,1.73,0,0,0-3.26.06,4.68,4.68,0,0,0-.24,1.61A3.41,3.41,0,0,0,53,19.4,1.74,1.74,0,0,0,56,19.78Z"/><path class="cls-3" d="M58.93,14.46H60v0.9a2.77,2.77,0,0,1,.75-0.72,2.42,2.42,0,0,1,1.36-.38,2.57,2.57,0,0,1,2,.89,3.62,3.62,0,0,1,.81,2.53,3.88,3.88,0,0,1-1.17,3.17,2.64,2.64,0,0,1-1.72.6,2.34,2.34,0,0,1-1.29-.34,3,3,0,0,1-.68-0.65v3.47H58.93V14.46Zm4.3,5.33a3.18,3.18,0,0,0,.53-2,3.72,3.72,0,0,0-.24-1.4,1.73,1.73,0,0,0-3.26.06A4.68,4.68,0,0,0,60,18.06a3.41,3.41,0,0,0,.24,1.34A1.74,1.74,0,0,0,63.23,19.78Z"/><path class="cls-3" d="M66.28,11.9h1.14v9.33H66.28V11.9Z"/><path class="cls-3" d="M73.39,14.42h1.26q-0.24.65-1.07,3-0.62,1.75-1,2.86a19.35,19.35,0,0,1-1.4,3.17,1.59,1.59,0,0,1-1.4.57l-0.37,0-0.32-.07v-1L69.49,23l0.23,0a0.83,0.83,0,0,0,.47-0.1,1,1,0,0,0,.25-0.26s0.1-.21.23-0.52l0.29-.7-2.51-7h1.29L71.56,20Z"/><path class="cls-3" d="M79.78,14.42l1.31,5.36,1.33-5.36H83.7L85,19.75l1.39-5.33h1.14l-2,6.8H84.4L83,16l-1.34,5.26H80.49l-2-6.8h1.25Z"/><path class="cls-3" d="M88.64,11.9H89.8v1.29H88.64V11.9Zm0,2.56H89.8v6.77H88.64V14.46Z"/><path class="cls-3" d="M91.76,12.53h1.16v1.9H94v0.93H92.91v4.44a0.48,0.48,0,0,0,.24.48,1,1,0,0,0,.44.07h0.18l0.22,0v0.91a2.62,2.62,0,0,1-.41.08l-0.46,0A1.24,1.24,0,0,1,92,20.92a1.82,1.82,0,0,1-.29-1.06v-4.5H90.84V14.42h0.92v-1.9Z"/><path class="cls-3" d="M95.14,11.87h1.14v3.48A3.27,3.27,0,0,1,97,14.62a2.46,2.46,0,0,1,1.38-.36,2,2,0,0,1,2,1,3.53,3.53,0,0,1,.29,1.57v4.36H99.51V16.94a2.4,2.4,0,0,0-.19-1.1,1.22,1.22,0,0,0-1.17-.56,1.94,1.94,0,0,0-1.29.49,2.35,2.35,0,0,0-.58,1.85v3.61H95.14V11.87Z"/><path class="cls-3" d="M106.14,11.9h1.26v8.21h4.68v1.11h-5.94V11.9Z"/><path class="cls-3" d="M113.21,11.9h1.16v1.29h-1.16V11.9Zm0,2.56h1.16v6.77h-1.16V14.46Z"/><path class="cls-3" d="M116.1,14.42h1.09v1a3,3,0,0,1,1-.86,2.72,2.72,0,0,1,1.2-.26,2,2,0,0,1,2,1,3.58,3.58,0,0,1,.28,1.58v4.36h-1.16V16.94a2.32,2.32,0,0,0-.18-1,1.12,1.12,0,0,0-1.1-.63,2.23,2.23,0,0,0-.67.08,1.71,1.71,0,0,0-.83.56,1.67,1.67,0,0,0-.37.7,4.65,4.65,0,0,0-.09,1v3.56H116.1v-6.8Z"/><path class="cls-3" d="M123.31,11.9h1.1v5.41l2.93-2.89h1.46L126.18,17l2.76,4.27h-1.46l-2.14-3.46-0.94.91v2.55h-1.1V11.9Z"/><path class="cls-3" d="M134,14.61a2.57,2.57,0,0,1,1,.88,3,3,0,0,1,.45,1.2,7.87,7.87,0,0,1,.1,1.5h-4.95a2.94,2.94,0,0,0,.49,1.66,1.62,1.62,0,0,0,1.4.63,1.81,1.81,0,0,0,1.42-.59,2,2,0,0,0,.42-0.8h1.12a2.37,2.37,0,0,1-.29.83,3,3,0,0,1-.56.75,2.65,2.65,0,0,1-1.28.69,3.82,3.82,0,0,1-.93.1,2.84,2.84,0,0,1-2.14-.92,3.61,3.61,0,0,1-.88-2.59,3.92,3.92,0,0,1,.88-2.66,2.9,2.9,0,0,1,2.31-1A3.08,3.08,0,0,1,134,14.61Zm0.41,2.67a3,3,0,0,0-.32-1.19,1.64,1.64,0,0,0-1.55-.83,1.71,1.71,0,0,0-1.31.57,2.15,2.15,0,0,0-.56,1.44h3.75Z"/><path class="cls-3" d="M140.8,14.63a3.08,3.08,0,0,1,.69.67V11.87h1.1v9.36h-1V20.28a2.46,2.46,0,0,1-.94.91,2.69,2.69,0,0,1-1.25.28,2.52,2.52,0,0,1-2-1,3.75,3.75,0,0,1-.83-2.54,4.4,4.4,0,0,1,.76-2.57,2.47,2.47,0,0,1,2.16-1.09A2.4,2.4,0,0,1,140.8,14.63Zm-2.55,5.1a1.61,1.61,0,0,0,1.48.74,1.56,1.56,0,0,0,1.3-.68,3.24,3.24,0,0,0,.51-2,2.91,2.91,0,0,0-.52-1.91,1.63,1.63,0,0,0-1.29-.62,1.71,1.71,0,0,0-1.39.66,3,3,0,0,0-.53,1.94A3.38,3.38,0,0,0,138.25,19.73Z"/><path class="cls-3" d="M144.73,11.9H146v9.33h-1.28V11.9Z"/><path class="cls-3" d="M147.91,14.42H149v1a3,3,0,0,1,1-.86,2.72,2.72,0,0,1,1.2-.26,2,2,0,0,1,2,1,3.58,3.58,0,0,1,.28,1.58v4.36h-1.16V16.94a2.32,2.32,0,0,0-.18-1,1.12,1.12,0,0,0-1.1-.63,2.23,2.23,0,0,0-.67.08,1.71,1.71,0,0,0-.83.56,1.67,1.67,0,0,0-.37.7,4.65,4.65,0,0,0-.09,1v3.56h-1.14v-6.8Z"/></svg>