<?xml version="1.0" encoding="utf-8"?>
<!-- Generator: Adobe Illustrator 23.0.1, SVG Export Plug-In . SVG Version: 6.00 Build 0)  -->
<svg version="1.1" id="Layer_1" xmlns="http://www.w3.org/2000/svg" xmlns:xlink="http://www.w3.org/1999/xlink" x="0px" y="0px"
	 viewBox="0 0 45.1 41.1" style="enable-background:new 0 0 45.1 41.1;" xml:space="preserve">
<style type="text/css">
	.st0{fill:#0088D2;}
</style>
<g>
	<path class="st0" d="M44.3,2.5c-1-1-2.6-1-3.6,0L20.3,22.3l-5.7-5.5c-1-1-2.6-1-3.6,0v0c-1,1-1,2.5,0,3.5l7.4,7.2c0,0,0,0,0,0
		c0,0,0,0,0,0l0,0c1,1,2.6,1,3.6,0L44.3,6C45.3,5,45.3,3.4,44.3,2.5z"/>
	<path class="st0" d="M37.7,17.5c0.2,1.2,0.3,2.5,0.3,3.8C37.7,30.1,30.2,37,21.1,37C11.7,37,4,29.4,4.2,20.2
		c0.2-8.7,7.4-15.7,16.3-16c3.7-0.1,7.1,0.9,10,2.7c0.8,0.5,1.9,0.4,2.6-0.3l0,0c0.9-0.9,0.8-2.4-0.3-3.1c-3.4-2.2-7.5-3.4-11.7-3.4
		c-5.6,0-10.9,2.1-14.9,6c-4,3.9-6.2,9-6.2,14.5C0,26,2.3,31.2,6.2,35c4,3.9,9.3,6,14.9,6c5.6,0,10.9-2.1,14.9-6
		c4-3.9,6.2-9,6.2-14.5c0-1.3-0.1-2.6-0.4-3.9c-0.3-1.6-2.4-2.2-3.5-1l0,0C37.8,16.1,37.6,16.8,37.7,17.5z"/>
</g>
</svg>
