<?xml version="1.0" encoding="utf-8"?>
<!-- Generator: Adobe Illustrator 23.0.3, SVG Export Plug-In . SVG Version: 6.00 Build 0)  -->
<svg version="1.1" id="Layer_1" xmlns="http://www.w3.org/2000/svg" xmlns:xlink="http://www.w3.org/1999/xlink" x="0px" y="0px"
	 viewBox="0 0 105 35" style="enable-background:new 0 0 105 35;" xml:space="preserve">
<style type="text/css">
	.st0{fill-rule:evenodd;clip-rule:evenodd;fill:#FD6001;}
	.st1{fill-rule:evenodd;clip-rule:evenodd;fill:#FFFFFF;}
</style>
<title>indeed</title>
<desc>Created with Sketch.</desc>
<g id="Homepage">
	<g id="Artboard" transform="translate(-283.000000, -63.000000)">
		<g id="indeed" transform="translate(283.000000, 63.000000)">
			<rect id="Rectangle" class="st0" width="105" height="35"/>
			<g transform="translate(18.000000, 7.000000)">
				<path id="Fill-1" class="st1" d="M67.1,3.2h0.3c0.1,0,0.2,0,0.3-0.1c0.1,0,0.1-0.1,0.1-0.2c0,0,0-0.1,0-0.1c0,0-0.1-0.1-0.1-0.1
					c0,0-0.1,0-0.3,0h-0.3V3.2z M66.9,4V2.5h0.5c0.2,0,0.3,0,0.4,0c0.1,0,0.1,0.1,0.2,0.2c0,0.1,0.1,0.1,0.1,0.2
					c0,0.1,0,0.2-0.1,0.3c-0.1,0.1-0.2,0.1-0.3,0.1c0.1,0,0.1,0.1,0.1,0.1c0.1,0.1,0.1,0.2,0.2,0.3L68.2,4h-0.3l-0.1-0.2
					c-0.1-0.2-0.2-0.3-0.3-0.4c0,0-0.1-0.1-0.2-0.1h-0.1V4H66.9z M67.5,2c-0.2,0-0.4,0.1-0.6,0.2c-0.2,0.1-0.3,0.3-0.5,0.4
					c-0.1,0.2-0.2,0.4-0.2,0.6c0,0.2,0.1,0.4,0.2,0.6c0.1,0.2,0.3,0.3,0.4,0.4c0.2,0.1,0.4,0.2,0.6,0.2c0.2,0,0.4-0.1,0.6-0.2
					c0.2-0.1,0.3-0.3,0.4-0.4c0.1-0.2,0.2-0.4,0.2-0.6c0-0.2-0.1-0.4-0.2-0.6c-0.1-0.2-0.3-0.3-0.5-0.4C67.9,2.1,67.7,2,67.5,2
					L67.5,2z M67.5,1.8c0.2,0,0.5,0.1,0.7,0.2c0.2,0.1,0.4,0.3,0.5,0.5C68.9,2.7,69,3,69,3.2c0,0.2-0.1,0.5-0.2,0.7
					c-0.1,0.2-0.3,0.4-0.5,0.5c-0.2,0.1-0.5,0.2-0.7,0.2c-0.3,0-0.5-0.1-0.7-0.2c-0.2-0.1-0.4-0.3-0.5-0.5c-0.1-0.2-0.2-0.5-0.2-0.7
					c0-0.3,0.1-0.5,0.2-0.7c0.1-0.2,0.3-0.4,0.5-0.5C67,1.9,67.3,1.8,67.5,1.8L67.5,1.8z"/>
				<path id="Fill-2" class="st1" d="M62.1,14.3c-0.2,0.5-0.6,0.9-0.9,1.1c-0.4,0.2-0.8,0.4-1.3,0.4h0c-0.5,0-0.9-0.1-1.3-0.4
					c-0.4-0.3-0.7-0.7-0.9-1.2c-0.2-0.5-0.3-1.2-0.3-1.9c0-0.7,0.1-1.3,0.3-1.9c0.2-0.5,0.5-0.9,0.9-1.2c0.4-0.3,0.8-0.4,1.3-0.4h0
					c0.5,0,0.9,0.1,1.3,0.4c0.4,0.3,0.7,0.7,1,1.2c0.2,0.5,0.4,1.2,0.4,1.9C62.5,13.1,62.4,13.8,62.1,14.3 M64.9,3.1
					c-0.2-0.3-0.5-0.4-1-0.4c-0.4,0-0.7,0.1-1,0.4c-0.2,0.3-0.3,0.7-0.3,1.3v4.1c-0.5-0.6-1-1-1.6-1.3c-0.3-0.2-0.7-0.3-1.2-0.4
					c-0.3,0-0.5-0.1-0.8-0.1c-1.4,0-2.5,0.5-3.3,1.4c-0.8,1-1.2,2.3-1.2,4c0,0.8,0.1,1.6,0.3,2.3c0.2,0.7,0.5,1.3,0.9,1.8
					c0.4,0.5,0.9,0.9,1.5,1.2c0.6,0.3,1.2,0.4,1.8,0.4c0.3,0,0.6,0,0.9-0.1c0.2,0,0.3-0.1,0.5-0.1c0.4-0.1,0.8-0.3,1.2-0.6
					c0.4-0.3,0.7-0.6,1.1-1v0.3c0,0.5,0.1,0.9,0.4,1.2c0.2,0.3,0.6,0.4,0.9,0.4c0.4,0,0.7-0.1,0.9-0.4c0.2-0.3,0.4-0.7,0.4-1.2V4.3
					C65.2,3.8,65.1,3.4,64.9,3.1"/>
				<path id="Fill-3" class="st1" d="M47.3,9.4c0.4-0.5,1-0.7,1.7-0.7h0c0.7,0,1.3,0.2,1.7,0.7c0.4,0.5,0.7,1.2,0.8,2.1h-5
					C46.6,10.6,46.8,9.9,47.3,9.4 M53.7,14.4c-0.2-0.2-0.4-0.2-0.7-0.2c-0.3,0-0.5,0.1-0.6,0.2c-0.3,0.3-0.6,0.6-0.8,0.8
					c-0.2,0.2-0.5,0.4-0.7,0.5c-0.2,0.2-0.5,0.3-0.8,0.4c-0.3,0.1-0.6,0.1-0.9,0.1c-0.1,0-0.1,0-0.2,0c-0.4,0-0.8-0.1-1.1-0.4
					c-0.4-0.2-0.7-0.6-1-1.1c-0.2-0.5-0.4-1-0.4-1.7h5.3c0.7,0,1.3-0.1,1.7-0.3c0.4-0.2,0.6-0.7,0.6-1.3c0-0.7-0.2-1.5-0.6-2.2
					c-0.4-0.7-0.9-1.3-1.7-1.8C51,7,50.1,6.8,49,6.8H49c-0.8,0-1.5,0.1-2.2,0.4c-0.7,0.3-1.2,0.6-1.7,1.1c-0.5,0.5-0.8,1.1-1,1.8
					c-0.2,0.7-0.4,1.4-0.4,2.3c0,1.7,0.5,3.1,1.5,4.1c0.9,1,2.2,1.5,3.8,1.5c0.1,0,0.2,0,0.3,0c0.8,0,1.4-0.1,2-0.3
					c0.6-0.2,1.1-0.5,1.5-0.8c0.4-0.3,0.7-0.6,0.9-1c0.2-0.3,0.3-0.6,0.3-0.9C53.9,14.8,53.8,14.6,53.7,14.4"/>
				<path id="Fill-4" class="st1" d="M36.3,9.4c0.4-0.5,1-0.7,1.7-0.7h0c0.7,0,1.3,0.2,1.7,0.7c0.4,0.5,0.7,1.2,0.8,2.1h-5
					C35.6,10.6,35.9,9.9,36.3,9.4 M42,14.2c-0.3,0-0.5,0.1-0.6,0.2c-0.3,0.3-0.6,0.6-0.8,0.8c-0.2,0.2-0.4,0.4-0.7,0.5
					c-0.3,0.2-0.5,0.3-0.8,0.4c-0.3,0.1-0.6,0.1-0.9,0.1c-0.1,0-0.1,0-0.2,0c-0.4,0-0.8-0.1-1.1-0.4c-0.4-0.2-0.7-0.6-1-1.1
					c-0.2-0.5-0.4-1-0.4-1.7h5.4c0.7,0,1.3-0.1,1.7-0.3c0.4-0.2,0.6-0.7,0.6-1.3c0-0.7-0.2-1.5-0.6-2.2c-0.4-0.7-1-1.3-1.7-1.8
					c-0.8-0.5-1.7-0.7-2.7-0.7H38c-0.8,0-1.5,0.1-2.2,0.4c-0.7,0.3-1.2,0.6-1.7,1.1c-0.5,0.5-0.8,1.1-1.1,1.8
					c-0.2,0.7-0.4,1.4-0.4,2.3c0,1.7,0.5,3.1,1.5,4.1c0.9,1,2.2,1.5,3.8,1.5c0.1,0,0.2,0,0.3,0c0.8,0,1.4-0.1,2-0.3
					c0.6-0.2,1.1-0.5,1.5-0.8c0.4-0.3,0.7-0.6,0.9-1c0.2-0.3,0.3-0.6,0.3-0.9c0-0.3-0.1-0.5-0.3-0.6C42.6,14.3,42.3,14.2,42,14.2"/>
				<path id="Fill-5" class="st1" d="M5.7,16.1V9.6c0.2,0,0.4,0,0.5,0c0.9,0,1.7-0.2,2.4-0.7v7.2c0,0.6-0.1,1.1-0.4,1.4
					c-0.3,0.3-0.6,0.5-1.1,0.5c-0.4,0-0.8-0.2-1.1-0.5C5.8,17.2,5.7,16.7,5.7,16.1"/>
				<path id="Fill-6" class="st1" d="M28.7,14.3c-0.2,0.5-0.6,0.9-1,1.1c-0.4,0.2-0.8,0.4-1.3,0.4h0c-0.5,0-0.9-0.1-1.3-0.4
					c-0.4-0.3-0.7-0.7-0.9-1.2c-0.2-0.5-0.3-1.2-0.3-1.9c0-0.7,0.1-1.3,0.3-1.9c0.2-0.5,0.5-0.9,0.9-1.2c0.4-0.3,0.8-0.4,1.3-0.4h0
					c0.5,0,0.9,0.1,1.3,0.4c0.4,0.3,0.7,0.7,1,1.2c0.2,0.5,0.4,1.2,0.4,1.9C29,13.1,28.9,13.8,28.7,14.3 M31.4,3.1
					c-0.2-0.3-0.5-0.4-0.9-0.4c-0.4,0-0.7,0.1-1,0.4c-0.2,0.3-0.3,0.7-0.3,1.3v4.1c-0.5-0.6-1-1-1.6-1.3c-0.3-0.2-0.7-0.3-1.2-0.4
					c-0.3,0-0.5-0.1-0.8-0.1c-1.4,0-2.5,0.5-3.3,1.4c-0.8,1-1.2,2.3-1.2,4c0,0.8,0.1,1.6,0.3,2.3c0.2,0.7,0.5,1.3,0.9,1.8
					c0.4,0.5,0.9,0.9,1.5,1.2c0.6,0.3,1.2,0.4,1.8,0.4c0.3,0,0.6,0,0.9-0.1c0.2,0,0.3-0.1,0.5-0.1c0.4-0.1,0.8-0.3,1.2-0.6
					c0.4-0.3,0.7-0.6,1.1-1v0.3c0,0.5,0.1,0.9,0.4,1.2c0.2,0.3,0.6,0.4,0.9,0.4c0.4,0,0.7-0.1,0.9-0.4c0.2-0.3,0.4-0.7,0.4-1.2V4.3
					C31.8,3.8,31.7,3.4,31.4,3.1"/>
				<path id="Fill-7" class="st1" d="M13,8.3v0.3c0.5-0.6,1-1.1,1.6-1.4c0.6-0.3,1.2-0.4,2-0.4c0.7,0,1.4,0.2,1.9,0.5
					c0.6,0.3,1,0.8,1.3,1.3c0.2,0.3,0.3,0.7,0.4,1.1c0.1,0.4,0.1,0.9,0.1,1.5v5.1c0,0.6-0.1,1-0.4,1.2c-0.2,0.3-0.6,0.4-1,0.4
					c-0.4,0-0.7-0.1-1-0.4c-0.3-0.3-0.4-0.7-0.4-1.2v-4.6c0-0.9-0.1-1.6-0.4-2.1c-0.2-0.5-0.8-0.7-1.5-0.7c-0.5,0-0.9,0.2-1.3,0.4
					c-0.4,0.3-0.7,0.7-0.9,1.2c-0.1,0.4-0.2,1.2-0.2,2.3v3.4c0,0.6-0.1,1-0.4,1.3c-0.3,0.3-0.6,0.4-1,0.4c-0.4,0-0.7-0.1-1-0.4
					c-0.3-0.3-0.4-0.7-0.4-1.2V8.3c0-0.5,0.1-0.9,0.3-1.2c0.2-0.3,0.5-0.4,0.9-0.4c0.2,0,0.5,0.1,0.6,0.2c0.2,0.1,0.4,0.3,0.5,0.5
					C13,7.7,13,8,13,8.3"/>
				<path id="Fill-9" class="st1" d="M5.7,0.4c1.8-0.7,3.9-0.6,5.5,0.7c0.3,0.3,0.6,0.6,0.8,1c0.2,0.5-0.6-0.1-0.7-0.1
					c-0.5-0.3-1-0.6-1.6-0.8c-3.1-1-6,0.8-7.9,3.5C1.1,5.9,0.6,7.2,0.2,8.5C0.2,8.7,0.1,8.9,0,9C0,9.2,0,8.6,0,8.6
					C0.1,8,0.2,7.5,0.3,6.9C1.2,4,3,1.5,5.7,0.4"/>
				<path id="Fill-11" class="st1" d="M8.1,7.7c-1.1,0.6-2.5,0.1-3-1c-0.6-1.1-0.1-2.5,1-3c1.1-0.6,2.5-0.1,3,1
					C9.7,5.8,9.2,7.1,8.1,7.7"/>
			</g>
		</g>
	</g>
</g>
</svg>
