<?xml version="1.0" encoding="utf-8"?>
<!-- Generator: Adobe Illustrator 23.0.3, SVG Export Plug-In . SVG Version: 6.00 Build 0)  -->
<svg version="1.1" id="Layer_1" xmlns="http://www.w3.org/2000/svg" xmlns:xlink="http://www.w3.org/1999/xlink" x="0px" y="0px"
	 viewBox="0 0 105 35" style="enable-background:new 0 0 105 35;" xml:space="preserve">
<style type="text/css">
	.st0{fill-rule:evenodd;clip-rule:evenodd;fill:#027BB6;}
	.st1{fill:#FFFFFF;}
	.st2{fill:#007ABB;}
</style>
<title>Linkedin</title>
<desc>Created with Sketch.</desc>
<g id="Homepage">
	<g id="Artboard" transform="translate(-283.000000, -10.000000)">
		<g id="Linkedin" transform="translate(283.000000, 10.000000)">
			<rect id="Rectangle" class="st0" width="105" height="35"/>
			<g id="LinkedIn-white-logo" transform="translate(14.000000, 7.000000)">
				<path id="Path" class="st1" d="M77,19.8c0,1.2-1,2.2-2.1,2.2H58.1c-1.2,0-2.1-1-2.1-2.2V2.2C56,1,57,0,58.1,0h16.8
					C76.1,0,77,1,77,2.2V19.8z"/>
				<g id="Group" transform="translate(0.000000, 4.000000)">
					<polygon class="st1" points="0,0.8 3,0.8 3,11.3 8.1,11.3 8.1,13.7 0,13.7 					"/>
					<path id="Shape" class="st1" d="M12.2,1.7c0,0.8-0.6,1.5-1.6,1.5c-0.9,0-1.5-0.7-1.5-1.5c0-0.8,0.6-1.5,1.6-1.5
						C11.6,0.3,12.2,0.9,12.2,1.7z M9.2,13.7V4.3h2.9v9.4H9.2L9.2,13.7z"/>
					<path class="st1" d="M13.9,7.3c0-1.2,0-2.1-0.1-3h2.5l0.1,1.3h0.1c0.4-0.6,1.3-1.5,2.9-1.5c1.9,0,3.4,1.3,3.4,4v5.5h-2.9V8.5
						c0-1.2-0.4-2-1.5-2c-0.8,0-1.3,0.6-1.5,1.1c-0.1,0.2-0.1,0.5-0.1,0.7v5.4h-2.9L13.9,7.3L13.9,7.3z"/>
					<path class="st1" d="M27.5,8.3L27.5,8.3c0.3-0.4,0.5-0.8,0.7-1.1l1.9-2.8h3.5l-3.4,3.8l3.9,5.6h-3.6l-2.3-3.9l-0.7,0.9v2.9
						h-2.9V0.1h2.9V8.3z"/>
					<path class="st1" d="M36.4,9.9c0.1,1.2,1.3,1.8,2.7,1.8c1,0,1.8-0.1,2.6-0.4l0.4,2c-1,0.4-2.1,0.6-3.4,0.6c-3.2,0-5-1.8-5-4.8
						c0-2.4,1.5-5,4.8-5c3,0,4.2,2.4,4.2,4.7c0,0.5-0.1,0.9-0.1,1.1H36.4L36.4,9.9z M39.9,7.9c0-0.7-0.3-1.9-1.7-1.9
						c-1.2,0-1.7,1.1-1.8,1.9H39.9z"/>
					<path class="st1" d="M52.9,0.1v10.8c0,1.1,0,2.2,0.1,2.8h-2.6l-0.1-1.4h-0.1c-0.6,1-1.7,1.6-3,1.6c-2.2,0-4-1.9-4-4.8
						c0-3.2,2-5,4.2-5c1.2,0,2.1,0.4,2.5,1.1h0V0.1H52.9L52.9,0.1z M50,8.3c0-0.2,0-0.4,0-0.5c-0.2-0.8-0.8-1.4-1.7-1.4
						c-1.4,0-2,1.2-2,2.7c0,1.6,0.8,2.6,2,2.6c0.8,0,1.5-0.6,1.7-1.4c0-0.2,0.1-0.4,0.1-0.7V8.3z"/>
				</g>
				<g transform="translate(59.000000, 4.000000)">
					<path class="st2" d="M3.2,1.5c0,0.8-0.6,1.4-1.6,1.4c-0.9,0-1.5-0.6-1.5-1.4c0-0.8,0.6-1.4,1.6-1.4C2.6,0.1,3.2,0.7,3.2,1.5z
						 M0.2,13V4h3v9H0.2L0.2,13z"/>
					<path class="st2" d="M4.9,6.9c0-1.1,0-2-0.1-2.9h2.6l0.1,1.2h0.1C8,4.7,9,3.8,10.6,3.8c2,0,3.4,1.2,3.4,3.9V13h-3V8
						c0-1.2-0.4-1.9-1.5-1.9c-0.8,0-1.3,0.5-1.5,1C7.9,7.3,7.9,7.6,7.9,7.8V13h-3L4.9,6.9L4.9,6.9z"/>
				</g>
			</g>
		</g>
	</g>
</g>
</svg>
