<?xml version="1.0" encoding="utf-8"?>
<!-- Generator: Adobe Illustrator 23.0.1, SVG Export Plug-In . SVG Version: 6.00 Build 0)  -->
<svg version="1.1" id="Layer_1" xmlns="http://www.w3.org/2000/svg" xmlns:xlink="http://www.w3.org/1999/xlink" x="0px" y="0px"
	 viewBox="0 0 39.1 46.1" style="enable-background:new 0 0 39.1 46.1;" xml:space="preserve">
<style type="text/css">
	.st0{fill:#0088CF;}
</style>
<g>
	<path class="st0" d="M39,15.9c0-0.5-0.3-1-0.7-1.3L21.8,0.4c0,0,0,0,0,0c-0.1-0.1-0.2-0.1-0.3-0.2c0,0,0,0,0,0
		c-0.1-0.1-0.3-0.1-0.4-0.1c0,0-0.1,0-0.1,0c-0.1,0-0.1,0-0.2,0H4c-2.2,0-4,1.8-4,4v38.1c0,2.2,1.8,4,4,4h31c2.2,0,4-1.8,4-4v-26
		C39,16,39,16,39,15.9z M22.3,5.1l10.8,9.2h-10c-0.4,0-0.8-0.4-0.8-0.8V5.1z M35.1,42.9H4c-0.4,0-0.8-0.4-0.8-0.8V4
		c0-0.4,0.4-0.8,0.8-0.8h15.1v10.3c0,2.2,1.8,4,4,4h12.7v24.6C35.9,42.5,35.5,42.9,35.1,42.9z"/>
	<rect x="6.8" y="33.4" class="st0" width="25.5" height="4.8"/>
</g>
</svg>
