<?xml version="1.0" encoding="utf-8"?>
<!-- Generator: Adobe Illustrator 23.0.1, SVG Export Plug-In . SVG Version: 6.00 Build 0)  -->
<svg version="1.1" id="Layer_1" xmlns="http://www.w3.org/2000/svg" xmlns:xlink="http://www.w3.org/1999/xlink" x="0px" y="0px"
	 viewBox="0 0 19 13" style="enable-background:new 0 0 19 13;" xml:space="preserve">
<style type="text/css">
	.st0{fill:#FFFFFF;}
</style>
<g>
	<g>
		<path class="st0" d="M16.53,9.5c-1.18,1.41-2.47,2.43-3.87,3.07L12.2,11.6c1.73-1,2.93-2.17,3.61-3.51
			c0.34-0.67,0.51-1.28,0.51-1.84c0-0.18-0.05-0.33-0.15-0.45c-0.1-0.12-0.27-0.18-0.51-0.18c-1.06,0.11-1.63,0.17-1.71,0.17
			c-0.6,0-1.2-0.22-1.79-0.65c-0.59-0.43-0.89-1.07-0.89-1.92c0-0.67,0.23-1.31,0.7-1.94c0.46-0.63,1.24-0.94,2.33-0.94
			c1.17,0,2.13,0.45,2.88,1.36c0.75,0.91,1.12,1.93,1.12,3.07C18.3,6.52,17.71,8.09,16.53,9.5z"/>
	</g>
	<g>
		<path class="st0" d="M5.53,9.5c-1.18,1.41-2.47,2.43-3.87,3.07L1.2,11.6c1.73-1,2.93-2.17,3.61-3.51
			c0.34-0.67,0.51-1.28,0.51-1.84c0-0.18-0.05-0.33-0.15-0.45c-0.1-0.12-0.27-0.18-0.51-0.18C3.61,5.73,3.04,5.79,2.96,5.79
			c-0.6,0-1.2-0.22-1.79-0.65C0.57,4.71,0.27,4.07,0.27,3.22c0-0.67,0.23-1.31,0.7-1.94C1.43,0.66,2.21,0.34,3.3,0.34
			c1.17,0,2.13,0.45,2.88,1.36C6.93,2.61,7.3,3.63,7.3,4.77C7.3,6.52,6.71,8.09,5.53,9.5z"/>
	</g>
</g>
</svg>
