<?xml version="1.0" encoding="utf-8"?>
<!-- Generator: Adobe Illustrator 23.0.1, SVG Export Plug-In . SVG Version: 6.00 Build 0)  -->
<svg version="1.1" id="Layer_1" xmlns="http://www.w3.org/2000/svg" xmlns:xlink="http://www.w3.org/1999/xlink" x="0px" y="0px"
	 viewBox="0 0 19 13" style="enable-background:new 0 0 19 13;" xml:space="preserve">
<style type="text/css">
	.st0{fill:#FFFFFF;}
</style>
<g>
	<g>
		<path class="st0" d="M2.04,3.41C3.22,2,4.51,0.98,5.91,0.34l0.46,0.98c-1.73,1-2.93,2.17-3.61,3.51C2.42,5.5,2.25,6.11,2.25,6.67
			c0,0.18,0.05,0.33,0.15,0.45C2.49,7.24,2.66,7.3,2.91,7.3c1.06-0.11,1.63-0.17,1.71-0.17c0.6,0,1.2,0.22,1.79,0.65
			C7,8.21,7.3,8.85,7.3,9.69c0,0.67-0.23,1.31-0.7,1.94c-0.46,0.63-1.24,0.94-2.33,0.94c-1.17,0-2.13-0.45-2.88-1.36
			c-0.75-0.91-1.12-1.93-1.12-3.07C0.27,6.4,0.86,4.82,2.04,3.41z"/>
	</g>
	<g>
		<path class="st0" d="M13.04,3.41c1.18-1.41,2.47-2.43,3.87-3.07l0.46,0.98c-1.73,1-2.93,2.17-3.61,3.51
			c-0.34,0.67-0.51,1.28-0.51,1.84c0,0.18,0.05,0.33,0.15,0.45c0.1,0.12,0.27,0.18,0.51,0.18c1.06-0.11,1.63-0.17,1.71-0.17
			c0.6,0,1.2,0.22,1.79,0.65C18,8.21,18.3,8.85,18.3,9.69c0,0.67-0.23,1.31-0.7,1.94c-0.46,0.63-1.24,0.94-2.33,0.94
			c-1.17,0-2.13-0.45-2.88-1.36c-0.75-0.91-1.12-1.93-1.12-3.07C11.27,6.4,11.86,4.82,13.04,3.41z"/>
	</g>
</g>
</svg>
