<?xml version="1.0" standalone="no"?>
<!DOCTYPE svg PUBLIC "-//W3C//DTD SVG 20010904//EN"
 "http://www.w3.org/TR/2001/REC-SVG-20010904/DTD/svg10.dtd">
<svg version="1.0" xmlns="http://www.w3.org/2000/svg"
 width="260.000000pt" height="260.000000pt" viewBox="0 0 260.000000 260.000000"
 preserveAspectRatio="xMidYMid meet">
<metadata>
Created by potrace 1.11, written by Peter Selinger 2001-2013
</metadata>
<g transform="translate(0.000000,260.000000) scale(0.100000,-0.100000)"
fill="#000000" stroke="none">
<path d="M0 1300 l0 -1300 1300 0 1300 0 0 1300 0 1300 -1300 0 -1300 0 0
-1300z m1120 760 c0 -19 -7 -20 -95 -20 l-95 0 0 -305 0 -305 370 0 370 0 0
305 0 305 -101 0 c-90 0 -100 2 -97 18 3 16 25 17 293 17 268 0 290 -1 293
-17 3 -16 -6 -18 -87 -18 l-91 0 0 -735 0 -734 87 -3 c74 -3 88 -6 91 -21 3
-16 -16 -17 -293 -17 -277 0 -296 1 -293 18 3 14 17 17 101 20 l97 3 0 409 0
410 -370 0 -370 0 0 -410 0 -410 95 0 c88 0 95 -1 95 -20 0 -20 -7 -20 -290
-20 -283 0 -290 0 -290 20 0 19 7 20 90 20 l90 0 0 735 0 735 -90 0 c-68 0
-90 3 -90 13 0 8 3 17 7 20 3 4 134 7 290 7 276 0 283 0 283 -20z"/>
</g>
</svg>
